  0
SECTION
  2
HEADER
  9
$ANGBASE
  50
0.0
  9
$ANGDIR
  70
1
  9
$MEASUREMENT
  70
1
  0
ENDSEC
  0
SECTION
  2
TABLES
  0
TABLE
  2
LTYPE
  70
4
  0
LTYPE
  5
40F
  2
CONTINUOUS
  70
0
  3
Solid line
  72
65
  73
0
  40
0.0
  0
LTYPE
  5
410
  2
DASHDOT
 70
0
  3
Dash Dot ____ _ ____ _
 72
65
 73
4
 40
2.0
 49
1.25
 49
-0.25
 49
0.25
 49
-0.25
  0
LTYPE
  5
411
  2
DASHED
 70
0
  3
Dashed __ __ __ __ __
 72
65
 73
2
 40
0.75
 49
0.5
 49
-0.25
  0
LTYPE
  5
43B
  2
DOTTED
 70
0
  3
Dotted .  .  .  .
 72
65
 73
2
 40
0.2
 49
0.0
 49
-0.2
  0
ENDTAB
  0
TABLE
  2
STYLE
  70
4
  0
STYLE
  2
KICAD
  70
0
  40
0
  41
1
  42
1
  50
0
  71
0
  3
isocp.shx
  0
STYLE
  2
KICADB
  70
0
  40
0
  41
1
  42
1
  50
0
  71
0
  3
isocp.shx
  0
STYLE
  2
KICADI
  70
0
  40
0
  41
1
  42
1
  50
15
  71
0
  3
isocp.shx
  0
STYLE
  2
KICADBI
  70
0
  40
0
  41
1
  42
1
  50
15
  71
0
  3
isocp.shx
  0
ENDTAB
  0
TABLE
  2
LAYER
  70
1
  0
LAYER
  2
BLACK
  70
0
  62
7
  6
CONTINUOUS
  0
ENDTAB
  0
ENDSEC
  0
SECTION
  2
ENTITIES
0
LINE
8
BLACK
6
CONTINUOUS
10
155.2754659999999944
20
-116.6026029999999878
11
155.4515659999999855
21
-116.6598219999999912
0
LINE
8
BLACK
6
CONTINUOUS
10
155.4515659999999855
20
-116.6598219999999912
11
155.6165479999999945
21
-116.7438849999999917
0
LINE
8
BLACK
6
CONTINUOUS
10
155.6165479999999945
20
-116.7438849999999917
11
155.7663489999999911
21
-116.8527209999999883
0
LINE
8
BLACK
6
CONTINUOUS
10
155.7663489999999911
20
-116.8527209999999883
11
155.8972789999999975
21
-116.9836509999999947
0
LINE
8
BLACK
6
CONTINUOUS
10
155.8972789999999975
20
-116.9836509999999947
11
156.0061149999999941
21
-117.1334519999999912
0
LINE
8
BLACK
6
CONTINUOUS
10
156.0061149999999941
20
-117.1334519999999912
11
156.0901779999999803
21
-117.2984340000000003
0
LINE
8
BLACK
6
CONTINUOUS
10
156.0901779999999803
20
-117.2984340000000003
11
156.1473969999999838
21
-117.4745339999999914
0
LINE
8
BLACK
6
CONTINUOUS
10
156.1473969999999838
20
-117.4745339999999914
11
156.1763619999999833
21
-117.6574179999999927
0
LINE
8
BLACK
6
CONTINUOUS
10
156.1763619999999833
20
-117.6574179999999927
11
156.1763619999999833
21
-117.8425819999999931
0
LINE
8
BLACK
6
CONTINUOUS
10
156.1763619999999833
20
-117.8425819999999931
11
156.1473969999999838
21
-118.0254659999999944
0
LINE
8
BLACK
6
CONTINUOUS
10
156.1473969999999838
20
-118.0254659999999944
11
156.0901779999999803
21
-118.2015659999999997
0
LINE
8
BLACK
6
CONTINUOUS
10
156.0901779999999803
20
-118.2015659999999997
11
156.0061149999999941
21
-118.3665479999999945
0
LINE
8
BLACK
6
CONTINUOUS
10
156.0061149999999941
20
-118.3665479999999945
11
155.8972789999999975
21
-118.5163489999999911
0
LINE
8
BLACK
6
CONTINUOUS
10
155.8972789999999975
20
-118.5163489999999911
11
155.7663489999999911
21
-118.6472789999999975
0
LINE
8
BLACK
6
CONTINUOUS
10
155.7663489999999911
20
-118.6472789999999975
11
155.6165479999999945
21
-118.7561149999999941
0
LINE
8
BLACK
6
CONTINUOUS
10
155.6165479999999945
20
-118.7561149999999941
11
155.4515659999999855
21
-118.8401779999999945
0
LINE
8
BLACK
6
CONTINUOUS
10
155.4515659999999855
20
-118.8401779999999945
11
155.2754659999999944
21
-118.897396999999998
0
LINE
8
BLACK
6
CONTINUOUS
10
155.2754659999999944
20
-118.897396999999998
11
155.0925819999999931
21
-118.9263619999999975
0
LINE
8
BLACK
6
CONTINUOUS
10
155.0925819999999931
20
-118.9263619999999975
11
154.9074180000000069
21
-118.9263619999999975
0
LINE
8
BLACK
6
CONTINUOUS
10
154.9074180000000069
20
-118.9263619999999975
11
154.7245340000000056
21
-118.897396999999998
0
LINE
8
BLACK
6
CONTINUOUS
10
154.7245340000000056
20
-118.897396999999998
11
154.5484339999999861
21
-118.8401779999999945
0
LINE
8
BLACK
6
CONTINUOUS
10
154.5484339999999861
20
-118.8401779999999945
11
154.3834520000000055
21
-118.7561149999999941
0
LINE
8
BLACK
6
CONTINUOUS
10
154.3834520000000055
20
-118.7561149999999941
11
154.2336509999999805
21
-118.6472789999999975
0
LINE
8
BLACK
6
CONTINUOUS
10
154.2336509999999805
20
-118.6472789999999975
11
154.1027210000000025
21
-118.5163489999999911
0
LINE
8
BLACK
6
CONTINUOUS
10
154.1027210000000025
20
-118.5163489999999911
11
153.9938850000000059
21
-118.3665479999999945
0
LINE
8
BLACK
6
CONTINUOUS
10
153.9938850000000059
20
-118.3665479999999945
11
153.9098219999999912
21
-118.2015659999999997
0
LINE
8
BLACK
6
CONTINUOUS
10
153.9098219999999912
20
-118.2015659999999997
11
153.8526029999999878
21
-118.0254659999999944
0
LINE
8
BLACK
6
CONTINUOUS
10
153.8526029999999878
20
-118.0254659999999944
11
153.8236379999999883
21
-117.8425819999999931
0
LINE
8
BLACK
6
CONTINUOUS
10
153.8236379999999883
20
-117.8425819999999931
11
153.8236379999999883
21
-117.6574179999999927
0
LINE
8
BLACK
6
CONTINUOUS
10
153.8236379999999883
20
-117.6574179999999927
11
153.8526029999999878
21
-117.4745339999999914
0
LINE
8
BLACK
6
CONTINUOUS
10
153.8526029999999878
20
-117.4745339999999914
11
153.9098219999999912
21
-117.2984340000000003
0
LINE
8
BLACK
6
CONTINUOUS
10
153.9098219999999912
20
-117.2984340000000003
11
153.9938850000000059
21
-117.1334519999999912
0
LINE
8
BLACK
6
CONTINUOUS
10
153.9938850000000059
20
-117.1334519999999912
11
154.1027210000000025
21
-116.9836509999999947
0
LINE
8
BLACK
6
CONTINUOUS
10
154.1027210000000025
20
-116.9836509999999947
11
154.2336509999999805
21
-116.8527209999999883
0
LINE
8
BLACK
6
CONTINUOUS
10
154.2336509999999805
20
-116.8527209999999883
11
154.3834520000000055
21
-116.7438849999999917
0
LINE
8
BLACK
6
CONTINUOUS
10
154.3834520000000055
20
-116.7438849999999917
11
154.5484339999999861
21
-116.6598219999999912
0
LINE
8
BLACK
6
CONTINUOUS
10
154.5484339999999861
20
-116.6598219999999912
11
154.7245340000000056
21
-116.6026029999999878
0
LINE
8
BLACK
6
CONTINUOUS
10
154.7245340000000056
20
-116.6026029999999878
11
154.9074180000000069
21
-116.5736379999999883
0
LINE
8
BLACK
6
CONTINUOUS
10
154.9074180000000069
20
-116.5736379999999883
11
155.0925819999999931
21
-116.5736379999999883
0
LINE
8
BLACK
6
CONTINUOUS
10
155.0925819999999931
20
-116.5736379999999883
11
155.2754659999999944
21
-116.6026029999999878
0
LINE
8
BLACK
6
CONTINUOUS
10
151.0659689999999955
20
-117.0550709999999981
11
151.3441239999999937
21
-117.1674529999999947
0
LINE
8
BLACK
6
CONTINUOUS
10
151.3441239999999937
20
-117.1674529999999947
11
151.4191739999999982
21
-117.2166579999999954
0
LINE
8
BLACK
6
CONTINUOUS
10
151.4191739999999982
20
-117.2166579999999954
11
151.4696820000000059
21
-117.2908369999999962
0
LINE
8
BLACK
6
CONTINUOUS
10
151.4696820000000059
20
-117.2908369999999962
11
151.4879559999999969
21
-117.378698
0
LINE
8
BLACK
6
CONTINUOUS
10
151.4879559999999969
20
-117.378698
11
151.4712169999999958
21
-117.4668649999999985
0
LINE
8
BLACK
6
CONTINUOUS
10
151.4712169999999958
20
-117.4668649999999985
11
151.0310539999999833
21
-118.5563059999999922
0
LINE
8
BLACK
6
CONTINUOUS
10
151.0310539999999833
20
-118.5563059999999922
11
150.9818499999999801
21
-118.6313549999999992
0
LINE
8
BLACK
6
CONTINUOUS
10
150.9818499999999801
20
-118.6313549999999992
11
150.9076709999999935
21
-118.6818629999999928
0
LINE
8
BLACK
6
CONTINUOUS
10
150.9076709999999935
20
-118.6818629999999928
11
150.8198089999999922
21
-118.700136999999998
0
LINE
8
BLACK
6
CONTINUOUS
10
150.8198089999999922
20
-118.700136999999998
11
150.7316429999999912
21
-118.6833989999999943
0
LINE
8
BLACK
6
CONTINUOUS
10
150.7316429999999912
20
-118.6833989999999943
11
150.453487999999993
21
-118.5710169999999977
0
LINE
8
BLACK
6
CONTINUOUS
10
150.453487999999993
20
-118.5710169999999977
11
150.3784379999999885
21
-118.5218119999999971
0
LINE
8
BLACK
6
CONTINUOUS
10
150.3784379999999885
20
-118.5218119999999971
11
150.3279299999999807
21
-118.4476329999999962
0
LINE
8
BLACK
6
CONTINUOUS
10
150.3279299999999807
20
-118.4476329999999962
11
150.3096559999999897
21
-118.3597719999999924
0
LINE
8
BLACK
6
CONTINUOUS
10
150.3096559999999897
20
-118.3597719999999924
11
150.3263949999999909
21
-118.2716049999999939
0
LINE
8
BLACK
6
CONTINUOUS
10
150.3263949999999909
20
-118.2716049999999939
11
150.7665580000000034
21
-117.1821640000000002
0
LINE
8
BLACK
6
CONTINUOUS
10
150.7665580000000034
20
-117.1821640000000002
11
150.8157620000000065
21
-117.1071149999999932
0
LINE
8
BLACK
6
CONTINUOUS
10
150.8157620000000065
20
-117.1071149999999932
11
150.8899409999999932
21
-117.0566069999999996
0
LINE
8
BLACK
6
CONTINUOUS
10
150.8899409999999932
20
-117.0566069999999996
11
150.9778029999999944
21
-117.0383329999999944
0
LINE
8
BLACK
6
CONTINUOUS
10
150.9778029999999944
20
-117.0383329999999944
11
151.0659689999999955
21
-117.0550709999999981
0
LINE
8
BLACK
6
CONTINUOUS
10
158.998944999999992
20
-117.1359239999999886
11
159.100529999999992
21
-117.1832939999999894
0
LINE
8
BLACK
6
CONTINUOUS
10
159.100529999999992
20
-117.1832939999999894
11
159.1781440000000032
21
-117.2641619999999989
0
LINE
8
BLACK
6
CONTINUOUS
10
159.1781440000000032
20
-117.2641619999999989
11
159.209639999999979
21
-117.3270100000000014
0
LINE
8
BLACK
6
CONTINUOUS
10
159.209639999999979
20
-117.3270100000000014
11
159.3635490000000061
21
-117.7498719999999963
0
LINE
8
BLACK
6
CONTINUOUS
10
159.3635490000000061
20
-117.7498719999999963
11
159.3798199999999952
21
-117.8182609999999926
0
LINE
8
BLACK
6
CONTINUOUS
10
159.3798199999999952
20
-117.8182609999999926
11
159.3723449999999957
21
-117.9300989999999985
0
LINE
8
BLACK
6
CONTINUOUS
10
159.3723449999999957
20
-117.9300989999999985
11
159.3249749999999949
21
-118.0316839999999985
0
LINE
8
BLACK
6
CONTINUOUS
10
159.3249749999999949
20
-118.0316839999999985
11
159.2441069999999854
21
-118.1092979999999955
0
LINE
8
BLACK
6
CONTINUOUS
10
159.2441069999999854
20
-118.1092979999999955
11
159.181258999999983
21
-118.1407939999999996
0
LINE
8
BLACK
6
CONTINUOUS
10
159.181258999999983
20
-118.1407939999999996
11
158.7114129999999932
21
-118.3118039999999951
0
LINE
8
BLACK
6
CONTINUOUS
10
158.7114129999999932
20
-118.3118039999999951
11
158.6430229999999995
21
-118.3280749999999983
0
LINE
8
BLACK
6
CONTINUOUS
10
158.6430229999999995
20
-118.3280749999999983
11
158.5311849999999936
21
-118.3205999999999989
0
LINE
8
BLACK
6
CONTINUOUS
10
158.5311849999999936
20
-118.3205999999999989
11
158.4295999999999935
21
-118.2732299999999981
0
LINE
8
BLACK
6
CONTINUOUS
10
158.4295999999999935
20
-118.2732299999999981
11
158.3519859999999824
21
-118.1923619999999886
0
LINE
8
BLACK
6
CONTINUOUS
10
158.3519859999999824
20
-118.1923619999999886
11
158.3204900000000066
21
-118.1295140000000004
0
LINE
8
BLACK
6
CONTINUOUS
10
158.3204900000000066
20
-118.1295140000000004
11
158.1665809999999794
21
-117.7066519999999912
0
LINE
8
BLACK
6
CONTINUOUS
10
158.1665809999999794
20
-117.7066519999999912
11
158.1503099999999904
21
-117.6382629999999949
0
LINE
8
BLACK
6
CONTINUOUS
10
158.1503099999999904
20
-117.6382629999999949
11
158.1577849999999899
21
-117.526424999999989
0
LINE
8
BLACK
6
CONTINUOUS
10
158.1577849999999899
20
-117.526424999999989
11
158.2051549999999907
21
-117.424839999999989
0
LINE
8
BLACK
6
CONTINUOUS
10
158.2051549999999907
20
-117.424839999999989
11
158.2860230000000001
21
-117.347225999999992
0
LINE
8
BLACK
6
CONTINUOUS
10
158.2860230000000001
20
-117.347225999999992
11
158.3488710000000026
21
-117.3157299999999879
0
LINE
8
BLACK
6
CONTINUOUS
10
158.3488710000000026
20
-117.3157299999999879
11
158.8187169999999924
21
-117.1447199999999924
0
LINE
8
BLACK
6
CONTINUOUS
10
158.8187169999999924
20
-117.1447199999999924
11
158.8871069999999861
21
-117.1284489999999892
0
LINE
8
BLACK
6
CONTINUOUS
10
158.8871069999999861
20
-117.1284489999999892
11
158.998944999999992
21
-117.1359239999999886
0
LINE
8
BLACK
6
CONTINUOUS
10
152.6491809999999987
20
-115.6724779999999981
11
152.9273359999999968
21
-115.7848599999999948
0
LINE
8
BLACK
6
CONTINUOUS
10
152.9273359999999968
20
-115.7848599999999948
11
153.0023860000000013
21
-115.8340649999999954
0
LINE
8
BLACK
6
CONTINUOUS
10
153.0023860000000013
20
-115.8340649999999954
11
153.0528939999999807
21
-115.9082439999999963
0
LINE
8
BLACK
6
CONTINUOUS
10
153.0528939999999807
20
-115.9082439999999963
11
153.0711680000000001
21
-115.996105
0
LINE
8
BLACK
6
CONTINUOUS
10
153.0711680000000001
20
-115.996105
11
153.054428999999999
21
-116.0842719999999986
0
LINE
8
BLACK
6
CONTINUOUS
10
153.054428999999999
20
-116.0842719999999986
11
152.6142659999999864
21
-117.1737129999999922
0
LINE
8
BLACK
6
CONTINUOUS
10
152.6142659999999864
20
-117.1737129999999922
11
152.5650619999999833
21
-117.2487619999999993
0
LINE
8
BLACK
6
CONTINUOUS
10
152.5650619999999833
20
-117.2487619999999993
11
152.4908829999999966
21
-117.2992699999999928
0
LINE
8
BLACK
6
CONTINUOUS
10
152.4908829999999966
20
-117.2992699999999928
11
152.4030209999999954
21
-117.3175439999999981
0
LINE
8
BLACK
6
CONTINUOUS
10
152.4030209999999954
20
-117.3175439999999981
11
152.3148549999999943
21
-117.3008059999999944
0
LINE
8
BLACK
6
CONTINUOUS
10
152.3148549999999943
20
-117.3008059999999944
11
152.0366999999999962
21
-117.1884239999999977
0
LINE
8
BLACK
6
CONTINUOUS
10
152.0366999999999962
20
-117.1884239999999977
11
151.9616499999999917
21
-117.1392189999999971
0
LINE
8
BLACK
6
CONTINUOUS
10
151.9616499999999917
20
-117.1392189999999971
11
151.9111419999999839
21
-117.0650399999999962
0
LINE
8
BLACK
6
CONTINUOUS
10
151.9111419999999839
20
-117.0650399999999962
11
151.8928679999999929
21
-116.9771789999999925
0
LINE
8
BLACK
6
CONTINUOUS
10
151.8928679999999929
20
-116.9771789999999925
11
151.9096069999999941
21
-116.8890119999999939
0
LINE
8
BLACK
6
CONTINUOUS
10
151.9096069999999941
20
-116.8890119999999939
11
152.3497700000000066
21
-115.7995710000000003
0
LINE
8
BLACK
6
CONTINUOUS
10
152.3497700000000066
20
-115.7995710000000003
11
152.3989739999999813
21
-115.7245219999999932
0
LINE
8
BLACK
6
CONTINUOUS
10
152.3989739999999813
20
-115.7245219999999932
11
152.4731529999999964
21
-115.6740139999999997
0
LINE
8
BLACK
6
CONTINUOUS
10
152.4731529999999964
20
-115.6740139999999997
11
152.5610149999999976
21
-115.6557399999999944
0
LINE
8
BLACK
6
CONTINUOUS
10
152.5610149999999976
20
-115.6557399999999944
11
152.6491809999999987
21
-115.6724779999999981
0
LINE
8
BLACK
6
CONTINUOUS
10
162.1838819999999828
20
-115.5520420000000001
11
162.2567139999999881
21
-115.6044729999999987
0
LINE
8
BLACK
6
CONTINUOUS
10
162.2567139999999881
20
-115.6044729999999987
11
162.4613139999999873
21
-115.8238789999999909
0
LINE
8
BLACK
6
CONTINUOUS
10
162.4613139999999873
20
-115.8238789999999909
11
162.5085369999999898
21
-115.9001909999999924
0
LINE
8
BLACK
6
CONTINUOUS
10
162.5085369999999898
20
-115.9001909999999924
11
162.5229630000000043
21
-115.9887659999999983
0
LINE
8
BLACK
6
CONTINUOUS
10
162.5229630000000043
20
-115.9887659999999983
11
162.5023929999999837
21
-116.0761179999999939
0
LINE
8
BLACK
6
CONTINUOUS
10
162.5023929999999837
20
-116.0761179999999939
11
162.4499619999999993
21
-116.1489499999999992
0
LINE
8
BLACK
6
CONTINUOUS
10
162.4499619999999993
20
-116.1489499999999992
11
161.7003249999999923
21
-116.8479990000000015
0
LINE
8
BLACK
6
CONTINUOUS
10
161.7003249999999923
20
-116.8479990000000015
11
161.6240129999999908
21
-116.8952209999999923
0
LINE
8
BLACK
6
CONTINUOUS
10
161.6240129999999908
20
-116.8952209999999923
11
161.5354379999999992
21
-116.90964799999999
0
LINE
8
BLACK
6
CONTINUOUS
10
161.5354379999999992
20
-116.90964799999999
11
161.4480859999999893
21
-116.8890779999999978
0
LINE
8
BLACK
6
CONTINUOUS
10
161.4480859999999893
20
-116.8890779999999978
11
161.375253999999984
21
-116.8366469999999993
0
LINE
8
BLACK
6
CONTINUOUS
10
161.375253999999984
20
-116.8366469999999993
11
161.1706539999999848
21
-116.6172409999999928
0
LINE
8
BLACK
6
CONTINUOUS
10
161.1706539999999848
20
-116.6172409999999928
11
161.1234309999999823
21
-116.5409289999999913
0
LINE
8
BLACK
6
CONTINUOUS
10
161.1234309999999823
20
-116.5409289999999913
11
161.1090049999999962
21
-116.4523539999999997
0
LINE
8
BLACK
6
CONTINUOUS
10
161.1090049999999962
20
-116.4523539999999997
11
161.1295749999999884
21
-116.3650019999999898
0
LINE
8
BLACK
6
CONTINUOUS
10
161.1295749999999884
20
-116.3650019999999898
11
161.1820060000000012
21
-116.2921699999999987
0
LINE
8
BLACK
6
CONTINUOUS
10
161.1820060000000012
20
-116.2921699999999987
11
161.9316429999999798
21
-115.5931209999999965
0
LINE
8
BLACK
6
CONTINUOUS
10
161.9316429999999798
20
-115.5931209999999965
11
162.0079549999999813
21
-115.5458989999999915
0
LINE
8
BLACK
6
CONTINUOUS
10
162.0079549999999813
20
-115.5458989999999915
11
162.0965300000000013
21
-115.5314719999999937
0
LINE
8
BLACK
6
CONTINUOUS
10
162.0965300000000013
20
-115.5314719999999937
11
162.1838819999999828
21
-115.5520420000000001
0
LINE
8
BLACK
6
CONTINUOUS
10
158.4688150000000064
20
-115.6794000000000011
11
158.5704000000000065
21
-115.7267699999999877
0
LINE
8
BLACK
6
CONTINUOUS
10
158.5704000000000065
20
-115.7267699999999877
11
158.6480139999999892
21
-115.8076379999999972
0
LINE
8
BLACK
6
CONTINUOUS
10
158.6480139999999892
20
-115.8076379999999972
11
158.6795099999999934
21
-115.8704859999999996
0
LINE
8
BLACK
6
CONTINUOUS
10
158.6795099999999934
20
-115.8704859999999996
11
158.8334189999999921
21
-116.2933479999999946
0
LINE
8
BLACK
6
CONTINUOUS
10
158.8334189999999921
20
-116.2933479999999946
11
158.8496899999999812
21
-116.3617369999999909
0
LINE
8
BLACK
6
CONTINUOUS
10
158.8496899999999812
20
-116.3617369999999909
11
158.8422149999999817
21
-116.4735749999999967
0
LINE
8
BLACK
6
CONTINUOUS
10
158.8422149999999817
20
-116.4735749999999967
11
158.7948449999999809
21
-116.5751599999999968
0
LINE
8
BLACK
6
CONTINUOUS
10
158.7948449999999809
20
-116.5751599999999968
11
158.7139769999999999
21
-116.6527739999999937
0
LINE
8
BLACK
6
CONTINUOUS
10
158.7139769999999999
20
-116.6527739999999937
11
158.6511289999999974
21
-116.6842699999999979
0
LINE
8
BLACK
6
CONTINUOUS
10
158.6511289999999974
20
-116.6842699999999979
11
158.1812829999999792
21
-116.8552799999999934
0
LINE
8
BLACK
6
CONTINUOUS
10
158.1812829999999792
20
-116.8552799999999934
11
158.1128929999999855
21
-116.8715509999999966
0
LINE
8
BLACK
6
CONTINUOUS
10
158.1128929999999855
20
-116.8715509999999966
11
158.0010549999999796
21
-116.8640759999999972
0
LINE
8
BLACK
6
CONTINUOUS
10
158.0010549999999796
20
-116.8640759999999972
11
157.8994699999999796
21
-116.8167059999999964
0
LINE
8
BLACK
6
CONTINUOUS
10
157.8994699999999796
20
-116.8167059999999964
11
157.8218559999999968
21
-116.7358380000000011
0
LINE
8
BLACK
6
CONTINUOUS
10
157.8218559999999968
20
-116.7358380000000011
11
157.7903599999999926
21
-116.6729899999999986
0
LINE
8
BLACK
6
CONTINUOUS
10
157.7903599999999926
20
-116.6729899999999986
11
157.6364509999999939
21
-116.2501279999999895
0
LINE
8
BLACK
6
CONTINUOUS
10
157.6364509999999939
20
-116.2501279999999895
11
157.6201800000000048
21
-116.1817389999999932
0
LINE
8
BLACK
6
CONTINUOUS
10
157.6201800000000048
20
-116.1817389999999932
11
157.6276550000000043
21
-116.0699010000000015
0
LINE
8
BLACK
6
CONTINUOUS
10
157.6276550000000043
20
-116.0699010000000015
11
157.6750250000000051
21
-115.9683160000000015
0
LINE
8
BLACK
6
CONTINUOUS
10
157.6750250000000051
20
-115.9683160000000015
11
157.7558929999999862
21
-115.8907019999999903
0
LINE
8
BLACK
6
CONTINUOUS
10
157.7558929999999862
20
-115.8907019999999903
11
157.8187409999999886
21
-115.8592060000000004
0
LINE
8
BLACK
6
CONTINUOUS
10
157.8187409999999886
20
-115.8592060000000004
11
158.2885870000000068
21
-115.6881959999999907
0
LINE
8
BLACK
6
CONTINUOUS
10
158.2885870000000068
20
-115.6881959999999907
11
158.3569770000000005
21
-115.6719250000000017
0
LINE
8
BLACK
6
CONTINUOUS
10
158.3569770000000005
20
-115.6719250000000017
11
158.4688150000000064
21
-115.6794000000000011
0
LINE
8
BLACK
6
CONTINUOUS
10
150.8875319999999931
20
-114.9607249999999965
11
151.1656869999999913
21
-115.0731069999999931
0
LINE
8
BLACK
6
CONTINUOUS
10
151.1656869999999913
20
-115.0731069999999931
11
151.2407369999999958
21
-115.1223119999999938
0
LINE
8
BLACK
6
CONTINUOUS
10
151.2407369999999958
20
-115.1223119999999938
11
151.2912450000000035
21
-115.1964909999999946
0
LINE
8
BLACK
6
CONTINUOUS
10
151.2912450000000035
20
-115.1964909999999946
11
151.3095189999999945
21
-115.2843519999999984
0
LINE
8
BLACK
6
CONTINUOUS
10
151.3095189999999945
20
-115.2843519999999984
11
151.2927799999999934
21
-115.3725189999999969
0
LINE
8
BLACK
6
CONTINUOUS
10
151.2927799999999934
20
-115.3725189999999969
11
150.8526169999999809
21
-116.4619599999999906
0
LINE
8
BLACK
6
CONTINUOUS
10
150.8526169999999809
20
-116.4619599999999906
11
150.8034130000000062
21
-116.5370089999999976
0
LINE
8
BLACK
6
CONTINUOUS
10
150.8034130000000062
20
-116.5370089999999976
11
150.7292339999999911
21
-116.5875169999999912
0
LINE
8
BLACK
6
CONTINUOUS
10
150.7292339999999911
20
-116.5875169999999912
11
150.6413719999999898
21
-116.6057909999999964
0
LINE
8
BLACK
6
CONTINUOUS
10
150.6413719999999898
20
-116.6057909999999964
11
150.5532059999999888
21
-116.5890529999999927
0
LINE
8
BLACK
6
CONTINUOUS
10
150.5532059999999888
20
-116.5890529999999927
11
150.2750509999999906
21
-116.4766709999999961
0
LINE
8
BLACK
6
CONTINUOUS
10
150.2750509999999906
20
-116.4766709999999961
11
150.2000009999999861
21
-116.4274659999999955
0
LINE
8
BLACK
6
CONTINUOUS
10
150.2000009999999861
20
-116.4274659999999955
11
150.1494930000000068
21
-116.3532869999999946
0
LINE
8
BLACK
6
CONTINUOUS
10
150.1494930000000068
20
-116.3532869999999946
11
150.1312189999999873
21
-116.2654259999999908
0
LINE
8
BLACK
6
CONTINUOUS
10
150.1312189999999873
20
-116.2654259999999908
11
150.1479579999999885
21
-116.1772589999999923
0
LINE
8
BLACK
6
CONTINUOUS
10
150.1479579999999885
20
-116.1772589999999923
11
150.588121000000001
21
-115.0878179999999986
0
LINE
8
BLACK
6
CONTINUOUS
10
150.588121000000001
20
-115.0878179999999986
11
150.6373250000000041
21
-115.0127689999999916
0
LINE
8
BLACK
6
CONTINUOUS
10
150.6373250000000041
20
-115.0127689999999916
11
150.7115039999999908
21
-114.962260999999998
0
LINE
8
BLACK
6
CONTINUOUS
10
150.7115039999999908
20
-114.962260999999998
11
150.799365999999992
21
-114.9439869999999928
0
LINE
8
BLACK
6
CONTINUOUS
10
150.799365999999992
20
-114.9439869999999928
11
150.8875319999999931
21
-114.9607249999999965
0
LINE
8
BLACK
6
CONTINUOUS
10
161.5359829999999874
20
-114.857254999999995
11
161.6088149999999928
21
-114.9096859999999936
0
LINE
8
BLACK
6
CONTINUOUS
10
161.6088149999999928
20
-114.9096859999999936
11
161.813414999999992
21
-115.129092
0
LINE
8
BLACK
6
CONTINUOUS
10
161.813414999999992
20
-115.129092
11
161.8606379999999945
21
-115.2054040000000015
0
LINE
8
BLACK
6
CONTINUOUS
10
161.8606379999999945
20
-115.2054040000000015
11
161.8750639999999805
21
-115.2939789999999931
0
LINE
8
BLACK
6
CONTINUOUS
10
161.8750639999999805
20
-115.2939789999999931
11
161.8544939999999883
21
-115.3813309999999888
0
LINE
8
BLACK
6
CONTINUOUS
10
161.8544939999999883
20
-115.3813309999999888
11
161.802063000000004
21
-115.4541629999999941
0
LINE
8
BLACK
6
CONTINUOUS
10
161.802063000000004
20
-115.4541629999999941
11
161.052425999999997
21
-116.1532119999999964
0
LINE
8
BLACK
6
CONTINUOUS
10
161.052425999999997
20
-116.1532119999999964
11
160.9761139999999955
21
-116.2004340000000013
0
LINE
8
BLACK
6
CONTINUOUS
10
160.9761139999999955
20
-116.2004340000000013
11
160.8875390000000039
21
-116.2148609999999991
0
LINE
8
BLACK
6
CONTINUOUS
10
160.8875390000000039
20
-116.2148609999999991
11
160.800186999999994
21
-116.1942909999999927
0
LINE
8
BLACK
6
CONTINUOUS
10
160.800186999999994
20
-116.1942909999999927
11
160.7273549999999886
21
-116.1418599999999941
0
LINE
8
BLACK
6
CONTINUOUS
10
160.7273549999999886
20
-116.1418599999999941
11
160.5227549999999894
21
-115.9224539999999877
0
LINE
8
BLACK
6
CONTINUOUS
10
160.5227549999999894
20
-115.9224539999999877
11
160.475531999999987
21
-115.8461420000000004
0
LINE
8
BLACK
6
CONTINUOUS
10
160.475531999999987
20
-115.8461420000000004
11
160.4611060000000009
21
-115.7575669999999946
0
LINE
8
BLACK
6
CONTINUOUS
10
160.4611060000000009
20
-115.7575669999999946
11
160.4816759999999931
21
-115.6702149999999989
0
LINE
8
BLACK
6
CONTINUOUS
10
160.4816759999999931
20
-115.6702149999999989
11
160.5341070000000059
21
-115.5973829999999936
0
LINE
8
BLACK
6
CONTINUOUS
10
160.5341070000000059
20
-115.5973829999999936
11
161.2837439999999845
21
-114.8983339999999913
0
LINE
8
BLACK
6
CONTINUOUS
10
161.2837439999999845
20
-114.8983339999999913
11
161.3600559999999859
21
-114.8511120000000005
0
LINE
8
BLACK
6
CONTINUOUS
10
161.3600559999999859
20
-114.8511120000000005
11
161.448631000000006
21
-114.8366849999999886
0
LINE
8
BLACK
6
CONTINUOUS
10
161.448631000000006
20
-114.8366849999999886
11
161.5359829999999874
21
-114.857254999999995
0
LINE
8
BLACK
6
CONTINUOUS
10
147.2344640000000027
20
-114.428929999999994
11
147.3090819999999894
21
-114.478786999999997
0
LINE
8
BLACK
6
CONTINUOUS
10
147.3090819999999894
20
-114.478786999999997
11
147.5212139999999863
21
-114.6909189999999938
0
LINE
8
BLACK
6
CONTINUOUS
10
147.5212139999999863
20
-114.6909189999999938
11
147.5710709999999892
21
-114.7655369999999948
0
LINE
8
BLACK
6
CONTINUOUS
10
147.5710709999999892
20
-114.7655369999999948
11
147.5885800000000074
21
-114.8535539999999884
0
LINE
8
BLACK
6
CONTINUOUS
10
147.5885800000000074
20
-114.8535539999999884
11
147.5710709999999892
21
-114.9415709999999962
0
LINE
8
BLACK
6
CONTINUOUS
10
147.5710709999999892
20
-114.9415709999999962
11
147.5212139999999863
21
-115.0161879999999996
0
LINE
8
BLACK
6
CONTINUOUS
10
147.5212139999999863
20
-115.0161879999999996
11
146.6903629999999907
21
-115.8470389999999952
0
LINE
8
BLACK
6
CONTINUOUS
10
146.6903629999999907
20
-115.8470389999999952
11
146.6157460000000015
21
-115.8968959999999981
0
LINE
8
BLACK
6
CONTINUOUS
10
146.6157460000000015
20
-115.8968959999999981
11
146.5277289999999937
21
-115.9144049999999879
0
LINE
8
BLACK
6
CONTINUOUS
10
146.5277289999999937
20
-115.9144049999999879
11
146.4397119999999859
21
-115.8968959999999981
0
LINE
8
BLACK
6
CONTINUOUS
10
146.4397119999999859
20
-115.8968959999999981
11
146.3650939999999991
21
-115.8470389999999952
0
LINE
8
BLACK
6
CONTINUOUS
10
146.3650939999999991
20
-115.8470389999999952
11
146.1529620000000023
21
-115.6349069999999983
0
LINE
8
BLACK
6
CONTINUOUS
10
146.1529620000000023
20
-115.6349069999999983
11
146.1031049999999993
21
-115.5602889999999974
0
LINE
8
BLACK
6
CONTINUOUS
10
146.1031049999999993
20
-115.5602889999999974
11
146.0855959999999811
21
-115.4722719999999896
0
LINE
8
BLACK
6
CONTINUOUS
10
146.0855959999999811
20
-115.4722719999999896
11
146.1031049999999993
21
-115.384254999999996
0
LINE
8
BLACK
6
CONTINUOUS
10
146.1031049999999993
20
-115.384254999999996
11
146.1529620000000023
21
-115.3096379999999925
0
LINE
8
BLACK
6
CONTINUOUS
10
146.1529620000000023
20
-115.3096379999999925
11
146.9838129999999978
21
-114.478786999999997
0
LINE
8
BLACK
6
CONTINUOUS
10
146.9838129999999978
20
-114.478786999999997
11
147.0584299999999871
21
-114.428929999999994
0
LINE
8
BLACK
6
CONTINUOUS
10
147.0584299999999871
20
-114.428929999999994
11
147.1464469999999949
21
-114.41142099999999
0
LINE
8
BLACK
6
CONTINUOUS
10
147.1464469999999949
20
-114.41142099999999
11
147.2344640000000027
21
-114.428929999999994
0
LINE
8
BLACK
6
CONTINUOUS
10
160.8880839999999921
20
-114.1624709999999965
11
160.9609159999999974
21
-114.214901999999995
0
LINE
8
BLACK
6
CONTINUOUS
10
160.9609159999999974
20
-114.214901999999995
11
161.1655159999999967
21
-114.4343080000000015
0
LINE
8
BLACK
6
CONTINUOUS
10
161.1655159999999967
20
-114.4343080000000015
11
161.2127389999999991
21
-114.5106199999999887
0
LINE
8
BLACK
6
CONTINUOUS
10
161.2127389999999991
20
-114.5106199999999887
11
161.2271649999999852
21
-114.5991949999999946
0
LINE
8
BLACK
6
CONTINUOUS
10
161.2271649999999852
20
-114.5991949999999946
11
161.206594999999993
21
-114.6865469999999902
0
LINE
8
BLACK
6
CONTINUOUS
10
161.206594999999993
20
-114.6865469999999902
11
161.1541639999999802
21
-114.7593789999999956
0
LINE
8
BLACK
6
CONTINUOUS
10
161.1541639999999802
20
-114.7593789999999956
11
160.4045270000000016
21
-115.4584279999999978
0
LINE
8
BLACK
6
CONTINUOUS
10
160.4045270000000016
20
-115.4584279999999978
11
160.3282150000000001
21
-115.5056499999999886
0
LINE
8
BLACK
6
CONTINUOUS
10
160.3282150000000001
20
-115.5056499999999886
11
160.2396399999999801
21
-115.5200770000000006
0
LINE
8
BLACK
6
CONTINUOUS
10
160.2396399999999801
20
-115.5200770000000006
11
160.1522879999999986
21
-115.4995069999999942
0
LINE
8
BLACK
6
CONTINUOUS
10
160.1522879999999986
20
-115.4995069999999942
11
160.0794559999999933
21
-115.4470759999999956
0
LINE
8
BLACK
6
CONTINUOUS
10
160.0794559999999933
20
-115.4470759999999956
11
159.8748559999999941
21
-115.2276699999999892
0
LINE
8
BLACK
6
CONTINUOUS
10
159.8748559999999941
20
-115.2276699999999892
11
159.8276329999999916
21
-115.1513580000000019
0
LINE
8
BLACK
6
CONTINUOUS
10
159.8276329999999916
20
-115.1513580000000019
11
159.8132070000000056
21
-115.062782999999996
0
LINE
8
BLACK
6
CONTINUOUS
10
159.8132070000000056
20
-115.062782999999996
11
159.8337769999999978
21
-114.9754310000000004
0
LINE
8
BLACK
6
CONTINUOUS
10
159.8337769999999978
20
-114.9754310000000004
11
159.8862079999999821
21
-114.902598999999995
0
LINE
8
BLACK
6
CONTINUOUS
10
159.8862079999999821
20
-114.902598999999995
11
160.6358449999999891
21
-114.2035499999999928
0
LINE
8
BLACK
6
CONTINUOUS
10
160.6358449999999891
20
-114.2035499999999928
11
160.7121569999999906
21
-114.1563279999999878
0
LINE
8
BLACK
6
CONTINUOUS
10
160.7121569999999906
20
-114.1563279999999878
11
160.8007319999999822
21
-114.1419009999999901
0
LINE
8
BLACK
6
CONTINUOUS
10
160.8007319999999822
20
-114.1419009999999901
11
160.8880839999999921
21
-114.1624709999999965
0
LINE
8
BLACK
6
CONTINUOUS
10
163.8477120000000014
20
-114.0004929999999916
11
163.9205440000000067
21
-114.0529239999999902
0
LINE
8
BLACK
6
CONTINUOUS
10
163.9205440000000067
20
-114.0529239999999902
11
164.1251440000000059
21
-114.2723299999999966
0
LINE
8
BLACK
6
CONTINUOUS
10
164.1251440000000059
20
-114.2723299999999966
11
164.17236699999998
21
-114.3486419999999981
0
LINE
8
BLACK
6
CONTINUOUS
10
164.17236699999998
20
-114.3486419999999981
11
164.1867929999999944
21
-114.4372169999999898
0
LINE
8
BLACK
6
CONTINUOUS
10
164.1867929999999944
20
-114.4372169999999898
11
164.1662230000000022
21
-114.5245689999999996
0
LINE
8
BLACK
6
CONTINUOUS
10
164.1662230000000022
20
-114.5245689999999996
11
164.1137919999999895
21
-114.5974009999999907
0
LINE
8
BLACK
6
CONTINUOUS
10
164.1137919999999895
20
-114.5974009999999907
11
163.3641549999999825
21
-115.296449999999993
0
LINE
8
BLACK
6
CONTINUOUS
10
163.3641549999999825
20
-115.296449999999993
11
163.287842999999981
21
-115.343671999999998
0
LINE
8
BLACK
6
CONTINUOUS
10
163.287842999999981
20
-115.343671999999998
11
163.1992679999999893
21
-115.3580989999999957
0
LINE
8
BLACK
6
CONTINUOUS
10
163.1992679999999893
20
-115.3580989999999957
11
163.1119159999999795
21
-115.3375289999999893
0
LINE
8
BLACK
6
CONTINUOUS
10
163.1119159999999795
20
-115.3375289999999893
11
163.0390840000000026
21
-115.2850979999999907
0
LINE
8
BLACK
6
CONTINUOUS
10
163.0390840000000026
20
-115.2850979999999907
11
162.8344840000000033
21
-115.0656919999999985
0
LINE
8
BLACK
6
CONTINUOUS
10
162.8344840000000033
20
-115.0656919999999985
11
162.7872610000000009
21
-114.989379999999997
0
LINE
8
BLACK
6
CONTINUOUS
10
162.7872610000000009
20
-114.989379999999997
11
162.7728349999999864
21
-114.9008049999999912
0
LINE
8
BLACK
6
CONTINUOUS
10
162.7728349999999864
20
-114.9008049999999912
11
162.7934049999999786
21
-114.8134529999999955
0
LINE
8
BLACK
6
CONTINUOUS
10
162.7934049999999786
20
-114.8134529999999955
11
162.8458359999999914
21
-114.7406209999999902
0
LINE
8
BLACK
6
CONTINUOUS
10
162.8458359999999914
20
-114.7406209999999902
11
163.5954729999999984
21
-114.041571999999988
0
LINE
8
BLACK
6
CONTINUOUS
10
163.5954729999999984
20
-114.041571999999988
11
163.6717849999999999
21
-113.9943499999999972
0
LINE
8
BLACK
6
CONTINUOUS
10
163.6717849999999999
20
-113.9943499999999972
11
163.7603599999999915
21
-113.9799229999999994
0
LINE
8
BLACK
6
CONTINUOUS
10
163.7603599999999915
20
-113.9799229999999994
11
163.8477120000000014
21
-114.0004929999999916
0
LINE
8
BLACK
6
CONTINUOUS
10
149.2320399999999836
20
-113.7748559999999998
11
149.3066579999999988
21
-113.8247129999999885
0
LINE
8
BLACK
6
CONTINUOUS
10
149.3066579999999988
20
-113.8247129999999885
11
149.5187899999999956
21
-114.0368449999999996
0
LINE
8
BLACK
6
CONTINUOUS
10
149.5187899999999956
20
-114.0368449999999996
11
149.5686469999999986
21
-114.1114630000000005
0
LINE
8
BLACK
6
CONTINUOUS
10
149.5686469999999986
20
-114.1114630000000005
11
149.5861559999999884
21
-114.1994799999999941
0
LINE
8
BLACK
6
CONTINUOUS
10
149.5861559999999884
20
-114.1994799999999941
11
149.5686469999999986
21
-114.2874970000000019
0
LINE
8
BLACK
6
CONTINUOUS
10
149.5686469999999986
20
-114.2874970000000019
11
149.5187899999999956
21
-114.3621139999999912
0
LINE
8
BLACK
6
CONTINUOUS
10
149.5187899999999956
20
-114.3621139999999912
11
148.6879390000000001
21
-115.1929650000000009
0
LINE
8
BLACK
6
CONTINUOUS
10
148.6879390000000001
20
-115.1929650000000009
11
148.6133219999999824
21
-115.2428219999999897
0
LINE
8
BLACK
6
CONTINUOUS
10
148.6133219999999824
20
-115.2428219999999897
11
148.525305000000003
21
-115.2603309999999937
0
LINE
8
BLACK
6
CONTINUOUS
10
148.525305000000003
20
-115.2603309999999937
11
148.4372879999999952
21
-115.2428219999999897
0
LINE
8
BLACK
6
CONTINUOUS
10
148.4372879999999952
20
-115.2428219999999897
11
148.3626699999999801
21
-115.1929650000000009
0
LINE
8
BLACK
6
CONTINUOUS
10
148.3626699999999801
20
-115.1929650000000009
11
148.1505379999999832
21
-114.9808329999999899
0
LINE
8
BLACK
6
CONTINUOUS
10
148.1505379999999832
20
-114.9808329999999899
11
148.1006809999999803
21
-114.9062149999999889
0
LINE
8
BLACK
6
CONTINUOUS
10
148.1006809999999803
20
-114.9062149999999889
11
148.0831719999999905
21
-114.8181979999999953
0
LINE
8
BLACK
6
CONTINUOUS
10
148.0831719999999905
20
-114.8181979999999953
11
148.1006809999999803
21
-114.7301810000000017
0
LINE
8
BLACK
6
CONTINUOUS
10
148.1006809999999803
20
-114.7301810000000017
11
148.1505379999999832
21
-114.6555639999999983
0
LINE
8
BLACK
6
CONTINUOUS
10
148.1505379999999832
20
-114.6555639999999983
11
148.9813890000000072
21
-113.8247129999999885
0
LINE
8
BLACK
6
CONTINUOUS
10
148.9813890000000072
20
-113.8247129999999885
11
149.0560059999999964
21
-113.7748559999999998
0
LINE
8
BLACK
6
CONTINUOUS
10
149.0560059999999964
20
-113.7748559999999998
11
149.1440230000000042
21
-113.7573469999999958
0
LINE
8
BLACK
6
CONTINUOUS
10
149.1440230000000042
20
-113.7573469999999958
11
149.2320399999999836
21
-113.7748559999999998
0
LINE
8
BLACK
6
CONTINUOUS
10
163.199813000000006
20
-113.3057089999999931
11
163.2726449999999829
21
-113.3581399999999917
0
LINE
8
BLACK
6
CONTINUOUS
10
163.2726449999999829
20
-113.3581399999999917
11
163.4772449999999822
21
-113.5775459999999981
0
LINE
8
BLACK
6
CONTINUOUS
10
163.4772449999999822
20
-113.5775459999999981
11
163.5244679999999846
21
-113.6538579999999996
0
LINE
8
BLACK
6
CONTINUOUS
10
163.5244679999999846
20
-113.6538579999999996
11
163.5388939999999991
21
-113.7424329999999912
0
LINE
8
BLACK
6
CONTINUOUS
10
163.5388939999999991
20
-113.7424329999999912
11
163.5183239999999785
21
-113.8297850000000011
0
LINE
8
BLACK
6
CONTINUOUS
10
163.5183239999999785
20
-113.8297850000000011
11
163.4658929999999941
21
-113.9026169999999922
0
LINE
8
BLACK
6
CONTINUOUS
10
163.4658929999999941
20
-113.9026169999999922
11
162.7162559999999871
21
-114.6016659999999945
0
LINE
8
BLACK
6
CONTINUOUS
10
162.7162559999999871
20
-114.6016659999999945
11
162.6399439999999856
21
-114.6488879999999995
0
LINE
8
BLACK
6
CONTINUOUS
10
162.6399439999999856
20
-114.6488879999999995
11
162.551368999999994
21
-114.6633149999999972
0
LINE
8
BLACK
6
CONTINUOUS
10
162.551368999999994
20
-114.6633149999999972
11
162.4640169999999841
21
-114.6427449999999908
0
LINE
8
BLACK
6
CONTINUOUS
10
162.4640169999999841
20
-114.6427449999999908
11
162.3911849999999788
21
-114.5903139999999922
0
LINE
8
BLACK
6
CONTINUOUS
10
162.3911849999999788
20
-114.5903139999999922
11
162.1865849999999796
21
-114.370908
0
LINE
8
BLACK
6
CONTINUOUS
10
162.1865849999999796
20
-114.370908
11
162.1393620000000055
21
-114.2945959999999985
0
LINE
8
BLACK
6
CONTINUOUS
10
162.1393620000000055
20
-114.2945959999999985
11
162.1249359999999911
21
-114.2060209999999927
0
LINE
8
BLACK
6
CONTINUOUS
10
162.1249359999999911
20
-114.2060209999999927
11
162.1455059999999833
21
-114.118668999999997
0
LINE
8
BLACK
6
CONTINUOUS
10
162.1455059999999833
20
-114.118668999999997
11
162.197936999999996
21
-114.0458369999999917
0
LINE
8
BLACK
6
CONTINUOUS
10
162.197936999999996
20
-114.0458369999999917
11
162.947574000000003
21
-113.3467879999999894
0
LINE
8
BLACK
6
CONTINUOUS
10
162.947574000000003
20
-113.3467879999999894
11
163.0238860000000045
21
-113.2995659999999987
0
LINE
8
BLACK
6
CONTINUOUS
10
163.0238860000000045
20
-113.2995659999999987
11
163.1124609999999961
21
-113.2851390000000009
0
LINE
8
BLACK
6
CONTINUOUS
10
163.1124609999999961
20
-113.2851390000000009
11
163.199813000000006
21
-113.3057089999999931
0
LINE
8
BLACK
6
CONTINUOUS
10
162.5519139999999823
20
-112.610921999999988
11
162.6247459999999876
21
-112.6633530000000007
0
LINE
8
BLACK
6
CONTINUOUS
10
162.6247459999999876
20
-112.6633530000000007
11
162.8293459999999868
21
-112.882758999999993
0
LINE
8
BLACK
6
CONTINUOUS
10
162.8293459999999868
20
-112.882758999999993
11
162.8765689999999893
21
-112.9590709999999945
0
LINE
8
BLACK
6
CONTINUOUS
10
162.8765689999999893
20
-112.9590709999999945
11
162.8909950000000038
21
-113.0476460000000003
0
LINE
8
BLACK
6
CONTINUOUS
10
162.8909950000000038
20
-113.0476460000000003
11
162.8704249999999831
21
-113.134997999999996
0
LINE
8
BLACK
6
CONTINUOUS
10
162.8704249999999831
20
-113.134997999999996
11
162.8179939999999988
21
-113.2078300000000013
0
LINE
8
BLACK
6
CONTINUOUS
10
162.8179939999999988
20
-113.2078300000000013
11
162.0683569999999918
21
-113.9068789999999893
0
LINE
8
BLACK
6
CONTINUOUS
10
162.0683569999999918
20
-113.9068789999999893
11
161.9920449999999903
21
-113.9541009999999943
0
LINE
8
BLACK
6
CONTINUOUS
10
161.9920449999999903
20
-113.9541009999999943
11
161.9034699999999987
21
-113.9685279999999921
0
LINE
8
BLACK
6
CONTINUOUS
10
161.9034699999999987
20
-113.9685279999999921
11
161.8161179999999888
21
-113.9479579999999999
0
LINE
8
BLACK
6
CONTINUOUS
10
161.8161179999999888
20
-113.9479579999999999
11
161.7432859999999835
21
-113.8955270000000013
0
LINE
8
BLACK
6
CONTINUOUS
10
161.7432859999999835
20
-113.8955270000000013
11
161.5386859999999842
21
-113.6761209999999949
0
LINE
8
BLACK
6
CONTINUOUS
10
161.5386859999999842
20
-113.6761209999999949
11
161.4914629999999818
21
-113.5998089999999934
0
LINE
8
BLACK
6
CONTINUOUS
10
161.4914629999999818
20
-113.5998089999999934
11
161.4770369999999957
21
-113.5112340000000017
0
LINE
8
BLACK
6
CONTINUOUS
10
161.4770369999999957
20
-113.5112340000000017
11
161.4976069999999879
21
-113.4238819999999919
0
LINE
8
BLACK
6
CONTINUOUS
10
161.4976069999999879
20
-113.4238819999999919
11
161.5500380000000007
21
-113.3510500000000008
0
LINE
8
BLACK
6
CONTINUOUS
10
161.5500380000000007
20
-113.3510500000000008
11
162.2996749999999793
21
-112.6520009999999985
0
LINE
8
BLACK
6
CONTINUOUS
10
162.2996749999999793
20
-112.6520009999999985
11
162.3759869999999808
21
-112.6047789999999935
0
LINE
8
BLACK
6
CONTINUOUS
10
162.3759869999999808
20
-112.6047789999999935
11
162.4645620000000008
21
-112.5903519999999958
0
LINE
8
BLACK
6
CONTINUOUS
10
162.4645620000000008
20
-112.5903519999999958
11
162.5519139999999823
21
-112.610921999999988
0
LINE
8
BLACK
6
CONTINUOUS
10
147.8885369999999853
20
-112.4313519999999897
11
147.9631550000000004
21
-112.4812089999999927
0
LINE
8
BLACK
6
CONTINUOUS
10
147.9631550000000004
20
-112.4812089999999927
11
148.1752869999999973
21
-112.6933409999999895
0
LINE
8
BLACK
6
CONTINUOUS
10
148.1752869999999973
20
-112.6933409999999895
11
148.2251440000000002
21
-112.7679589999999905
0
LINE
8
BLACK
6
CONTINUOUS
10
148.2251440000000002
20
-112.7679589999999905
11
148.24265299999999
21
-112.8559759999999983
0
LINE
8
BLACK
6
CONTINUOUS
10
148.24265299999999
20
-112.8559759999999983
11
148.2251440000000002
21
-112.9439929999999919
0
LINE
8
BLACK
6
CONTINUOUS
10
148.2251440000000002
20
-112.9439929999999919
11
148.1752869999999973
21
-113.0186099999999954
0
LINE
8
BLACK
6
CONTINUOUS
10
148.1752869999999973
20
-113.0186099999999954
11
147.3444360000000017
21
-113.8494609999999909
0
LINE
8
BLACK
6
CONTINUOUS
10
147.3444360000000017
20
-113.8494609999999909
11
147.269818999999984
21
-113.8993179999999938
0
LINE
8
BLACK
6
CONTINUOUS
10
147.269818999999984
20
-113.8993179999999938
11
147.1818020000000047
21
-113.9168269999999978
0
LINE
8
BLACK
6
CONTINUOUS
10
147.1818020000000047
20
-113.9168269999999978
11
147.0937849999999969
21
-113.8993179999999938
0
LINE
8
BLACK
6
CONTINUOUS
10
147.0937849999999969
20
-113.8993179999999938
11
147.0191669999999817
21
-113.8494609999999909
0
LINE
8
BLACK
6
CONTINUOUS
10
147.0191669999999817
20
-113.8494609999999909
11
146.8070349999999848
21
-113.637328999999994
0
LINE
8
BLACK
6
CONTINUOUS
10
146.8070349999999848
20
-113.637328999999994
11
146.7571779999999819
21
-113.5627109999999931
0
LINE
8
BLACK
6
CONTINUOUS
10
146.7571779999999819
20
-113.5627109999999931
11
146.7396689999999921
21
-113.4746939999999995
0
LINE
8
BLACK
6
CONTINUOUS
10
146.7396689999999921
20
-113.4746939999999995
11
146.7571779999999819
21
-113.3866769999999917
0
LINE
8
BLACK
6
CONTINUOUS
10
146.7571779999999819
20
-113.3866769999999917
11
146.8070349999999848
21
-113.3120599999999882
0
LINE
8
BLACK
6
CONTINUOUS
10
146.8070349999999848
20
-113.3120599999999882
11
147.6378859999999804
21
-112.4812089999999927
0
LINE
8
BLACK
6
CONTINUOUS
10
147.6378859999999804
20
-112.4812089999999927
11
147.7125029999999981
21
-112.4313519999999897
0
LINE
8
BLACK
6
CONTINUOUS
10
147.7125029999999981
20
-112.4313519999999897
11
147.8005200000000059
21
-112.413843
0
LINE
8
BLACK
6
CONTINUOUS
10
147.8005200000000059
20
-112.413843
11
147.8885369999999853
21
-112.4313519999999897
0
LINE
8
BLACK
6
CONTINUOUS
10
145.2059549999999888
20
-111.5333269999999999
11
145.284577999999982
21
-111.5997119999999967
0
LINE
8
BLACK
6
CONTINUOUS
10
145.284577999999982
20
-111.5997119999999967
11
145.3193640000000073
21
-111.6540689999999927
0
LINE
8
BLACK
6
CONTINUOUS
10
145.3193640000000073
20
-111.6540689999999927
11
145.560467999999986
21
-112.1484059999999943
0
LINE
8
BLACK
6
CONTINUOUS
10
145.560467999999986
20
-112.1484059999999943
11
145.5818859999999972
21
-112.2092839999999967
0
LINE
8
BLACK
6
CONTINUOUS
10
145.5818859999999972
20
-112.2092839999999967
11
145.5857929999999953
21
-112.3121099999999899
0
LINE
8
BLACK
6
CONTINUOUS
10
145.5857929999999953
20
-112.3121099999999899
11
145.5522929999999917
21
-112.409403999999995
0
LINE
8
BLACK
6
CONTINUOUS
10
145.5522929999999917
20
-112.409403999999995
11
145.4859079999999949
21
-112.4880259999999907
0
LINE
8
BLACK
6
CONTINUOUS
10
145.4859079999999949
20
-112.4880259999999907
11
145.4315499999999872
21
-112.5228120000000018
0
LINE
8
BLACK
6
CONTINUOUS
10
145.4315499999999872
20
-112.5228120000000018
11
145.0720320000000072
21
-112.6981609999999989
0
LINE
8
BLACK
6
CONTINUOUS
10
145.0720320000000072
20
-112.6981609999999989
11
145.0111540000000048
21
-112.719578999999996
0
LINE
8
BLACK
6
CONTINUOUS
10
145.0111540000000048
20
-112.719578999999996
11
144.9083279999999831
21
-112.7234859999999941
0
LINE
8
BLACK
6
CONTINUOUS
10
144.9083279999999831
20
-112.7234859999999941
11
144.8110350000000039
21
-112.689984999999993
0
LINE
8
BLACK
6
CONTINUOUS
10
144.8110350000000039
20
-112.689984999999993
11
144.7324119999999823
21
-112.6235999999999962
0
LINE
8
BLACK
6
CONTINUOUS
10
144.7324119999999823
20
-112.6235999999999962
11
144.6976259999999854
21
-112.5692430000000002
0
LINE
8
BLACK
6
CONTINUOUS
10
144.6976259999999854
20
-112.5692430000000002
11
144.4565220000000068
21
-112.0749059999999986
0
LINE
8
BLACK
6
CONTINUOUS
10
144.4565220000000068
20
-112.0749059999999986
11
144.4351039999999955
21
-112.0140279999999962
0
LINE
8
BLACK
6
CONTINUOUS
10
144.4351039999999955
20
-112.0140279999999962
11
144.4311969999999974
21
-111.9112019999999887
0
LINE
8
BLACK
6
CONTINUOUS
10
144.4311969999999974
20
-111.9112019999999887
11
144.464697000000001
21
-111.8139079999999979
0
LINE
8
BLACK
6
CONTINUOUS
10
144.464697000000001
20
-111.8139079999999979
11
144.5310819999999978
21
-111.7352859999999879
0
LINE
8
BLACK
6
CONTINUOUS
10
144.5310819999999978
20
-111.7352859999999879
11
144.5854400000000055
21
-111.700499999999991
0
LINE
8
BLACK
6
CONTINUOUS
10
144.5854400000000055
20
-111.700499999999991
11
144.9449579999999855
21
-111.5251509999999939
0
LINE
8
BLACK
6
CONTINUOUS
10
144.9449579999999855
20
-111.5251509999999939
11
145.005835999999988
21
-111.5037329999999969
0
LINE
8
BLACK
6
CONTINUOUS
10
145.005835999999988
20
-111.5037329999999969
11
145.1086619999999812
21
-111.4998259999999988
0
LINE
8
BLACK
6
CONTINUOUS
10
145.1086619999999812
20
-111.4998259999999988
11
145.2059549999999888
21
-111.5333269999999999
0
LINE
8
BLACK
6
CONTINUOUS
10
164.8104819999999791
20
-109.9567479999999904
11
165.0089689999999791
21
-110.0212399999999917
0
LINE
8
BLACK
6
CONTINUOUS
10
165.0089689999999791
20
-110.0212399999999917
11
165.1949229999999886
21
-110.115988999999999
0
LINE
8
BLACK
6
CONTINUOUS
10
165.1949229999999886
20
-110.115988999999999
11
165.3637659999999983
21
-110.2386599999999959
0
LINE
8
BLACK
6
CONTINUOUS
10
165.3637659999999983
20
-110.2386599999999959
11
165.5113399999999899
21
-110.3862340000000017
0
LINE
8
BLACK
6
CONTINUOUS
10
165.5113399999999899
20
-110.3862340000000017
11
165.6340109999999868
21
-110.5550769999999972
0
LINE
8
BLACK
6
CONTINUOUS
10
165.6340109999999868
20
-110.5550769999999972
11
165.7287599999999941
21
-110.7410309999999924
0
LINE
8
BLACK
6
CONTINUOUS
10
165.7287599999999941
20
-110.7410309999999924
11
165.7932519999999954
21
-110.9395179999999925
0
LINE
8
BLACK
6
CONTINUOUS
10
165.7932519999999954
20
-110.9395179999999925
11
165.8258999999999901
21
-111.1456489999999917
0
LINE
8
BLACK
6
CONTINUOUS
10
165.8258999999999901
20
-111.1456489999999917
11
165.8258999999999901
21
-111.3543509999999941
0
LINE
8
BLACK
6
CONTINUOUS
10
165.8258999999999901
20
-111.3543509999999941
11
165.7932519999999954
21
-111.5604819999999933
0
LINE
8
BLACK
6
CONTINUOUS
10
165.7932519999999954
20
-111.5604819999999933
11
165.7287599999999941
21
-111.7589689999999933
0
LINE
8
BLACK
6
CONTINUOUS
10
165.7287599999999941
20
-111.7589689999999933
11
165.6340109999999868
21
-111.9449229999999886
0
LINE
8
BLACK
6
CONTINUOUS
10
165.6340109999999868
20
-111.9449229999999886
11
165.5113399999999899
21
-112.1137659999999983
0
LINE
8
BLACK
6
CONTINUOUS
10
165.5113399999999899
20
-112.1137659999999983
11
165.3637659999999983
21
-112.2613399999999899
0
LINE
8
BLACK
6
CONTINUOUS
10
165.3637659999999983
20
-112.2613399999999899
11
165.1949229999999886
21
-112.384011000000001
0
LINE
8
BLACK
6
CONTINUOUS
10
165.1949229999999886
20
-112.384011000000001
11
165.0089689999999791
21
-112.4787599999999941
0
LINE
8
BLACK
6
CONTINUOUS
10
165.0089689999999791
20
-112.4787599999999941
11
164.8104819999999791
21
-112.5432519999999954
0
LINE
8
BLACK
6
CONTINUOUS
10
164.8104819999999791
20
-112.5432519999999954
11
164.6043509999999799
21
-112.5758999999999901
0
LINE
8
BLACK
6
CONTINUOUS
10
164.6043509999999799
20
-112.5758999999999901
11
164.3956489999999917
21
-112.5758999999999901
0
LINE
8
BLACK
6
CONTINUOUS
10
164.3956489999999917
20
-112.5758999999999901
11
164.1895179999999925
21
-112.5432519999999954
0
LINE
8
BLACK
6
CONTINUOUS
10
164.1895179999999925
20
-112.5432519999999954
11
163.9910309999999924
21
-112.4787599999999941
0
LINE
8
BLACK
6
CONTINUOUS
10
163.9910309999999924
20
-112.4787599999999941
11
163.8050769999999829
21
-112.384011000000001
0
LINE
8
BLACK
6
CONTINUOUS
10
163.8050769999999829
20
-112.384011000000001
11
163.6362340000000017
21
-112.2613399999999899
0
LINE
8
BLACK
6
CONTINUOUS
10
163.6362340000000017
20
-112.2613399999999899
11
163.4886599999999817
21
-112.1137659999999983
0
LINE
8
BLACK
6
CONTINUOUS
10
163.4886599999999817
20
-112.1137659999999983
11
163.3659889999999848
21
-111.9449229999999886
0
LINE
8
BLACK
6
CONTINUOUS
10
163.3659889999999848
20
-111.9449229999999886
11
163.2712400000000059
21
-111.7589689999999933
0
LINE
8
BLACK
6
CONTINUOUS
10
163.2712400000000059
20
-111.7589689999999933
11
163.2067480000000046
21
-111.5604819999999933
0
LINE
8
BLACK
6
CONTINUOUS
10
163.2067480000000046
20
-111.5604819999999933
11
163.1740999999999815
21
-111.3543509999999941
0
LINE
8
BLACK
6
CONTINUOUS
10
163.1740999999999815
20
-111.3543509999999941
11
163.1740999999999815
21
-111.1456489999999917
0
LINE
8
BLACK
6
CONTINUOUS
10
163.1740999999999815
20
-111.1456489999999917
11
163.2067480000000046
21
-110.9395179999999925
0
LINE
8
BLACK
6
CONTINUOUS
10
163.2067480000000046
20
-110.9395179999999925
11
163.2712400000000059
21
-110.7410309999999924
0
LINE
8
BLACK
6
CONTINUOUS
10
163.2712400000000059
20
-110.7410309999999924
11
163.3659889999999848
21
-110.5550769999999972
0
LINE
8
BLACK
6
CONTINUOUS
10
163.3659889999999848
20
-110.5550769999999972
11
163.4886599999999817
21
-110.3862340000000017
0
LINE
8
BLACK
6
CONTINUOUS
10
163.4886599999999817
20
-110.3862340000000017
11
163.6362340000000017
21
-110.2386599999999959
0
LINE
8
BLACK
6
CONTINUOUS
10
163.6362340000000017
20
-110.2386599999999959
11
163.8050769999999829
21
-110.115988999999999
0
LINE
8
BLACK
6
CONTINUOUS
10
163.8050769999999829
20
-110.115988999999999
11
163.9910309999999924
21
-110.0212399999999917
0
LINE
8
BLACK
6
CONTINUOUS
10
163.9910309999999924
20
-110.0212399999999917
11
164.1895179999999925
21
-109.9567479999999904
0
LINE
8
BLACK
6
CONTINUOUS
10
164.1895179999999925
20
-109.9567479999999904
11
164.3956489999999917
21
-109.9240999999999957
0
LINE
8
BLACK
6
CONTINUOUS
10
164.3956489999999917
20
-109.9240999999999957
11
164.6043509999999799
21
-109.9240999999999957
0
LINE
8
BLACK
6
CONTINUOUS
10
164.6043509999999799
20
-109.9240999999999957
11
164.8104819999999791
21
-109.9567479999999904
0
LINE
8
BLACK
6
CONTINUOUS
10
146.6889649999999961
20
-110.8100149999999928
11
146.7675879999999893
21
-110.8763999999999896
0
LINE
8
BLACK
6
CONTINUOUS
10
146.7675879999999893
20
-110.8763999999999896
11
146.8023739999999862
21
-110.9307569999999998
0
LINE
8
BLACK
6
CONTINUOUS
10
146.8023739999999862
20
-110.9307569999999998
11
147.0434779999999932
21
-111.4250940000000014
0
LINE
8
BLACK
6
CONTINUOUS
10
147.0434779999999932
20
-111.4250940000000014
11
147.0648960000000045
21
-111.4859719999999896
0
LINE
8
BLACK
6
CONTINUOUS
10
147.0648960000000045
20
-111.4859719999999896
11
147.0688030000000026
21
-111.588797999999997
0
LINE
8
BLACK
6
CONTINUOUS
10
147.0688030000000026
20
-111.588797999999997
11
147.035302999999999
21
-111.6860919999999879
0
LINE
8
BLACK
6
CONTINUOUS
10
147.035302999999999
20
-111.6860919999999879
11
146.9689180000000022
21
-111.7647139999999979
0
LINE
8
BLACK
6
CONTINUOUS
10
146.9689180000000022
20
-111.7647139999999979
11
146.9145599999999945
21
-111.7994999999999948
0
LINE
8
BLACK
6
CONTINUOUS
10
146.9145599999999945
20
-111.7994999999999948
11
146.555041999999986
21
-111.9748489999999919
0
LINE
8
BLACK
6
CONTINUOUS
10
146.555041999999986
20
-111.9748489999999919
11
146.4941639999999836
21
-111.9962669999999889
0
LINE
8
BLACK
6
CONTINUOUS
10
146.4941639999999836
20
-111.9962669999999889
11
146.3913379999999904
21
-112.0001740000000012
0
LINE
8
BLACK
6
CONTINUOUS
10
146.3913379999999904
20
-112.0001740000000012
11
146.2940449999999828
21
-111.9666730000000001
0
LINE
8
BLACK
6
CONTINUOUS
10
146.2940449999999828
20
-111.9666730000000001
11
146.2154219999999896
21
-111.9002879999999891
0
LINE
8
BLACK
6
CONTINUOUS
10
146.2154219999999896
20
-111.9002879999999891
11
146.1806359999999927
21
-111.8459309999999931
0
LINE
8
BLACK
6
CONTINUOUS
10
146.1806359999999927
20
-111.8459309999999931
11
145.9395319999999856
21
-111.3515939999999915
0
LINE
8
BLACK
6
CONTINUOUS
10
145.9395319999999856
20
-111.3515939999999915
11
145.9181140000000028
21
-111.2907159999999891
0
LINE
8
BLACK
6
CONTINUOUS
10
145.9181140000000028
20
-111.2907159999999891
11
145.9142070000000047
21
-111.1878899999999959
0
LINE
8
BLACK
6
CONTINUOUS
10
145.9142070000000047
20
-111.1878899999999959
11
145.9477069999999799
21
-111.0905959999999908
0
LINE
8
BLACK
6
CONTINUOUS
10
145.9477069999999799
20
-111.0905959999999908
11
146.0140920000000051
21
-111.011973999999995
0
LINE
8
BLACK
6
CONTINUOUS
10
146.0140920000000051
20
-111.011973999999995
11
146.0684499999999844
21
-110.9771879999999982
0
LINE
8
BLACK
6
CONTINUOUS
10
146.0684499999999844
20
-110.9771879999999982
11
146.4279679999999928
21
-110.8018390000000011
0
LINE
8
BLACK
6
CONTINUOUS
10
146.4279679999999928
20
-110.8018390000000011
11
146.4888459999999952
21
-110.7804209999999898
0
LINE
8
BLACK
6
CONTINUOUS
10
146.4888459999999952
20
-110.7804209999999898
11
146.5916719999999884
21
-110.7765139999999917
0
LINE
8
BLACK
6
CONTINUOUS
10
146.5916719999999884
20
-110.7765139999999917
11
146.6889649999999961
21
-110.8100149999999928
0
LINE
8
BLACK
6
CONTINUOUS
10
145.1354100000000074
20
-108.2812440000000009
11
145.2392799999999795
21
-108.3296799999999962
0
LINE
8
BLACK
6
CONTINUOUS
10
145.2392799999999795
20
-108.3296799999999962
11
145.3203199999999811
21
-108.4107199999999978
0
LINE
8
BLACK
6
CONTINUOUS
10
145.3203199999999811
20
-108.4107199999999978
11
145.3687559999999905
21
-108.5145899999999983
0
LINE
8
BLACK
6
CONTINUOUS
10
145.3687559999999905
20
-108.5145899999999983
11
145.3799999999999955
21
-108.5999999999999943
0
LINE
8
BLACK
6
CONTINUOUS
10
145.3799999999999955
20
-108.5999999999999943
11
145.3799999999999955
21
-109.2999999999999972
0
LINE
8
BLACK
6
CONTINUOUS
10
145.3799999999999955
20
-109.2999999999999972
11
145.3687559999999905
21
-109.3854099999999931
0
LINE
8
BLACK
6
CONTINUOUS
10
145.3687559999999905
20
-109.3854099999999931
11
145.3203199999999811
21
-109.4892799999999937
0
LINE
8
BLACK
6
CONTINUOUS
10
145.3203199999999811
20
-109.4892799999999937
11
145.2392799999999795
21
-109.5703199999999953
0
LINE
8
BLACK
6
CONTINUOUS
10
145.2392799999999795
20
-109.5703199999999953
11
145.1354100000000074
21
-109.6187559999999905
0
LINE
8
BLACK
6
CONTINUOUS
10
145.1354100000000074
20
-109.6187559999999905
11
145.0499999999999829
21
-109.6299999999999955
0
LINE
8
BLACK
6
CONTINUOUS
10
145.0499999999999829
20
-109.6299999999999955
11
143.8499999999999943
21
-109.6299999999999955
0
LINE
8
BLACK
6
CONTINUOUS
10
143.8499999999999943
20
-109.6299999999999955
11
143.7645899999999983
21
-109.6187559999999905
0
LINE
8
BLACK
6
CONTINUOUS
10
143.7645899999999983
20
-109.6187559999999905
11
143.6607199999999978
21
-109.5703199999999953
0
LINE
8
BLACK
6
CONTINUOUS
10
143.6607199999999978
20
-109.5703199999999953
11
143.5796799999999962
21
-109.4892799999999937
0
LINE
8
BLACK
6
CONTINUOUS
10
143.5796799999999962
20
-109.4892799999999937
11
143.5312439999999867
21
-109.3854099999999931
0
LINE
8
BLACK
6
CONTINUOUS
10
143.5312439999999867
20
-109.3854099999999931
11
143.5199999999999818
21
-109.2999999999999972
0
LINE
8
BLACK
6
CONTINUOUS
10
143.5199999999999818
20
-109.2999999999999972
11
143.5199999999999818
21
-108.5999999999999943
0
LINE
8
BLACK
6
CONTINUOUS
10
143.5199999999999818
20
-108.5999999999999943
11
143.5312439999999867
21
-108.5145899999999983
0
LINE
8
BLACK
6
CONTINUOUS
10
143.5312439999999867
20
-108.5145899999999983
11
143.5796799999999962
21
-108.4107199999999978
0
LINE
8
BLACK
6
CONTINUOUS
10
143.5796799999999962
20
-108.4107199999999978
11
143.6607199999999978
21
-108.3296799999999962
0
LINE
8
BLACK
6
CONTINUOUS
10
143.6607199999999978
20
-108.3296799999999962
11
143.7645899999999983
21
-108.2812440000000009
0
LINE
8
BLACK
6
CONTINUOUS
10
143.7645899999999983
20
-108.2812440000000009
11
143.8499999999999943
21
-108.269999999999996
0
LINE
8
BLACK
6
CONTINUOUS
10
143.8499999999999943
20
-108.269999999999996
11
145.0499999999999829
21
-108.269999999999996
0
LINE
8
BLACK
6
CONTINUOUS
10
145.0499999999999829
20
-108.269999999999996
11
145.1354100000000074
21
-108.2812440000000009
0
LINE
8
BLACK
6
CONTINUOUS
10
165.8104819999999791
20
-105.9567479999999904
11
166.0089689999999791
21
-106.0212399999999917
0
LINE
8
BLACK
6
CONTINUOUS
10
166.0089689999999791
20
-106.0212399999999917
11
166.1949229999999886
21
-106.115988999999999
0
LINE
8
BLACK
6
CONTINUOUS
10
166.1949229999999886
20
-106.115988999999999
11
166.3637659999999983
21
-106.2386599999999959
0
LINE
8
BLACK
6
CONTINUOUS
10
166.3637659999999983
20
-106.2386599999999959
11
166.5113399999999899
21
-106.3862340000000017
0
LINE
8
BLACK
6
CONTINUOUS
10
166.5113399999999899
20
-106.3862340000000017
11
166.6340109999999868
21
-106.5550769999999972
0
LINE
8
BLACK
6
CONTINUOUS
10
166.6340109999999868
20
-106.5550769999999972
11
166.7287599999999941
21
-106.7410309999999924
0
LINE
8
BLACK
6
CONTINUOUS
10
166.7287599999999941
20
-106.7410309999999924
11
166.7932519999999954
21
-106.9395179999999925
0
LINE
8
BLACK
6
CONTINUOUS
10
166.7932519999999954
20
-106.9395179999999925
11
166.8258999999999901
21
-107.1456489999999917
0
LINE
8
BLACK
6
CONTINUOUS
10
166.8258999999999901
20
-107.1456489999999917
11
166.8258999999999901
21
-107.3543509999999941
0
LINE
8
BLACK
6
CONTINUOUS
10
166.8258999999999901
20
-107.3543509999999941
11
166.7932519999999954
21
-107.5604819999999933
0
LINE
8
BLACK
6
CONTINUOUS
10
166.7932519999999954
20
-107.5604819999999933
11
166.7287599999999941
21
-107.7589689999999933
0
LINE
8
BLACK
6
CONTINUOUS
10
166.7287599999999941
20
-107.7589689999999933
11
166.6340109999999868
21
-107.9449229999999886
0
LINE
8
BLACK
6
CONTINUOUS
10
166.6340109999999868
20
-107.9449229999999886
11
166.5113399999999899
21
-108.1137659999999983
0
LINE
8
BLACK
6
CONTINUOUS
10
166.5113399999999899
20
-108.1137659999999983
11
166.3637659999999983
21
-108.2613399999999899
0
LINE
8
BLACK
6
CONTINUOUS
10
166.3637659999999983
20
-108.2613399999999899
11
166.1949229999999886
21
-108.384011000000001
0
LINE
8
BLACK
6
CONTINUOUS
10
166.1949229999999886
20
-108.384011000000001
11
166.0089689999999791
21
-108.4787599999999941
0
LINE
8
BLACK
6
CONTINUOUS
10
166.0089689999999791
20
-108.4787599999999941
11
165.8104819999999791
21
-108.5432519999999954
0
LINE
8
BLACK
6
CONTINUOUS
10
165.8104819999999791
20
-108.5432519999999954
11
165.6043509999999799
21
-108.5758999999999901
0
LINE
8
BLACK
6
CONTINUOUS
10
165.6043509999999799
20
-108.5758999999999901
11
165.3956489999999917
21
-108.5758999999999901
0
LINE
8
BLACK
6
CONTINUOUS
10
165.3956489999999917
20
-108.5758999999999901
11
165.1895179999999925
21
-108.5432519999999954
0
LINE
8
BLACK
6
CONTINUOUS
10
165.1895179999999925
20
-108.5432519999999954
11
164.9910309999999924
21
-108.4787599999999941
0
LINE
8
BLACK
6
CONTINUOUS
10
164.9910309999999924
20
-108.4787599999999941
11
164.8050769999999829
21
-108.384011000000001
0
LINE
8
BLACK
6
CONTINUOUS
10
164.8050769999999829
20
-108.384011000000001
11
164.6362340000000017
21
-108.2613399999999899
0
LINE
8
BLACK
6
CONTINUOUS
10
164.6362340000000017
20
-108.2613399999999899
11
164.4886599999999817
21
-108.1137659999999983
0
LINE
8
BLACK
6
CONTINUOUS
10
164.4886599999999817
20
-108.1137659999999983
11
164.3659889999999848
21
-107.9449229999999886
0
LINE
8
BLACK
6
CONTINUOUS
10
164.3659889999999848
20
-107.9449229999999886
11
164.2712400000000059
21
-107.7589689999999933
0
LINE
8
BLACK
6
CONTINUOUS
10
164.2712400000000059
20
-107.7589689999999933
11
164.2067480000000046
21
-107.5604819999999933
0
LINE
8
BLACK
6
CONTINUOUS
10
164.2067480000000046
20
-107.5604819999999933
11
164.1740999999999815
21
-107.3543509999999941
0
LINE
8
BLACK
6
CONTINUOUS
10
164.1740999999999815
20
-107.3543509999999941
11
164.1740999999999815
21
-107.1456489999999917
0
LINE
8
BLACK
6
CONTINUOUS
10
164.1740999999999815
20
-107.1456489999999917
11
164.2067480000000046
21
-106.9395179999999925
0
LINE
8
BLACK
6
CONTINUOUS
10
164.2067480000000046
20
-106.9395179999999925
11
164.2712400000000059
21
-106.7410309999999924
0
LINE
8
BLACK
6
CONTINUOUS
10
164.2712400000000059
20
-106.7410309999999924
11
164.3659889999999848
21
-106.5550769999999972
0
LINE
8
BLACK
6
CONTINUOUS
10
164.3659889999999848
20
-106.5550769999999972
11
164.4886599999999817
21
-106.3862340000000017
0
LINE
8
BLACK
6
CONTINUOUS
10
164.4886599999999817
20
-106.3862340000000017
11
164.6362340000000017
21
-106.2386599999999959
0
LINE
8
BLACK
6
CONTINUOUS
10
164.6362340000000017
20
-106.2386599999999959
11
164.8050769999999829
21
-106.115988999999999
0
LINE
8
BLACK
6
CONTINUOUS
10
164.8050769999999829
20
-106.115988999999999
11
164.9910309999999924
21
-106.0212399999999917
0
LINE
8
BLACK
6
CONTINUOUS
10
164.9910309999999924
20
-106.0212399999999917
11
165.1895179999999925
21
-105.9567479999999904
0
LINE
8
BLACK
6
CONTINUOUS
10
165.1895179999999925
20
-105.9567479999999904
11
165.3956489999999917
21
-105.9240999999999957
0
LINE
8
BLACK
6
CONTINUOUS
10
165.3956489999999917
20
-105.9240999999999957
11
165.6043509999999799
21
-105.9240999999999957
0
LINE
8
BLACK
6
CONTINUOUS
10
165.6043509999999799
20
-105.9240999999999957
11
165.8104819999999791
21
-105.9567479999999904
0
LINE
8
BLACK
6
CONTINUOUS
10
146.3534499999999809
20
-107.335605000000001
11
146.4199569999999824
21
-107.3800430000000006
0
LINE
8
BLACK
6
CONTINUOUS
10
146.4199569999999824
20
-107.3800430000000006
11
146.4643949999999961
21
-107.446550000000002
0
LINE
8
BLACK
6
CONTINUOUS
10
146.4643949999999961
20
-107.446550000000002
11
146.4799999999999898
21
-107.5249999999999915
0
LINE
8
BLACK
6
CONTINUOUS
10
146.4799999999999898
20
-107.5249999999999915
11
146.4799999999999898
21
-107.7749999999999915
0
LINE
8
BLACK
6
CONTINUOUS
10
146.4799999999999898
20
-107.7749999999999915
11
146.4643949999999961
21
-107.8534499999999952
0
LINE
8
BLACK
6
CONTINUOUS
10
146.4643949999999961
20
-107.8534499999999952
11
146.4199569999999824
21
-107.9199569999999966
0
LINE
8
BLACK
6
CONTINUOUS
10
146.4199569999999824
20
-107.9199569999999966
11
146.3534499999999809
21
-107.9643949999999961
0
LINE
8
BLACK
6
CONTINUOUS
10
146.3534499999999809
20
-107.9643949999999961
11
146.2750000000000057
21
-107.9799999999999898
0
LINE
8
BLACK
6
CONTINUOUS
10
146.2750000000000057
20
-107.9799999999999898
11
145.4249999999999829
21
-107.9799999999999898
0
LINE
8
BLACK
6
CONTINUOUS
10
145.4249999999999829
20
-107.9799999999999898
11
145.3465499999999793
21
-107.9643949999999961
0
LINE
8
BLACK
6
CONTINUOUS
10
145.3465499999999793
20
-107.9643949999999961
11
145.2800430000000063
21
-107.9199569999999966
0
LINE
8
BLACK
6
CONTINUOUS
10
145.2800430000000063
20
-107.9199569999999966
11
145.2356049999999925
21
-107.8534499999999952
0
LINE
8
BLACK
6
CONTINUOUS
10
145.2356049999999925
20
-107.8534499999999952
11
145.2199999999999989
21
-107.7749999999999915
0
LINE
8
BLACK
6
CONTINUOUS
10
145.2199999999999989
20
-107.7749999999999915
11
145.2199999999999989
21
-107.5249999999999915
0
LINE
8
BLACK
6
CONTINUOUS
10
145.2199999999999989
20
-107.5249999999999915
11
145.2356049999999925
21
-107.446550000000002
0
LINE
8
BLACK
6
CONTINUOUS
10
145.2356049999999925
20
-107.446550000000002
11
145.2800430000000063
21
-107.3800430000000006
0
LINE
8
BLACK
6
CONTINUOUS
10
145.2800430000000063
20
-107.3800430000000006
11
145.3465499999999793
21
-107.335605000000001
0
LINE
8
BLACK
6
CONTINUOUS
10
145.3465499999999793
20
-107.335605000000001
11
145.4249999999999829
21
-107.3199999999999932
0
LINE
8
BLACK
6
CONTINUOUS
10
145.4249999999999829
20
-107.3199999999999932
11
146.2750000000000057
21
-107.3199999999999932
0
LINE
8
BLACK
6
CONTINUOUS
10
146.2750000000000057
20
-107.3199999999999932
11
146.3534499999999809
21
-107.335605000000001
0
LINE
8
BLACK
6
CONTINUOUS
10
146.3534499999999809
20
-106.5356049999999897
11
146.4199569999999824
21
-106.5800429999999892
0
LINE
8
BLACK
6
CONTINUOUS
10
146.4199569999999824
20
-106.5800429999999892
11
146.4643949999999961
21
-106.6465499999999906
0
LINE
8
BLACK
6
CONTINUOUS
10
146.4643949999999961
20
-106.6465499999999906
11
146.4799999999999898
21
-106.7249999999999943
0
LINE
8
BLACK
6
CONTINUOUS
10
146.4799999999999898
20
-106.7249999999999943
11
146.4799999999999898
21
-106.9749999999999943
0
LINE
8
BLACK
6
CONTINUOUS
10
146.4799999999999898
20
-106.9749999999999943
11
146.4643949999999961
21
-107.053449999999998
0
LINE
8
BLACK
6
CONTINUOUS
10
146.4643949999999961
20
-107.053449999999998
11
146.4199569999999824
21
-107.1199569999999994
0
LINE
8
BLACK
6
CONTINUOUS
10
146.4199569999999824
20
-107.1199569999999994
11
146.3534499999999809
21
-107.164394999999999
0
LINE
8
BLACK
6
CONTINUOUS
10
146.3534499999999809
20
-107.164394999999999
11
146.2750000000000057
21
-107.1799999999999926
0
LINE
8
BLACK
6
CONTINUOUS
10
146.2750000000000057
20
-107.1799999999999926
11
145.4249999999999829
21
-107.1799999999999926
0
LINE
8
BLACK
6
CONTINUOUS
10
145.4249999999999829
20
-107.1799999999999926
11
145.3465499999999793
21
-107.164394999999999
0
LINE
8
BLACK
6
CONTINUOUS
10
145.3465499999999793
20
-107.164394999999999
11
145.2800430000000063
21
-107.1199569999999994
0
LINE
8
BLACK
6
CONTINUOUS
10
145.2800430000000063
20
-107.1199569999999994
11
145.2356049999999925
21
-107.053449999999998
0
LINE
8
BLACK
6
CONTINUOUS
10
145.2356049999999925
20
-107.053449999999998
11
145.2199999999999989
21
-106.9749999999999943
0
LINE
8
BLACK
6
CONTINUOUS
10
145.2199999999999989
20
-106.9749999999999943
11
145.2199999999999989
21
-106.7249999999999943
0
LINE
8
BLACK
6
CONTINUOUS
10
145.2199999999999989
20
-106.7249999999999943
11
145.2356049999999925
21
-106.6465499999999906
0
LINE
8
BLACK
6
CONTINUOUS
10
145.2356049999999925
20
-106.6465499999999906
11
145.2800430000000063
21
-106.5800429999999892
0
LINE
8
BLACK
6
CONTINUOUS
10
145.2800430000000063
20
-106.5800429999999892
11
145.3465499999999793
21
-106.5356049999999897
0
LINE
8
BLACK
6
CONTINUOUS
10
145.3465499999999793
20
-106.5356049999999897
11
145.4249999999999829
21
-106.519999999999996
0
LINE
8
BLACK
6
CONTINUOUS
10
145.4249999999999829
20
-106.519999999999996
11
146.2750000000000057
21
-106.519999999999996
0
LINE
8
BLACK
6
CONTINUOUS
10
146.2750000000000057
20
-106.519999999999996
11
146.3534499999999809
21
-106.5356049999999897
0
LINE
8
BLACK
6
CONTINUOUS
10
145.1354100000000074
20
-104.8812439999999953
11
145.2392799999999795
21
-104.9296799999999905
0
LINE
8
BLACK
6
CONTINUOUS
10
145.2392799999999795
20
-104.9296799999999905
11
145.3203199999999811
21
-105.0107199999999921
0
LINE
8
BLACK
6
CONTINUOUS
10
145.3203199999999811
20
-105.0107199999999921
11
145.3687559999999905
21
-105.1145899999999926
0
LINE
8
BLACK
6
CONTINUOUS
10
145.3687559999999905
20
-105.1145899999999926
11
145.3799999999999955
21
-105.1999999999999886
0
LINE
8
BLACK
6
CONTINUOUS
10
145.3799999999999955
20
-105.1999999999999886
11
145.3799999999999955
21
-105.8999999999999915
0
LINE
8
BLACK
6
CONTINUOUS
10
145.3799999999999955
20
-105.8999999999999915
11
145.3687559999999905
21
-105.9854100000000017
0
LINE
8
BLACK
6
CONTINUOUS
10
145.3687559999999905
20
-105.9854100000000017
11
145.3203199999999811
21
-106.0892800000000022
0
LINE
8
BLACK
6
CONTINUOUS
10
145.3203199999999811
20
-106.0892800000000022
11
145.2392799999999795
21
-106.1703199999999896
0
LINE
8
BLACK
6
CONTINUOUS
10
145.2392799999999795
20
-106.1703199999999896
11
145.1354100000000074
21
-106.2187559999999991
0
LINE
8
BLACK
6
CONTINUOUS
10
145.1354100000000074
20
-106.2187559999999991
11
145.0499999999999829
21
-106.2299999999999898
0
LINE
8
BLACK
6
CONTINUOUS
10
145.0499999999999829
20
-106.2299999999999898
11
143.8499999999999943
21
-106.2299999999999898
0
LINE
8
BLACK
6
CONTINUOUS
10
143.8499999999999943
20
-106.2299999999999898
11
143.7645899999999983
21
-106.2187559999999991
0
LINE
8
BLACK
6
CONTINUOUS
10
143.7645899999999983
20
-106.2187559999999991
11
143.6607199999999978
21
-106.1703199999999896
0
LINE
8
BLACK
6
CONTINUOUS
10
143.6607199999999978
20
-106.1703199999999896
11
143.5796799999999962
21
-106.0892800000000022
0
LINE
8
BLACK
6
CONTINUOUS
10
143.5796799999999962
20
-106.0892800000000022
11
143.5312439999999867
21
-105.9854100000000017
0
LINE
8
BLACK
6
CONTINUOUS
10
143.5312439999999867
20
-105.9854100000000017
11
143.5199999999999818
21
-105.8999999999999915
0
LINE
8
BLACK
6
CONTINUOUS
10
143.5199999999999818
20
-105.8999999999999915
11
143.5199999999999818
21
-105.1999999999999886
0
LINE
8
BLACK
6
CONTINUOUS
10
143.5199999999999818
20
-105.1999999999999886
11
143.5312439999999867
21
-105.1145899999999926
0
LINE
8
BLACK
6
CONTINUOUS
10
143.5312439999999867
20
-105.1145899999999926
11
143.5796799999999962
21
-105.0107199999999921
0
LINE
8
BLACK
6
CONTINUOUS
10
143.5796799999999962
20
-105.0107199999999921
11
143.6607199999999978
21
-104.9296799999999905
0
LINE
8
BLACK
6
CONTINUOUS
10
143.6607199999999978
20
-104.9296799999999905
11
143.7645899999999983
21
-104.8812439999999953
0
LINE
8
BLACK
6
CONTINUOUS
10
143.7645899999999983
20
-104.8812439999999953
11
143.8499999999999943
21
-104.8699999999999903
0
LINE
8
BLACK
6
CONTINUOUS
10
143.8499999999999943
20
-104.8699999999999903
11
145.0499999999999829
21
-104.8699999999999903
0
LINE
8
BLACK
6
CONTINUOUS
10
145.0499999999999829
20
-104.8699999999999903
11
145.1354100000000074
21
-104.8812439999999953
0
LINE
8
BLACK
6
CONTINUOUS
10
164.8104819999999791
20
-101.9567479999999904
11
165.0089689999999791
21
-102.0212399999999917
0
LINE
8
BLACK
6
CONTINUOUS
10
165.0089689999999791
20
-102.0212399999999917
11
165.1949229999999886
21
-102.115988999999999
0
LINE
8
BLACK
6
CONTINUOUS
10
165.1949229999999886
20
-102.115988999999999
11
165.3637659999999983
21
-102.2386599999999959
0
LINE
8
BLACK
6
CONTINUOUS
10
165.3637659999999983
20
-102.2386599999999959
11
165.5113399999999899
21
-102.3862340000000017
0
LINE
8
BLACK
6
CONTINUOUS
10
165.5113399999999899
20
-102.3862340000000017
11
165.6340109999999868
21
-102.5550769999999972
0
LINE
8
BLACK
6
CONTINUOUS
10
165.6340109999999868
20
-102.5550769999999972
11
165.7287599999999941
21
-102.7410309999999924
0
LINE
8
BLACK
6
CONTINUOUS
10
165.7287599999999941
20
-102.7410309999999924
11
165.7932519999999954
21
-102.9395179999999925
0
LINE
8
BLACK
6
CONTINUOUS
10
165.7932519999999954
20
-102.9395179999999925
11
165.8258999999999901
21
-103.1456489999999917
0
LINE
8
BLACK
6
CONTINUOUS
10
165.8258999999999901
20
-103.1456489999999917
11
165.8258999999999901
21
-103.3543509999999941
0
LINE
8
BLACK
6
CONTINUOUS
10
165.8258999999999901
20
-103.3543509999999941
11
165.7932519999999954
21
-103.5604819999999933
0
LINE
8
BLACK
6
CONTINUOUS
10
165.7932519999999954
20
-103.5604819999999933
11
165.7287599999999941
21
-103.7589689999999933
0
LINE
8
BLACK
6
CONTINUOUS
10
165.7287599999999941
20
-103.7589689999999933
11
165.6340109999999868
21
-103.9449229999999886
0
LINE
8
BLACK
6
CONTINUOUS
10
165.6340109999999868
20
-103.9449229999999886
11
165.5113399999999899
21
-104.1137659999999983
0
LINE
8
BLACK
6
CONTINUOUS
10
165.5113399999999899
20
-104.1137659999999983
11
165.3637659999999983
21
-104.2613399999999899
0
LINE
8
BLACK
6
CONTINUOUS
10
165.3637659999999983
20
-104.2613399999999899
11
165.1949229999999886
21
-104.384011000000001
0
LINE
8
BLACK
6
CONTINUOUS
10
165.1949229999999886
20
-104.384011000000001
11
165.0089689999999791
21
-104.4787599999999941
0
LINE
8
BLACK
6
CONTINUOUS
10
165.0089689999999791
20
-104.4787599999999941
11
164.8104819999999791
21
-104.5432519999999954
0
LINE
8
BLACK
6
CONTINUOUS
10
164.8104819999999791
20
-104.5432519999999954
11
164.6043509999999799
21
-104.5758999999999901
0
LINE
8
BLACK
6
CONTINUOUS
10
164.6043509999999799
20
-104.5758999999999901
11
164.3956489999999917
21
-104.5758999999999901
0
LINE
8
BLACK
6
CONTINUOUS
10
164.3956489999999917
20
-104.5758999999999901
11
164.1895179999999925
21
-104.5432519999999954
0
LINE
8
BLACK
6
CONTINUOUS
10
164.1895179999999925
20
-104.5432519999999954
11
163.9910309999999924
21
-104.4787599999999941
0
LINE
8
BLACK
6
CONTINUOUS
10
163.9910309999999924
20
-104.4787599999999941
11
163.8050769999999829
21
-104.384011000000001
0
LINE
8
BLACK
6
CONTINUOUS
10
163.8050769999999829
20
-104.384011000000001
11
163.6362340000000017
21
-104.2613399999999899
0
LINE
8
BLACK
6
CONTINUOUS
10
163.6362340000000017
20
-104.2613399999999899
11
163.4886599999999817
21
-104.1137659999999983
0
LINE
8
BLACK
6
CONTINUOUS
10
163.4886599999999817
20
-104.1137659999999983
11
163.3659889999999848
21
-103.9449229999999886
0
LINE
8
BLACK
6
CONTINUOUS
10
163.3659889999999848
20
-103.9449229999999886
11
163.2712400000000059
21
-103.7589689999999933
0
LINE
8
BLACK
6
CONTINUOUS
10
163.2712400000000059
20
-103.7589689999999933
11
163.2067480000000046
21
-103.5604819999999933
0
LINE
8
BLACK
6
CONTINUOUS
10
163.2067480000000046
20
-103.5604819999999933
11
163.1740999999999815
21
-103.3543509999999941
0
LINE
8
BLACK
6
CONTINUOUS
10
163.1740999999999815
20
-103.3543509999999941
11
163.1740999999999815
21
-103.1456489999999917
0
LINE
8
BLACK
6
CONTINUOUS
10
163.1740999999999815
20
-103.1456489999999917
11
163.2067480000000046
21
-102.9395179999999925
0
LINE
8
BLACK
6
CONTINUOUS
10
163.2067480000000046
20
-102.9395179999999925
11
163.2712400000000059
21
-102.7410309999999924
0
LINE
8
BLACK
6
CONTINUOUS
10
163.2712400000000059
20
-102.7410309999999924
11
163.3659889999999848
21
-102.5550769999999972
0
LINE
8
BLACK
6
CONTINUOUS
10
163.3659889999999848
20
-102.5550769999999972
11
163.4886599999999817
21
-102.3862340000000017
0
LINE
8
BLACK
6
CONTINUOUS
10
163.4886599999999817
20
-102.3862340000000017
11
163.6362340000000017
21
-102.2386599999999959
0
LINE
8
BLACK
6
CONTINUOUS
10
163.6362340000000017
20
-102.2386599999999959
11
163.8050769999999829
21
-102.115988999999999
0
LINE
8
BLACK
6
CONTINUOUS
10
163.8050769999999829
20
-102.115988999999999
11
163.9910309999999924
21
-102.0212399999999917
0
LINE
8
BLACK
6
CONTINUOUS
10
163.9910309999999924
20
-102.0212399999999917
11
164.1895179999999925
21
-101.9567479999999904
0
LINE
8
BLACK
6
CONTINUOUS
10
164.1895179999999925
20
-101.9567479999999904
11
164.3956489999999917
21
-101.9240999999999957
0
LINE
8
BLACK
6
CONTINUOUS
10
164.3956489999999917
20
-101.9240999999999957
11
164.6043509999999799
21
-101.9240999999999957
0
LINE
8
BLACK
6
CONTINUOUS
10
164.6043509999999799
20
-101.9240999999999957
11
164.8104819999999791
21
-101.9567479999999904
0
LINE
8
BLACK
6
CONTINUOUS
10
146.9606440000000021
20
-101.788772999999992
11
147.0233599999999967
21
-101.8171999999999997
0
LINE
8
BLACK
6
CONTINUOUS
10
147.0233599999999967
20
-101.8171999999999997
11
147.3983699999999999
21
-102.0425290000000018
0
LINE
8
BLACK
6
CONTINUOUS
10
147.3983699999999999
20
-102.0425290000000018
11
147.4529129999999952
21
-102.0845580000000012
0
LINE
8
BLACK
6
CONTINUOUS
10
147.4529129999999952
20
-102.0845580000000012
11
147.5161630000000059
21
-102.1743000000000023
0
LINE
8
BLACK
6
CONTINUOUS
10
147.5161630000000059
20
-102.1743000000000023
11
147.5427239999999927
21
-102.2808279999999996
0
LINE
8
BLACK
6
CONTINUOUS
10
147.5427239999999927
20
-102.2808279999999996
11
147.5290080000000046
21
-102.389758999999998
0
LINE
8
BLACK
6
CONTINUOUS
10
147.5290080000000046
20
-102.389758999999998
11
147.5005819999999801
21
-102.4524749999999926
0
LINE
8
BLACK
6
CONTINUOUS
10
147.5005819999999801
20
-102.4524749999999926
11
147.2366250000000036
21
-102.8917730000000006
0
LINE
8
BLACK
6
CONTINUOUS
10
147.2366250000000036
20
-102.8917730000000006
11
147.1945949999999925
21
-102.9463159999999959
0
LINE
8
BLACK
6
CONTINUOUS
10
147.1945949999999925
20
-102.9463159999999959
11
147.1048539999999889
21
-103.0095659999999924
0
LINE
8
BLACK
6
CONTINUOUS
10
147.1048539999999889
20
-103.0095659999999924
11
146.9983249999999941
21
-103.0361259999999959
0
LINE
8
BLACK
6
CONTINUOUS
10
146.9983249999999941
20
-103.0361259999999959
11
146.8893939999999816
21
-103.0224109999999911
0
LINE
8
BLACK
6
CONTINUOUS
10
146.8893939999999816
20
-103.0224109999999911
11
146.8266779999999869
21
-102.9939839999999975
0
LINE
8
BLACK
6
CONTINUOUS
10
146.8266779999999869
20
-102.9939839999999975
11
146.4516679999999837
21
-102.7686549999999954
0
LINE
8
BLACK
6
CONTINUOUS
10
146.4516679999999837
20
-102.7686549999999954
11
146.3971249999999884
21
-102.726625999999996
0
LINE
8
BLACK
6
CONTINUOUS
10
146.3971249999999884
20
-102.726625999999996
11
146.3338750000000061
21
-102.6368839999999949
0
LINE
8
BLACK
6
CONTINUOUS
10
146.3338750000000061
20
-102.6368839999999949
11
146.307313999999991
21
-102.5303559999999976
0
LINE
8
BLACK
6
CONTINUOUS
10
146.307313999999991
20
-102.5303559999999976
11
146.3210300000000075
21
-102.4214249999999993
0
LINE
8
BLACK
6
CONTINUOUS
10
146.3210300000000075
20
-102.4214249999999993
11
146.3494560000000035
21
-102.3587089999999904
0
LINE
8
BLACK
6
CONTINUOUS
10
146.3494560000000035
20
-102.3587089999999904
11
146.61341299999998
21
-101.9194109999999966
0
LINE
8
BLACK
6
CONTINUOUS
10
146.61341299999998
20
-101.9194109999999966
11
146.6554429999999911
21
-101.8648680000000013
0
LINE
8
BLACK
6
CONTINUOUS
10
146.6554429999999911
20
-101.8648680000000013
11
146.7451839999999947
21
-101.8016179999999906
0
LINE
8
BLACK
6
CONTINUOUS
10
146.7451839999999947
20
-101.8016179999999906
11
146.8517129999999895
21
-101.7750580000000014
0
LINE
8
BLACK
6
CONTINUOUS
10
146.8517129999999895
20
-101.7750580000000014
11
146.9606440000000021
21
-101.788772999999992
0
LINE
8
BLACK
6
CONTINUOUS
10
145.61060599999999
20
-100.9775889999999947
11
145.6733219999999847
21
-101.0060160000000025
0
LINE
8
BLACK
6
CONTINUOUS
10
145.6733219999999847
20
-101.0060160000000025
11
146.0483319999999878
21
-101.2313449999999904
0
LINE
8
BLACK
6
CONTINUOUS
10
146.0483319999999878
20
-101.2313449999999904
11
146.1028749999999832
21
-101.2733739999999898
0
LINE
8
BLACK
6
CONTINUOUS
10
146.1028749999999832
20
-101.2733739999999898
11
146.1661249999999939
21
-101.3631159999999909
0
LINE
8
BLACK
6
CONTINUOUS
10
146.1661249999999939
20
-101.3631159999999909
11
146.1926859999999806
21
-101.4696440000000024
0
LINE
8
BLACK
6
CONTINUOUS
10
146.1926859999999806
20
-101.4696440000000024
11
146.1789699999999925
21
-101.5785750000000007
0
LINE
8
BLACK
6
CONTINUOUS
10
146.1789699999999925
20
-101.5785750000000007
11
146.1505439999999965
21
-101.6412909999999954
0
LINE
8
BLACK
6
CONTINUOUS
10
146.1505439999999965
20
-101.6412909999999954
11
145.8865869999999916
21
-102.0805889999999891
0
LINE
8
BLACK
6
CONTINUOUS
10
145.8865869999999916
20
-102.0805889999999891
11
145.8445569999999805
21
-102.1351319999999987
0
LINE
8
BLACK
6
CONTINUOUS
10
145.8445569999999805
20
-102.1351319999999987
11
145.7548160000000053
21
-102.1983819999999952
0
LINE
8
BLACK
6
CONTINUOUS
10
145.7548160000000053
20
-102.1983819999999952
11
145.6482869999999821
21
-102.2249419999999986
0
LINE
8
BLACK
6
CONTINUOUS
10
145.6482869999999821
20
-102.2249419999999986
11
145.5393559999999979
21
-102.2112269999999938
0
LINE
8
BLACK
6
CONTINUOUS
10
145.5393559999999979
20
-102.2112269999999938
11
145.4766400000000033
21
-102.1828000000000003
0
LINE
8
BLACK
6
CONTINUOUS
10
145.4766400000000033
20
-102.1828000000000003
11
145.1016300000000001
21
-101.9574709999999982
0
LINE
8
BLACK
6
CONTINUOUS
10
145.1016300000000001
20
-101.9574709999999982
11
145.0470870000000048
21
-101.9154419999999988
0
LINE
8
BLACK
6
CONTINUOUS
10
145.0470870000000048
20
-101.9154419999999988
11
144.9838369999999941
21
-101.8256999999999977
0
LINE
8
BLACK
6
CONTINUOUS
10
144.9838369999999941
20
-101.8256999999999977
11
144.9572760000000073
21
-101.7191720000000004
0
LINE
8
BLACK
6
CONTINUOUS
10
144.9572760000000073
20
-101.7191720000000004
11
144.9709919999999954
21
-101.610241000000002
0
LINE
8
BLACK
6
CONTINUOUS
10
144.9709919999999954
20
-101.610241000000002
11
144.9994179999999915
21
-101.5475249999999932
0
LINE
8
BLACK
6
CONTINUOUS
10
144.9994179999999915
20
-101.5475249999999932
11
145.2633749999999964
21
-101.1082269999999994
0
LINE
8
BLACK
6
CONTINUOUS
10
145.2633749999999964
20
-101.1082269999999994
11
145.3054050000000075
21
-101.0536839999999899
0
LINE
8
BLACK
6
CONTINUOUS
10
145.3054050000000075
20
-101.0536839999999899
11
145.3951459999999827
21
-100.9904339999999934
0
LINE
8
BLACK
6
CONTINUOUS
10
145.3951459999999827
20
-100.9904339999999934
11
145.5016750000000059
21
-100.9638739999999899
0
LINE
8
BLACK
6
CONTINUOUS
10
145.5016750000000059
20
-100.9638739999999899
11
145.61060599999999
21
-100.9775889999999947
0
LINE
8
BLACK
6
CONTINUOUS
10
155.2754659999999944
20
-95.602603000000002
11
155.4515659999999855
21
-95.6598219999999912
0
LINE
8
BLACK
6
CONTINUOUS
10
155.4515659999999855
20
-95.6598219999999912
11
155.6165479999999945
21
-95.7438849999999917
0
LINE
8
BLACK
6
CONTINUOUS
10
155.6165479999999945
20
-95.7438849999999917
11
155.7663489999999911
21
-95.8527210000000025
0
LINE
8
BLACK
6
CONTINUOUS
10
155.7663489999999911
20
-95.8527210000000025
11
155.8972789999999975
21
-95.9836509999999947
0
LINE
8
BLACK
6
CONTINUOUS
10
155.8972789999999975
20
-95.9836509999999947
11
156.0061149999999941
21
-96.1334519999999912
0
LINE
8
BLACK
6
CONTINUOUS
10
156.0061149999999941
20
-96.1334519999999912
11
156.0901779999999803
21
-96.2984340000000003
0
LINE
8
BLACK
6
CONTINUOUS
10
156.0901779999999803
20
-96.2984340000000003
11
156.1473969999999838
21
-96.4745339999999914
0
LINE
8
BLACK
6
CONTINUOUS
10
156.1473969999999838
20
-96.4745339999999914
11
156.1763619999999833
21
-96.6574179999999927
0
LINE
8
BLACK
6
CONTINUOUS
10
156.1763619999999833
20
-96.6574179999999927
11
156.1763619999999833
21
-96.8425819999999931
0
LINE
8
BLACK
6
CONTINUOUS
10
156.1763619999999833
20
-96.8425819999999931
11
156.1473969999999838
21
-97.0254659999999944
0
LINE
8
BLACK
6
CONTINUOUS
10
156.1473969999999838
20
-97.0254659999999944
11
156.0901779999999803
21
-97.2015659999999997
0
LINE
8
BLACK
6
CONTINUOUS
10
156.0901779999999803
20
-97.2015659999999997
11
156.0061149999999941
21
-97.3665479999999945
0
LINE
8
BLACK
6
CONTINUOUS
10
156.0061149999999941
20
-97.3665479999999945
11
155.8972789999999975
21
-97.5163489999999911
0
LINE
8
BLACK
6
CONTINUOUS
10
155.8972789999999975
20
-97.5163489999999911
11
155.7663489999999911
21
-97.6472789999999975
0
LINE
8
BLACK
6
CONTINUOUS
10
155.7663489999999911
20
-97.6472789999999975
11
155.6165479999999945
21
-97.7561149999999941
0
LINE
8
BLACK
6
CONTINUOUS
10
155.6165479999999945
20
-97.7561149999999941
11
155.4515659999999855
21
-97.8401779999999945
0
LINE
8
BLACK
6
CONTINUOUS
10
155.4515659999999855
20
-97.8401779999999945
11
155.2754659999999944
21
-97.897396999999998
0
LINE
8
BLACK
6
CONTINUOUS
10
155.2754659999999944
20
-97.897396999999998
11
155.0925819999999931
21
-97.9263619999999975
0
LINE
8
BLACK
6
CONTINUOUS
10
155.0925819999999931
20
-97.9263619999999975
11
154.9074180000000069
21
-97.9263619999999975
0
LINE
8
BLACK
6
CONTINUOUS
10
154.9074180000000069
20
-97.9263619999999975
11
154.7245340000000056
21
-97.897396999999998
0
LINE
8
BLACK
6
CONTINUOUS
10
154.7245340000000056
20
-97.897396999999998
11
154.5484339999999861
21
-97.8401779999999945
0
LINE
8
BLACK
6
CONTINUOUS
10
154.5484339999999861
20
-97.8401779999999945
11
154.3834520000000055
21
-97.7561149999999941
0
LINE
8
BLACK
6
CONTINUOUS
10
154.3834520000000055
20
-97.7561149999999941
11
154.2336509999999805
21
-97.6472789999999975
0
LINE
8
BLACK
6
CONTINUOUS
10
154.2336509999999805
20
-97.6472789999999975
11
154.1027210000000025
21
-97.5163489999999911
0
LINE
8
BLACK
6
CONTINUOUS
10
154.1027210000000025
20
-97.5163489999999911
11
153.9938850000000059
21
-97.3665479999999945
0
LINE
8
BLACK
6
CONTINUOUS
10
153.9938850000000059
20
-97.3665479999999945
11
153.9098219999999912
21
-97.2015659999999997
0
LINE
8
BLACK
6
CONTINUOUS
10
153.9098219999999912
20
-97.2015659999999997
11
153.8526029999999878
21
-97.0254659999999944
0
LINE
8
BLACK
6
CONTINUOUS
10
153.8526029999999878
20
-97.0254659999999944
11
153.8236379999999883
21
-96.8425819999999931
0
LINE
8
BLACK
6
CONTINUOUS
10
153.8236379999999883
20
-96.8425819999999931
11
153.8236379999999883
21
-96.6574179999999927
0
LINE
8
BLACK
6
CONTINUOUS
10
153.8236379999999883
20
-96.6574179999999927
11
153.8526029999999878
21
-96.4745339999999914
0
LINE
8
BLACK
6
CONTINUOUS
10
153.8526029999999878
20
-96.4745339999999914
11
153.9098219999999912
21
-96.2984340000000003
0
LINE
8
BLACK
6
CONTINUOUS
10
153.9098219999999912
20
-96.2984340000000003
11
153.9938850000000059
21
-96.1334519999999912
0
LINE
8
BLACK
6
CONTINUOUS
10
153.9938850000000059
20
-96.1334519999999912
11
154.1027210000000025
21
-95.9836509999999947
0
LINE
8
BLACK
6
CONTINUOUS
10
154.1027210000000025
20
-95.9836509999999947
11
154.2336509999999805
21
-95.8527210000000025
0
LINE
8
BLACK
6
CONTINUOUS
10
154.2336509999999805
20
-95.8527210000000025
11
154.3834520000000055
21
-95.7438849999999917
0
LINE
8
BLACK
6
CONTINUOUS
10
154.3834520000000055
20
-95.7438849999999917
11
154.5484339999999861
21
-95.6598219999999912
0
LINE
8
BLACK
6
CONTINUOUS
10
154.5484339999999861
20
-95.6598219999999912
11
154.7245340000000056
21
-95.602603000000002
0
LINE
8
BLACK
6
CONTINUOUS
10
154.7245340000000056
20
-95.602603000000002
11
154.9074180000000069
21
-95.5736380000000025
0
LINE
8
BLACK
6
CONTINUOUS
10
154.9074180000000069
20
-95.5736380000000025
11
155.0925819999999931
21
-95.5736380000000025
0
LINE
8
BLACK
6
CONTINUOUS
10
155.0925819999999931
20
-95.5736380000000025
11
155.2754659999999944
21
-95.602603000000002
  0
ENDSEC
  0
EOF
