  0
SECTION
  2
HEADER
  9
$ANGBASE
  50
0.0
  9
$ANGDIR
  70
1
  9
$MEASUREMENT
  70
1
  0
ENDSEC
  0
SECTION
  2
TABLES
  0
TABLE
  2
LTYPE
  70
4
  0
LTYPE
  5
40F
  2
CONTINUOUS
  70
0
  3
Solid line
  72
65
  73
0
  40
0.0
  0
LTYPE
  5
410
  2
DASHDOT
 70
0
  3
Dash Dot ____ _ ____ _
 72
65
 73
4
 40
2.0
 49
1.25
 49
-0.25
 49
0.25
 49
-0.25
  0
LTYPE
  5
411
  2
DASHED
 70
0
  3
Dashed __ __ __ __ __
 72
65
 73
2
 40
0.75
 49
0.5
 49
-0.25
  0
LTYPE
  5
43B
  2
DOTTED
 70
0
  3
Dotted .  .  .  .
 72
65
 73
2
 40
0.2
 49
0.0
 49
-0.2
  0
ENDTAB
  0
TABLE
  2
STYLE
  70
4
  0
STYLE
  2
KICAD
  70
0
  40
0
  41
1
  42
1
  50
0
  71
0
  3
isocp.shx
  0
STYLE
  2
KICADB
  70
0
  40
0
  41
1
  42
1
  50
0
  71
0
  3
isocp.shx
  0
STYLE
  2
KICADI
  70
0
  40
0
  41
1
  42
1
  50
15
  71
0
  3
isocp.shx
  0
STYLE
  2
KICADBI
  70
0
  40
0
  41
1
  42
1
  50
15
  71
0
  3
isocp.shx
  0
ENDTAB
  0
TABLE
  2
LAYER
  70
1
  0
LAYER
  2
BLACK
  70
0
  62
7
  6
CONTINUOUS
  0
ENDTAB
  0
ENDSEC
  0
SECTION
  2
ENTITIES
0
LINE
8
BLACK
6
CONTINUOUS
10
164.2516880000000015
20
-78.1000569999999925
11
164.2611049999999864
21
-78.1026019999999903
0
LINE
8
BLACK
6
CONTINUOUS
10
164.2611049999999864
20
-78.1026019999999903
11
164.2636210000000005
21
-78.1054829999999924
0
LINE
8
BLACK
6
CONTINUOUS
10
164.2636210000000005
20
-78.1054829999999924
11
164.2671949999999867
21
-78.1068520000000035
0
LINE
8
BLACK
6
CONTINUOUS
10
164.2671949999999867
20
-78.1068520000000035
11
164.2696789999999964
21
-78.1124209999999977
0
LINE
8
BLACK
6
CONTINUOUS
10
164.2696789999999964
20
-78.1124209999999977
11
164.2736899999999878
21
-78.1170139999999975
0
LINE
8
BLACK
6
CONTINUOUS
10
164.2736899999999878
20
-78.1170139999999975
11
164.273430999999988
21
-78.1208309999999955
0
LINE
8
BLACK
6
CONTINUOUS
10
164.273430999999988
20
-78.1208309999999955
11
164.274991
21
-78.1243259999999964
0
LINE
8
BLACK
6
CONTINUOUS
10
164.274991
20
-78.1243259999999964
11
164.2733470000000011
21
-78.133940999999993
0
LINE
8
BLACK
6
CONTINUOUS
10
164.2733470000000011
20
-78.133940999999993
11
162.0252319999999884
21
-84.0040149999999954
0
LINE
8
BLACK
6
CONTINUOUS
10
162.0252319999999884
20
-84.0040149999999954
11
162.8999689999999987
21
-101.4987509999999986
0
LINE
8
BLACK
6
CONTINUOUS
10
162.8999689999999987
20
-101.4987509999999986
11
162.8985459999999819
21
-101.5084009999999921
0
LINE
8
BLACK
6
CONTINUOUS
10
162.8985459999999819
20
-101.5084009999999921
11
162.8975599999999986
21
-101.5094899999999996
0
LINE
8
BLACK
6
CONTINUOUS
10
162.8975599999999986
20
-101.5094899999999996
11
162.8974709999999959
21
-101.5109569999999906
0
LINE
8
BLACK
6
CONTINUOUS
10
162.8974709999999959
20
-101.5109569999999906
11
162.8912640000000067
21
-101.5164489999999944
0
LINE
8
BLACK
6
CONTINUOUS
10
162.8912640000000067
20
-101.5164489999999944
11
162.8857079999999939
21
-101.5225899999999939
0
LINE
8
BLACK
6
CONTINUOUS
10
162.8857079999999939
20
-101.5225899999999939
11
162.8842410000000029
21
-101.5226629999999943
0
LINE
8
BLACK
6
CONTINUOUS
10
162.8842410000000029
20
-101.5226629999999943
11
162.8831409999999948
21
-101.5236369999999937
0
LINE
8
BLACK
6
CONTINUOUS
10
162.8831409999999948
20
-101.5236369999999937
11
162.8734759999999824
21
-101.5249539999999939
0
LINE
8
BLACK
6
CONTINUOUS
10
162.8734759999999824
20
-101.5249539999999939
11
130.1234759999999824
21
-99.5249539999999939
0
LINE
8
BLACK
6
CONTINUOUS
10
130.1234759999999824
20
-99.5249539999999939
11
130.114042999999981
21
-99.5224709999999959
0
LINE
8
BLACK
6
CONTINUOUS
10
130.114042999999981
20
-99.5224709999999959
11
130.1130100000000027
21
-99.521302999999989
0
LINE
8
BLACK
6
CONTINUOUS
10
130.1130100000000027
20
-99.521302999999989
11
130.1114749999999844
21
-99.521025999999992
0
LINE
8
BLACK
6
CONTINUOUS
10
130.1114749999999844
20
-99.521025999999992
11
130.1067960000000028
21
-99.5142809999999969
0
LINE
8
BLACK
6
CONTINUOUS
10
130.1067960000000028
20
-99.5142809999999969
11
130.1013629999999921
21
-99.5081409999999948
0
LINE
8
BLACK
6
CONTINUOUS
10
130.1013629999999921
20
-99.5081409999999948
11
130.1014569999999821
21
-99.5065850000000012
0
LINE
8
BLACK
6
CONTINUOUS
10
130.1014569999999821
20
-99.5065850000000012
11
130.1005690000000072
21
-99.5053039999999953
0
LINE
8
BLACK
6
CONTINUOUS
10
130.1005690000000072
20
-99.5053039999999953
11
130.1003989999999817
21
-99.4955509999999919
0
LINE
8
BLACK
6
CONTINUOUS
10
130.1003989999999817
20
-99.4955509999999919
11
132.2247629999999958
21
-87.7490659999999991
0
LINE
8
BLACK
6
CONTINUOUS
10
132.2247629999999958
20
-87.7490659999999991
11
130.9751369999999895
21
-75.8776170000000008
0
LINE
8
BLACK
6
CONTINUOUS
10
130.9751369999999895
20
-75.8776170000000008
11
130.9760279999999852
21
-75.8679029999999983
0
LINE
8
BLACK
6
CONTINUOUS
10
130.9760279999999852
20
-75.8679029999999983
11
130.9774490000000071
21
-75.866146999999998
0
LINE
8
BLACK
6
CONTINUOUS
10
130.9774490000000071
20
-75.866146999999998
11
130.9776019999999903
21
-75.8638949999999994
0
LINE
8
BLACK
6
CONTINUOUS
10
130.9776019999999903
20
-75.8638949999999994
11
130.9833030000000065
21
-75.8589159999999936
0
LINE
8
BLACK
6
CONTINUOUS
10
130.9833030000000065
20
-75.8589159999999936
11
130.9880679999999984
21
-75.8530310000000014
0
LINE
8
BLACK
6
CONTINUOUS
10
130.9880679999999984
20
-75.8530310000000014
11
130.9903129999999862
21
-75.8527940000000029
0
LINE
8
BLACK
6
CONTINUOUS
10
130.9903129999999862
20
-75.8527940000000029
11
130.9920139999999833
21
-75.851309999999998
0
LINE
8
BLACK
6
CONTINUOUS
10
130.9920139999999833
20
-75.851309999999998
11
131.0016880000000015
21
-75.8500569999999925
0
LINE
8
BLACK
6
CONTINUOUS
10
131.0016880000000015
20
-75.8500569999999925
11
164.2516880000000015
21
-78.1000569999999925
0
LINE
8
BLACK
6
CONTINUOUS
10
132.2748629999999821
20
-87.7473829999999992
11
132.2745390000000043
21
-87.7509110000000021
0
LINE
8
BLACK
6
CONTINUOUS
10
132.2745390000000043
20
-87.7509110000000021
11
132.2746009999999899
21
-87.7544489999999939
0
LINE
8
BLACK
6
CONTINUOUS
10
132.2746009999999899
20
-87.7544489999999939
11
130.1546079999999961
21
-99.4767609999999962
0
LINE
8
BLACK
6
CONTINUOUS
10
130.1546079999999961
20
-99.4767609999999962
11
162.8486350000000016
21
-101.4733420000000024
0
LINE
8
BLACK
6
CONTINUOUS
10
162.8486350000000016
20
-101.4733420000000024
11
161.9750310000000013
21
-84.0012479999999897
0
LINE
8
BLACK
6
CONTINUOUS
10
161.9750310000000013
20
-84.0012479999999897
11
161.975088999999997
21
-84.0008529999999922
0
LINE
8
BLACK
6
CONTINUOUS
10
161.975088999999997
20
-84.0008529999999922
11
161.975009
21
-84.0006739999999894
0
LINE
8
BLACK
6
CONTINUOUS
10
161.975009
20
-84.0006739999999894
11
161.9757809999999836
21
-83.9961600000000033
0
LINE
8
BLACK
6
CONTINUOUS
10
161.9757809999999836
20
-83.9961600000000033
11
161.9764539999999897
21
-83.9915979999999962
0
LINE
8
BLACK
6
CONTINUOUS
10
161.9764539999999897
20
-83.9915979999999962
11
161.9765859999999975
21
-83.9914509999999979
0
LINE
8
BLACK
6
CONTINUOUS
10
161.9765859999999975
20
-83.9914509999999979
11
161.9766539999999964
21
-83.9910589999999928
0
LINE
8
BLACK
6
CONTINUOUS
10
161.9766539999999964
20
-83.9910589999999928
11
164.2145519999999976
21
-78.1476579999999927
0
LINE
8
BLACK
6
CONTINUOUS
10
164.2145519999999976
20
-78.1476579999999927
11
131.0279749999999979
21
-75.9019499999999994
0
LINE
8
BLACK
6
CONTINUOUS
10
131.0279749999999979
20
-75.9019499999999994
11
132.2748629999999821
21
-87.7473829999999992
  0
ENDSEC
  0
EOF
