  0
SECTION
  2
HEADER
  9
$ANGBASE
  50
0.0
  9
$ANGDIR
  70
1
  9
$MEASUREMENT
  70
1
  0
ENDSEC
  0
SECTION
  2
TABLES
  0
TABLE
  2
LTYPE
  70
4
  0
LTYPE
  5
40F
  2
CONTINUOUS
  70
0
  3
Solid line
  72
65
  73
0
  40
0.0
  0
LTYPE
  5
410
  2
DASHDOT
 70
0
  3
Dash Dot ____ _ ____ _
 72
65
 73
4
 40
2.0
 49
1.25
 49
-0.25
 49
0.25
 49
-0.25
  0
LTYPE
  5
411
  2
DASHED
 70
0
  3
Dashed __ __ __ __ __
 72
65
 73
2
 40
0.75
 49
0.5
 49
-0.25
  0
LTYPE
  5
43B
  2
DOTTED
 70
0
  3
Dotted .  .  .  .
 72
65
 73
2
 40
0.2
 49
0.0
 49
-0.2
  0
ENDTAB
  0
TABLE
  2
STYLE
  70
4
  0
STYLE
  2
KICAD
  70
0
  40
0
  41
1
  42
1
  50
0
  71
0
  3
isocp.shx
  0
STYLE
  2
KICADB
  70
0
  40
0
  41
1
  42
1
  50
0
  71
0
  3
isocp.shx
  0
STYLE
  2
KICADI
  70
0
  40
0
  41
1
  42
1
  50
15
  71
0
  3
isocp.shx
  0
STYLE
  2
KICADBI
  70
0
  40
0
  41
1
  42
1
  50
15
  71
0
  3
isocp.shx
  0
ENDTAB
  0
TABLE
  2
LAYER
  70
1
  0
LAYER
  2
BLACK
  70
0
  62
7
  6
CONTINUOUS
  0
ENDTAB
  0
ENDSEC
  0
SECTION
  2
ENTITIES
0
LINE
8
BLACK
6
CONTINUOUS
10
137.9450899999999933
20
-95.5192150000000026
11
138.1326829999999859
21
-95.5761199999999889
0
LINE
8
BLACK
6
CONTINUOUS
10
138.1326829999999859
20
-95.5761199999999889
11
138.3055699999999888
21
-95.6685299999999899
0
LINE
8
BLACK
6
CONTINUOUS
10
138.3055699999999888
20
-95.6685299999999899
11
138.4571070000000077
21
-95.7928929999999923
0
LINE
8
BLACK
6
CONTINUOUS
10
138.4571070000000077
20
-95.7928929999999923
11
138.5814699999999959
21
-95.944429999999997
0
LINE
8
BLACK
6
CONTINUOUS
10
138.5814699999999959
20
-95.944429999999997
11
138.6738799999999969
21
-96.1173169999999999
0
LINE
8
BLACK
6
CONTINUOUS
10
138.6738799999999969
20
-96.1173169999999999
11
138.7307849999999974
21
-96.3049099999999925
0
LINE
8
BLACK
6
CONTINUOUS
10
138.7307849999999974
20
-96.3049099999999925
11
138.75
21
-96.5
0
LINE
8
BLACK
6
CONTINUOUS
10
138.75
20
-96.5
11
138.7307849999999974
21
-96.6950899999999933
0
LINE
8
BLACK
6
CONTINUOUS
10
138.7307849999999974
20
-96.6950899999999933
11
138.6738799999999969
21
-96.8826830000000001
0
LINE
8
BLACK
6
CONTINUOUS
10
138.6738799999999969
20
-96.8826830000000001
11
138.5814699999999959
21
-97.0555699999999888
0
LINE
8
BLACK
6
CONTINUOUS
10
138.5814699999999959
20
-97.0555699999999888
11
138.4571070000000077
21
-97.2071069999999935
0
LINE
8
BLACK
6
CONTINUOUS
10
138.4571070000000077
20
-97.2071069999999935
11
138.3055699999999888
21
-97.3314699999999959
0
LINE
8
BLACK
6
CONTINUOUS
10
138.3055699999999888
20
-97.3314699999999959
11
138.1326829999999859
21
-97.4238799999999969
0
LINE
8
BLACK
6
CONTINUOUS
10
138.1326829999999859
20
-97.4238799999999969
11
137.9450899999999933
21
-97.4807849999999974
0
LINE
8
BLACK
6
CONTINUOUS
10
137.9450899999999933
20
-97.4807849999999974
11
137.75
21
-97.5
0
LINE
8
BLACK
6
CONTINUOUS
10
137.75
20
-97.5
11
137.5549100000000067
21
-97.4807849999999974
0
LINE
8
BLACK
6
CONTINUOUS
10
137.5549100000000067
20
-97.4807849999999974
11
137.3673169999999857
21
-97.4238799999999969
0
LINE
8
BLACK
6
CONTINUOUS
10
137.3673169999999857
20
-97.4238799999999969
11
137.1944299999999828
21
-97.3314699999999959
0
LINE
8
BLACK
6
CONTINUOUS
10
137.1944299999999828
20
-97.3314699999999959
11
137.0428929999999923
21
-97.2071069999999935
0
LINE
8
BLACK
6
CONTINUOUS
10
137.0428929999999923
20
-97.2071069999999935
11
136.9185300000000041
21
-97.0555699999999888
0
LINE
8
BLACK
6
CONTINUOUS
10
136.9185300000000041
20
-97.0555699999999888
11
136.8261200000000031
21
-96.8826830000000001
0
LINE
8
BLACK
6
CONTINUOUS
10
136.8261200000000031
20
-96.8826830000000001
11
136.7692150000000026
21
-96.6950899999999933
0
LINE
8
BLACK
6
CONTINUOUS
10
136.7692150000000026
20
-96.6950899999999933
11
136.75
21
-96.5
0
LINE
8
BLACK
6
CONTINUOUS
10
136.75
20
-96.5
11
136.7692150000000026
21
-96.3049099999999925
0
LINE
8
BLACK
6
CONTINUOUS
10
136.7692150000000026
20
-96.3049099999999925
11
136.8261200000000031
21
-96.1173169999999999
0
LINE
8
BLACK
6
CONTINUOUS
10
136.8261200000000031
20
-96.1173169999999999
11
136.9185300000000041
21
-95.944429999999997
0
LINE
8
BLACK
6
CONTINUOUS
10
136.9185300000000041
20
-95.944429999999997
11
137.0428929999999923
21
-95.7928929999999923
0
LINE
8
BLACK
6
CONTINUOUS
10
137.0428929999999923
20
-95.7928929999999923
11
137.1944299999999828
21
-95.6685299999999899
0
LINE
8
BLACK
6
CONTINUOUS
10
137.1944299999999828
20
-95.6685299999999899
11
137.3673169999999857
21
-95.5761199999999889
0
LINE
8
BLACK
6
CONTINUOUS
10
137.3673169999999857
20
-95.5761199999999889
11
137.5549100000000067
21
-95.5192150000000026
0
LINE
8
BLACK
6
CONTINUOUS
10
137.5549100000000067
20
-95.5192150000000026
11
137.75
21
-95.5
0
LINE
8
BLACK
6
CONTINUOUS
10
137.75
20
-95.5
11
137.9450899999999933
21
-95.5192150000000026
0
LINE
8
BLACK
6
CONTINUOUS
10
143.488016999999985
20
-95.8375079999999997
11
143.5626350000000002
21
-95.8873650000000026
0
LINE
8
BLACK
6
CONTINUOUS
10
143.5626350000000002
20
-95.8873650000000026
11
143.6124920000000031
21
-95.9619829999999894
0
LINE
8
BLACK
6
CONTINUOUS
10
143.6124920000000031
20
-95.9619829999999894
11
143.6299999999999955
21
-96.0499999999999972
0
LINE
8
BLACK
6
CONTINUOUS
10
143.6299999999999955
20
-96.0499999999999972
11
143.6299999999999955
21
-96.3499999999999943
0
LINE
8
BLACK
6
CONTINUOUS
10
143.6299999999999955
20
-96.3499999999999943
11
143.6124920000000031
21
-96.4380170000000021
0
LINE
8
BLACK
6
CONTINUOUS
10
143.6124920000000031
20
-96.4380170000000021
11
143.5626350000000002
21
-96.5126349999999888
0
LINE
8
BLACK
6
CONTINUOUS
10
143.5626350000000002
20
-96.5126349999999888
11
143.488016999999985
21
-96.5624919999999918
0
LINE
8
BLACK
6
CONTINUOUS
10
143.488016999999985
20
-96.5624919999999918
11
143.4000000000000057
21
-96.5799999999999983
0
LINE
8
BLACK
6
CONTINUOUS
10
143.4000000000000057
20
-96.5799999999999983
11
142.2249999999999943
21
-96.5799999999999983
0
LINE
8
BLACK
6
CONTINUOUS
10
142.2249999999999943
20
-96.5799999999999983
11
142.1369829999999865
21
-96.5624919999999918
0
LINE
8
BLACK
6
CONTINUOUS
10
142.1369829999999865
20
-96.5624919999999918
11
142.0623649999999998
21
-96.5126349999999888
0
LINE
8
BLACK
6
CONTINUOUS
10
142.0623649999999998
20
-96.5126349999999888
11
142.0125079999999969
21
-96.4380170000000021
0
LINE
8
BLACK
6
CONTINUOUS
10
142.0125079999999969
20
-96.4380170000000021
11
141.9950000000000045
21
-96.3499999999999943
0
LINE
8
BLACK
6
CONTINUOUS
10
141.9950000000000045
20
-96.3499999999999943
11
141.9950000000000045
21
-96.0499999999999972
0
LINE
8
BLACK
6
CONTINUOUS
10
141.9950000000000045
20
-96.0499999999999972
11
142.0125079999999969
21
-95.9619829999999894
0
LINE
8
BLACK
6
CONTINUOUS
10
142.0125079999999969
20
-95.9619829999999894
11
142.0623649999999998
21
-95.8873650000000026
0
LINE
8
BLACK
6
CONTINUOUS
10
142.0623649999999998
20
-95.8873650000000026
11
142.1369829999999865
21
-95.8375079999999997
0
LINE
8
BLACK
6
CONTINUOUS
10
142.1369829999999865
20
-95.8375079999999997
11
142.2249999999999943
21
-95.8199999999999932
0
LINE
8
BLACK
6
CONTINUOUS
10
142.2249999999999943
20
-95.8199999999999932
11
143.4000000000000057
21
-95.8199999999999932
0
LINE
8
BLACK
6
CONTINUOUS
10
143.4000000000000057
20
-95.8199999999999932
11
143.488016999999985
21
-95.8375079999999997
0
LINE
8
BLACK
6
CONTINUOUS
10
145.363016999999985
20
-94.8875079999999969
11
145.4376350000000002
21
-94.9373649999999998
0
LINE
8
BLACK
6
CONTINUOUS
10
145.4376350000000002
20
-94.9373649999999998
11
145.4874920000000031
21
-95.0119830000000007
0
LINE
8
BLACK
6
CONTINUOUS
10
145.4874920000000031
20
-95.0119830000000007
11
145.5049999999999955
21
-95.0999999999999943
0
LINE
8
BLACK
6
CONTINUOUS
10
145.5049999999999955
20
-95.0999999999999943
11
145.5049999999999955
21
-95.3999999999999915
0
LINE
8
BLACK
6
CONTINUOUS
10
145.5049999999999955
20
-95.3999999999999915
11
145.4874920000000031
21
-95.4880169999999993
0
LINE
8
BLACK
6
CONTINUOUS
10
145.4874920000000031
20
-95.4880169999999993
11
145.4376350000000002
21
-95.5626350000000002
0
LINE
8
BLACK
6
CONTINUOUS
10
145.4376350000000002
20
-95.5626350000000002
11
145.363016999999985
21
-95.6124919999999889
0
LINE
8
BLACK
6
CONTINUOUS
10
145.363016999999985
20
-95.6124919999999889
11
145.2750000000000057
21
-95.6299999999999955
0
LINE
8
BLACK
6
CONTINUOUS
10
145.2750000000000057
20
-95.6299999999999955
11
144.0999999999999943
21
-95.6299999999999955
0
LINE
8
BLACK
6
CONTINUOUS
10
144.0999999999999943
20
-95.6299999999999955
11
144.0119829999999865
21
-95.6124919999999889
0
LINE
8
BLACK
6
CONTINUOUS
10
144.0119829999999865
20
-95.6124919999999889
11
143.9373649999999998
21
-95.5626350000000002
0
LINE
8
BLACK
6
CONTINUOUS
10
143.9373649999999998
20
-95.5626350000000002
11
143.8875079999999969
21
-95.4880169999999993
0
LINE
8
BLACK
6
CONTINUOUS
10
143.8875079999999969
20
-95.4880169999999993
11
143.8700000000000045
21
-95.3999999999999915
0
LINE
8
BLACK
6
CONTINUOUS
10
143.8700000000000045
20
-95.3999999999999915
11
143.8700000000000045
21
-95.0999999999999943
0
LINE
8
BLACK
6
CONTINUOUS
10
143.8700000000000045
20
-95.0999999999999943
11
143.8875079999999969
21
-95.0119830000000007
0
LINE
8
BLACK
6
CONTINUOUS
10
143.8875079999999969
20
-95.0119830000000007
11
143.9373649999999998
21
-94.9373649999999998
0
LINE
8
BLACK
6
CONTINUOUS
10
143.9373649999999998
20
-94.9373649999999998
11
144.0119829999999865
21
-94.8875079999999969
0
LINE
8
BLACK
6
CONTINUOUS
10
144.0119829999999865
20
-94.8875079999999969
11
144.0999999999999943
21
-94.8699999999999903
0
LINE
8
BLACK
6
CONTINUOUS
10
144.0999999999999943
20
-94.8699999999999903
11
145.2750000000000057
21
-94.8699999999999903
0
LINE
8
BLACK
6
CONTINUOUS
10
145.2750000000000057
20
-94.8699999999999903
11
145.363016999999985
21
-94.8875079999999969
0
LINE
8
BLACK
6
CONTINUOUS
10
151.8095899999999858
20
-93.9779319999999956
11
151.9376069999999856
21
-94.0227269999999891
0
LINE
8
BLACK
6
CONTINUOUS
10
151.9376069999999856
20
-94.0227269999999891
11
152.0467339999999865
21
-94.1032659999999908
0
LINE
8
BLACK
6
CONTINUOUS
10
152.0467339999999865
20
-94.1032659999999908
11
152.1272730000000024
21
-94.2123929999999916
0
LINE
8
BLACK
6
CONTINUOUS
10
152.1272730000000024
20
-94.2123929999999916
11
152.1720679999999959
21
-94.3404099999999914
0
LINE
8
BLACK
6
CONTINUOUS
10
152.1720679999999959
20
-94.3404099999999914
11
152.1800000000000068
21
-94.4249999999999972
0
LINE
8
BLACK
6
CONTINUOUS
10
152.1800000000000068
20
-94.4249999999999972
11
152.1800000000000068
21
-95.1749999999999972
0
LINE
8
BLACK
6
CONTINUOUS
10
152.1800000000000068
20
-95.1749999999999972
11
152.1720679999999959
21
-95.2595899999999887
0
LINE
8
BLACK
6
CONTINUOUS
10
152.1720679999999959
20
-95.2595899999999887
11
152.1272730000000024
21
-95.3876070000000027
0
LINE
8
BLACK
6
CONTINUOUS
10
152.1272730000000024
20
-95.3876070000000027
11
152.0467339999999865
21
-95.4967339999999894
0
LINE
8
BLACK
6
CONTINUOUS
10
152.0467339999999865
20
-95.4967339999999894
11
151.9376069999999856
21
-95.577272999999991
0
LINE
8
BLACK
6
CONTINUOUS
10
151.9376069999999856
20
-95.577272999999991
11
151.8095899999999858
21
-95.6220679999999987
0
LINE
8
BLACK
6
CONTINUOUS
10
151.8095899999999858
20
-95.6220679999999987
11
151.7249999999999943
21
-95.6299999999999955
0
LINE
8
BLACK
6
CONTINUOUS
10
151.7249999999999943
20
-95.6299999999999955
11
149.4749999999999943
21
-95.6299999999999955
0
LINE
8
BLACK
6
CONTINUOUS
10
149.4749999999999943
20
-95.6299999999999955
11
149.3904100000000028
21
-95.6220679999999987
0
LINE
8
BLACK
6
CONTINUOUS
10
149.3904100000000028
20
-95.6220679999999987
11
149.262393000000003
21
-95.577272999999991
0
LINE
8
BLACK
6
CONTINUOUS
10
149.262393000000003
20
-95.577272999999991
11
149.1532660000000021
21
-95.4967339999999894
0
LINE
8
BLACK
6
CONTINUOUS
10
149.1532660000000021
20
-95.4967339999999894
11
149.0727269999999862
21
-95.3876070000000027
0
LINE
8
BLACK
6
CONTINUOUS
10
149.0727269999999862
20
-95.3876070000000027
11
149.0279319999999927
21
-95.2595899999999887
0
LINE
8
BLACK
6
CONTINUOUS
10
149.0279319999999927
20
-95.2595899999999887
11
149.0199999999999818
21
-95.1749999999999972
0
LINE
8
BLACK
6
CONTINUOUS
10
149.0199999999999818
20
-95.1749999999999972
11
149.0199999999999818
21
-94.4249999999999972
0
LINE
8
BLACK
6
CONTINUOUS
10
149.0199999999999818
20
-94.4249999999999972
11
149.0279319999999927
21
-94.3404099999999914
0
LINE
8
BLACK
6
CONTINUOUS
10
149.0279319999999927
20
-94.3404099999999914
11
149.0727269999999862
21
-94.2123929999999916
0
LINE
8
BLACK
6
CONTINUOUS
10
149.0727269999999862
20
-94.2123929999999916
11
149.1532660000000021
21
-94.1032659999999908
0
LINE
8
BLACK
6
CONTINUOUS
10
149.1532660000000021
20
-94.1032659999999908
11
149.262393000000003
21
-94.0227269999999891
0
LINE
8
BLACK
6
CONTINUOUS
10
149.262393000000003
20
-94.0227269999999891
11
149.3904100000000028
21
-93.9779319999999956
0
LINE
8
BLACK
6
CONTINUOUS
10
149.3904100000000028
20
-93.9779319999999956
11
149.4749999999999943
21
-93.9699999999999989
0
LINE
8
BLACK
6
CONTINUOUS
10
149.4749999999999943
20
-93.9699999999999989
11
151.7249999999999943
21
-93.9699999999999989
0
LINE
8
BLACK
6
CONTINUOUS
10
151.7249999999999943
20
-93.9699999999999989
11
151.8095899999999858
21
-93.9779319999999956
0
LINE
8
BLACK
6
CONTINUOUS
10
158.7095899999999915
20
-93.9779319999999956
11
158.8376069999999913
21
-94.0227269999999891
0
LINE
8
BLACK
6
CONTINUOUS
10
158.8376069999999913
20
-94.0227269999999891
11
158.9467339999999922
21
-94.1032659999999908
0
LINE
8
BLACK
6
CONTINUOUS
10
158.9467339999999922
20
-94.1032659999999908
11
159.0272729999999797
21
-94.2123929999999916
0
LINE
8
BLACK
6
CONTINUOUS
10
159.0272729999999797
20
-94.2123929999999916
11
159.0720680000000016
21
-94.3404099999999914
0
LINE
8
BLACK
6
CONTINUOUS
10
159.0720680000000016
20
-94.3404099999999914
11
159.0799999999999841
21
-94.4249999999999972
0
LINE
8
BLACK
6
CONTINUOUS
10
159.0799999999999841
20
-94.4249999999999972
11
159.0799999999999841
21
-95.1749999999999972
0
LINE
8
BLACK
6
CONTINUOUS
10
159.0799999999999841
20
-95.1749999999999972
11
159.0720680000000016
21
-95.2595899999999887
0
LINE
8
BLACK
6
CONTINUOUS
10
159.0720680000000016
20
-95.2595899999999887
11
159.0272729999999797
21
-95.3876070000000027
0
LINE
8
BLACK
6
CONTINUOUS
10
159.0272729999999797
20
-95.3876070000000027
11
158.9467339999999922
21
-95.4967339999999894
0
LINE
8
BLACK
6
CONTINUOUS
10
158.9467339999999922
20
-95.4967339999999894
11
158.8376069999999913
21
-95.577272999999991
0
LINE
8
BLACK
6
CONTINUOUS
10
158.8376069999999913
20
-95.577272999999991
11
158.7095899999999915
21
-95.6220679999999987
0
LINE
8
BLACK
6
CONTINUOUS
10
158.7095899999999915
20
-95.6220679999999987
11
158.625
21
-95.6299999999999955
0
LINE
8
BLACK
6
CONTINUOUS
10
158.625
20
-95.6299999999999955
11
156.375
21
-95.6299999999999955
0
LINE
8
BLACK
6
CONTINUOUS
10
156.375
20
-95.6299999999999955
11
156.2904099999999801
21
-95.6220679999999987
0
LINE
8
BLACK
6
CONTINUOUS
10
156.2904099999999801
20
-95.6220679999999987
11
156.1623929999999802
21
-95.577272999999991
0
LINE
8
BLACK
6
CONTINUOUS
10
156.1623929999999802
20
-95.577272999999991
11
156.0532659999999794
21
-95.4967339999999894
0
LINE
8
BLACK
6
CONTINUOUS
10
156.0532659999999794
20
-95.4967339999999894
11
155.9727269999999919
21
-95.3876070000000027
0
LINE
8
BLACK
6
CONTINUOUS
10
155.9727269999999919
20
-95.3876070000000027
11
155.9279319999999984
21
-95.2595899999999887
0
LINE
8
BLACK
6
CONTINUOUS
10
155.9279319999999984
20
-95.2595899999999887
11
155.9199999999999875
21
-95.1749999999999972
0
LINE
8
BLACK
6
CONTINUOUS
10
155.9199999999999875
20
-95.1749999999999972
11
155.9199999999999875
21
-94.4249999999999972
0
LINE
8
BLACK
6
CONTINUOUS
10
155.9199999999999875
20
-94.4249999999999972
11
155.9279319999999984
21
-94.3404099999999914
0
LINE
8
BLACK
6
CONTINUOUS
10
155.9279319999999984
20
-94.3404099999999914
11
155.9727269999999919
21
-94.2123929999999916
0
LINE
8
BLACK
6
CONTINUOUS
10
155.9727269999999919
20
-94.2123929999999916
11
156.0532659999999794
21
-94.1032659999999908
0
LINE
8
BLACK
6
CONTINUOUS
10
156.0532659999999794
20
-94.1032659999999908
11
156.1623929999999802
21
-94.0227269999999891
0
LINE
8
BLACK
6
CONTINUOUS
10
156.1623929999999802
20
-94.0227269999999891
11
156.2904099999999801
21
-93.9779319999999956
0
LINE
8
BLACK
6
CONTINUOUS
10
156.2904099999999801
20
-93.9779319999999956
11
156.375
21
-93.9699999999999989
0
LINE
8
BLACK
6
CONTINUOUS
10
156.375
20
-93.9699999999999989
11
158.625
21
-93.9699999999999989
0
LINE
8
BLACK
6
CONTINUOUS
10
158.625
20
-93.9699999999999989
11
158.7095899999999915
21
-93.9779319999999956
0
LINE
8
BLACK
6
CONTINUOUS
10
143.488016999999985
20
-93.937507999999994
11
143.5626350000000002
21
-93.9873649999999969
0
LINE
8
BLACK
6
CONTINUOUS
10
143.5626350000000002
20
-93.9873649999999969
11
143.6124920000000031
21
-94.0619829999999979
0
LINE
8
BLACK
6
CONTINUOUS
10
143.6124920000000031
20
-94.0619829999999979
11
143.6299999999999955
21
-94.1499999999999915
0
LINE
8
BLACK
6
CONTINUOUS
10
143.6299999999999955
20
-94.1499999999999915
11
143.6299999999999955
21
-94.4499999999999886
0
LINE
8
BLACK
6
CONTINUOUS
10
143.6299999999999955
20
-94.4499999999999886
11
143.6124920000000031
21
-94.5380169999999964
0
LINE
8
BLACK
6
CONTINUOUS
10
143.6124920000000031
20
-94.5380169999999964
11
143.5626350000000002
21
-94.6126349999999974
0
LINE
8
BLACK
6
CONTINUOUS
10
143.5626350000000002
20
-94.6126349999999974
11
143.488016999999985
21
-94.6624920000000003
0
LINE
8
BLACK
6
CONTINUOUS
10
143.488016999999985
20
-94.6624920000000003
11
143.4000000000000057
21
-94.6799999999999926
0
LINE
8
BLACK
6
CONTINUOUS
10
143.4000000000000057
20
-94.6799999999999926
11
142.2249999999999943
21
-94.6799999999999926
0
LINE
8
BLACK
6
CONTINUOUS
10
142.2249999999999943
20
-94.6799999999999926
11
142.1369829999999865
21
-94.6624920000000003
0
LINE
8
BLACK
6
CONTINUOUS
10
142.1369829999999865
20
-94.6624920000000003
11
142.0623649999999998
21
-94.6126349999999974
0
LINE
8
BLACK
6
CONTINUOUS
10
142.0623649999999998
20
-94.6126349999999974
11
142.0125079999999969
21
-94.5380169999999964
0
LINE
8
BLACK
6
CONTINUOUS
10
142.0125079999999969
20
-94.5380169999999964
11
141.9950000000000045
21
-94.4499999999999886
0
LINE
8
BLACK
6
CONTINUOUS
10
141.9950000000000045
20
-94.4499999999999886
11
141.9950000000000045
21
-94.1499999999999915
0
LINE
8
BLACK
6
CONTINUOUS
10
141.9950000000000045
20
-94.1499999999999915
11
142.0125079999999969
21
-94.0619829999999979
0
LINE
8
BLACK
6
CONTINUOUS
10
142.0125079999999969
20
-94.0619829999999979
11
142.0623649999999998
21
-93.9873649999999969
0
LINE
8
BLACK
6
CONTINUOUS
10
142.0623649999999998
20
-93.9873649999999969
11
142.1369829999999865
21
-93.937507999999994
0
LINE
8
BLACK
6
CONTINUOUS
10
142.1369829999999865
20
-93.937507999999994
11
142.2249999999999943
21
-93.9200000000000017
0
LINE
8
BLACK
6
CONTINUOUS
10
142.2249999999999943
20
-93.9200000000000017
11
143.4000000000000057
21
-93.9200000000000017
0
LINE
8
BLACK
6
CONTINUOUS
10
143.4000000000000057
20
-93.9200000000000017
11
143.488016999999985
21
-93.937507999999994
0
LINE
8
BLACK
6
CONTINUOUS
10
137.585409999999996
20
-91.4312449999999899
11
137.6892799999999966
21
-91.4796800000000019
0
LINE
8
BLACK
6
CONTINUOUS
10
137.6892799999999966
20
-91.4796800000000019
11
137.7703199999999981
21
-91.5607199999999892
0
LINE
8
BLACK
6
CONTINUOUS
10
137.7703199999999981
20
-91.5607199999999892
11
137.8187549999999817
21
-91.6645899999999898
0
LINE
8
BLACK
6
CONTINUOUS
10
137.8187549999999817
20
-91.6645899999999898
11
137.8299989999999866
21
-91.750001999999995
0
LINE
8
BLACK
6
CONTINUOUS
10
137.8299989999999866
20
-91.750001999999995
11
137.8299999999999841
21
-93.3499989999999968
0
LINE
8
BLACK
6
CONTINUOUS
10
137.8299999999999841
20
-93.3499989999999968
11
137.8187549999999817
21
-93.4354099999999903
0
LINE
8
BLACK
6
CONTINUOUS
10
137.8187549999999817
20
-93.4354099999999903
11
137.7703199999999981
21
-93.5392799999999909
0
LINE
8
BLACK
6
CONTINUOUS
10
137.7703199999999981
20
-93.5392799999999909
11
137.6892799999999966
21
-93.6203199999999924
0
LINE
8
BLACK
6
CONTINUOUS
10
137.6892799999999966
20
-93.6203199999999924
11
137.585409999999996
21
-93.6687549999999902
0
LINE
8
BLACK
6
CONTINUOUS
10
137.585409999999996
20
-93.6687549999999902
11
137.499998000000005
21
-93.6799989999999951
0
LINE
8
BLACK
6
CONTINUOUS
10
137.499998000000005
20
-93.6799989999999951
11
135.0000009999999975
21
-93.6799999999999926
0
LINE
8
BLACK
6
CONTINUOUS
10
135.0000009999999975
20
-93.6799999999999926
11
134.914590000000004
21
-93.6687549999999902
0
LINE
8
BLACK
6
CONTINUOUS
10
134.914590000000004
20
-93.6687549999999902
11
134.8107200000000034
21
-93.6203199999999924
0
LINE
8
BLACK
6
CONTINUOUS
10
134.8107200000000034
20
-93.6203199999999924
11
134.7296800000000019
21
-93.5392799999999909
0
LINE
8
BLACK
6
CONTINUOUS
10
134.7296800000000019
20
-93.5392799999999909
11
134.6812449999999899
21
-93.4354099999999903
0
LINE
8
BLACK
6
CONTINUOUS
10
134.6812449999999899
20
-93.4354099999999903
11
134.670000999999985
21
-93.3499979999999994
0
LINE
8
BLACK
6
CONTINUOUS
10
134.670000999999985
20
-93.3499979999999994
11
134.6699999999999875
21
-91.7500009999999975
0
LINE
8
BLACK
6
CONTINUOUS
10
134.6699999999999875
20
-91.7500009999999975
11
134.6812449999999899
21
-91.6645899999999898
0
LINE
8
BLACK
6
CONTINUOUS
10
134.6812449999999899
20
-91.6645899999999898
11
134.7296800000000019
21
-91.5607199999999892
0
LINE
8
BLACK
6
CONTINUOUS
10
134.7296800000000019
20
-91.5607199999999892
11
134.8107200000000034
21
-91.4796800000000019
0
LINE
8
BLACK
6
CONTINUOUS
10
134.8107200000000034
20
-91.4796800000000019
11
134.914590000000004
21
-91.4312449999999899
0
LINE
8
BLACK
6
CONTINUOUS
10
134.914590000000004
20
-91.4312449999999899
11
135.000001999999995
21
-91.4200009999999992
0
LINE
8
BLACK
6
CONTINUOUS
10
135.000001999999995
20
-91.4200009999999992
11
137.4999990000000025
21
-91.4200000000000017
0
LINE
8
BLACK
6
CONTINUOUS
10
137.4999990000000025
20
-91.4200000000000017
11
137.585409999999996
21
-91.4312449999999899
0
LINE
8
BLACK
6
CONTINUOUS
10
151.7584279999999808
20
-91.3857979999999941
11
151.87080899999998
21
-91.4407369999999986
0
LINE
8
BLACK
6
CONTINUOUS
10
151.87080899999998
20
-91.4407369999999986
11
151.9592629999999929
21
-91.5291909999999973
0
LINE
8
BLACK
6
CONTINUOUS
10
151.9592629999999929
20
-91.5291909999999973
11
152.0142019999999832
21
-91.6415719999999965
0
LINE
8
BLACK
6
CONTINUOUS
10
152.0142019999999832
20
-91.6415719999999965
11
152.0300000000000011
21
-91.75
0
LINE
8
BLACK
6
CONTINUOUS
10
152.0300000000000011
20
-91.75
11
152.0300000000000011
21
-92.3499999999999943
0
LINE
8
BLACK
6
CONTINUOUS
10
152.0300000000000011
20
-92.3499999999999943
11
152.0142019999999832
21
-92.4584279999999978
0
LINE
8
BLACK
6
CONTINUOUS
10
152.0142019999999832
20
-92.4584279999999978
11
151.9592629999999929
21
-92.570808999999997
0
LINE
8
BLACK
6
CONTINUOUS
10
151.9592629999999929
20
-92.570808999999997
11
151.87080899999998
21
-92.6592629999999957
0
LINE
8
BLACK
6
CONTINUOUS
10
151.87080899999998
20
-92.6592629999999957
11
151.7584279999999808
21
-92.7142020000000002
0
LINE
8
BLACK
6
CONTINUOUS
10
151.7584279999999808
20
-92.7142020000000002
11
151.6500000000000057
21
-92.7299999999999898
0
LINE
8
BLACK
6
CONTINUOUS
10
151.6500000000000057
20
-92.7299999999999898
11
149.75
21
-92.7299999999999898
0
LINE
8
BLACK
6
CONTINUOUS
10
149.75
20
-92.7299999999999898
11
149.6415719999999965
21
-92.7142020000000002
0
LINE
8
BLACK
6
CONTINUOUS
10
149.6415719999999965
20
-92.7142020000000002
11
149.5291909999999973
21
-92.6592629999999957
0
LINE
8
BLACK
6
CONTINUOUS
10
149.5291909999999973
20
-92.6592629999999957
11
149.4407369999999844
21
-92.570808999999997
0
LINE
8
BLACK
6
CONTINUOUS
10
149.4407369999999844
20
-92.570808999999997
11
149.3857979999999941
21
-92.4584279999999978
0
LINE
8
BLACK
6
CONTINUOUS
10
149.3857979999999941
20
-92.4584279999999978
11
149.3700000000000045
21
-92.3499999999999943
0
LINE
8
BLACK
6
CONTINUOUS
10
149.3700000000000045
20
-92.3499999999999943
11
149.3700000000000045
21
-91.75
0
LINE
8
BLACK
6
CONTINUOUS
10
149.3700000000000045
20
-91.75
11
149.3857979999999941
21
-91.6415719999999965
0
LINE
8
BLACK
6
CONTINUOUS
10
149.3857979999999941
20
-91.6415719999999965
11
149.4407369999999844
21
-91.5291909999999973
0
LINE
8
BLACK
6
CONTINUOUS
10
149.4407369999999844
20
-91.5291909999999973
11
149.5291909999999973
21
-91.4407369999999986
0
LINE
8
BLACK
6
CONTINUOUS
10
149.5291909999999973
20
-91.4407369999999986
11
149.6415719999999965
21
-91.3857979999999941
0
LINE
8
BLACK
6
CONTINUOUS
10
149.6415719999999965
20
-91.3857979999999941
11
149.75
21
-91.3699999999999903
0
LINE
8
BLACK
6
CONTINUOUS
10
149.75
20
-91.3699999999999903
11
151.6500000000000057
21
-91.3699999999999903
0
LINE
8
BLACK
6
CONTINUOUS
10
151.6500000000000057
20
-91.3699999999999903
11
151.7584279999999808
21
-91.3857979999999941
0
LINE
8
BLACK
6
CONTINUOUS
10
158.4584279999999978
20
-91.3857979999999941
11
158.570808999999997
21
-91.4407369999999986
0
LINE
8
BLACK
6
CONTINUOUS
10
158.570808999999997
20
-91.4407369999999986
11
158.6592629999999815
21
-91.5291909999999973
0
LINE
8
BLACK
6
CONTINUOUS
10
158.6592629999999815
20
-91.5291909999999973
11
158.7142020000000002
21
-91.6415719999999965
0
LINE
8
BLACK
6
CONTINUOUS
10
158.7142020000000002
20
-91.6415719999999965
11
158.7299999999999898
21
-91.75
0
LINE
8
BLACK
6
CONTINUOUS
10
158.7299999999999898
20
-91.75
11
158.7299999999999898
21
-92.3499999999999943
0
LINE
8
BLACK
6
CONTINUOUS
10
158.7299999999999898
20
-92.3499999999999943
11
158.7142020000000002
21
-92.4584279999999978
0
LINE
8
BLACK
6
CONTINUOUS
10
158.7142020000000002
20
-92.4584279999999978
11
158.6592629999999815
21
-92.570808999999997
0
LINE
8
BLACK
6
CONTINUOUS
10
158.6592629999999815
20
-92.570808999999997
11
158.570808999999997
21
-92.6592629999999957
0
LINE
8
BLACK
6
CONTINUOUS
10
158.570808999999997
20
-92.6592629999999957
11
158.4584279999999978
21
-92.7142020000000002
0
LINE
8
BLACK
6
CONTINUOUS
10
158.4584279999999978
20
-92.7142020000000002
11
158.3499999999999943
21
-92.7299999999999898
0
LINE
8
BLACK
6
CONTINUOUS
10
158.3499999999999943
20
-92.7299999999999898
11
156.4499999999999886
21
-92.7299999999999898
0
LINE
8
BLACK
6
CONTINUOUS
10
156.4499999999999886
20
-92.7299999999999898
11
156.3415719999999851
21
-92.7142020000000002
0
LINE
8
BLACK
6
CONTINUOUS
10
156.3415719999999851
20
-92.7142020000000002
11
156.2291909999999859
21
-92.6592629999999957
0
LINE
8
BLACK
6
CONTINUOUS
10
156.2291909999999859
20
-92.6592629999999957
11
156.1407370000000014
21
-92.570808999999997
0
LINE
8
BLACK
6
CONTINUOUS
10
156.1407370000000014
20
-92.570808999999997
11
156.0857979999999827
21
-92.4584279999999978
0
LINE
8
BLACK
6
CONTINUOUS
10
156.0857979999999827
20
-92.4584279999999978
11
156.0699999999999932
21
-92.3499999999999943
0
LINE
8
BLACK
6
CONTINUOUS
10
156.0699999999999932
20
-92.3499999999999943
11
156.0699999999999932
21
-91.75
0
LINE
8
BLACK
6
CONTINUOUS
10
156.0699999999999932
20
-91.75
11
156.0857979999999827
21
-91.6415719999999965
0
LINE
8
BLACK
6
CONTINUOUS
10
156.0857979999999827
20
-91.6415719999999965
11
156.1407370000000014
21
-91.5291909999999973
0
LINE
8
BLACK
6
CONTINUOUS
10
156.1407370000000014
20
-91.5291909999999973
11
156.2291909999999859
21
-91.4407369999999986
0
LINE
8
BLACK
6
CONTINUOUS
10
156.2291909999999859
20
-91.4407369999999986
11
156.3415719999999851
21
-91.3857979999999941
0
LINE
8
BLACK
6
CONTINUOUS
10
156.3415719999999851
20
-91.3857979999999941
11
156.4499999999999886
21
-91.3699999999999903
0
LINE
8
BLACK
6
CONTINUOUS
10
156.4499999999999886
20
-91.3699999999999903
11
158.3499999999999943
21
-91.3699999999999903
0
LINE
8
BLACK
6
CONTINUOUS
10
158.3499999999999943
20
-91.3699999999999903
11
158.4584279999999978
21
-91.3857979999999941
0
LINE
8
BLACK
6
CONTINUOUS
10
143.488016999999985
20
-91.3375079999999997
11
143.5626350000000002
21
-91.3873650000000026
0
LINE
8
BLACK
6
CONTINUOUS
10
143.5626350000000002
20
-91.3873650000000026
11
143.6124920000000031
21
-91.4619829999999894
0
LINE
8
BLACK
6
CONTINUOUS
10
143.6124920000000031
20
-91.4619829999999894
11
143.6299999999999955
21
-91.5499999999999972
0
LINE
8
BLACK
6
CONTINUOUS
10
143.6299999999999955
20
-91.5499999999999972
11
143.6299999999999955
21
-91.8499999999999943
0
LINE
8
BLACK
6
CONTINUOUS
10
143.6299999999999955
20
-91.8499999999999943
11
143.6124920000000031
21
-91.9380170000000021
0
LINE
8
BLACK
6
CONTINUOUS
10
143.6124920000000031
20
-91.9380170000000021
11
143.5626350000000002
21
-92.0126349999999888
0
LINE
8
BLACK
6
CONTINUOUS
10
143.5626350000000002
20
-92.0126349999999888
11
143.488016999999985
21
-92.0624919999999918
0
LINE
8
BLACK
6
CONTINUOUS
10
143.488016999999985
20
-92.0624919999999918
11
143.4000000000000057
21
-92.0799999999999983
0
LINE
8
BLACK
6
CONTINUOUS
10
143.4000000000000057
20
-92.0799999999999983
11
142.2249999999999943
21
-92.0799999999999983
0
LINE
8
BLACK
6
CONTINUOUS
10
142.2249999999999943
20
-92.0799999999999983
11
142.1369829999999865
21
-92.0624919999999918
0
LINE
8
BLACK
6
CONTINUOUS
10
142.1369829999999865
20
-92.0624919999999918
11
142.0623649999999998
21
-92.0126349999999888
0
LINE
8
BLACK
6
CONTINUOUS
10
142.0623649999999998
20
-92.0126349999999888
11
142.0125079999999969
21
-91.9380170000000021
0
LINE
8
BLACK
6
CONTINUOUS
10
142.0125079999999969
20
-91.9380170000000021
11
141.9950000000000045
21
-91.8499999999999943
0
LINE
8
BLACK
6
CONTINUOUS
10
141.9950000000000045
20
-91.8499999999999943
11
141.9950000000000045
21
-91.5499999999999972
0
LINE
8
BLACK
6
CONTINUOUS
10
141.9950000000000045
20
-91.5499999999999972
11
142.0125079999999969
21
-91.4619829999999894
0
LINE
8
BLACK
6
CONTINUOUS
10
142.0125079999999969
20
-91.4619829999999894
11
142.0623649999999998
21
-91.3873650000000026
0
LINE
8
BLACK
6
CONTINUOUS
10
142.0623649999999998
20
-91.3873650000000026
11
142.1369829999999865
21
-91.3375079999999997
0
LINE
8
BLACK
6
CONTINUOUS
10
142.1369829999999865
20
-91.3375079999999997
11
142.2249999999999943
21
-91.3199999999999932
0
LINE
8
BLACK
6
CONTINUOUS
10
142.2249999999999943
20
-91.3199999999999932
11
143.4000000000000057
21
-91.3199999999999932
0
LINE
8
BLACK
6
CONTINUOUS
10
143.4000000000000057
20
-91.3199999999999932
11
143.488016999999985
21
-91.3375079999999997
0
LINE
8
BLACK
6
CONTINUOUS
10
145.363016999999985
20
-90.3875079999999969
11
145.4376350000000002
21
-90.4373649999999998
0
LINE
8
BLACK
6
CONTINUOUS
10
145.4376350000000002
20
-90.4373649999999998
11
145.4874920000000031
21
-90.5119830000000007
0
LINE
8
BLACK
6
CONTINUOUS
10
145.4874920000000031
20
-90.5119830000000007
11
145.5049999999999955
21
-90.5999999999999943
0
LINE
8
BLACK
6
CONTINUOUS
10
145.5049999999999955
20
-90.5999999999999943
11
145.5049999999999955
21
-90.8999999999999915
0
LINE
8
BLACK
6
CONTINUOUS
10
145.5049999999999955
20
-90.8999999999999915
11
145.4874920000000031
21
-90.9880169999999993
0
LINE
8
BLACK
6
CONTINUOUS
10
145.4874920000000031
20
-90.9880169999999993
11
145.4376350000000002
21
-91.0626350000000002
0
LINE
8
BLACK
6
CONTINUOUS
10
145.4376350000000002
20
-91.0626350000000002
11
145.363016999999985
21
-91.1124919999999889
0
LINE
8
BLACK
6
CONTINUOUS
10
145.363016999999985
20
-91.1124919999999889
11
145.2750000000000057
21
-91.1299999999999955
0
LINE
8
BLACK
6
CONTINUOUS
10
145.2750000000000057
20
-91.1299999999999955
11
144.0999999999999943
21
-91.1299999999999955
0
LINE
8
BLACK
6
CONTINUOUS
10
144.0999999999999943
20
-91.1299999999999955
11
144.0119829999999865
21
-91.1124919999999889
0
LINE
8
BLACK
6
CONTINUOUS
10
144.0119829999999865
20
-91.1124919999999889
11
143.9373649999999998
21
-91.0626350000000002
0
LINE
8
BLACK
6
CONTINUOUS
10
143.9373649999999998
20
-91.0626350000000002
11
143.8875079999999969
21
-90.9880169999999993
0
LINE
8
BLACK
6
CONTINUOUS
10
143.8875079999999969
20
-90.9880169999999993
11
143.8700000000000045
21
-90.8999999999999915
0
LINE
8
BLACK
6
CONTINUOUS
10
143.8700000000000045
20
-90.8999999999999915
11
143.8700000000000045
21
-90.5999999999999943
0
LINE
8
BLACK
6
CONTINUOUS
10
143.8700000000000045
20
-90.5999999999999943
11
143.8875079999999969
21
-90.5119830000000007
0
LINE
8
BLACK
6
CONTINUOUS
10
143.8875079999999969
20
-90.5119830000000007
11
143.9373649999999998
21
-90.4373649999999998
0
LINE
8
BLACK
6
CONTINUOUS
10
143.9373649999999998
20
-90.4373649999999998
11
144.0119829999999865
21
-90.3875079999999969
0
LINE
8
BLACK
6
CONTINUOUS
10
144.0119829999999865
20
-90.3875079999999969
11
144.0999999999999943
21
-90.3699999999999903
0
LINE
8
BLACK
6
CONTINUOUS
10
144.0999999999999943
20
-90.3699999999999903
11
145.2750000000000057
21
-90.3699999999999903
0
LINE
8
BLACK
6
CONTINUOUS
10
145.2750000000000057
20
-90.3699999999999903
11
145.363016999999985
21
-90.3875079999999969
0
LINE
8
BLACK
6
CONTINUOUS
10
139.8141059999999811
20
-89.5274369999999919
11
139.908237999999983
21
-89.5690010000000001
0
LINE
8
BLACK
6
CONTINUOUS
10
139.908237999999983
20
-89.5690010000000001
11
139.9809989999999971
21
-89.6417619999999999
0
LINE
8
BLACK
6
CONTINUOUS
10
139.9809989999999971
20
-89.6417619999999999
11
140.022562999999991
21
-89.7358940000000018
0
LINE
8
BLACK
6
CONTINUOUS
10
140.022562999999991
20
-89.7358940000000018
11
140.0300000000000011
21
-89.7999999999999972
0
LINE
8
BLACK
6
CONTINUOUS
10
140.0300000000000011
20
-89.7999999999999972
11
140.0300000000000011
21
-90.2000000000000028
0
LINE
8
BLACK
6
CONTINUOUS
10
140.0300000000000011
20
-90.2000000000000028
11
140.022562999999991
21
-90.2641059999999982
0
LINE
8
BLACK
6
CONTINUOUS
10
140.022562999999991
20
-90.2641059999999982
11
139.9809989999999971
21
-90.3582380000000001
0
LINE
8
BLACK
6
CONTINUOUS
10
139.9809989999999971
20
-90.3582380000000001
11
139.908237999999983
21
-90.4309989999999999
0
LINE
8
BLACK
6
CONTINUOUS
10
139.908237999999983
20
-90.4309989999999999
11
139.8141059999999811
21
-90.4725629999999938
0
LINE
8
BLACK
6
CONTINUOUS
10
139.8141059999999811
20
-90.4725629999999938
11
139.75
21
-90.4799999999999898
0
LINE
8
BLACK
6
CONTINUOUS
10
139.75
20
-90.4799999999999898
11
138.5499999999999829
21
-90.4799999999999898
0
LINE
8
BLACK
6
CONTINUOUS
10
138.5499999999999829
20
-90.4799999999999898
11
138.4858940000000018
21
-90.4725629999999938
0
LINE
8
BLACK
6
CONTINUOUS
10
138.4858940000000018
20
-90.4725629999999938
11
138.3917619999999999
21
-90.4309989999999999
0
LINE
8
BLACK
6
CONTINUOUS
10
138.3917619999999999
20
-90.4309989999999999
11
138.3190009999999859
21
-90.3582380000000001
0
LINE
8
BLACK
6
CONTINUOUS
10
138.3190009999999859
20
-90.3582380000000001
11
138.2774369999999919
21
-90.2641059999999982
0
LINE
8
BLACK
6
CONTINUOUS
10
138.2774369999999919
20
-90.2641059999999982
11
138.2699999999999818
21
-90.2000000000000028
0
LINE
8
BLACK
6
CONTINUOUS
10
138.2699999999999818
20
-90.2000000000000028
11
138.2699999999999818
21
-89.7999999999999972
0
LINE
8
BLACK
6
CONTINUOUS
10
138.2699999999999818
20
-89.7999999999999972
11
138.2774369999999919
21
-89.7358940000000018
0
LINE
8
BLACK
6
CONTINUOUS
10
138.2774369999999919
20
-89.7358940000000018
11
138.3190009999999859
21
-89.6417619999999999
0
LINE
8
BLACK
6
CONTINUOUS
10
138.3190009999999859
20
-89.6417619999999999
11
138.3917619999999999
21
-89.5690010000000001
0
LINE
8
BLACK
6
CONTINUOUS
10
138.3917619999999999
20
-89.5690010000000001
11
138.4858940000000018
21
-89.5274369999999919
0
LINE
8
BLACK
6
CONTINUOUS
10
138.4858940000000018
20
-89.5274369999999919
11
138.5499999999999829
21
-89.519999999999996
0
LINE
8
BLACK
6
CONTINUOUS
10
138.5499999999999829
20
-89.519999999999996
11
139.75
21
-89.519999999999996
0
LINE
8
BLACK
6
CONTINUOUS
10
139.75
20
-89.519999999999996
11
139.8141059999999811
21
-89.5274369999999919
0
LINE
8
BLACK
6
CONTINUOUS
10
145.9450899999999933
20
-88.2238100000000003
11
146.1326829999999859
21
-88.2807150000000007
0
LINE
8
BLACK
6
CONTINUOUS
10
146.1326829999999859
20
-88.2807150000000007
11
146.3055699999999888
21
-88.3731250000000017
0
LINE
8
BLACK
6
CONTINUOUS
10
146.3055699999999888
20
-88.3731250000000017
11
146.4571069999999793
21
-88.4974879999999899
0
LINE
8
BLACK
6
CONTINUOUS
10
146.4571069999999793
20
-88.4974879999999899
11
146.5814699999999959
21
-88.6490249999999946
0
LINE
8
BLACK
6
CONTINUOUS
10
146.5814699999999959
20
-88.6490249999999946
11
146.6738799999999969
21
-88.8219119999999975
0
LINE
8
BLACK
6
CONTINUOUS
10
146.6738799999999969
20
-88.8219119999999975
11
146.7307849999999974
21
-89.0095049999999901
0
LINE
8
BLACK
6
CONTINUOUS
10
146.7307849999999974
20
-89.0095049999999901
11
146.75
21
-89.2045949999999976
0
LINE
8
BLACK
6
CONTINUOUS
10
146.75
20
-89.2045949999999976
11
146.7307849999999974
21
-89.399684999999991
0
LINE
8
BLACK
6
CONTINUOUS
10
146.7307849999999974
20
-89.399684999999991
11
146.6738799999999969
21
-89.5872779999999977
0
LINE
8
BLACK
6
CONTINUOUS
10
146.6738799999999969
20
-89.5872779999999977
11
146.5814699999999959
21
-89.7601650000000006
0
LINE
8
BLACK
6
CONTINUOUS
10
146.5814699999999959
20
-89.7601650000000006
11
146.4571069999999793
21
-89.9117019999999911
0
LINE
8
BLACK
6
CONTINUOUS
10
146.4571069999999793
20
-89.9117019999999911
11
146.3055699999999888
21
-90.0360649999999936
0
LINE
8
BLACK
6
CONTINUOUS
10
146.3055699999999888
20
-90.0360649999999936
11
146.1326829999999859
21
-90.1284749999999946
0
LINE
8
BLACK
6
CONTINUOUS
10
146.1326829999999859
20
-90.1284749999999946
11
145.9450899999999933
21
-90.185379999999995
0
LINE
8
BLACK
6
CONTINUOUS
10
145.9450899999999933
20
-90.185379999999995
11
145.75
21
-90.2045949999999976
0
LINE
8
BLACK
6
CONTINUOUS
10
145.75
20
-90.2045949999999976
11
145.5549100000000067
21
-90.185379999999995
0
LINE
8
BLACK
6
CONTINUOUS
10
145.5549100000000067
20
-90.185379999999995
11
145.3673169999999857
21
-90.1284749999999946
0
LINE
8
BLACK
6
CONTINUOUS
10
145.3673169999999857
20
-90.1284749999999946
11
145.1944299999999828
21
-90.0360649999999936
0
LINE
8
BLACK
6
CONTINUOUS
10
145.1944299999999828
20
-90.0360649999999936
11
145.0428929999999923
21
-89.9117019999999911
0
LINE
8
BLACK
6
CONTINUOUS
10
145.0428929999999923
20
-89.9117019999999911
11
144.9185300000000041
21
-89.7601650000000006
0
LINE
8
BLACK
6
CONTINUOUS
10
144.9185300000000041
20
-89.7601650000000006
11
144.8261200000000031
21
-89.5872779999999977
0
LINE
8
BLACK
6
CONTINUOUS
10
144.8261200000000031
20
-89.5872779999999977
11
144.7692150000000026
21
-89.399684999999991
0
LINE
8
BLACK
6
CONTINUOUS
10
144.7692150000000026
20
-89.399684999999991
11
144.75
21
-89.2045949999999976
0
LINE
8
BLACK
6
CONTINUOUS
10
144.75
20
-89.2045949999999976
11
144.7692150000000026
21
-89.0095049999999901
0
LINE
8
BLACK
6
CONTINUOUS
10
144.7692150000000026
20
-89.0095049999999901
11
144.8261200000000031
21
-88.8219119999999975
0
LINE
8
BLACK
6
CONTINUOUS
10
144.8261200000000031
20
-88.8219119999999975
11
144.9185300000000041
21
-88.6490249999999946
0
LINE
8
BLACK
6
CONTINUOUS
10
144.9185300000000041
20
-88.6490249999999946
11
145.0428929999999923
21
-88.4974879999999899
0
LINE
8
BLACK
6
CONTINUOUS
10
145.0428929999999923
20
-88.4974879999999899
11
145.1944299999999828
21
-88.3731250000000017
0
LINE
8
BLACK
6
CONTINUOUS
10
145.1944299999999828
20
-88.3731250000000017
11
145.3673169999999857
21
-88.2807150000000007
0
LINE
8
BLACK
6
CONTINUOUS
10
145.3673169999999857
20
-88.2807150000000007
11
145.5549100000000067
21
-88.2238100000000003
0
LINE
8
BLACK
6
CONTINUOUS
10
145.5549100000000067
20
-88.2238100000000003
11
145.75
21
-88.2045949999999976
0
LINE
8
BLACK
6
CONTINUOUS
10
145.75
20
-88.2045949999999976
11
145.9450899999999933
21
-88.2238100000000003
0
LINE
8
BLACK
6
CONTINUOUS
10
143.488016999999985
20
-89.437507999999994
11
143.5626350000000002
21
-89.4873649999999969
0
LINE
8
BLACK
6
CONTINUOUS
10
143.5626350000000002
20
-89.4873649999999969
11
143.6124920000000031
21
-89.5619829999999979
0
LINE
8
BLACK
6
CONTINUOUS
10
143.6124920000000031
20
-89.5619829999999979
11
143.6299999999999955
21
-89.6499999999999915
0
LINE
8
BLACK
6
CONTINUOUS
10
143.6299999999999955
20
-89.6499999999999915
11
143.6299999999999955
21
-89.9500000000000028
0
LINE
8
BLACK
6
CONTINUOUS
10
143.6299999999999955
20
-89.9500000000000028
11
143.6124920000000031
21
-90.0380169999999964
0
LINE
8
BLACK
6
CONTINUOUS
10
143.6124920000000031
20
-90.0380169999999964
11
143.5626350000000002
21
-90.1126349999999974
0
LINE
8
BLACK
6
CONTINUOUS
10
143.5626350000000002
20
-90.1126349999999974
11
143.488016999999985
21
-90.1624920000000003
0
LINE
8
BLACK
6
CONTINUOUS
10
143.488016999999985
20
-90.1624920000000003
11
143.4000000000000057
21
-90.1799999999999926
0
LINE
8
BLACK
6
CONTINUOUS
10
143.4000000000000057
20
-90.1799999999999926
11
142.2249999999999943
21
-90.1799999999999926
0
LINE
8
BLACK
6
CONTINUOUS
10
142.2249999999999943
20
-90.1799999999999926
11
142.1369829999999865
21
-90.1624920000000003
0
LINE
8
BLACK
6
CONTINUOUS
10
142.1369829999999865
20
-90.1624920000000003
11
142.0623649999999998
21
-90.1126349999999974
0
LINE
8
BLACK
6
CONTINUOUS
10
142.0623649999999998
20
-90.1126349999999974
11
142.0125079999999969
21
-90.0380169999999964
0
LINE
8
BLACK
6
CONTINUOUS
10
142.0125079999999969
20
-90.0380169999999964
11
141.9950000000000045
21
-89.9500000000000028
0
LINE
8
BLACK
6
CONTINUOUS
10
141.9950000000000045
20
-89.9500000000000028
11
141.9950000000000045
21
-89.6499999999999915
0
LINE
8
BLACK
6
CONTINUOUS
10
141.9950000000000045
20
-89.6499999999999915
11
142.0125079999999969
21
-89.5619829999999979
0
LINE
8
BLACK
6
CONTINUOUS
10
142.0125079999999969
20
-89.5619829999999979
11
142.0623649999999998
21
-89.4873649999999969
0
LINE
8
BLACK
6
CONTINUOUS
10
142.0623649999999998
20
-89.4873649999999969
11
142.1369829999999865
21
-89.437507999999994
0
LINE
8
BLACK
6
CONTINUOUS
10
142.1369829999999865
20
-89.437507999999994
11
142.2249999999999943
21
-89.4200000000000017
0
LINE
8
BLACK
6
CONTINUOUS
10
142.2249999999999943
20
-89.4200000000000017
11
143.4000000000000057
21
-89.4200000000000017
0
LINE
8
BLACK
6
CONTINUOUS
10
143.4000000000000057
20
-89.4200000000000017
11
143.488016999999985
21
-89.437507999999994
0
LINE
8
BLACK
6
CONTINUOUS
10
151.7584279999999808
20
-88.8357979999999969
11
151.87080899999998
21
-88.8907370000000014
0
LINE
8
BLACK
6
CONTINUOUS
10
151.87080899999998
20
-88.8907370000000014
11
151.9592629999999929
21
-88.9791910000000001
0
LINE
8
BLACK
6
CONTINUOUS
10
151.9592629999999929
20
-88.9791910000000001
11
152.0142019999999832
21
-89.0915719999999993
0
LINE
8
BLACK
6
CONTINUOUS
10
152.0142019999999832
20
-89.0915719999999993
11
152.0300000000000011
21
-89.2000000000000028
0
LINE
8
BLACK
6
CONTINUOUS
10
152.0300000000000011
20
-89.2000000000000028
11
152.0300000000000011
21
-89.7999999999999972
0
LINE
8
BLACK
6
CONTINUOUS
10
152.0300000000000011
20
-89.7999999999999972
11
152.0142019999999832
21
-89.9084280000000007
0
LINE
8
BLACK
6
CONTINUOUS
10
152.0142019999999832
20
-89.9084280000000007
11
151.9592629999999929
21
-90.0208089999999999
0
LINE
8
BLACK
6
CONTINUOUS
10
151.9592629999999929
20
-90.0208089999999999
11
151.87080899999998
21
-90.1092629999999986
0
LINE
8
BLACK
6
CONTINUOUS
10
151.87080899999998
20
-90.1092629999999986
11
151.7584279999999808
21
-90.1642019999999889
0
LINE
8
BLACK
6
CONTINUOUS
10
151.7584279999999808
20
-90.1642019999999889
11
151.6500000000000057
21
-90.1799999999999926
0
LINE
8
BLACK
6
CONTINUOUS
10
151.6500000000000057
20
-90.1799999999999926
11
149.75
21
-90.1799999999999926
0
LINE
8
BLACK
6
CONTINUOUS
10
149.75
20
-90.1799999999999926
11
149.6415719999999965
21
-90.1642019999999889
0
LINE
8
BLACK
6
CONTINUOUS
10
149.6415719999999965
20
-90.1642019999999889
11
149.5291909999999973
21
-90.1092629999999986
0
LINE
8
BLACK
6
CONTINUOUS
10
149.5291909999999973
20
-90.1092629999999986
11
149.4407369999999844
21
-90.0208089999999999
0
LINE
8
BLACK
6
CONTINUOUS
10
149.4407369999999844
20
-90.0208089999999999
11
149.3857979999999941
21
-89.9084280000000007
0
LINE
8
BLACK
6
CONTINUOUS
10
149.3857979999999941
20
-89.9084280000000007
11
149.3700000000000045
21
-89.7999999999999972
0
LINE
8
BLACK
6
CONTINUOUS
10
149.3700000000000045
20
-89.7999999999999972
11
149.3700000000000045
21
-89.2000000000000028
0
LINE
8
BLACK
6
CONTINUOUS
10
149.3700000000000045
20
-89.2000000000000028
11
149.3857979999999941
21
-89.0915719999999993
0
LINE
8
BLACK
6
CONTINUOUS
10
149.3857979999999941
20
-89.0915719999999993
11
149.4407369999999844
21
-88.9791910000000001
0
LINE
8
BLACK
6
CONTINUOUS
10
149.4407369999999844
20
-88.9791910000000001
11
149.5291909999999973
21
-88.8907370000000014
0
LINE
8
BLACK
6
CONTINUOUS
10
149.5291909999999973
20
-88.8907370000000014
11
149.6415719999999965
21
-88.8357979999999969
0
LINE
8
BLACK
6
CONTINUOUS
10
149.6415719999999965
20
-88.8357979999999969
11
149.75
21
-88.8199999999999932
0
LINE
8
BLACK
6
CONTINUOUS
10
149.75
20
-88.8199999999999932
11
151.6500000000000057
21
-88.8199999999999932
0
LINE
8
BLACK
6
CONTINUOUS
10
151.6500000000000057
20
-88.8199999999999932
11
151.7584279999999808
21
-88.8357979999999969
0
LINE
8
BLACK
6
CONTINUOUS
10
153.5354099999999846
20
-88.8312439999999981
11
153.6392799999999852
21
-88.8796799999999934
0
LINE
8
BLACK
6
CONTINUOUS
10
153.6392799999999852
20
-88.8796799999999934
11
153.7203199999999867
21
-88.9607199999999949
0
LINE
8
BLACK
6
CONTINUOUS
10
153.7203199999999867
20
-88.9607199999999949
11
153.7687559999999962
21
-89.0645899999999955
0
LINE
8
BLACK
6
CONTINUOUS
10
153.7687559999999962
20
-89.0645899999999955
11
153.7800000000000011
21
-89.1499999999999915
0
LINE
8
BLACK
6
CONTINUOUS
10
153.7800000000000011
20
-89.1499999999999915
11
153.7800000000000011
21
-89.8499999999999943
0
LINE
8
BLACK
6
CONTINUOUS
10
153.7800000000000011
20
-89.8499999999999943
11
153.7687559999999962
21
-89.9354099999999903
0
LINE
8
BLACK
6
CONTINUOUS
10
153.7687559999999962
20
-89.9354099999999903
11
153.7203199999999867
21
-90.0392799999999909
0
LINE
8
BLACK
6
CONTINUOUS
10
153.7203199999999867
20
-90.0392799999999909
11
153.6392799999999852
21
-90.1203199999999924
0
LINE
8
BLACK
6
CONTINUOUS
10
153.6392799999999852
20
-90.1203199999999924
11
153.5354099999999846
21
-90.1687560000000019
0
LINE
8
BLACK
6
CONTINUOUS
10
153.5354099999999846
20
-90.1687560000000019
11
153.4499999999999886
21
-90.1799999999999926
0
LINE
8
BLACK
6
CONTINUOUS
10
153.4499999999999886
20
-90.1799999999999926
11
152.9499999999999886
21
-90.1799999999999926
0
LINE
8
BLACK
6
CONTINUOUS
10
152.9499999999999886
20
-90.1799999999999926
11
152.8645899999999926
21
-90.1687560000000019
0
LINE
8
BLACK
6
CONTINUOUS
10
152.8645899999999926
20
-90.1687560000000019
11
152.7607199999999921
21
-90.1203199999999924
0
LINE
8
BLACK
6
CONTINUOUS
10
152.7607199999999921
20
-90.1203199999999924
11
152.6796799999999905
21
-90.0392799999999909
0
LINE
8
BLACK
6
CONTINUOUS
10
152.6796799999999905
20
-90.0392799999999909
11
152.631243999999981
21
-89.9354099999999903
0
LINE
8
BLACK
6
CONTINUOUS
10
152.631243999999981
20
-89.9354099999999903
11
152.6200000000000045
21
-89.8499999999999943
0
LINE
8
BLACK
6
CONTINUOUS
10
152.6200000000000045
20
-89.8499999999999943
11
152.6200000000000045
21
-89.1499999999999915
0
LINE
8
BLACK
6
CONTINUOUS
10
152.6200000000000045
20
-89.1499999999999915
11
152.631243999999981
21
-89.0645899999999955
0
LINE
8
BLACK
6
CONTINUOUS
10
152.631243999999981
20
-89.0645899999999955
11
152.6796799999999905
21
-88.9607199999999949
0
LINE
8
BLACK
6
CONTINUOUS
10
152.6796799999999905
20
-88.9607199999999949
11
152.7607199999999921
21
-88.8796799999999934
0
LINE
8
BLACK
6
CONTINUOUS
10
152.7607199999999921
20
-88.8796799999999934
11
152.8645899999999926
21
-88.8312439999999981
0
LINE
8
BLACK
6
CONTINUOUS
10
152.8645899999999926
20
-88.8312439999999981
11
152.9499999999999886
21
-88.8199999999999932
0
LINE
8
BLACK
6
CONTINUOUS
10
152.9499999999999886
20
-88.8199999999999932
11
153.4499999999999886
21
-88.8199999999999932
0
LINE
8
BLACK
6
CONTINUOUS
10
153.4499999999999886
20
-88.8199999999999932
11
153.5354099999999846
21
-88.8312439999999981
0
LINE
8
BLACK
6
CONTINUOUS
10
155.2354100000000017
20
-88.8312439999999981
11
155.3392800000000022
21
-88.8796799999999934
0
LINE
8
BLACK
6
CONTINUOUS
10
155.3392800000000022
20
-88.8796799999999934
11
155.4203200000000038
21
-88.9607199999999949
0
LINE
8
BLACK
6
CONTINUOUS
10
155.4203200000000038
20
-88.9607199999999949
11
155.4687559999999849
21
-89.0645899999999955
0
LINE
8
BLACK
6
CONTINUOUS
10
155.4687559999999849
20
-89.0645899999999955
11
155.4799999999999898
21
-89.1499999999999915
0
LINE
8
BLACK
6
CONTINUOUS
10
155.4799999999999898
20
-89.1499999999999915
11
155.4799999999999898
21
-89.8499999999999943
0
LINE
8
BLACK
6
CONTINUOUS
10
155.4799999999999898
20
-89.8499999999999943
11
155.4687559999999849
21
-89.9354099999999903
0
LINE
8
BLACK
6
CONTINUOUS
10
155.4687559999999849
20
-89.9354099999999903
11
155.4203200000000038
21
-90.0392799999999909
0
LINE
8
BLACK
6
CONTINUOUS
10
155.4203200000000038
20
-90.0392799999999909
11
155.3392800000000022
21
-90.1203199999999924
0
LINE
8
BLACK
6
CONTINUOUS
10
155.3392800000000022
20
-90.1203199999999924
11
155.2354100000000017
21
-90.1687560000000019
0
LINE
8
BLACK
6
CONTINUOUS
10
155.2354100000000017
20
-90.1687560000000019
11
155.1500000000000057
21
-90.1799999999999926
0
LINE
8
BLACK
6
CONTINUOUS
10
155.1500000000000057
20
-90.1799999999999926
11
154.6500000000000057
21
-90.1799999999999926
0
LINE
8
BLACK
6
CONTINUOUS
10
154.6500000000000057
20
-90.1799999999999926
11
154.5645899999999813
21
-90.1687560000000019
0
LINE
8
BLACK
6
CONTINUOUS
10
154.5645899999999813
20
-90.1687560000000019
11
154.4607199999999807
21
-90.1203199999999924
0
LINE
8
BLACK
6
CONTINUOUS
10
154.4607199999999807
20
-90.1203199999999924
11
154.3796799999999791
21
-90.0392799999999909
0
LINE
8
BLACK
6
CONTINUOUS
10
154.3796799999999791
20
-90.0392799999999909
11
154.3312439999999981
21
-89.9354099999999903
0
LINE
8
BLACK
6
CONTINUOUS
10
154.3312439999999981
20
-89.9354099999999903
11
154.3199999999999932
21
-89.8499999999999943
0
LINE
8
BLACK
6
CONTINUOUS
10
154.3199999999999932
20
-89.8499999999999943
11
154.3199999999999932
21
-89.1499999999999915
0
LINE
8
BLACK
6
CONTINUOUS
10
154.3199999999999932
20
-89.1499999999999915
11
154.3312439999999981
21
-89.0645899999999955
0
LINE
8
BLACK
6
CONTINUOUS
10
154.3312439999999981
20
-89.0645899999999955
11
154.3796799999999791
21
-88.9607199999999949
0
LINE
8
BLACK
6
CONTINUOUS
10
154.3796799999999791
20
-88.9607199999999949
11
154.4607199999999807
21
-88.8796799999999934
0
LINE
8
BLACK
6
CONTINUOUS
10
154.4607199999999807
20
-88.8796799999999934
11
154.5645899999999813
21
-88.8312439999999981
0
LINE
8
BLACK
6
CONTINUOUS
10
154.5645899999999813
20
-88.8312439999999981
11
154.6500000000000057
21
-88.8199999999999932
0
LINE
8
BLACK
6
CONTINUOUS
10
154.6500000000000057
20
-88.8199999999999932
11
155.1500000000000057
21
-88.8199999999999932
0
LINE
8
BLACK
6
CONTINUOUS
10
155.1500000000000057
20
-88.8199999999999932
11
155.2354100000000017
21
-88.8312439999999981
0
LINE
8
BLACK
6
CONTINUOUS
10
158.4584279999999978
20
-88.8357979999999969
11
158.570808999999997
21
-88.8907370000000014
0
LINE
8
BLACK
6
CONTINUOUS
10
158.570808999999997
20
-88.8907370000000014
11
158.6592629999999815
21
-88.9791910000000001
0
LINE
8
BLACK
6
CONTINUOUS
10
158.6592629999999815
20
-88.9791910000000001
11
158.7142020000000002
21
-89.0915719999999993
0
LINE
8
BLACK
6
CONTINUOUS
10
158.7142020000000002
20
-89.0915719999999993
11
158.7299999999999898
21
-89.2000000000000028
0
LINE
8
BLACK
6
CONTINUOUS
10
158.7299999999999898
20
-89.2000000000000028
11
158.7299999999999898
21
-89.7999999999999972
0
LINE
8
BLACK
6
CONTINUOUS
10
158.7299999999999898
20
-89.7999999999999972
11
158.7142020000000002
21
-89.9084280000000007
0
LINE
8
BLACK
6
CONTINUOUS
10
158.7142020000000002
20
-89.9084280000000007
11
158.6592629999999815
21
-90.0208089999999999
0
LINE
8
BLACK
6
CONTINUOUS
10
158.6592629999999815
20
-90.0208089999999999
11
158.570808999999997
21
-90.1092629999999986
0
LINE
8
BLACK
6
CONTINUOUS
10
158.570808999999997
20
-90.1092629999999986
11
158.4584279999999978
21
-90.1642019999999889
0
LINE
8
BLACK
6
CONTINUOUS
10
158.4584279999999978
20
-90.1642019999999889
11
158.3499999999999943
21
-90.1799999999999926
0
LINE
8
BLACK
6
CONTINUOUS
10
158.3499999999999943
20
-90.1799999999999926
11
156.4499999999999886
21
-90.1799999999999926
0
LINE
8
BLACK
6
CONTINUOUS
10
156.4499999999999886
20
-90.1799999999999926
11
156.3415719999999851
21
-90.1642019999999889
0
LINE
8
BLACK
6
CONTINUOUS
10
156.3415719999999851
20
-90.1642019999999889
11
156.2291909999999859
21
-90.1092629999999986
0
LINE
8
BLACK
6
CONTINUOUS
10
156.2291909999999859
20
-90.1092629999999986
11
156.1407370000000014
21
-90.0208089999999999
0
LINE
8
BLACK
6
CONTINUOUS
10
156.1407370000000014
20
-90.0208089999999999
11
156.0857979999999827
21
-89.9084280000000007
0
LINE
8
BLACK
6
CONTINUOUS
10
156.0857979999999827
20
-89.9084280000000007
11
156.0699999999999932
21
-89.7999999999999972
0
LINE
8
BLACK
6
CONTINUOUS
10
156.0699999999999932
20
-89.7999999999999972
11
156.0699999999999932
21
-89.2000000000000028
0
LINE
8
BLACK
6
CONTINUOUS
10
156.0699999999999932
20
-89.2000000000000028
11
156.0857979999999827
21
-89.0915719999999993
0
LINE
8
BLACK
6
CONTINUOUS
10
156.0857979999999827
20
-89.0915719999999993
11
156.1407370000000014
21
-88.9791910000000001
0
LINE
8
BLACK
6
CONTINUOUS
10
156.1407370000000014
20
-88.9791910000000001
11
156.2291909999999859
21
-88.8907370000000014
0
LINE
8
BLACK
6
CONTINUOUS
10
156.2291909999999859
20
-88.8907370000000014
11
156.3415719999999851
21
-88.8357979999999969
0
LINE
8
BLACK
6
CONTINUOUS
10
156.3415719999999851
20
-88.8357979999999969
11
156.4499999999999886
21
-88.8199999999999932
0
LINE
8
BLACK
6
CONTINUOUS
10
156.4499999999999886
20
-88.8199999999999932
11
158.3499999999999943
21
-88.8199999999999932
0
LINE
8
BLACK
6
CONTINUOUS
10
158.3499999999999943
20
-88.8199999999999932
11
158.4584279999999978
21
-88.8357979999999969
0
LINE
8
BLACK
6
CONTINUOUS
10
139.8141059999999811
20
-88.2774369999999919
11
139.908237999999983
21
-88.3190010000000001
0
LINE
8
BLACK
6
CONTINUOUS
10
139.908237999999983
20
-88.3190010000000001
11
139.9809989999999971
21
-88.3917619999999999
0
LINE
8
BLACK
6
CONTINUOUS
10
139.9809989999999971
20
-88.3917619999999999
11
140.022562999999991
21
-88.4858940000000018
0
LINE
8
BLACK
6
CONTINUOUS
10
140.022562999999991
20
-88.4858940000000018
11
140.0300000000000011
21
-88.5499999999999972
0
LINE
8
BLACK
6
CONTINUOUS
10
140.0300000000000011
20
-88.5499999999999972
11
140.0300000000000011
21
-88.9500000000000028
0
LINE
8
BLACK
6
CONTINUOUS
10
140.0300000000000011
20
-88.9500000000000028
11
140.022562999999991
21
-89.0141059999999982
0
LINE
8
BLACK
6
CONTINUOUS
10
140.022562999999991
20
-89.0141059999999982
11
139.9809989999999971
21
-89.1082380000000001
0
LINE
8
BLACK
6
CONTINUOUS
10
139.9809989999999971
20
-89.1082380000000001
11
139.908237999999983
21
-89.1809989999999999
0
LINE
8
BLACK
6
CONTINUOUS
10
139.908237999999983
20
-89.1809989999999999
11
139.8141059999999811
21
-89.2225629999999938
0
LINE
8
BLACK
6
CONTINUOUS
10
139.8141059999999811
20
-89.2225629999999938
11
139.75
21
-89.2299999999999898
0
LINE
8
BLACK
6
CONTINUOUS
10
139.75
20
-89.2299999999999898
11
138.5499999999999829
21
-89.2299999999999898
0
LINE
8
BLACK
6
CONTINUOUS
10
138.5499999999999829
20
-89.2299999999999898
11
138.4858940000000018
21
-89.2225629999999938
0
LINE
8
BLACK
6
CONTINUOUS
10
138.4858940000000018
20
-89.2225629999999938
11
138.3917619999999999
21
-89.1809989999999999
0
LINE
8
BLACK
6
CONTINUOUS
10
138.3917619999999999
20
-89.1809989999999999
11
138.3190009999999859
21
-89.1082380000000001
0
LINE
8
BLACK
6
CONTINUOUS
10
138.3190009999999859
20
-89.1082380000000001
11
138.2774369999999919
21
-89.0141059999999982
0
LINE
8
BLACK
6
CONTINUOUS
10
138.2774369999999919
20
-89.0141059999999982
11
138.2699999999999818
21
-88.9500000000000028
0
LINE
8
BLACK
6
CONTINUOUS
10
138.2699999999999818
20
-88.9500000000000028
11
138.2699999999999818
21
-88.5499999999999972
0
LINE
8
BLACK
6
CONTINUOUS
10
138.2699999999999818
20
-88.5499999999999972
11
138.2774369999999919
21
-88.4858940000000018
0
LINE
8
BLACK
6
CONTINUOUS
10
138.2774369999999919
20
-88.4858940000000018
11
138.3190009999999859
21
-88.3917619999999999
0
LINE
8
BLACK
6
CONTINUOUS
10
138.3190009999999859
20
-88.3917619999999999
11
138.3917619999999999
21
-88.3190010000000001
0
LINE
8
BLACK
6
CONTINUOUS
10
138.3917619999999999
20
-88.3190010000000001
11
138.4858940000000018
21
-88.2774369999999919
0
LINE
8
BLACK
6
CONTINUOUS
10
138.4858940000000018
20
-88.2774369999999919
11
138.5499999999999829
21
-88.269999999999996
0
LINE
8
BLACK
6
CONTINUOUS
10
138.5499999999999829
20
-88.269999999999996
11
139.75
21
-88.269999999999996
0
LINE
8
BLACK
6
CONTINUOUS
10
139.75
20
-88.269999999999996
11
139.8141059999999811
21
-88.2774369999999919
0
LINE
8
BLACK
6
CONTINUOUS
10
151.7584279999999808
20
-87.1357979999999941
11
151.87080899999998
21
-87.1907369999999986
0
LINE
8
BLACK
6
CONTINUOUS
10
151.87080899999998
20
-87.1907369999999986
11
151.9592629999999929
21
-87.2791909999999973
0
LINE
8
BLACK
6
CONTINUOUS
10
151.9592629999999929
20
-87.2791909999999973
11
152.0142019999999832
21
-87.3915719999999965
0
LINE
8
BLACK
6
CONTINUOUS
10
152.0142019999999832
20
-87.3915719999999965
11
152.0300000000000011
21
-87.5
0
LINE
8
BLACK
6
CONTINUOUS
10
152.0300000000000011
20
-87.5
11
152.0300000000000011
21
-88.0999999999999943
0
LINE
8
BLACK
6
CONTINUOUS
10
152.0300000000000011
20
-88.0999999999999943
11
152.0142019999999832
21
-88.2084279999999978
0
LINE
8
BLACK
6
CONTINUOUS
10
152.0142019999999832
20
-88.2084279999999978
11
151.9592629999999929
21
-88.320808999999997
0
LINE
8
BLACK
6
CONTINUOUS
10
151.9592629999999929
20
-88.320808999999997
11
151.87080899999998
21
-88.4092629999999957
0
LINE
8
BLACK
6
CONTINUOUS
10
151.87080899999998
20
-88.4092629999999957
11
151.7584279999999808
21
-88.4642020000000002
0
LINE
8
BLACK
6
CONTINUOUS
10
151.7584279999999808
20
-88.4642020000000002
11
151.6500000000000057
21
-88.4799999999999898
0
LINE
8
BLACK
6
CONTINUOUS
10
151.6500000000000057
20
-88.4799999999999898
11
149.75
21
-88.4799999999999898
0
LINE
8
BLACK
6
CONTINUOUS
10
149.75
20
-88.4799999999999898
11
149.6415719999999965
21
-88.4642020000000002
0
LINE
8
BLACK
6
CONTINUOUS
10
149.6415719999999965
20
-88.4642020000000002
11
149.5291909999999973
21
-88.4092629999999957
0
LINE
8
BLACK
6
CONTINUOUS
10
149.5291909999999973
20
-88.4092629999999957
11
149.4407369999999844
21
-88.320808999999997
0
LINE
8
BLACK
6
CONTINUOUS
10
149.4407369999999844
20
-88.320808999999997
11
149.3857979999999941
21
-88.2084279999999978
0
LINE
8
BLACK
6
CONTINUOUS
10
149.3857979999999941
20
-88.2084279999999978
11
149.3700000000000045
21
-88.0999999999999943
0
LINE
8
BLACK
6
CONTINUOUS
10
149.3700000000000045
20
-88.0999999999999943
11
149.3700000000000045
21
-87.5
0
LINE
8
BLACK
6
CONTINUOUS
10
149.3700000000000045
20
-87.5
11
149.3857979999999941
21
-87.3915719999999965
0
LINE
8
BLACK
6
CONTINUOUS
10
149.3857979999999941
20
-87.3915719999999965
11
149.4407369999999844
21
-87.2791909999999973
0
LINE
8
BLACK
6
CONTINUOUS
10
149.4407369999999844
20
-87.2791909999999973
11
149.5291909999999973
21
-87.1907369999999986
0
LINE
8
BLACK
6
CONTINUOUS
10
149.5291909999999973
20
-87.1907369999999986
11
149.6415719999999965
21
-87.1357979999999941
0
LINE
8
BLACK
6
CONTINUOUS
10
149.6415719999999965
20
-87.1357979999999941
11
149.75
21
-87.1199999999999903
0
LINE
8
BLACK
6
CONTINUOUS
10
149.75
20
-87.1199999999999903
11
151.6500000000000057
21
-87.1199999999999903
0
LINE
8
BLACK
6
CONTINUOUS
10
151.6500000000000057
20
-87.1199999999999903
11
151.7584279999999808
21
-87.1357979999999941
0
LINE
8
BLACK
6
CONTINUOUS
10
153.5354099999999846
20
-87.1312439999999953
11
153.6392799999999852
21
-87.1796799999999905
0
LINE
8
BLACK
6
CONTINUOUS
10
153.6392799999999852
20
-87.1796799999999905
11
153.7203199999999867
21
-87.2607199999999921
0
LINE
8
BLACK
6
CONTINUOUS
10
153.7203199999999867
20
-87.2607199999999921
11
153.7687559999999962
21
-87.3645899999999926
0
LINE
8
BLACK
6
CONTINUOUS
10
153.7687559999999962
20
-87.3645899999999926
11
153.7800000000000011
21
-87.4500000000000028
0
LINE
8
BLACK
6
CONTINUOUS
10
153.7800000000000011
20
-87.4500000000000028
11
153.7800000000000011
21
-88.1499999999999915
0
LINE
8
BLACK
6
CONTINUOUS
10
153.7800000000000011
20
-88.1499999999999915
11
153.7687559999999962
21
-88.2354100000000017
0
LINE
8
BLACK
6
CONTINUOUS
10
153.7687559999999962
20
-88.2354100000000017
11
153.7203199999999867
21
-88.3392800000000022
0
LINE
8
BLACK
6
CONTINUOUS
10
153.7203199999999867
20
-88.3392800000000022
11
153.6392799999999852
21
-88.4203199999999896
0
LINE
8
BLACK
6
CONTINUOUS
10
153.6392799999999852
20
-88.4203199999999896
11
153.5354099999999846
21
-88.4687559999999991
0
LINE
8
BLACK
6
CONTINUOUS
10
153.5354099999999846
20
-88.4687559999999991
11
153.4499999999999886
21
-88.4799999999999898
0
LINE
8
BLACK
6
CONTINUOUS
10
153.4499999999999886
20
-88.4799999999999898
11
152.9499999999999886
21
-88.4799999999999898
0
LINE
8
BLACK
6
CONTINUOUS
10
152.9499999999999886
20
-88.4799999999999898
11
152.8645899999999926
21
-88.4687559999999991
0
LINE
8
BLACK
6
CONTINUOUS
10
152.8645899999999926
20
-88.4687559999999991
11
152.7607199999999921
21
-88.4203199999999896
0
LINE
8
BLACK
6
CONTINUOUS
10
152.7607199999999921
20
-88.4203199999999896
11
152.6796799999999905
21
-88.3392800000000022
0
LINE
8
BLACK
6
CONTINUOUS
10
152.6796799999999905
20
-88.3392800000000022
11
152.631243999999981
21
-88.2354100000000017
0
LINE
8
BLACK
6
CONTINUOUS
10
152.631243999999981
20
-88.2354100000000017
11
152.6200000000000045
21
-88.1499999999999915
0
LINE
8
BLACK
6
CONTINUOUS
10
152.6200000000000045
20
-88.1499999999999915
11
152.6200000000000045
21
-87.4500000000000028
0
LINE
8
BLACK
6
CONTINUOUS
10
152.6200000000000045
20
-87.4500000000000028
11
152.631243999999981
21
-87.3645899999999926
0
LINE
8
BLACK
6
CONTINUOUS
10
152.631243999999981
20
-87.3645899999999926
11
152.6796799999999905
21
-87.2607199999999921
0
LINE
8
BLACK
6
CONTINUOUS
10
152.6796799999999905
20
-87.2607199999999921
11
152.7607199999999921
21
-87.1796799999999905
0
LINE
8
BLACK
6
CONTINUOUS
10
152.7607199999999921
20
-87.1796799999999905
11
152.8645899999999926
21
-87.1312439999999953
0
LINE
8
BLACK
6
CONTINUOUS
10
152.8645899999999926
20
-87.1312439999999953
11
152.9499999999999886
21
-87.1199999999999903
0
LINE
8
BLACK
6
CONTINUOUS
10
152.9499999999999886
20
-87.1199999999999903
11
153.4499999999999886
21
-87.1199999999999903
0
LINE
8
BLACK
6
CONTINUOUS
10
153.4499999999999886
20
-87.1199999999999903
11
153.5354099999999846
21
-87.1312439999999953
0
LINE
8
BLACK
6
CONTINUOUS
10
155.2354100000000017
20
-87.1312439999999953
11
155.3392800000000022
21
-87.1796799999999905
0
LINE
8
BLACK
6
CONTINUOUS
10
155.3392800000000022
20
-87.1796799999999905
11
155.4203200000000038
21
-87.2607199999999921
0
LINE
8
BLACK
6
CONTINUOUS
10
155.4203200000000038
20
-87.2607199999999921
11
155.4687559999999849
21
-87.3645899999999926
0
LINE
8
BLACK
6
CONTINUOUS
10
155.4687559999999849
20
-87.3645899999999926
11
155.4799999999999898
21
-87.4500000000000028
0
LINE
8
BLACK
6
CONTINUOUS
10
155.4799999999999898
20
-87.4500000000000028
11
155.4799999999999898
21
-88.1499999999999915
0
LINE
8
BLACK
6
CONTINUOUS
10
155.4799999999999898
20
-88.1499999999999915
11
155.4687559999999849
21
-88.2354100000000017
0
LINE
8
BLACK
6
CONTINUOUS
10
155.4687559999999849
20
-88.2354100000000017
11
155.4203200000000038
21
-88.3392800000000022
0
LINE
8
BLACK
6
CONTINUOUS
10
155.4203200000000038
20
-88.3392800000000022
11
155.3392800000000022
21
-88.4203199999999896
0
LINE
8
BLACK
6
CONTINUOUS
10
155.3392800000000022
20
-88.4203199999999896
11
155.2354100000000017
21
-88.4687559999999991
0
LINE
8
BLACK
6
CONTINUOUS
10
155.2354100000000017
20
-88.4687559999999991
11
155.1500000000000057
21
-88.4799999999999898
0
LINE
8
BLACK
6
CONTINUOUS
10
155.1500000000000057
20
-88.4799999999999898
11
154.6500000000000057
21
-88.4799999999999898
0
LINE
8
BLACK
6
CONTINUOUS
10
154.6500000000000057
20
-88.4799999999999898
11
154.5645899999999813
21
-88.4687559999999991
0
LINE
8
BLACK
6
CONTINUOUS
10
154.5645899999999813
20
-88.4687559999999991
11
154.4607199999999807
21
-88.4203199999999896
0
LINE
8
BLACK
6
CONTINUOUS
10
154.4607199999999807
20
-88.4203199999999896
11
154.3796799999999791
21
-88.3392800000000022
0
LINE
8
BLACK
6
CONTINUOUS
10
154.3796799999999791
20
-88.3392800000000022
11
154.3312439999999981
21
-88.2354100000000017
0
LINE
8
BLACK
6
CONTINUOUS
10
154.3312439999999981
20
-88.2354100000000017
11
154.3199999999999932
21
-88.1499999999999915
0
LINE
8
BLACK
6
CONTINUOUS
10
154.3199999999999932
20
-88.1499999999999915
11
154.3199999999999932
21
-87.4500000000000028
0
LINE
8
BLACK
6
CONTINUOUS
10
154.3199999999999932
20
-87.4500000000000028
11
154.3312439999999981
21
-87.3645899999999926
0
LINE
8
BLACK
6
CONTINUOUS
10
154.3312439999999981
20
-87.3645899999999926
11
154.3796799999999791
21
-87.2607199999999921
0
LINE
8
BLACK
6
CONTINUOUS
10
154.3796799999999791
20
-87.2607199999999921
11
154.4607199999999807
21
-87.1796799999999905
0
LINE
8
BLACK
6
CONTINUOUS
10
154.4607199999999807
20
-87.1796799999999905
11
154.5645899999999813
21
-87.1312439999999953
0
LINE
8
BLACK
6
CONTINUOUS
10
154.5645899999999813
20
-87.1312439999999953
11
154.6500000000000057
21
-87.1199999999999903
0
LINE
8
BLACK
6
CONTINUOUS
10
154.6500000000000057
20
-87.1199999999999903
11
155.1500000000000057
21
-87.1199999999999903
0
LINE
8
BLACK
6
CONTINUOUS
10
155.1500000000000057
20
-87.1199999999999903
11
155.2354100000000017
21
-87.1312439999999953
0
LINE
8
BLACK
6
CONTINUOUS
10
158.4584279999999978
20
-87.1357979999999941
11
158.570808999999997
21
-87.1907369999999986
0
LINE
8
BLACK
6
CONTINUOUS
10
158.570808999999997
20
-87.1907369999999986
11
158.6592629999999815
21
-87.2791909999999973
0
LINE
8
BLACK
6
CONTINUOUS
10
158.6592629999999815
20
-87.2791909999999973
11
158.7142020000000002
21
-87.3915719999999965
0
LINE
8
BLACK
6
CONTINUOUS
10
158.7142020000000002
20
-87.3915719999999965
11
158.7299999999999898
21
-87.5
0
LINE
8
BLACK
6
CONTINUOUS
10
158.7299999999999898
20
-87.5
11
158.7299999999999898
21
-88.0999999999999943
0
LINE
8
BLACK
6
CONTINUOUS
10
158.7299999999999898
20
-88.0999999999999943
11
158.7142020000000002
21
-88.2084279999999978
0
LINE
8
BLACK
6
CONTINUOUS
10
158.7142020000000002
20
-88.2084279999999978
11
158.6592629999999815
21
-88.320808999999997
0
LINE
8
BLACK
6
CONTINUOUS
10
158.6592629999999815
20
-88.320808999999997
11
158.570808999999997
21
-88.4092629999999957
0
LINE
8
BLACK
6
CONTINUOUS
10
158.570808999999997
20
-88.4092629999999957
11
158.4584279999999978
21
-88.4642020000000002
0
LINE
8
BLACK
6
CONTINUOUS
10
158.4584279999999978
20
-88.4642020000000002
11
158.3499999999999943
21
-88.4799999999999898
0
LINE
8
BLACK
6
CONTINUOUS
10
158.3499999999999943
20
-88.4799999999999898
11
156.4499999999999886
21
-88.4799999999999898
0
LINE
8
BLACK
6
CONTINUOUS
10
156.4499999999999886
20
-88.4799999999999898
11
156.3415719999999851
21
-88.4642020000000002
0
LINE
8
BLACK
6
CONTINUOUS
10
156.3415719999999851
20
-88.4642020000000002
11
156.2291909999999859
21
-88.4092629999999957
0
LINE
8
BLACK
6
CONTINUOUS
10
156.2291909999999859
20
-88.4092629999999957
11
156.1407370000000014
21
-88.320808999999997
0
LINE
8
BLACK
6
CONTINUOUS
10
156.1407370000000014
20
-88.320808999999997
11
156.0857979999999827
21
-88.2084279999999978
0
LINE
8
BLACK
6
CONTINUOUS
10
156.0857979999999827
20
-88.2084279999999978
11
156.0699999999999932
21
-88.0999999999999943
0
LINE
8
BLACK
6
CONTINUOUS
10
156.0699999999999932
20
-88.0999999999999943
11
156.0699999999999932
21
-87.5
0
LINE
8
BLACK
6
CONTINUOUS
10
156.0699999999999932
20
-87.5
11
156.0857979999999827
21
-87.3915719999999965
0
LINE
8
BLACK
6
CONTINUOUS
10
156.0857979999999827
20
-87.3915719999999965
11
156.1407370000000014
21
-87.2791909999999973
0
LINE
8
BLACK
6
CONTINUOUS
10
156.1407370000000014
20
-87.2791909999999973
11
156.2291909999999859
21
-87.1907369999999986
0
LINE
8
BLACK
6
CONTINUOUS
10
156.2291909999999859
20
-87.1907369999999986
11
156.3415719999999851
21
-87.1357979999999941
0
LINE
8
BLACK
6
CONTINUOUS
10
156.3415719999999851
20
-87.1357979999999941
11
156.4499999999999886
21
-87.1199999999999903
0
LINE
8
BLACK
6
CONTINUOUS
10
156.4499999999999886
20
-87.1199999999999903
11
158.3499999999999943
21
-87.1199999999999903
0
LINE
8
BLACK
6
CONTINUOUS
10
158.3499999999999943
20
-87.1199999999999903
11
158.4584279999999978
21
-87.1357979999999941
0
LINE
8
BLACK
6
CONTINUOUS
10
143.1891059999999811
20
-86.9524369999999891
11
143.283237999999983
21
-86.9940009999999972
0
LINE
8
BLACK
6
CONTINUOUS
10
143.283237999999983
20
-86.9940009999999972
11
143.3559989999999971
21
-87.0667619999999971
0
LINE
8
BLACK
6
CONTINUOUS
10
143.3559989999999971
20
-87.0667619999999971
11
143.397562999999991
21
-87.160893999999999
0
LINE
8
BLACK
6
CONTINUOUS
10
143.397562999999991
20
-87.160893999999999
11
143.4050000000000011
21
-87.2249999999999943
0
LINE
8
BLACK
6
CONTINUOUS
10
143.4050000000000011
20
-87.2249999999999943
11
143.4050000000000011
21
-87.7749999999999915
0
LINE
8
BLACK
6
CONTINUOUS
10
143.4050000000000011
20
-87.7749999999999915
11
143.397562999999991
21
-87.839106000000001
0
LINE
8
BLACK
6
CONTINUOUS
10
143.397562999999991
20
-87.839106000000001
11
143.3559989999999971
21
-87.9332380000000029
0
LINE
8
BLACK
6
CONTINUOUS
10
143.3559989999999971
20
-87.9332380000000029
11
143.283237999999983
21
-88.0059990000000028
0
LINE
8
BLACK
6
CONTINUOUS
10
143.283237999999983
20
-88.0059990000000028
11
143.1891059999999811
21
-88.0475629999999967
0
LINE
8
BLACK
6
CONTINUOUS
10
143.1891059999999811
20
-88.0475629999999967
11
143.125
21
-88.0549999999999926
0
LINE
8
BLACK
6
CONTINUOUS
10
143.125
20
-88.0549999999999926
11
142.7249999999999943
21
-88.0549999999999926
0
LINE
8
BLACK
6
CONTINUOUS
10
142.7249999999999943
20
-88.0549999999999926
11
142.6608939999999848
21
-88.0475629999999967
0
LINE
8
BLACK
6
CONTINUOUS
10
142.6608939999999848
20
-88.0475629999999967
11
142.5667619999999829
21
-88.0059990000000028
0
LINE
8
BLACK
6
CONTINUOUS
10
142.5667619999999829
20
-88.0059990000000028
11
142.4940009999999972
21
-87.9332380000000029
0
LINE
8
BLACK
6
CONTINUOUS
10
142.4940009999999972
20
-87.9332380000000029
11
142.4524370000000033
21
-87.839106000000001
0
LINE
8
BLACK
6
CONTINUOUS
10
142.4524370000000033
20
-87.839106000000001
11
142.4449999999999932
21
-87.7749999999999915
0
LINE
8
BLACK
6
CONTINUOUS
10
142.4449999999999932
20
-87.7749999999999915
11
142.4449999999999932
21
-87.2249999999999943
0
LINE
8
BLACK
6
CONTINUOUS
10
142.4449999999999932
20
-87.2249999999999943
11
142.4524370000000033
21
-87.160893999999999
0
LINE
8
BLACK
6
CONTINUOUS
10
142.4524370000000033
20
-87.160893999999999
11
142.4940009999999972
21
-87.0667619999999971
0
LINE
8
BLACK
6
CONTINUOUS
10
142.4940009999999972
20
-87.0667619999999971
11
142.5667619999999829
21
-86.9940009999999972
0
LINE
8
BLACK
6
CONTINUOUS
10
142.5667619999999829
20
-86.9940009999999972
11
142.6608939999999848
21
-86.9524369999999891
0
LINE
8
BLACK
6
CONTINUOUS
10
142.6608939999999848
20
-86.9524369999999891
11
142.7249999999999943
21
-86.9449999999999932
0
LINE
8
BLACK
6
CONTINUOUS
10
142.7249999999999943
20
-86.9449999999999932
11
143.125
21
-86.9449999999999932
0
LINE
8
BLACK
6
CONTINUOUS
10
143.125
20
-86.9449999999999932
11
143.1891059999999811
21
-86.9524369999999891
0
LINE
8
BLACK
6
CONTINUOUS
10
144.8391059999999868
20
-86.9524369999999891
11
144.9332379999999887
21
-86.9940009999999972
0
LINE
8
BLACK
6
CONTINUOUS
10
144.9332379999999887
20
-86.9940009999999972
11
145.0059990000000028
21
-87.0667619999999971
0
LINE
8
BLACK
6
CONTINUOUS
10
145.0059990000000028
20
-87.0667619999999971
11
145.0475629999999967
21
-87.160893999999999
0
LINE
8
BLACK
6
CONTINUOUS
10
145.0475629999999967
20
-87.160893999999999
11
145.0550000000000068
21
-87.2249999999999943
0
LINE
8
BLACK
6
CONTINUOUS
10
145.0550000000000068
20
-87.2249999999999943
11
145.0550000000000068
21
-87.7749999999999915
0
LINE
8
BLACK
6
CONTINUOUS
10
145.0550000000000068
20
-87.7749999999999915
11
145.0475629999999967
21
-87.839106000000001
0
LINE
8
BLACK
6
CONTINUOUS
10
145.0475629999999967
20
-87.839106000000001
11
145.0059990000000028
21
-87.9332380000000029
0
LINE
8
BLACK
6
CONTINUOUS
10
145.0059990000000028
20
-87.9332380000000029
11
144.9332379999999887
21
-88.0059990000000028
0
LINE
8
BLACK
6
CONTINUOUS
10
144.9332379999999887
20
-88.0059990000000028
11
144.8391059999999868
21
-88.0475629999999967
0
LINE
8
BLACK
6
CONTINUOUS
10
144.8391059999999868
20
-88.0475629999999967
11
144.7750000000000057
21
-88.0549999999999926
0
LINE
8
BLACK
6
CONTINUOUS
10
144.7750000000000057
20
-88.0549999999999926
11
144.375
21
-88.0549999999999926
0
LINE
8
BLACK
6
CONTINUOUS
10
144.375
20
-88.0549999999999926
11
144.3108939999999905
21
-88.0475629999999967
0
LINE
8
BLACK
6
CONTINUOUS
10
144.3108939999999905
20
-88.0475629999999967
11
144.2167619999999886
21
-88.0059990000000028
0
LINE
8
BLACK
6
CONTINUOUS
10
144.2167619999999886
20
-88.0059990000000028
11
144.1440010000000029
21
-87.9332380000000029
0
LINE
8
BLACK
6
CONTINUOUS
10
144.1440010000000029
20
-87.9332380000000029
11
144.1024369999999806
21
-87.839106000000001
0
LINE
8
BLACK
6
CONTINUOUS
10
144.1024369999999806
20
-87.839106000000001
11
144.0949999999999989
21
-87.7749999999999915
0
LINE
8
BLACK
6
CONTINUOUS
10
144.0949999999999989
20
-87.7749999999999915
11
144.0949999999999989
21
-87.2249999999999943
0
LINE
8
BLACK
6
CONTINUOUS
10
144.0949999999999989
20
-87.2249999999999943
11
144.1024369999999806
21
-87.160893999999999
0
LINE
8
BLACK
6
CONTINUOUS
10
144.1024369999999806
20
-87.160893999999999
11
144.1440010000000029
21
-87.0667619999999971
0
LINE
8
BLACK
6
CONTINUOUS
10
144.1440010000000029
20
-87.0667619999999971
11
144.2167619999999886
21
-86.9940009999999972
0
LINE
8
BLACK
6
CONTINUOUS
10
144.2167619999999886
20
-86.9940009999999972
11
144.3108939999999905
21
-86.9524369999999891
0
LINE
8
BLACK
6
CONTINUOUS
10
144.3108939999999905
20
-86.9524369999999891
11
144.375
21
-86.9449999999999932
0
LINE
8
BLACK
6
CONTINUOUS
10
144.375
20
-86.9449999999999932
11
144.7750000000000057
21
-86.9449999999999932
0
LINE
8
BLACK
6
CONTINUOUS
10
144.7750000000000057
20
-86.9449999999999932
11
144.8391059999999868
21
-86.9524369999999891
0
LINE
8
BLACK
6
CONTINUOUS
10
139.8141059999999811
20
-87.0274369999999919
11
139.908237999999983
21
-87.0690010000000001
0
LINE
8
BLACK
6
CONTINUOUS
10
139.908237999999983
20
-87.0690010000000001
11
139.9809989999999971
21
-87.1417619999999999
0
LINE
8
BLACK
6
CONTINUOUS
10
139.9809989999999971
20
-87.1417619999999999
11
140.022562999999991
21
-87.2358940000000018
0
LINE
8
BLACK
6
CONTINUOUS
10
140.022562999999991
20
-87.2358940000000018
11
140.0300000000000011
21
-87.2999999999999972
0
LINE
8
BLACK
6
CONTINUOUS
10
140.0300000000000011
20
-87.2999999999999972
11
140.0300000000000011
21
-87.7000000000000028
0
LINE
8
BLACK
6
CONTINUOUS
10
140.0300000000000011
20
-87.7000000000000028
11
140.022562999999991
21
-87.7641059999999982
0
LINE
8
BLACK
6
CONTINUOUS
10
140.022562999999991
20
-87.7641059999999982
11
139.9809989999999971
21
-87.8582380000000001
0
LINE
8
BLACK
6
CONTINUOUS
10
139.9809989999999971
20
-87.8582380000000001
11
139.908237999999983
21
-87.9309989999999999
0
LINE
8
BLACK
6
CONTINUOUS
10
139.908237999999983
20
-87.9309989999999999
11
139.8141059999999811
21
-87.9725629999999938
0
LINE
8
BLACK
6
CONTINUOUS
10
139.8141059999999811
20
-87.9725629999999938
11
139.75
21
-87.9799999999999898
0
LINE
8
BLACK
6
CONTINUOUS
10
139.75
20
-87.9799999999999898
11
138.5499999999999829
21
-87.9799999999999898
0
LINE
8
BLACK
6
CONTINUOUS
10
138.5499999999999829
20
-87.9799999999999898
11
138.4858940000000018
21
-87.9725629999999938
0
LINE
8
BLACK
6
CONTINUOUS
10
138.4858940000000018
20
-87.9725629999999938
11
138.3917619999999999
21
-87.9309989999999999
0
LINE
8
BLACK
6
CONTINUOUS
10
138.3917619999999999
20
-87.9309989999999999
11
138.3190009999999859
21
-87.8582380000000001
0
LINE
8
BLACK
6
CONTINUOUS
10
138.3190009999999859
20
-87.8582380000000001
11
138.2774369999999919
21
-87.7641059999999982
0
LINE
8
BLACK
6
CONTINUOUS
10
138.2774369999999919
20
-87.7641059999999982
11
138.2699999999999818
21
-87.7000000000000028
0
LINE
8
BLACK
6
CONTINUOUS
10
138.2699999999999818
20
-87.7000000000000028
11
138.2699999999999818
21
-87.2999999999999972
0
LINE
8
BLACK
6
CONTINUOUS
10
138.2699999999999818
20
-87.2999999999999972
11
138.2774369999999919
21
-87.2358940000000018
0
LINE
8
BLACK
6
CONTINUOUS
10
138.2774369999999919
20
-87.2358940000000018
11
138.3190009999999859
21
-87.1417619999999999
0
LINE
8
BLACK
6
CONTINUOUS
10
138.3190009999999859
20
-87.1417619999999999
11
138.3917619999999999
21
-87.0690010000000001
0
LINE
8
BLACK
6
CONTINUOUS
10
138.3917619999999999
20
-87.0690010000000001
11
138.4858940000000018
21
-87.0274369999999919
0
LINE
8
BLACK
6
CONTINUOUS
10
138.4858940000000018
20
-87.0274369999999919
11
138.5499999999999829
21
-87.019999999999996
0
LINE
8
BLACK
6
CONTINUOUS
10
138.5499999999999829
20
-87.019999999999996
11
139.75
21
-87.019999999999996
0
LINE
8
BLACK
6
CONTINUOUS
10
139.75
20
-87.019999999999996
11
139.8141059999999811
21
-87.0274369999999919
0
LINE
8
BLACK
6
CONTINUOUS
10
137.585409999999996
20
-83.8312449999999956
11
137.6892799999999966
21
-83.8796799999999934
0
LINE
8
BLACK
6
CONTINUOUS
10
137.6892799999999966
20
-83.8796799999999934
11
137.7703199999999981
21
-83.9607199999999949
0
LINE
8
BLACK
6
CONTINUOUS
10
137.7703199999999981
20
-83.9607199999999949
11
137.8187549999999817
21
-84.0645899999999955
0
LINE
8
BLACK
6
CONTINUOUS
10
137.8187549999999817
20
-84.0645899999999955
11
137.8299989999999866
21
-84.1500020000000006
0
LINE
8
BLACK
6
CONTINUOUS
10
137.8299989999999866
20
-84.1500020000000006
11
137.8299999999999841
21
-85.7499990000000025
0
LINE
8
BLACK
6
CONTINUOUS
10
137.8299999999999841
20
-85.7499990000000025
11
137.8187549999999817
21
-85.835409999999996
0
LINE
8
BLACK
6
CONTINUOUS
10
137.8187549999999817
20
-85.835409999999996
11
137.7703199999999981
21
-85.9392799999999966
0
LINE
8
BLACK
6
CONTINUOUS
10
137.7703199999999981
20
-85.9392799999999966
11
137.6892799999999966
21
-86.0203199999999981
0
LINE
8
BLACK
6
CONTINUOUS
10
137.6892799999999966
20
-86.0203199999999981
11
137.585409999999996
21
-86.0687549999999959
0
LINE
8
BLACK
6
CONTINUOUS
10
137.585409999999996
20
-86.0687549999999959
11
137.499998000000005
21
-86.0799990000000008
0
LINE
8
BLACK
6
CONTINUOUS
10
137.499998000000005
20
-86.0799990000000008
11
135.0000009999999975
21
-86.0799999999999983
0
LINE
8
BLACK
6
CONTINUOUS
10
135.0000009999999975
20
-86.0799999999999983
11
134.914590000000004
21
-86.0687549999999959
0
LINE
8
BLACK
6
CONTINUOUS
10
134.914590000000004
20
-86.0687549999999959
11
134.8107200000000034
21
-86.0203199999999981
0
LINE
8
BLACK
6
CONTINUOUS
10
134.8107200000000034
20
-86.0203199999999981
11
134.7296800000000019
21
-85.9392799999999966
0
LINE
8
BLACK
6
CONTINUOUS
10
134.7296800000000019
20
-85.9392799999999966
11
134.6812449999999899
21
-85.835409999999996
0
LINE
8
BLACK
6
CONTINUOUS
10
134.6812449999999899
20
-85.835409999999996
11
134.670000999999985
21
-85.7499979999999908
0
LINE
8
BLACK
6
CONTINUOUS
10
134.670000999999985
20
-85.7499979999999908
11
134.6699999999999875
21
-84.1500010000000032
0
LINE
8
BLACK
6
CONTINUOUS
10
134.6699999999999875
20
-84.1500010000000032
11
134.6812449999999899
21
-84.0645899999999955
0
LINE
8
BLACK
6
CONTINUOUS
10
134.6812449999999899
20
-84.0645899999999955
11
134.7296800000000019
21
-83.9607199999999949
0
LINE
8
BLACK
6
CONTINUOUS
10
134.7296800000000019
20
-83.9607199999999949
11
134.8107200000000034
21
-83.8796799999999934
0
LINE
8
BLACK
6
CONTINUOUS
10
134.8107200000000034
20
-83.8796799999999934
11
134.914590000000004
21
-83.8312449999999956
0
LINE
8
BLACK
6
CONTINUOUS
10
134.914590000000004
20
-83.8312449999999956
11
135.000001999999995
21
-83.8200009999999907
0
LINE
8
BLACK
6
CONTINUOUS
10
135.000001999999995
20
-83.8200009999999907
11
137.4999990000000025
21
-83.8199999999999932
0
LINE
8
BLACK
6
CONTINUOUS
10
137.4999990000000025
20
-83.8199999999999932
11
137.585409999999996
21
-83.8312449999999956
0
LINE
8
BLACK
6
CONTINUOUS
10
143.2130169999999794
20
-85.0875079999999997
11
143.2876349999999945
21
-85.1373650000000026
0
LINE
8
BLACK
6
CONTINUOUS
10
143.2876349999999945
20
-85.1373650000000026
11
143.3374919999999975
21
-85.2119829999999894
0
LINE
8
BLACK
6
CONTINUOUS
10
143.3374919999999975
20
-85.2119829999999894
11
143.3549999999999898
21
-85.2999999999999972
0
LINE
8
BLACK
6
CONTINUOUS
10
143.3549999999999898
20
-85.2999999999999972
11
143.3549999999999898
21
-85.5999999999999943
0
LINE
8
BLACK
6
CONTINUOUS
10
143.3549999999999898
20
-85.5999999999999943
11
143.3374919999999975
21
-85.6880170000000021
0
LINE
8
BLACK
6
CONTINUOUS
10
143.3374919999999975
20
-85.6880170000000021
11
143.2876349999999945
21
-85.7626350000000031
0
LINE
8
BLACK
6
CONTINUOUS
10
143.2876349999999945
20
-85.7626350000000031
11
143.2130169999999794
21
-85.8124919999999918
0
LINE
8
BLACK
6
CONTINUOUS
10
143.2130169999999794
20
-85.8124919999999918
11
143.125
21
-85.8299999999999983
0
LINE
8
BLACK
6
CONTINUOUS
10
143.125
20
-85.8299999999999983
11
142.0999999999999943
21
-85.8299999999999983
0
LINE
8
BLACK
6
CONTINUOUS
10
142.0999999999999943
20
-85.8299999999999983
11
142.0119829999999865
21
-85.8124919999999918
0
LINE
8
BLACK
6
CONTINUOUS
10
142.0119829999999865
20
-85.8124919999999918
11
141.9373649999999998
21
-85.7626350000000031
0
LINE
8
BLACK
6
CONTINUOUS
10
141.9373649999999998
20
-85.7626350000000031
11
141.8875079999999969
21
-85.6880170000000021
0
LINE
8
BLACK
6
CONTINUOUS
10
141.8875079999999969
20
-85.6880170000000021
11
141.8700000000000045
21
-85.5999999999999943
0
LINE
8
BLACK
6
CONTINUOUS
10
141.8700000000000045
20
-85.5999999999999943
11
141.8700000000000045
21
-85.2999999999999972
0
LINE
8
BLACK
6
CONTINUOUS
10
141.8700000000000045
20
-85.2999999999999972
11
141.8875079999999969
21
-85.2119829999999894
0
LINE
8
BLACK
6
CONTINUOUS
10
141.8875079999999969
20
-85.2119829999999894
11
141.9373649999999998
21
-85.1373650000000026
0
LINE
8
BLACK
6
CONTINUOUS
10
141.9373649999999998
20
-85.1373650000000026
11
142.0119829999999865
21
-85.0875079999999997
0
LINE
8
BLACK
6
CONTINUOUS
10
142.0119829999999865
20
-85.0875079999999997
11
142.0999999999999943
21
-85.0699999999999932
0
LINE
8
BLACK
6
CONTINUOUS
10
142.0999999999999943
20
-85.0699999999999932
11
143.125
21
-85.0699999999999932
0
LINE
8
BLACK
6
CONTINUOUS
10
143.125
20
-85.0699999999999932
11
143.2130169999999794
21
-85.0875079999999997
0
LINE
8
BLACK
6
CONTINUOUS
10
145.488016999999985
20
-85.0875079999999997
11
145.5626350000000002
21
-85.1373650000000026
0
LINE
8
BLACK
6
CONTINUOUS
10
145.5626350000000002
20
-85.1373650000000026
11
145.6124920000000031
21
-85.2119829999999894
0
LINE
8
BLACK
6
CONTINUOUS
10
145.6124920000000031
20
-85.2119829999999894
11
145.6299999999999955
21
-85.2999999999999972
0
LINE
8
BLACK
6
CONTINUOUS
10
145.6299999999999955
20
-85.2999999999999972
11
145.6299999999999955
21
-85.5999999999999943
0
LINE
8
BLACK
6
CONTINUOUS
10
145.6299999999999955
20
-85.5999999999999943
11
145.6124920000000031
21
-85.6880170000000021
0
LINE
8
BLACK
6
CONTINUOUS
10
145.6124920000000031
20
-85.6880170000000021
11
145.5626350000000002
21
-85.7626350000000031
0
LINE
8
BLACK
6
CONTINUOUS
10
145.5626350000000002
20
-85.7626350000000031
11
145.488016999999985
21
-85.8124919999999918
0
LINE
8
BLACK
6
CONTINUOUS
10
145.488016999999985
20
-85.8124919999999918
11
145.4000000000000057
21
-85.8299999999999983
0
LINE
8
BLACK
6
CONTINUOUS
10
145.4000000000000057
20
-85.8299999999999983
11
144.375
21
-85.8299999999999983
0
LINE
8
BLACK
6
CONTINUOUS
10
144.375
20
-85.8299999999999983
11
144.2869829999999922
21
-85.8124919999999918
0
LINE
8
BLACK
6
CONTINUOUS
10
144.2869829999999922
20
-85.8124919999999918
11
144.2123650000000055
21
-85.7626350000000031
0
LINE
8
BLACK
6
CONTINUOUS
10
144.2123650000000055
20
-85.7626350000000031
11
144.1625080000000025
21
-85.6880170000000021
0
LINE
8
BLACK
6
CONTINUOUS
10
144.1625080000000025
20
-85.6880170000000021
11
144.1449999999999818
21
-85.5999999999999943
0
LINE
8
BLACK
6
CONTINUOUS
10
144.1449999999999818
20
-85.5999999999999943
11
144.1449999999999818
21
-85.2999999999999972
0
LINE
8
BLACK
6
CONTINUOUS
10
144.1449999999999818
20
-85.2999999999999972
11
144.1625080000000025
21
-85.2119829999999894
0
LINE
8
BLACK
6
CONTINUOUS
10
144.1625080000000025
20
-85.2119829999999894
11
144.2123650000000055
21
-85.1373650000000026
0
LINE
8
BLACK
6
CONTINUOUS
10
144.2123650000000055
20
-85.1373650000000026
11
144.2869829999999922
21
-85.0875079999999997
0
LINE
8
BLACK
6
CONTINUOUS
10
144.2869829999999922
20
-85.0875079999999997
11
144.375
21
-85.0699999999999932
0
LINE
8
BLACK
6
CONTINUOUS
10
144.375
20
-85.0699999999999932
11
145.4000000000000057
21
-85.0699999999999932
0
LINE
8
BLACK
6
CONTINUOUS
10
145.4000000000000057
20
-85.0699999999999932
11
145.488016999999985
21
-85.0875079999999997
0
LINE
8
BLACK
6
CONTINUOUS
10
151.7584279999999808
20
-84.3857979999999941
11
151.87080899999998
21
-84.4407369999999986
0
LINE
8
BLACK
6
CONTINUOUS
10
151.87080899999998
20
-84.4407369999999986
11
151.9592629999999929
21
-84.5291909999999973
0
LINE
8
BLACK
6
CONTINUOUS
10
151.9592629999999929
20
-84.5291909999999973
11
152.0142019999999832
21
-84.6415719999999965
0
LINE
8
BLACK
6
CONTINUOUS
10
152.0142019999999832
20
-84.6415719999999965
11
152.0300000000000011
21
-84.75
0
LINE
8
BLACK
6
CONTINUOUS
10
152.0300000000000011
20
-84.75
11
152.0300000000000011
21
-85.3499999999999943
0
LINE
8
BLACK
6
CONTINUOUS
10
152.0300000000000011
20
-85.3499999999999943
11
152.0142019999999832
21
-85.4584279999999978
0
LINE
8
BLACK
6
CONTINUOUS
10
152.0142019999999832
20
-85.4584279999999978
11
151.9592629999999929
21
-85.570808999999997
0
LINE
8
BLACK
6
CONTINUOUS
10
151.9592629999999929
20
-85.570808999999997
11
151.87080899999998
21
-85.6592629999999957
0
LINE
8
BLACK
6
CONTINUOUS
10
151.87080899999998
20
-85.6592629999999957
11
151.7584279999999808
21
-85.7142020000000002
0
LINE
8
BLACK
6
CONTINUOUS
10
151.7584279999999808
20
-85.7142020000000002
11
151.6500000000000057
21
-85.7299999999999898
0
LINE
8
BLACK
6
CONTINUOUS
10
151.6500000000000057
20
-85.7299999999999898
11
149.75
21
-85.7299999999999898
0
LINE
8
BLACK
6
CONTINUOUS
10
149.75
20
-85.7299999999999898
11
149.6415719999999965
21
-85.7142020000000002
0
LINE
8
BLACK
6
CONTINUOUS
10
149.6415719999999965
20
-85.7142020000000002
11
149.5291909999999973
21
-85.6592629999999957
0
LINE
8
BLACK
6
CONTINUOUS
10
149.5291909999999973
20
-85.6592629999999957
11
149.4407369999999844
21
-85.570808999999997
0
LINE
8
BLACK
6
CONTINUOUS
10
149.4407369999999844
20
-85.570808999999997
11
149.3857979999999941
21
-85.4584279999999978
0
LINE
8
BLACK
6
CONTINUOUS
10
149.3857979999999941
20
-85.4584279999999978
11
149.3700000000000045
21
-85.3499999999999943
0
LINE
8
BLACK
6
CONTINUOUS
10
149.3700000000000045
20
-85.3499999999999943
11
149.3700000000000045
21
-84.75
0
LINE
8
BLACK
6
CONTINUOUS
10
149.3700000000000045
20
-84.75
11
149.3857979999999941
21
-84.6415719999999965
0
LINE
8
BLACK
6
CONTINUOUS
10
149.3857979999999941
20
-84.6415719999999965
11
149.4407369999999844
21
-84.5291909999999973
0
LINE
8
BLACK
6
CONTINUOUS
10
149.4407369999999844
20
-84.5291909999999973
11
149.5291909999999973
21
-84.4407369999999986
0
LINE
8
BLACK
6
CONTINUOUS
10
149.5291909999999973
20
-84.4407369999999986
11
149.6415719999999965
21
-84.3857979999999941
0
LINE
8
BLACK
6
CONTINUOUS
10
149.6415719999999965
20
-84.3857979999999941
11
149.75
21
-84.3699999999999903
0
LINE
8
BLACK
6
CONTINUOUS
10
149.75
20
-84.3699999999999903
11
151.6500000000000057
21
-84.3699999999999903
0
LINE
8
BLACK
6
CONTINUOUS
10
151.6500000000000057
20
-84.3699999999999903
11
151.7584279999999808
21
-84.3857979999999941
0
LINE
8
BLACK
6
CONTINUOUS
10
158.4584279999999978
20
-84.3857979999999941
11
158.570808999999997
21
-84.4407369999999986
0
LINE
8
BLACK
6
CONTINUOUS
10
158.570808999999997
20
-84.4407369999999986
11
158.6592629999999815
21
-84.5291909999999973
0
LINE
8
BLACK
6
CONTINUOUS
10
158.6592629999999815
20
-84.5291909999999973
11
158.7142020000000002
21
-84.6415719999999965
0
LINE
8
BLACK
6
CONTINUOUS
10
158.7142020000000002
20
-84.6415719999999965
11
158.7299999999999898
21
-84.75
0
LINE
8
BLACK
6
CONTINUOUS
10
158.7299999999999898
20
-84.75
11
158.7299999999999898
21
-85.3499999999999943
0
LINE
8
BLACK
6
CONTINUOUS
10
158.7299999999999898
20
-85.3499999999999943
11
158.7142020000000002
21
-85.4584279999999978
0
LINE
8
BLACK
6
CONTINUOUS
10
158.7142020000000002
20
-85.4584279999999978
11
158.6592629999999815
21
-85.570808999999997
0
LINE
8
BLACK
6
CONTINUOUS
10
158.6592629999999815
20
-85.570808999999997
11
158.570808999999997
21
-85.6592629999999957
0
LINE
8
BLACK
6
CONTINUOUS
10
158.570808999999997
20
-85.6592629999999957
11
158.4584279999999978
21
-85.7142020000000002
0
LINE
8
BLACK
6
CONTINUOUS
10
158.4584279999999978
20
-85.7142020000000002
11
158.3499999999999943
21
-85.7299999999999898
0
LINE
8
BLACK
6
CONTINUOUS
10
158.3499999999999943
20
-85.7299999999999898
11
156.4499999999999886
21
-85.7299999999999898
0
LINE
8
BLACK
6
CONTINUOUS
10
156.4499999999999886
20
-85.7299999999999898
11
156.3415719999999851
21
-85.7142020000000002
0
LINE
8
BLACK
6
CONTINUOUS
10
156.3415719999999851
20
-85.7142020000000002
11
156.2291909999999859
21
-85.6592629999999957
0
LINE
8
BLACK
6
CONTINUOUS
10
156.2291909999999859
20
-85.6592629999999957
11
156.1407370000000014
21
-85.570808999999997
0
LINE
8
BLACK
6
CONTINUOUS
10
156.1407370000000014
20
-85.570808999999997
11
156.0857979999999827
21
-85.4584279999999978
0
LINE
8
BLACK
6
CONTINUOUS
10
156.0857979999999827
20
-85.4584279999999978
11
156.0699999999999932
21
-85.3499999999999943
0
LINE
8
BLACK
6
CONTINUOUS
10
156.0699999999999932
20
-85.3499999999999943
11
156.0699999999999932
21
-84.75
0
LINE
8
BLACK
6
CONTINUOUS
10
156.0699999999999932
20
-84.75
11
156.0857979999999827
21
-84.6415719999999965
0
LINE
8
BLACK
6
CONTINUOUS
10
156.0857979999999827
20
-84.6415719999999965
11
156.1407370000000014
21
-84.5291909999999973
0
LINE
8
BLACK
6
CONTINUOUS
10
156.1407370000000014
20
-84.5291909999999973
11
156.2291909999999859
21
-84.4407369999999986
0
LINE
8
BLACK
6
CONTINUOUS
10
156.2291909999999859
20
-84.4407369999999986
11
156.3415719999999851
21
-84.3857979999999941
0
LINE
8
BLACK
6
CONTINUOUS
10
156.3415719999999851
20
-84.3857979999999941
11
156.4499999999999886
21
-84.3699999999999903
0
LINE
8
BLACK
6
CONTINUOUS
10
156.4499999999999886
20
-84.3699999999999903
11
158.3499999999999943
21
-84.3699999999999903
0
LINE
8
BLACK
6
CONTINUOUS
10
158.3499999999999943
20
-84.3699999999999903
11
158.4584279999999978
21
-84.3857979999999941
0
LINE
8
BLACK
6
CONTINUOUS
10
143.2130169999999794
20
-84.1375079999999969
11
143.2876349999999945
21
-84.1873649999999998
0
LINE
8
BLACK
6
CONTINUOUS
10
143.2876349999999945
20
-84.1873649999999998
11
143.3374919999999975
21
-84.2619830000000007
0
LINE
8
BLACK
6
CONTINUOUS
10
143.3374919999999975
20
-84.2619830000000007
11
143.3549999999999898
21
-84.3499999999999943
0
LINE
8
BLACK
6
CONTINUOUS
10
143.3549999999999898
20
-84.3499999999999943
11
143.3549999999999898
21
-84.6499999999999915
0
LINE
8
BLACK
6
CONTINUOUS
10
143.3549999999999898
20
-84.6499999999999915
11
143.3374919999999975
21
-84.7380169999999993
0
LINE
8
BLACK
6
CONTINUOUS
10
143.3374919999999975
20
-84.7380169999999993
11
143.2876349999999945
21
-84.8126350000000002
0
LINE
8
BLACK
6
CONTINUOUS
10
143.2876349999999945
20
-84.8126350000000002
11
143.2130169999999794
21
-84.8624920000000031
0
LINE
8
BLACK
6
CONTINUOUS
10
143.2130169999999794
20
-84.8624920000000031
11
143.125
21
-84.8799999999999955
0
LINE
8
BLACK
6
CONTINUOUS
10
143.125
20
-84.8799999999999955
11
142.0999999999999943
21
-84.8799999999999955
0
LINE
8
BLACK
6
CONTINUOUS
10
142.0999999999999943
20
-84.8799999999999955
11
142.0119829999999865
21
-84.8624920000000031
0
LINE
8
BLACK
6
CONTINUOUS
10
142.0119829999999865
20
-84.8624920000000031
11
141.9373649999999998
21
-84.8126350000000002
0
LINE
8
BLACK
6
CONTINUOUS
10
141.9373649999999998
20
-84.8126350000000002
11
141.8875079999999969
21
-84.7380169999999993
0
LINE
8
BLACK
6
CONTINUOUS
10
141.8875079999999969
20
-84.7380169999999993
11
141.8700000000000045
21
-84.6499999999999915
0
LINE
8
BLACK
6
CONTINUOUS
10
141.8700000000000045
20
-84.6499999999999915
11
141.8700000000000045
21
-84.3499999999999943
0
LINE
8
BLACK
6
CONTINUOUS
10
141.8700000000000045
20
-84.3499999999999943
11
141.8875079999999969
21
-84.2619830000000007
0
LINE
8
BLACK
6
CONTINUOUS
10
141.8875079999999969
20
-84.2619830000000007
11
141.9373649999999998
21
-84.1873649999999998
0
LINE
8
BLACK
6
CONTINUOUS
10
141.9373649999999998
20
-84.1873649999999998
11
142.0119829999999865
21
-84.1375079999999969
0
LINE
8
BLACK
6
CONTINUOUS
10
142.0119829999999865
20
-84.1375079999999969
11
142.0999999999999943
21
-84.1199999999999903
0
LINE
8
BLACK
6
CONTINUOUS
10
142.0999999999999943
20
-84.1199999999999903
11
143.125
21
-84.1199999999999903
0
LINE
8
BLACK
6
CONTINUOUS
10
143.125
20
-84.1199999999999903
11
143.2130169999999794
21
-84.1375079999999969
0
LINE
8
BLACK
6
CONTINUOUS
10
145.488016999999985
20
-84.1375079999999969
11
145.5626350000000002
21
-84.1873649999999998
0
LINE
8
BLACK
6
CONTINUOUS
10
145.5626350000000002
20
-84.1873649999999998
11
145.6124920000000031
21
-84.2619830000000007
0
LINE
8
BLACK
6
CONTINUOUS
10
145.6124920000000031
20
-84.2619830000000007
11
145.6299999999999955
21
-84.3499999999999943
0
LINE
8
BLACK
6
CONTINUOUS
10
145.6299999999999955
20
-84.3499999999999943
11
145.6299999999999955
21
-84.6499999999999915
0
LINE
8
BLACK
6
CONTINUOUS
10
145.6299999999999955
20
-84.6499999999999915
11
145.6124920000000031
21
-84.7380169999999993
0
LINE
8
BLACK
6
CONTINUOUS
10
145.6124920000000031
20
-84.7380169999999993
11
145.5626350000000002
21
-84.8126350000000002
0
LINE
8
BLACK
6
CONTINUOUS
10
145.5626350000000002
20
-84.8126350000000002
11
145.488016999999985
21
-84.8624920000000031
0
LINE
8
BLACK
6
CONTINUOUS
10
145.488016999999985
20
-84.8624920000000031
11
145.4000000000000057
21
-84.8799999999999955
0
LINE
8
BLACK
6
CONTINUOUS
10
145.4000000000000057
20
-84.8799999999999955
11
144.375
21
-84.8799999999999955
0
LINE
8
BLACK
6
CONTINUOUS
10
144.375
20
-84.8799999999999955
11
144.2869829999999922
21
-84.8624920000000031
0
LINE
8
BLACK
6
CONTINUOUS
10
144.2869829999999922
20
-84.8624920000000031
11
144.2123650000000055
21
-84.8126350000000002
0
LINE
8
BLACK
6
CONTINUOUS
10
144.2123650000000055
20
-84.8126350000000002
11
144.1625080000000025
21
-84.7380169999999993
0
LINE
8
BLACK
6
CONTINUOUS
10
144.1625080000000025
20
-84.7380169999999993
11
144.1449999999999818
21
-84.6499999999999915
0
LINE
8
BLACK
6
CONTINUOUS
10
144.1449999999999818
20
-84.6499999999999915
11
144.1449999999999818
21
-84.3499999999999943
0
LINE
8
BLACK
6
CONTINUOUS
10
144.1449999999999818
20
-84.3499999999999943
11
144.1625080000000025
21
-84.2619830000000007
0
LINE
8
BLACK
6
CONTINUOUS
10
144.1625080000000025
20
-84.2619830000000007
11
144.2123650000000055
21
-84.1873649999999998
0
LINE
8
BLACK
6
CONTINUOUS
10
144.2123650000000055
20
-84.1873649999999998
11
144.2869829999999922
21
-84.1375079999999969
0
LINE
8
BLACK
6
CONTINUOUS
10
144.2869829999999922
20
-84.1375079999999969
11
144.375
21
-84.1199999999999903
0
LINE
8
BLACK
6
CONTINUOUS
10
144.375
20
-84.1199999999999903
11
145.4000000000000057
21
-84.1199999999999903
0
LINE
8
BLACK
6
CONTINUOUS
10
145.4000000000000057
20
-84.1199999999999903
11
145.488016999999985
21
-84.1375079999999969
0
LINE
8
BLACK
6
CONTINUOUS
10
143.2130169999999794
20
-83.187507999999994
11
143.2876349999999945
21
-83.2373649999999969
0
LINE
8
BLACK
6
CONTINUOUS
10
143.2876349999999945
20
-83.2373649999999969
11
143.3374919999999975
21
-83.3119829999999979
0
LINE
8
BLACK
6
CONTINUOUS
10
143.3374919999999975
20
-83.3119829999999979
11
143.3549999999999898
21
-83.3999999999999915
0
LINE
8
BLACK
6
CONTINUOUS
10
143.3549999999999898
20
-83.3999999999999915
11
143.3549999999999898
21
-83.7000000000000028
0
LINE
8
BLACK
6
CONTINUOUS
10
143.3549999999999898
20
-83.7000000000000028
11
143.3374919999999975
21
-83.7880169999999964
0
LINE
8
BLACK
6
CONTINUOUS
10
143.3374919999999975
20
-83.7880169999999964
11
143.2876349999999945
21
-83.8626349999999974
0
LINE
8
BLACK
6
CONTINUOUS
10
143.2876349999999945
20
-83.8626349999999974
11
143.2130169999999794
21
-83.9124920000000003
0
LINE
8
BLACK
6
CONTINUOUS
10
143.2130169999999794
20
-83.9124920000000003
11
143.125
21
-83.9299999999999926
0
LINE
8
BLACK
6
CONTINUOUS
10
143.125
20
-83.9299999999999926
11
142.0999999999999943
21
-83.9299999999999926
0
LINE
8
BLACK
6
CONTINUOUS
10
142.0999999999999943
20
-83.9299999999999926
11
142.0119829999999865
21
-83.9124920000000003
0
LINE
8
BLACK
6
CONTINUOUS
10
142.0119829999999865
20
-83.9124920000000003
11
141.9373649999999998
21
-83.8626349999999974
0
LINE
8
BLACK
6
CONTINUOUS
10
141.9373649999999998
20
-83.8626349999999974
11
141.8875079999999969
21
-83.7880169999999964
0
LINE
8
BLACK
6
CONTINUOUS
10
141.8875079999999969
20
-83.7880169999999964
11
141.8700000000000045
21
-83.7000000000000028
0
LINE
8
BLACK
6
CONTINUOUS
10
141.8700000000000045
20
-83.7000000000000028
11
141.8700000000000045
21
-83.3999999999999915
0
LINE
8
BLACK
6
CONTINUOUS
10
141.8700000000000045
20
-83.3999999999999915
11
141.8875079999999969
21
-83.3119829999999979
0
LINE
8
BLACK
6
CONTINUOUS
10
141.8875079999999969
20
-83.3119829999999979
11
141.9373649999999998
21
-83.2373649999999969
0
LINE
8
BLACK
6
CONTINUOUS
10
141.9373649999999998
20
-83.2373649999999969
11
142.0119829999999865
21
-83.187507999999994
0
LINE
8
BLACK
6
CONTINUOUS
10
142.0119829999999865
20
-83.187507999999994
11
142.0999999999999943
21
-83.1700000000000017
0
LINE
8
BLACK
6
CONTINUOUS
10
142.0999999999999943
20
-83.1700000000000017
11
143.125
21
-83.1700000000000017
0
LINE
8
BLACK
6
CONTINUOUS
10
143.125
20
-83.1700000000000017
11
143.2130169999999794
21
-83.187507999999994
0
LINE
8
BLACK
6
CONTINUOUS
10
145.488016999999985
20
-83.187507999999994
11
145.5626350000000002
21
-83.2373649999999969
0
LINE
8
BLACK
6
CONTINUOUS
10
145.5626350000000002
20
-83.2373649999999969
11
145.6124920000000031
21
-83.3119829999999979
0
LINE
8
BLACK
6
CONTINUOUS
10
145.6124920000000031
20
-83.3119829999999979
11
145.6299999999999955
21
-83.3999999999999915
0
LINE
8
BLACK
6
CONTINUOUS
10
145.6299999999999955
20
-83.3999999999999915
11
145.6299999999999955
21
-83.7000000000000028
0
LINE
8
BLACK
6
CONTINUOUS
10
145.6299999999999955
20
-83.7000000000000028
11
145.6124920000000031
21
-83.7880169999999964
0
LINE
8
BLACK
6
CONTINUOUS
10
145.6124920000000031
20
-83.7880169999999964
11
145.5626350000000002
21
-83.8626349999999974
0
LINE
8
BLACK
6
CONTINUOUS
10
145.5626350000000002
20
-83.8626349999999974
11
145.488016999999985
21
-83.9124920000000003
0
LINE
8
BLACK
6
CONTINUOUS
10
145.488016999999985
20
-83.9124920000000003
11
145.4000000000000057
21
-83.9299999999999926
0
LINE
8
BLACK
6
CONTINUOUS
10
145.4000000000000057
20
-83.9299999999999926
11
144.375
21
-83.9299999999999926
0
LINE
8
BLACK
6
CONTINUOUS
10
144.375
20
-83.9299999999999926
11
144.2869829999999922
21
-83.9124920000000003
0
LINE
8
BLACK
6
CONTINUOUS
10
144.2869829999999922
20
-83.9124920000000003
11
144.2123650000000055
21
-83.8626349999999974
0
LINE
8
BLACK
6
CONTINUOUS
10
144.2123650000000055
20
-83.8626349999999974
11
144.1625080000000025
21
-83.7880169999999964
0
LINE
8
BLACK
6
CONTINUOUS
10
144.1625080000000025
20
-83.7880169999999964
11
144.1449999999999818
21
-83.7000000000000028
0
LINE
8
BLACK
6
CONTINUOUS
10
144.1449999999999818
20
-83.7000000000000028
11
144.1449999999999818
21
-83.3999999999999915
0
LINE
8
BLACK
6
CONTINUOUS
10
144.1449999999999818
20
-83.3999999999999915
11
144.1625080000000025
21
-83.3119829999999979
0
LINE
8
BLACK
6
CONTINUOUS
10
144.1625080000000025
20
-83.3119829999999979
11
144.2123650000000055
21
-83.2373649999999969
0
LINE
8
BLACK
6
CONTINUOUS
10
144.2123650000000055
20
-83.2373649999999969
11
144.2869829999999922
21
-83.187507999999994
0
LINE
8
BLACK
6
CONTINUOUS
10
144.2869829999999922
20
-83.187507999999994
11
144.375
21
-83.1700000000000017
0
LINE
8
BLACK
6
CONTINUOUS
10
144.375
20
-83.1700000000000017
11
145.4000000000000057
21
-83.1700000000000017
0
LINE
8
BLACK
6
CONTINUOUS
10
145.4000000000000057
20
-83.1700000000000017
11
145.488016999999985
21
-83.187507999999994
0
LINE
8
BLACK
6
CONTINUOUS
10
147.4450899999999933
20
-81.7692150000000026
11
147.6326829999999859
21
-81.8261200000000031
0
LINE
8
BLACK
6
CONTINUOUS
10
147.6326829999999859
20
-81.8261200000000031
11
147.8055699999999888
21
-81.9185299999999899
0
LINE
8
BLACK
6
CONTINUOUS
10
147.8055699999999888
20
-81.9185299999999899
11
147.9571069999999793
21
-82.0428929999999923
0
LINE
8
BLACK
6
CONTINUOUS
10
147.9571069999999793
20
-82.0428929999999923
11
148.0814699999999959
21
-82.194429999999997
0
LINE
8
BLACK
6
CONTINUOUS
10
148.0814699999999959
20
-82.194429999999997
11
148.1738799999999969
21
-82.3673169999999999
0
LINE
8
BLACK
6
CONTINUOUS
10
148.1738799999999969
20
-82.3673169999999999
11
148.2307849999999974
21
-82.5549099999999925
0
LINE
8
BLACK
6
CONTINUOUS
10
148.2307849999999974
20
-82.5549099999999925
11
148.25
21
-82.75
0
LINE
8
BLACK
6
CONTINUOUS
10
148.25
20
-82.75
11
148.2307849999999974
21
-82.9450899999999933
0
LINE
8
BLACK
6
CONTINUOUS
10
148.2307849999999974
20
-82.9450899999999933
11
148.1738799999999969
21
-83.1326830000000001
0
LINE
8
BLACK
6
CONTINUOUS
10
148.1738799999999969
20
-83.1326830000000001
11
148.0814699999999959
21
-83.305570000000003
0
LINE
8
BLACK
6
CONTINUOUS
10
148.0814699999999959
20
-83.305570000000003
11
147.9571069999999793
21
-83.4571069999999935
0
LINE
8
BLACK
6
CONTINUOUS
10
147.9571069999999793
20
-83.4571069999999935
11
147.8055699999999888
21
-83.5814699999999959
0
LINE
8
BLACK
6
CONTINUOUS
10
147.8055699999999888
20
-83.5814699999999959
11
147.6326829999999859
21
-83.6738799999999969
0
LINE
8
BLACK
6
CONTINUOUS
10
147.6326829999999859
20
-83.6738799999999969
11
147.4450899999999933
21
-83.7307849999999974
0
LINE
8
BLACK
6
CONTINUOUS
10
147.4450899999999933
20
-83.7307849999999974
11
147.25
21
-83.75
0
LINE
8
BLACK
6
CONTINUOUS
10
147.25
20
-83.75
11
147.0549100000000067
21
-83.7307849999999974
0
LINE
8
BLACK
6
CONTINUOUS
10
147.0549100000000067
20
-83.7307849999999974
11
146.8673169999999857
21
-83.6738799999999969
0
LINE
8
BLACK
6
CONTINUOUS
10
146.8673169999999857
20
-83.6738799999999969
11
146.6944299999999828
21
-83.5814699999999959
0
LINE
8
BLACK
6
CONTINUOUS
10
146.6944299999999828
20
-83.5814699999999959
11
146.5428929999999923
21
-83.4571069999999935
0
LINE
8
BLACK
6
CONTINUOUS
10
146.5428929999999923
20
-83.4571069999999935
11
146.4185300000000041
21
-83.305570000000003
0
LINE
8
BLACK
6
CONTINUOUS
10
146.4185300000000041
20
-83.305570000000003
11
146.3261200000000031
21
-83.1326830000000001
0
LINE
8
BLACK
6
CONTINUOUS
10
146.3261200000000031
20
-83.1326830000000001
11
146.2692150000000026
21
-82.9450899999999933
0
LINE
8
BLACK
6
CONTINUOUS
10
146.2692150000000026
20
-82.9450899999999933
11
146.25
21
-82.75
0
LINE
8
BLACK
6
CONTINUOUS
10
146.25
20
-82.75
11
146.2692150000000026
21
-82.5549099999999925
0
LINE
8
BLACK
6
CONTINUOUS
10
146.2692150000000026
20
-82.5549099999999925
11
146.3261200000000031
21
-82.3673169999999999
0
LINE
8
BLACK
6
CONTINUOUS
10
146.3261200000000031
20
-82.3673169999999999
11
146.4185300000000041
21
-82.194429999999997
0
LINE
8
BLACK
6
CONTINUOUS
10
146.4185300000000041
20
-82.194429999999997
11
146.5428929999999923
21
-82.0428929999999923
0
LINE
8
BLACK
6
CONTINUOUS
10
146.5428929999999923
20
-82.0428929999999923
11
146.6944299999999828
21
-81.9185299999999899
0
LINE
8
BLACK
6
CONTINUOUS
10
146.6944299999999828
20
-81.9185299999999899
11
146.8673169999999857
21
-81.8261200000000031
0
LINE
8
BLACK
6
CONTINUOUS
10
146.8673169999999857
20
-81.8261200000000031
11
147.0549100000000067
21
-81.7692150000000026
0
LINE
8
BLACK
6
CONTINUOUS
10
147.0549100000000067
20
-81.7692150000000026
11
147.25
21
-81.75
0
LINE
8
BLACK
6
CONTINUOUS
10
147.25
20
-81.75
11
147.4450899999999933
21
-81.7692150000000026
0
LINE
8
BLACK
6
CONTINUOUS
10
151.8095899999999858
20
-81.6779319999999984
11
151.9376069999999856
21
-81.7227269999999919
0
LINE
8
BLACK
6
CONTINUOUS
10
151.9376069999999856
20
-81.7227269999999919
11
152.0467339999999865
21
-81.8032659999999936
0
LINE
8
BLACK
6
CONTINUOUS
10
152.0467339999999865
20
-81.8032659999999936
11
152.1272730000000024
21
-81.9123929999999945
0
LINE
8
BLACK
6
CONTINUOUS
10
152.1272730000000024
20
-81.9123929999999945
11
152.1720679999999959
21
-82.0404099999999943
0
LINE
8
BLACK
6
CONTINUOUS
10
152.1720679999999959
20
-82.0404099999999943
11
152.1800000000000068
21
-82.125
0
LINE
8
BLACK
6
CONTINUOUS
10
152.1800000000000068
20
-82.125
11
152.1800000000000068
21
-82.875
0
LINE
8
BLACK
6
CONTINUOUS
10
152.1800000000000068
20
-82.875
11
152.1720679999999959
21
-82.9595899999999915
0
LINE
8
BLACK
6
CONTINUOUS
10
152.1720679999999959
20
-82.9595899999999915
11
152.1272730000000024
21
-83.0876069999999913
0
LINE
8
BLACK
6
CONTINUOUS
10
152.1272730000000024
20
-83.0876069999999913
11
152.0467339999999865
21
-83.1967339999999922
0
LINE
8
BLACK
6
CONTINUOUS
10
152.0467339999999865
20
-83.1967339999999922
11
151.9376069999999856
21
-83.2772729999999939
0
LINE
8
BLACK
6
CONTINUOUS
10
151.9376069999999856
20
-83.2772729999999939
11
151.8095899999999858
21
-83.3220680000000016
0
LINE
8
BLACK
6
CONTINUOUS
10
151.8095899999999858
20
-83.3220680000000016
11
151.7249999999999943
21
-83.3299999999999983
0
LINE
8
BLACK
6
CONTINUOUS
10
151.7249999999999943
20
-83.3299999999999983
11
149.4749999999999943
21
-83.3299999999999983
0
LINE
8
BLACK
6
CONTINUOUS
10
149.4749999999999943
20
-83.3299999999999983
11
149.3904100000000028
21
-83.3220680000000016
0
LINE
8
BLACK
6
CONTINUOUS
10
149.3904100000000028
20
-83.3220680000000016
11
149.262393000000003
21
-83.2772729999999939
0
LINE
8
BLACK
6
CONTINUOUS
10
149.262393000000003
20
-83.2772729999999939
11
149.1532660000000021
21
-83.1967339999999922
0
LINE
8
BLACK
6
CONTINUOUS
10
149.1532660000000021
20
-83.1967339999999922
11
149.0727269999999862
21
-83.0876069999999913
0
LINE
8
BLACK
6
CONTINUOUS
10
149.0727269999999862
20
-83.0876069999999913
11
149.0279319999999927
21
-82.9595899999999915
0
LINE
8
BLACK
6
CONTINUOUS
10
149.0279319999999927
20
-82.9595899999999915
11
149.0199999999999818
21
-82.875
0
LINE
8
BLACK
6
CONTINUOUS
10
149.0199999999999818
20
-82.875
11
149.0199999999999818
21
-82.125
0
LINE
8
BLACK
6
CONTINUOUS
10
149.0199999999999818
20
-82.125
11
149.0279319999999927
21
-82.0404099999999943
0
LINE
8
BLACK
6
CONTINUOUS
10
149.0279319999999927
20
-82.0404099999999943
11
149.0727269999999862
21
-81.9123929999999945
0
LINE
8
BLACK
6
CONTINUOUS
10
149.0727269999999862
20
-81.9123929999999945
11
149.1532660000000021
21
-81.8032659999999936
0
LINE
8
BLACK
6
CONTINUOUS
10
149.1532660000000021
20
-81.8032659999999936
11
149.262393000000003
21
-81.7227269999999919
0
LINE
8
BLACK
6
CONTINUOUS
10
149.262393000000003
20
-81.7227269999999919
11
149.3904100000000028
21
-81.6779319999999984
0
LINE
8
BLACK
6
CONTINUOUS
10
149.3904100000000028
20
-81.6779319999999984
11
149.4749999999999943
21
-81.6700000000000017
0
LINE
8
BLACK
6
CONTINUOUS
10
149.4749999999999943
20
-81.6700000000000017
11
151.7249999999999943
21
-81.6700000000000017
0
LINE
8
BLACK
6
CONTINUOUS
10
151.7249999999999943
20
-81.6700000000000017
11
151.8095899999999858
21
-81.6779319999999984
0
LINE
8
BLACK
6
CONTINUOUS
10
158.7095899999999915
20
-81.6779319999999984
11
158.8376069999999913
21
-81.7227269999999919
0
LINE
8
BLACK
6
CONTINUOUS
10
158.8376069999999913
20
-81.7227269999999919
11
158.9467339999999922
21
-81.8032659999999936
0
LINE
8
BLACK
6
CONTINUOUS
10
158.9467339999999922
20
-81.8032659999999936
11
159.0272729999999797
21
-81.9123929999999945
0
LINE
8
BLACK
6
CONTINUOUS
10
159.0272729999999797
20
-81.9123929999999945
11
159.0720680000000016
21
-82.0404099999999943
0
LINE
8
BLACK
6
CONTINUOUS
10
159.0720680000000016
20
-82.0404099999999943
11
159.0799999999999841
21
-82.125
0
LINE
8
BLACK
6
CONTINUOUS
10
159.0799999999999841
20
-82.125
11
159.0799999999999841
21
-82.875
0
LINE
8
BLACK
6
CONTINUOUS
10
159.0799999999999841
20
-82.875
11
159.0720680000000016
21
-82.9595899999999915
0
LINE
8
BLACK
6
CONTINUOUS
10
159.0720680000000016
20
-82.9595899999999915
11
159.0272729999999797
21
-83.0876069999999913
0
LINE
8
BLACK
6
CONTINUOUS
10
159.0272729999999797
20
-83.0876069999999913
11
158.9467339999999922
21
-83.1967339999999922
0
LINE
8
BLACK
6
CONTINUOUS
10
158.9467339999999922
20
-83.1967339999999922
11
158.8376069999999913
21
-83.2772729999999939
0
LINE
8
BLACK
6
CONTINUOUS
10
158.8376069999999913
20
-83.2772729999999939
11
158.7095899999999915
21
-83.3220680000000016
0
LINE
8
BLACK
6
CONTINUOUS
10
158.7095899999999915
20
-83.3220680000000016
11
158.625
21
-83.3299999999999983
0
LINE
8
BLACK
6
CONTINUOUS
10
158.625
20
-83.3299999999999983
11
156.375
21
-83.3299999999999983
0
LINE
8
BLACK
6
CONTINUOUS
10
156.375
20
-83.3299999999999983
11
156.2904099999999801
21
-83.3220680000000016
0
LINE
8
BLACK
6
CONTINUOUS
10
156.2904099999999801
20
-83.3220680000000016
11
156.1623929999999802
21
-83.2772729999999939
0
LINE
8
BLACK
6
CONTINUOUS
10
156.1623929999999802
20
-83.2772729999999939
11
156.0532659999999794
21
-83.1967339999999922
0
LINE
8
BLACK
6
CONTINUOUS
10
156.0532659999999794
20
-83.1967339999999922
11
155.9727269999999919
21
-83.0876069999999913
0
LINE
8
BLACK
6
CONTINUOUS
10
155.9727269999999919
20
-83.0876069999999913
11
155.9279319999999984
21
-82.9595899999999915
0
LINE
8
BLACK
6
CONTINUOUS
10
155.9279319999999984
20
-82.9595899999999915
11
155.9199999999999875
21
-82.875
0
LINE
8
BLACK
6
CONTINUOUS
10
155.9199999999999875
20
-82.875
11
155.9199999999999875
21
-82.125
0
LINE
8
BLACK
6
CONTINUOUS
10
155.9199999999999875
20
-82.125
11
155.9279319999999984
21
-82.0404099999999943
0
LINE
8
BLACK
6
CONTINUOUS
10
155.9279319999999984
20
-82.0404099999999943
11
155.9727269999999919
21
-81.9123929999999945
0
LINE
8
BLACK
6
CONTINUOUS
10
155.9727269999999919
20
-81.9123929999999945
11
156.0532659999999794
21
-81.8032659999999936
0
LINE
8
BLACK
6
CONTINUOUS
10
156.0532659999999794
20
-81.8032659999999936
11
156.1623929999999802
21
-81.7227269999999919
0
LINE
8
BLACK
6
CONTINUOUS
10
156.1623929999999802
20
-81.7227269999999919
11
156.2904099999999801
21
-81.6779319999999984
0
LINE
8
BLACK
6
CONTINUOUS
10
156.2904099999999801
20
-81.6779319999999984
11
156.375
21
-81.6700000000000017
0
LINE
8
BLACK
6
CONTINUOUS
10
156.375
20
-81.6700000000000017
11
158.625
21
-81.6700000000000017
0
LINE
8
BLACK
6
CONTINUOUS
10
158.625
20
-81.6700000000000017
11
158.7095899999999915
21
-81.6779319999999984
0
LINE
8
BLACK
6
CONTINUOUS
10
143.1354100000000074
20
-80.4562439999999981
11
143.2392799999999795
21
-80.5046799999999934
0
LINE
8
BLACK
6
CONTINUOUS
10
143.2392799999999795
20
-80.5046799999999934
11
143.3203199999999811
21
-80.5857199999999949
0
LINE
8
BLACK
6
CONTINUOUS
10
143.3203199999999811
20
-80.5857199999999949
11
143.3687559999999905
21
-80.6895899999999955
0
LINE
8
BLACK
6
CONTINUOUS
10
143.3687559999999905
20
-80.6895899999999955
11
143.3799999999999955
21
-80.7749999999999915
0
LINE
8
BLACK
6
CONTINUOUS
10
143.3799999999999955
20
-80.7749999999999915
11
143.3799999999999955
21
-81.7249999999999943
0
LINE
8
BLACK
6
CONTINUOUS
10
143.3799999999999955
20
-81.7249999999999943
11
143.3687559999999905
21
-81.8104099999999903
0
LINE
8
BLACK
6
CONTINUOUS
10
143.3687559999999905
20
-81.8104099999999903
11
143.3203199999999811
21
-81.9142799999999909
0
LINE
8
BLACK
6
CONTINUOUS
10
143.3203199999999811
20
-81.9142799999999909
11
143.2392799999999795
21
-81.9953199999999924
0
LINE
8
BLACK
6
CONTINUOUS
10
143.2392799999999795
20
-81.9953199999999924
11
143.1354100000000074
21
-82.0437560000000019
0
LINE
8
BLACK
6
CONTINUOUS
10
143.1354100000000074
20
-82.0437560000000019
11
143.0499999999999829
21
-82.0549999999999926
0
LINE
8
BLACK
6
CONTINUOUS
10
143.0499999999999829
20
-82.0549999999999926
11
142.5499999999999829
21
-82.0549999999999926
0
LINE
8
BLACK
6
CONTINUOUS
10
142.5499999999999829
20
-82.0549999999999926
11
142.464589999999987
21
-82.0437560000000019
0
LINE
8
BLACK
6
CONTINUOUS
10
142.464589999999987
20
-82.0437560000000019
11
142.3607199999999864
21
-81.9953199999999924
0
LINE
8
BLACK
6
CONTINUOUS
10
142.3607199999999864
20
-81.9953199999999924
11
142.2796799999999848
21
-81.9142799999999909
0
LINE
8
BLACK
6
CONTINUOUS
10
142.2796799999999848
20
-81.9142799999999909
11
142.2312440000000038
21
-81.8104099999999903
0
LINE
8
BLACK
6
CONTINUOUS
10
142.2312440000000038
20
-81.8104099999999903
11
142.2199999999999989
21
-81.7249999999999943
0
LINE
8
BLACK
6
CONTINUOUS
10
142.2199999999999989
20
-81.7249999999999943
11
142.2199999999999989
21
-80.7749999999999915
0
LINE
8
BLACK
6
CONTINUOUS
10
142.2199999999999989
20
-80.7749999999999915
11
142.2312440000000038
21
-80.6895899999999955
0
LINE
8
BLACK
6
CONTINUOUS
10
142.2312440000000038
20
-80.6895899999999955
11
142.2796799999999848
21
-80.5857199999999949
0
LINE
8
BLACK
6
CONTINUOUS
10
142.2796799999999848
20
-80.5857199999999949
11
142.3607199999999864
21
-80.5046799999999934
0
LINE
8
BLACK
6
CONTINUOUS
10
142.3607199999999864
20
-80.5046799999999934
11
142.464589999999987
21
-80.4562439999999981
0
LINE
8
BLACK
6
CONTINUOUS
10
142.464589999999987
20
-80.4562439999999981
11
142.5499999999999829
21
-80.4449999999999932
0
LINE
8
BLACK
6
CONTINUOUS
10
142.5499999999999829
20
-80.4449999999999932
11
143.0499999999999829
21
-80.4449999999999932
0
LINE
8
BLACK
6
CONTINUOUS
10
143.0499999999999829
20
-80.4449999999999932
11
143.1354100000000074
21
-80.4562439999999981
0
LINE
8
BLACK
6
CONTINUOUS
10
145.0354099999999846
20
-80.4562439999999981
11
145.1392799999999852
21
-80.5046799999999934
0
LINE
8
BLACK
6
CONTINUOUS
10
145.1392799999999852
20
-80.5046799999999934
11
145.2203199999999867
21
-80.5857199999999949
0
LINE
8
BLACK
6
CONTINUOUS
10
145.2203199999999867
20
-80.5857199999999949
11
145.2687559999999962
21
-80.6895899999999955
0
LINE
8
BLACK
6
CONTINUOUS
10
145.2687559999999962
20
-80.6895899999999955
11
145.2800000000000011
21
-80.7749999999999915
0
LINE
8
BLACK
6
CONTINUOUS
10
145.2800000000000011
20
-80.7749999999999915
11
145.2800000000000011
21
-81.7249999999999943
0
LINE
8
BLACK
6
CONTINUOUS
10
145.2800000000000011
20
-81.7249999999999943
11
145.2687559999999962
21
-81.8104099999999903
0
LINE
8
BLACK
6
CONTINUOUS
10
145.2687559999999962
20
-81.8104099999999903
11
145.2203199999999867
21
-81.9142799999999909
0
LINE
8
BLACK
6
CONTINUOUS
10
145.2203199999999867
20
-81.9142799999999909
11
145.1392799999999852
21
-81.9953199999999924
0
LINE
8
BLACK
6
CONTINUOUS
10
145.1392799999999852
20
-81.9953199999999924
11
145.0354099999999846
21
-82.0437560000000019
0
LINE
8
BLACK
6
CONTINUOUS
10
145.0354099999999846
20
-82.0437560000000019
11
144.9499999999999886
21
-82.0549999999999926
0
LINE
8
BLACK
6
CONTINUOUS
10
144.9499999999999886
20
-82.0549999999999926
11
144.4499999999999886
21
-82.0549999999999926
0
LINE
8
BLACK
6
CONTINUOUS
10
144.4499999999999886
20
-82.0549999999999926
11
144.3645899999999926
21
-82.0437560000000019
0
LINE
8
BLACK
6
CONTINUOUS
10
144.3645899999999926
20
-82.0437560000000019
11
144.2607199999999921
21
-81.9953199999999924
0
LINE
8
BLACK
6
CONTINUOUS
10
144.2607199999999921
20
-81.9953199999999924
11
144.1796799999999905
21
-81.9142799999999909
0
LINE
8
BLACK
6
CONTINUOUS
10
144.1796799999999905
20
-81.9142799999999909
11
144.131243999999981
21
-81.8104099999999903
0
LINE
8
BLACK
6
CONTINUOUS
10
144.131243999999981
20
-81.8104099999999903
11
144.1200000000000045
21
-81.7249999999999943
0
LINE
8
BLACK
6
CONTINUOUS
10
144.1200000000000045
20
-81.7249999999999943
11
144.1200000000000045
21
-80.7749999999999915
0
LINE
8
BLACK
6
CONTINUOUS
10
144.1200000000000045
20
-80.7749999999999915
11
144.131243999999981
21
-80.6895899999999955
0
LINE
8
BLACK
6
CONTINUOUS
10
144.131243999999981
20
-80.6895899999999955
11
144.1796799999999905
21
-80.5857199999999949
0
LINE
8
BLACK
6
CONTINUOUS
10
144.1796799999999905
20
-80.5857199999999949
11
144.2607199999999921
21
-80.5046799999999934
0
LINE
8
BLACK
6
CONTINUOUS
10
144.2607199999999921
20
-80.5046799999999934
11
144.3645899999999926
21
-80.4562439999999981
0
LINE
8
BLACK
6
CONTINUOUS
10
144.3645899999999926
20
-80.4562439999999981
11
144.4499999999999886
21
-80.4449999999999932
0
LINE
8
BLACK
6
CONTINUOUS
10
144.4499999999999886
20
-80.4449999999999932
11
144.9499999999999886
21
-80.4449999999999932
0
LINE
8
BLACK
6
CONTINUOUS
10
144.9499999999999886
20
-80.4449999999999932
11
145.0354099999999846
21
-80.4562439999999981
0
CIRCLE
8
BLACK
10
145.75
20
-89.2045949999999976
40
0.45
0
CIRCLE
8
BLACK
10
137.75
20
-96.5
40
0.45
0
CIRCLE
8
BLACK
10
147.25
20
-82.75
40
0.45
  0
ENDSEC
  0
EOF
