  0
SECTION
  2
HEADER
  9
$ANGBASE
  50
0.0
  9
$ANGDIR
  70
1
  9
$MEASUREMENT
  70
1
  0
ENDSEC
  0
SECTION
  2
TABLES
  0
TABLE
  2
LTYPE
  70
4
  0
LTYPE
  5
40F
  2
CONTINUOUS
  70
0
  3
Solid line
  72
65
  73
0
  40
0.0
  0
LTYPE
  5
410
  2
DASHDOT
 70
0
  3
Dash Dot ____ _ ____ _
 72
65
 73
4
 40
2.0
 49
1.25
 49
-0.25
 49
0.25
 49
-0.25
  0
LTYPE
  5
411
  2
DASHED
 70
0
  3
Dashed __ __ __ __ __
 72
65
 73
2
 40
0.75
 49
0.5
 49
-0.25
  0
LTYPE
  5
43B
  2
DOTTED
 70
0
  3
Dotted .  .  .  .
 72
65
 73
2
 40
0.2
 49
0.0
 49
-0.2
  0
ENDTAB
  0
TABLE
  2
STYLE
  70
4
  0
STYLE
  2
KICAD
  70
0
  40
0
  41
1
  42
1
  50
0
  71
0
  3
isocp.shx
  0
STYLE
  2
KICADB
  70
0
  40
0
  41
1
  42
1
  50
0
  71
0
  3
isocp.shx
  0
STYLE
  2
KICADI
  70
0
  40
0
  41
1
  42
1
  50
15
  71
0
  3
isocp.shx
  0
STYLE
  2
KICADBI
  70
0
  40
0
  41
1
  42
1
  50
15
  71
0
  3
isocp.shx
  0
ENDTAB
  0
TABLE
  2
LAYER
  70
1
  0
LAYER
  2
BLACK
  70
0
  62
7
  6
CONTINUOUS
  0
ENDTAB
  0
ENDSEC
  0
SECTION
  2
ENTITIES
0
LINE
8
BLACK
6
CONTINUOUS
10
155.9352710000000002
20
-83.6610950000000031
11
156.2453579999999818
21
-83.7102079999999944
0
LINE
8
BLACK
6
CONTINUOUS
10
156.2453579999999818
20
-83.7102079999999944
11
156.5468449999999905
21
-83.7977980000000002
0
LINE
8
BLACK
6
CONTINUOUS
10
156.5468449999999905
20
-83.7977980000000002
11
156.8349759999999833
21
-83.9224839999999972
0
LINE
8
BLACK
6
CONTINUOUS
10
156.8349759999999833
20
-83.9224839999999972
11
157.1052080000000046
21
-84.0822989999999919
0
LINE
8
BLACK
6
CONTINUOUS
10
157.1052080000000046
20
-84.0822989999999919
11
157.3532799999999838
21
-84.274721999999997
0
LINE
8
BLACK
6
CONTINUOUS
10
157.3532799999999838
20
-84.274721999999997
11
157.5752779999999973
21
-84.4967199999999963
0
LINE
8
BLACK
6
CONTINUOUS
10
157.5752779999999973
20
-84.4967199999999963
11
157.7677009999999882
21
-84.7447919999999897
0
LINE
8
BLACK
6
CONTINUOUS
10
157.7677009999999882
20
-84.7447919999999897
11
157.9275159999999971
21
-85.0150239999999968
0
LINE
8
BLACK
6
CONTINUOUS
10
157.9275159999999971
20
-85.0150239999999968
11
158.0522019999999941
21
-85.3031549999999896
0
LINE
8
BLACK
6
CONTINUOUS
10
158.0522019999999941
20
-85.3031549999999896
11
158.1397919999999999
21
-85.6046419999999983
0
LINE
8
BLACK
6
CONTINUOUS
10
158.1397919999999999
20
-85.6046419999999983
11
158.1889050000000054
21
-85.9147289999999941
0
LINE
8
BLACK
6
CONTINUOUS
10
158.1889050000000054
20
-85.9147289999999941
11
158.1999999999999886
21
-86.1499999999999915
0
LINE
8
BLACK
6
CONTINUOUS
10
158.1999999999999886
20
-86.1499999999999915
11
158.1999999999999886
21
-91.1499999999999915
0
LINE
8
BLACK
6
CONTINUOUS
10
158.1999999999999886
20
-91.1499999999999915
11
158.1889050000000054
21
-91.3852709999999888
0
LINE
8
BLACK
6
CONTINUOUS
10
158.1889050000000054
20
-91.3852709999999888
11
158.1397919999999999
21
-91.6953579999999988
0
LINE
8
BLACK
6
CONTINUOUS
10
158.1397919999999999
20
-91.6953579999999988
11
158.0522019999999941
21
-91.9968449999999933
0
LINE
8
BLACK
6
CONTINUOUS
10
158.0522019999999941
20
-91.9968449999999933
11
157.9275159999999971
21
-92.2849760000000003
0
LINE
8
BLACK
6
CONTINUOUS
10
157.9275159999999971
20
-92.2849760000000003
11
157.7677009999999882
21
-92.5552079999999933
0
LINE
8
BLACK
6
CONTINUOUS
10
157.7677009999999882
20
-92.5552079999999933
11
157.5752779999999973
21
-92.8032800000000009
0
LINE
8
BLACK
6
CONTINUOUS
10
157.5752779999999973
20
-92.8032800000000009
11
157.3532799999999838
21
-93.0252780000000001
0
LINE
8
BLACK
6
CONTINUOUS
10
157.3532799999999838
20
-93.0252780000000001
11
157.1052080000000046
21
-93.217700999999991
0
LINE
8
BLACK
6
CONTINUOUS
10
157.1052080000000046
20
-93.217700999999991
11
156.8349759999999833
21
-93.377516
0
LINE
8
BLACK
6
CONTINUOUS
10
156.8349759999999833
20
-93.377516
11
156.5468449999999905
21
-93.5022019999999969
0
LINE
8
BLACK
6
CONTINUOUS
10
156.5468449999999905
20
-93.5022019999999969
11
156.2453579999999818
21
-93.5897920000000028
0
LINE
8
BLACK
6
CONTINUOUS
10
156.2453579999999818
20
-93.5897920000000028
11
155.9352710000000002
21
-93.6389049999999941
0
LINE
8
BLACK
6
CONTINUOUS
10
155.9352710000000002
20
-93.6389049999999941
11
155.6999999999999886
21
-93.6499999999999915
0
LINE
8
BLACK
6
CONTINUOUS
10
155.6999999999999886
20
-93.6499999999999915
11
150.6999999999999886
21
-93.6499999999999915
0
LINE
8
BLACK
6
CONTINUOUS
10
150.6999999999999886
20
-93.6499999999999915
11
150.4647290000000055
21
-93.6389049999999941
0
LINE
8
BLACK
6
CONTINUOUS
10
150.4647290000000055
20
-93.6389049999999941
11
150.1546419999999955
21
-93.5897920000000028
0
LINE
8
BLACK
6
CONTINUOUS
10
150.1546419999999955
20
-93.5897920000000028
11
149.8531549999999868
21
-93.5022019999999969
0
LINE
8
BLACK
6
CONTINUOUS
10
149.8531549999999868
20
-93.5022019999999969
11
149.565023999999994
21
-93.377516
0
LINE
8
BLACK
6
CONTINUOUS
10
149.565023999999994
20
-93.377516
11
149.2947920000000011
21
-93.217700999999991
0
LINE
8
BLACK
6
CONTINUOUS
10
149.2947920000000011
20
-93.217700999999991
11
149.0467199999999934
21
-93.0252780000000001
0
LINE
8
BLACK
6
CONTINUOUS
10
149.0467199999999934
20
-93.0252780000000001
11
148.82472199999998
21
-92.8032800000000009
0
LINE
8
BLACK
6
CONTINUOUS
10
148.82472199999998
20
-92.8032800000000009
11
148.6322989999999891
21
-92.5552079999999933
0
LINE
8
BLACK
6
CONTINUOUS
10
148.6322989999999891
20
-92.5552079999999933
11
148.4724839999999801
21
-92.2849760000000003
0
LINE
8
BLACK
6
CONTINUOUS
10
148.4724839999999801
20
-92.2849760000000003
11
148.3477979999999832
21
-91.9968449999999933
0
LINE
8
BLACK
6
CONTINUOUS
10
148.3477979999999832
20
-91.9968449999999933
11
148.2602080000000058
21
-91.6953579999999988
0
LINE
8
BLACK
6
CONTINUOUS
10
148.2602080000000058
20
-91.6953579999999988
11
148.2110950000000003
21
-91.3852709999999888
0
LINE
8
BLACK
6
CONTINUOUS
10
148.2110950000000003
20
-91.3852709999999888
11
148.1999999999999886
21
-91.1499999999999915
0
LINE
8
BLACK
6
CONTINUOUS
10
148.1999999999999886
20
-91.1499999999999915
11
148.1999999999999886
21
-88.7999999999999972
0
LINE
8
BLACK
6
CONTINUOUS
10
148.1999999999999886
20
-88.7999999999999972
11
146.6621679999999799
21
-88.7999999999999972
0
LINE
8
BLACK
6
CONTINUOUS
10
146.6621679999999799
20
-88.7999999999999972
11
146.6738799999999969
21
-88.8219119999999975
0
LINE
8
BLACK
6
CONTINUOUS
10
146.6738799999999969
20
-88.8219119999999975
11
146.7307849999999974
21
-89.0095049999999901
0
LINE
8
BLACK
6
CONTINUOUS
10
146.7307849999999974
20
-89.0095049999999901
11
146.75
21
-89.2045949999999976
0
LINE
8
BLACK
6
CONTINUOUS
10
146.75
20
-89.2045949999999976
11
146.7307849999999974
21
-89.399684999999991
0
LINE
8
BLACK
6
CONTINUOUS
10
146.7307849999999974
20
-89.399684999999991
11
146.6738799999999969
21
-89.5872779999999977
0
LINE
8
BLACK
6
CONTINUOUS
10
146.6738799999999969
20
-89.5872779999999977
11
146.5814699999999959
21
-89.7601650000000006
0
LINE
8
BLACK
6
CONTINUOUS
10
146.5814699999999959
20
-89.7601650000000006
11
146.4571069999999793
21
-89.9117019999999911
0
LINE
8
BLACK
6
CONTINUOUS
10
146.4571069999999793
20
-89.9117019999999911
11
146.3055699999999888
21
-90.0360649999999936
0
LINE
8
BLACK
6
CONTINUOUS
10
146.3055699999999888
20
-90.0360649999999936
11
146.1326829999999859
21
-90.1284749999999946
0
LINE
8
BLACK
6
CONTINUOUS
10
146.1326829999999859
20
-90.1284749999999946
11
145.9450899999999933
21
-90.185379999999995
0
LINE
8
BLACK
6
CONTINUOUS
10
145.9450899999999933
20
-90.185379999999995
11
145.75
21
-90.2045949999999976
0
LINE
8
BLACK
6
CONTINUOUS
10
145.75
20
-90.2045949999999976
11
145.5549100000000067
21
-90.185379999999995
0
LINE
8
BLACK
6
CONTINUOUS
10
145.5549100000000067
20
-90.185379999999995
11
145.3673169999999857
21
-90.1284749999999946
0
LINE
8
BLACK
6
CONTINUOUS
10
145.3673169999999857
20
-90.1284749999999946
11
145.1944299999999828
21
-90.0360649999999936
0
LINE
8
BLACK
6
CONTINUOUS
10
145.1944299999999828
20
-90.0360649999999936
11
145.0428929999999923
21
-89.9117019999999911
0
LINE
8
BLACK
6
CONTINUOUS
10
145.0428929999999923
20
-89.9117019999999911
11
144.9185300000000041
21
-89.7601650000000006
0
LINE
8
BLACK
6
CONTINUOUS
10
144.9185300000000041
20
-89.7601650000000006
11
144.8261200000000031
21
-89.5872779999999977
0
LINE
8
BLACK
6
CONTINUOUS
10
144.8261200000000031
20
-89.5872779999999977
11
144.7692150000000026
21
-89.399684999999991
0
LINE
8
BLACK
6
CONTINUOUS
10
144.7692150000000026
20
-89.399684999999991
11
144.75
21
-89.2045949999999976
0
LINE
8
BLACK
6
CONTINUOUS
10
144.75
20
-89.2045949999999976
11
144.7692150000000026
21
-89.0095049999999901
0
LINE
8
BLACK
6
CONTINUOUS
10
144.7692150000000026
20
-89.0095049999999901
11
144.8261200000000031
21
-88.8219119999999975
0
LINE
8
BLACK
6
CONTINUOUS
10
144.8261200000000031
20
-88.8219119999999975
11
144.9185300000000041
21
-88.6490249999999946
0
LINE
8
BLACK
6
CONTINUOUS
10
144.9185300000000041
20
-88.6490249999999946
11
145.0428929999999923
21
-88.4974879999999899
0
LINE
8
BLACK
6
CONTINUOUS
10
145.0428929999999923
20
-88.4974879999999899
11
145.1944299999999828
21
-88.3731250000000017
0
LINE
8
BLACK
6
CONTINUOUS
10
145.1944299999999828
20
-88.3731250000000017
11
145.3673169999999857
21
-88.2807150000000007
0
LINE
8
BLACK
6
CONTINUOUS
10
145.3673169999999857
20
-88.2807150000000007
11
145.5549100000000067
21
-88.2238100000000003
0
LINE
8
BLACK
6
CONTINUOUS
10
145.5549100000000067
20
-88.2238100000000003
11
145.75
21
-88.2045949999999976
0
LINE
8
BLACK
6
CONTINUOUS
10
145.75
20
-88.2045949999999976
11
145.9450899999999933
21
-88.2238100000000003
0
LINE
8
BLACK
6
CONTINUOUS
10
145.9450899999999933
20
-88.2238100000000003
11
146.1326829999999859
21
-88.2807150000000007
0
LINE
8
BLACK
6
CONTINUOUS
10
146.1326829999999859
20
-88.2807150000000007
11
146.3055699999999888
21
-88.3731250000000017
0
LINE
8
BLACK
6
CONTINUOUS
10
146.3055699999999888
20
-88.3731250000000017
11
146.4571069999999793
21
-88.4974879999999899
0
LINE
8
BLACK
6
CONTINUOUS
10
146.4571069999999793
20
-88.4974879999999899
11
146.4591690000000028
21
-88.5
0
LINE
8
BLACK
6
CONTINUOUS
10
146.4591690000000028
20
-88.5
11
148.1999999999999886
21
-88.5
0
LINE
8
BLACK
6
CONTINUOUS
10
148.1999999999999886
20
-88.5
11
148.1999999999999886
21
-86.1499999999999915
0
LINE
8
BLACK
6
CONTINUOUS
10
148.1999999999999886
20
-86.1499999999999915
11
148.2110950000000003
21
-85.9147289999999941
0
LINE
8
BLACK
6
CONTINUOUS
10
148.2110950000000003
20
-85.9147289999999941
11
148.2602080000000058
21
-85.6046419999999983
0
LINE
8
BLACK
6
CONTINUOUS
10
148.2602080000000058
20
-85.6046419999999983
11
148.3477979999999832
21
-85.3031549999999896
0
LINE
8
BLACK
6
CONTINUOUS
10
148.3477979999999832
20
-85.3031549999999896
11
148.4724839999999801
21
-85.0150239999999968
0
LINE
8
BLACK
6
CONTINUOUS
10
148.4724839999999801
20
-85.0150239999999968
11
148.6322989999999891
21
-84.7447919999999897
0
LINE
8
BLACK
6
CONTINUOUS
10
148.6322989999999891
20
-84.7447919999999897
11
148.82472199999998
21
-84.4967199999999963
0
LINE
8
BLACK
6
CONTINUOUS
10
148.82472199999998
20
-84.4967199999999963
11
149.0467199999999934
21
-84.274721999999997
0
LINE
8
BLACK
6
CONTINUOUS
10
149.0467199999999934
20
-84.274721999999997
11
149.2947920000000011
21
-84.0822989999999919
0
LINE
8
BLACK
6
CONTINUOUS
10
149.2947920000000011
20
-84.0822989999999919
11
149.565023999999994
21
-83.9224839999999972
0
LINE
8
BLACK
6
CONTINUOUS
10
149.565023999999994
20
-83.9224839999999972
11
149.8531549999999868
21
-83.7977980000000002
0
LINE
8
BLACK
6
CONTINUOUS
10
149.8531549999999868
20
-83.7977980000000002
11
150.1546419999999955
21
-83.7102079999999944
0
LINE
8
BLACK
6
CONTINUOUS
10
150.1546419999999955
20
-83.7102079999999944
11
150.4647290000000055
21
-83.6610950000000031
0
LINE
8
BLACK
6
CONTINUOUS
10
150.4647290000000055
20
-83.6610950000000031
11
150.6999999999999886
21
-83.6499999999999915
0
LINE
8
BLACK
6
CONTINUOUS
10
150.6999999999999886
20
-83.6499999999999915
11
155.6999999999999886
21
-83.6499999999999915
0
LINE
8
BLACK
6
CONTINUOUS
10
155.6999999999999886
20
-83.6499999999999915
11
155.9352710000000002
21
-83.6610950000000031
0
LINE
8
BLACK
6
CONTINUOUS
10
159.9430389999999989
20
-79.0196849999999955
11
159.9887939999999844
21
-79.0724889999999903
0
LINE
8
BLACK
6
CONTINUOUS
10
159.9887939999999844
20
-79.0724889999999903
11
160.
21
-79.1239999999999952
0
LINE
8
BLACK
6
CONTINUOUS
10
160.
20
-79.1239999999999952
11
160.
21
-98.1259999999999906
0
LINE
8
BLACK
6
CONTINUOUS
10
160.
20
-98.1259999999999906
11
159.9803149999999903
21
-98.1930389999999989
0
LINE
8
BLACK
6
CONTINUOUS
10
159.9803149999999903
20
-98.1930389999999989
11
159.9275109999999813
21
-98.2387939999999986
0
LINE
8
BLACK
6
CONTINUOUS
10
159.9275109999999813
20
-98.2387939999999986
11
159.8760000000000048
21
-98.25
0
LINE
8
BLACK
6
CONTINUOUS
10
159.8760000000000048
20
-98.25
11
133.6239999999999952
21
-98.25
0
LINE
8
BLACK
6
CONTINUOUS
10
133.6239999999999952
20
-98.25
11
133.5569610000000011
21
-98.2303149999999903
0
LINE
8
BLACK
6
CONTINUOUS
10
133.5569610000000011
20
-98.2303149999999903
11
133.5112059999999872
21
-98.1775109999999955
0
LINE
8
BLACK
6
CONTINUOUS
10
133.5112059999999872
20
-98.1775109999999955
11
133.5
21
-98.1259999999999906
0
LINE
8
BLACK
6
CONTINUOUS
10
133.5
20
-98.1259999999999906
11
133.5
21
-89.2045889999999986
0
LINE
8
BLACK
6
CONTINUOUS
10
133.5
20
-89.2045889999999986
11
133.5
21
-79.1239999999999952
0
LINE
8
BLACK
6
CONTINUOUS
10
133.5
20
-79.1239999999999952
11
133.5196849999999813
21
-79.0569610000000011
0
LINE
8
BLACK
6
CONTINUOUS
10
133.5196849999999813
20
-79.0569610000000011
11
133.5724889999999903
21
-79.0112060000000014
0
LINE
8
BLACK
6
CONTINUOUS
10
133.5724889999999903
20
-79.0112060000000014
11
133.6239999999999952
21
-79.
0
LINE
8
BLACK
6
CONTINUOUS
10
133.6239999999999952
20
-79.
11
159.8760000000000048
21
-79.
0
LINE
8
BLACK
6
CONTINUOUS
10
159.8760000000000048
20
-79.
11
159.9430389999999989
21
-79.0196849999999955
0
LINE
8
BLACK
6
CONTINUOUS
10
144.2443569999999795
20
-89.2045999999999992
11
144.2648899999999799
21
-89.4524069999999938
0
LINE
8
BLACK
6
CONTINUOUS
10
144.2648899999999799
20
-89.4524069999999938
11
144.2648920000000032
21
-89.4524189999999919
0
LINE
8
BLACK
6
CONTINUOUS
10
144.2648920000000032
20
-89.4524189999999919
11
144.3259359999999845
21
-89.6934759999999898
0
LINE
8
BLACK
6
CONTINUOUS
10
144.3259359999999845
20
-89.6934759999999898
11
144.4258260000000007
21
-89.9212009999999964
0
LINE
8
BLACK
6
CONTINUOUS
10
144.4258260000000007
20
-89.9212009999999964
11
144.5618330000000071
21
-90.129376999999991
0
LINE
8
BLACK
6
CONTINUOUS
10
144.5618330000000071
20
-90.129376999999991
11
144.5618359999999996
21
-90.1293799999999976
0
LINE
8
BLACK
6
CONTINUOUS
10
144.5618359999999996
20
-90.1293799999999976
11
144.7302559999999971
21
-90.3123329999999953
0
LINE
8
BLACK
6
CONTINUOUS
10
144.7302559999999971
20
-90.3123329999999953
11
144.9264909999999986
21
-90.4650689999999997
0
LINE
8
BLACK
6
CONTINUOUS
10
144.9264909999999986
20
-90.4650689999999997
11
145.1451899999999853
21
-90.5834229999999963
0
LINE
8
BLACK
6
CONTINUOUS
10
145.1451899999999853
20
-90.5834229999999963
11
145.3803859999999872
21
-90.6641659999999945
0
LINE
8
BLACK
6
CONTINUOUS
10
145.3803859999999872
20
-90.6641659999999945
11
145.6256649999999979
21
-90.705095
0
LINE
8
BLACK
6
CONTINUOUS
10
145.6256649999999979
20
-90.705095
11
145.8743350000000021
21
-90.705095
0
LINE
8
BLACK
6
CONTINUOUS
10
145.8743350000000021
20
-90.705095
11
146.1196139999999843
21
-90.6641659999999945
0
LINE
8
BLACK
6
CONTINUOUS
10
146.1196139999999843
20
-90.6641659999999945
11
146.3548099999999863
21
-90.5834229999999963
0
LINE
8
BLACK
6
CONTINUOUS
10
146.3548099999999863
20
-90.5834229999999963
11
146.5735090000000014
21
-90.4650689999999997
0
LINE
8
BLACK
6
CONTINUOUS
10
146.5735090000000014
20
-90.4650689999999997
11
146.7697440000000029
21
-90.3123329999999953
0
LINE
8
BLACK
6
CONTINUOUS
10
146.7697440000000029
20
-90.3123329999999953
11
146.9381640000000004
21
-90.1293799999999976
0
LINE
8
BLACK
6
CONTINUOUS
10
146.9381640000000004
20
-90.1293799999999976
11
147.0741730000000018
21
-89.9212019999999939
0
LINE
8
BLACK
6
CONTINUOUS
10
147.0741730000000018
20
-89.9212019999999939
11
147.1740629999999896
21
-89.6934759999999898
0
LINE
8
BLACK
6
CONTINUOUS
10
147.1740629999999896
20
-89.6934759999999898
11
147.2351079999999968
21
-89.4524159999999995
0
LINE
8
BLACK
6
CONTINUOUS
10
147.2351079999999968
20
-89.4524159999999995
11
147.2382690000000025
21
-89.4142590000000013
0
LINE
8
BLACK
6
CONTINUOUS
10
147.2382690000000025
20
-89.4142590000000013
11
147.2634229999999889
21
-89.3490759999999966
0
LINE
8
BLACK
6
CONTINUOUS
10
147.2634229999999889
20
-89.3490759999999966
11
147.3198239999999828
21
-89.3078369999999921
0
LINE
8
BLACK
6
CONTINUOUS
10
147.3198239999999828
20
-89.3078369999999921
11
147.3618459999999857
21
-89.3004999999999995
0
LINE
8
BLACK
6
CONTINUOUS
10
147.3618459999999857
20
-89.3004999999999995
11
147.5755010000000027
21
-89.3004999999999995
0
LINE
8
BLACK
6
CONTINUOUS
10
147.5755010000000027
20
-89.3004999999999995
11
147.6425399999999968
21
-89.3201849999999951
0
LINE
8
BLACK
6
CONTINUOUS
10
147.6425399999999968
20
-89.3201849999999951
11
147.6882949999999823
21
-89.3729889999999898
0
LINE
8
BLACK
6
CONTINUOUS
10
147.6882949999999823
20
-89.3729889999999898
11
147.6995009999999979
21
-89.4244999999999948
0
LINE
8
BLACK
6
CONTINUOUS
10
147.6995009999999979
20
-89.4244999999999948
11
147.6995009999999979
21
-91.2664649999999966
0
LINE
8
BLACK
6
CONTINUOUS
10
147.6995009999999979
20
-91.2664649999999966
11
147.705851999999993
21
-91.411951000000002
0
LINE
8
BLACK
6
CONTINUOUS
10
147.705851999999993
20
-91.411951000000002
11
147.7565089999999941
21
-91.7577840000000009
0
LINE
8
BLACK
6
CONTINUOUS
10
147.7565089999999941
20
-91.7577840000000009
11
147.8469690000000014
21
-92.0953859999999906
0
LINE
8
BLACK
6
CONTINUOUS
10
147.8469690000000014
20
-92.0953859999999906
11
147.8469729999999913
21
-92.0953969999999913
0
LINE
8
BLACK
6
CONTINUOUS
10
147.8469729999999913
20
-92.0953969999999913
11
147.9760090000000048
21
-92.4202030000000008
0
LINE
8
BLACK
6
CONTINUOUS
10
147.9760090000000048
20
-92.4202030000000008
11
147.9760139999999922
21
-92.4202129999999897
0
LINE
8
BLACK
6
CONTINUOUS
10
147.9760139999999922
20
-92.4202129999999897
11
147.9760149999999896
21
-92.4202149999999989
0
LINE
8
BLACK
6
CONTINUOUS
10
147.9760149999999896
20
-92.4202149999999989
11
148.1418960000000027
21
-92.7278620000000018
0
LINE
8
BLACK
6
CONTINUOUS
10
148.1418960000000027
20
-92.7278620000000018
11
148.3423719999999832
21
-93.0141699999999929
0
LINE
8
BLACK
6
CONTINUOUS
10
148.3423719999999832
20
-93.0141699999999929
11
148.3423779999999965
21
-93.0141780000000011
0
LINE
8
BLACK
6
CONTINUOUS
10
148.3423779999999965
20
-93.0141780000000011
11
148.5747269999999958
21
-93.275267999999997
0
LINE
8
BLACK
6
CONTINUOUS
10
148.5747269999999958
20
-93.275267999999997
11
148.5747309999999857
21
-93.2752720000000011
0
LINE
8
BLACK
6
CONTINUOUS
10
148.5747309999999857
20
-93.2752720000000011
11
148.8358209999999815
21
-93.5076210000000003
0
LINE
8
BLACK
6
CONTINUOUS
10
148.8358209999999815
20
-93.5076210000000003
11
148.8358259999999973
21
-93.5076239999999927
0
LINE
8
BLACK
6
CONTINUOUS
10
148.8358259999999973
20
-93.5076239999999927
11
148.8358299999999872
21
-93.5076279999999969
0
LINE
8
BLACK
6
CONTINUOUS
10
148.8358299999999872
20
-93.5076279999999969
11
149.1221380000000067
21
-93.7081039999999916
0
LINE
8
BLACK
6
CONTINUOUS
10
149.1221380000000067
20
-93.7081039999999916
11
149.4297849999999812
21
-93.8739849999999905
0
LINE
8
BLACK
6
CONTINUOUS
10
149.4297849999999812
20
-93.8739849999999905
11
149.4297889999999995
21
-93.8739860000000022
0
LINE
8
BLACK
6
CONTINUOUS
10
149.4297889999999995
20
-93.8739860000000022
11
149.4297959999999819
21
-93.8739899999999921
0
LINE
8
BLACK
6
CONTINUOUS
10
149.4297959999999819
20
-93.8739899999999921
11
149.6707930000000033
21
-93.9697309999999959
0
LINE
8
BLACK
6
CONTINUOUS
10
149.6707930000000033
20
-93.9697309999999959
11
149.7546089999999879
21
-94.0030289999999979
0
LINE
8
BLACK
6
CONTINUOUS
10
149.7546089999999879
20
-94.0030289999999979
11
150.0922180000000026
21
-94.0934910000000002
0
LINE
8
BLACK
6
CONTINUOUS
10
150.0922180000000026
20
-94.0934910000000002
11
150.4380459999999857
21
-94.1441480000000013
0
LINE
8
BLACK
6
CONTINUOUS
10
150.4380459999999857
20
-94.1441480000000013
11
150.5835329999999885
21
-94.1504999999999939
0
LINE
8
BLACK
6
CONTINUOUS
10
150.5835329999999885
20
-94.1504999999999939
11
155.8164659999999913
21
-94.1504989999999964
0
LINE
8
BLACK
6
CONTINUOUS
10
155.8164659999999913
20
-94.1504989999999964
11
155.9619539999999915
21
-94.1441480000000013
0
LINE
8
BLACK
6
CONTINUOUS
10
155.9619539999999915
20
-94.1441480000000013
11
156.3077820000000031
21
-94.0934910000000002
0
LINE
8
BLACK
6
CONTINUOUS
10
156.3077820000000031
20
-94.0934910000000002
11
156.6453909999999894
21
-94.0030289999999979
0
LINE
8
BLACK
6
CONTINUOUS
10
156.6453909999999894
20
-94.0030289999999979
11
156.881179000000003
21
-93.9093560000000025
0
LINE
8
BLACK
6
CONTINUOUS
10
156.881179000000003
20
-93.9093560000000025
11
156.9702029999999979
21
-93.8739899999999921
0
LINE
8
BLACK
6
CONTINUOUS
10
156.9702029999999979
20
-93.8739899999999921
11
156.9702049999999929
21
-93.8739879999999971
0
LINE
8
BLACK
6
CONTINUOUS
10
156.9702049999999929
20
-93.8739879999999971
11
156.9702149999999961
21
-93.8739849999999905
0
LINE
8
BLACK
6
CONTINUOUS
10
156.9702149999999961
20
-93.8739849999999905
11
157.2778619999999989
21
-93.7081039999999916
0
LINE
8
BLACK
6
CONTINUOUS
10
157.2778619999999989
20
-93.7081039999999916
11
157.5641699999999901
21
-93.5076279999999969
0
LINE
8
BLACK
6
CONTINUOUS
10
157.5641699999999901
20
-93.5076279999999969
11
157.8252699999999891
21
-93.2752699999999919
0
LINE
8
BLACK
6
CONTINUOUS
10
157.8252699999999891
20
-93.2752699999999919
11
158.057627999999994
21
-93.0141699999999929
0
LINE
8
BLACK
6
CONTINUOUS
10
158.057627999999994
20
-93.0141699999999929
11
158.258104000000003
21
-92.7278620000000018
0
LINE
8
BLACK
6
CONTINUOUS
10
158.258104000000003
20
-92.7278620000000018
11
158.4239849999999876
21
-92.4202149999999989
0
LINE
8
BLACK
6
CONTINUOUS
10
158.4239849999999876
20
-92.4202149999999989
11
158.5530289999999809
21
-92.0953909999999922
0
LINE
8
BLACK
6
CONTINUOUS
10
158.5530289999999809
20
-92.0953909999999922
11
158.6434909999999832
21
-91.7577819999999917
0
LINE
8
BLACK
6
CONTINUOUS
10
158.6434909999999832
20
-91.7577819999999917
11
158.6941479999999842
21
-91.4119539999999944
0
LINE
8
BLACK
6
CONTINUOUS
10
158.6941479999999842
20
-91.4119539999999944
11
158.7005000000000052
21
-91.2664669999999916
0
LINE
8
BLACK
6
CONTINUOUS
10
158.7005000000000052
20
-91.2664669999999916
11
158.7004989999999793
21
-86.0335340000000031
0
LINE
8
BLACK
6
CONTINUOUS
10
158.7004989999999793
20
-86.0335340000000031
11
158.6941479999999842
21
-85.8880460000000028
0
LINE
8
BLACK
6
CONTINUOUS
10
158.6941479999999842
20
-85.8880460000000028
11
158.6434909999999832
21
-85.5422179999999912
0
LINE
8
BLACK
6
CONTINUOUS
10
158.6434909999999832
20
-85.5422179999999912
11
158.5530289999999809
21
-85.2046089999999907
0
LINE
8
BLACK
6
CONTINUOUS
10
158.5530289999999809
20
-85.2046089999999907
11
158.5197309999999788
21
-85.1207929999999919
0
LINE
8
BLACK
6
CONTINUOUS
10
158.5197309999999788
20
-85.1207929999999919
11
158.4239900000000034
21
-84.8797959999999989
0
LINE
8
BLACK
6
CONTINUOUS
10
158.4239900000000034
20
-84.8797959999999989
11
158.4239849999999876
21
-84.8797859999999957
0
LINE
8
BLACK
6
CONTINUOUS
10
158.4239849999999876
20
-84.8797859999999957
11
158.4239849999999876
21
-84.8797849999999983
0
LINE
8
BLACK
6
CONTINUOUS
10
158.4239849999999876
20
-84.8797849999999983
11
158.258104000000003
21
-84.5721379999999954
0
LINE
8
BLACK
6
CONTINUOUS
10
158.258104000000003
20
-84.5721379999999954
11
158.057627999999994
21
-84.28582999999999
0
LINE
8
BLACK
6
CONTINUOUS
10
158.057627999999994
20
-84.28582999999999
11
158.0576240000000041
21
-84.2858260000000001
0
LINE
8
BLACK
6
CONTINUOUS
10
158.0576240000000041
20
-84.2858260000000001
11
158.0576209999999833
21
-84.2858209999999985
0
LINE
8
BLACK
6
CONTINUOUS
10
158.0576209999999833
20
-84.2858209999999985
11
157.825271999999984
21
-84.0247310000000027
0
LINE
8
BLACK
6
CONTINUOUS
10
157.825271999999984
20
-84.0247310000000027
11
157.8252679999999941
21
-84.0247269999999986
0
LINE
8
BLACK
6
CONTINUOUS
10
157.8252679999999941
20
-84.0247269999999986
11
157.5641779999999983
21
-83.7923779999999994
0
LINE
8
BLACK
6
CONTINUOUS
10
157.5641779999999983
20
-83.7923779999999994
11
157.564171999999985
21
-83.7923729999999978
0
LINE
8
BLACK
6
CONTINUOUS
10
157.564171999999985
20
-83.7923729999999978
11
157.5641699999999901
21
-83.7923720000000003
0
LINE
8
BLACK
6
CONTINUOUS
10
157.5641699999999901
20
-83.7923720000000003
11
157.2778619999999989
21
-83.5918959999999913
0
LINE
8
BLACK
6
CONTINUOUS
10
157.2778619999999989
20
-83.5918959999999913
11
156.9702149999999961
21
-83.4260149999999925
0
LINE
8
BLACK
6
CONTINUOUS
10
156.9702149999999961
20
-83.4260149999999925
11
156.9702139999999986
21
-83.426013999999995
0
LINE
8
BLACK
6
CONTINUOUS
10
156.9702139999999986
20
-83.426013999999995
11
156.9702130000000011
21
-83.426013999999995
0
LINE
8
BLACK
6
CONTINUOUS
10
156.9702130000000011
20
-83.426013999999995
11
156.9702029999999979
21
-83.4260089999999934
0
LINE
8
BLACK
6
CONTINUOUS
10
156.9702029999999979
20
-83.4260089999999934
11
156.6453970000000027
21
-83.2969729999999942
0
LINE
8
BLACK
6
CONTINUOUS
10
156.6453970000000027
20
-83.2969729999999942
11
156.645386000000002
21
-83.29696899999999
0
LINE
8
BLACK
6
CONTINUOUS
10
156.645386000000002
20
-83.29696899999999
11
156.3077839999999981
21
-83.2065089999999969
0
LINE
8
BLACK
6
CONTINUOUS
10
156.3077839999999981
20
-83.2065089999999969
11
156.1925059999999803
21
-83.1896229999999974
0
LINE
8
BLACK
6
CONTINUOUS
10
156.1925059999999803
20
-83.1896229999999974
11
155.9619539999999915
21
-83.1558519999999959
0
LINE
8
BLACK
6
CONTINUOUS
10
155.9619539999999915
20
-83.1558519999999959
11
155.8164669999999887
21
-83.1495000000000033
0
LINE
8
BLACK
6
CONTINUOUS
10
155.8164669999999887
20
-83.1495000000000033
11
155.8164659999999913
21
-83.1495000000000033
0
LINE
8
BLACK
6
CONTINUOUS
10
155.8164659999999913
20
-83.1495000000000033
11
150.583533999999986
21
-83.1495000000000033
0
LINE
8
BLACK
6
CONTINUOUS
10
150.583533999999986
20
-83.1495000000000033
11
150.4497289999999907
21
-83.1553409999999928
0
LINE
8
BLACK
6
CONTINUOUS
10
150.4497289999999907
20
-83.1553409999999928
11
150.4380459999999857
21
-83.1558519999999959
0
LINE
8
BLACK
6
CONTINUOUS
10
150.4380459999999857
20
-83.1558519999999959
11
150.2997139999999945
21
-83.1761139999999983
0
LINE
8
BLACK
6
CONTINUOUS
10
150.2997139999999945
20
-83.1761139999999983
11
150.0922149999999817
21
-83.2065089999999969
0
LINE
8
BLACK
6
CONTINUOUS
10
150.0922149999999817
20
-83.2065089999999969
11
149.7546130000000062
21
-83.29696899999999
0
LINE
8
BLACK
6
CONTINUOUS
10
149.7546130000000062
20
-83.29696899999999
11
149.7546020000000055
21
-83.2969729999999942
0
LINE
8
BLACK
6
CONTINUOUS
10
149.7546020000000055
20
-83.2969729999999942
11
149.4297959999999819
21
-83.4260089999999934
0
LINE
8
BLACK
6
CONTINUOUS
10
149.4297959999999819
20
-83.4260089999999934
11
149.4297860000000071
21
-83.426013999999995
0
LINE
8
BLACK
6
CONTINUOUS
10
149.4297860000000071
20
-83.426013999999995
11
149.1221459999999865
21
-83.5918909999999897
0
LINE
8
BLACK
6
CONTINUOUS
10
149.1221459999999865
20
-83.5918909999999897
11
149.1221409999999992
21
-83.5918929999999989
0
LINE
8
BLACK
6
CONTINUOUS
10
149.1221409999999992
20
-83.5918929999999989
11
149.1221380000000067
21
-83.5918959999999913
0
LINE
8
BLACK
6
CONTINUOUS
10
149.1221380000000067
20
-83.5918959999999913
11
148.9314849999999808
21
-83.7253919999999994
0
LINE
8
BLACK
6
CONTINUOUS
10
148.9314849999999808
20
-83.7253919999999994
11
148.8358209999999815
21
-83.7923779999999994
0
LINE
8
BLACK
6
CONTINUOUS
10
148.8358209999999815
20
-83.7923779999999994
11
148.5747309999999857
21
-84.0247269999999986
0
LINE
8
BLACK
6
CONTINUOUS
10
148.5747309999999857
20
-84.0247269999999986
11
148.5747269999999958
21
-84.0247310000000027
0
LINE
8
BLACK
6
CONTINUOUS
10
148.5747269999999958
20
-84.0247310000000027
11
148.3423779999999965
21
-84.2858209999999985
0
LINE
8
BLACK
6
CONTINUOUS
10
148.3423779999999965
20
-84.2858209999999985
11
148.3423719999999832
21
-84.28582999999999
0
LINE
8
BLACK
6
CONTINUOUS
10
148.3423719999999832
20
-84.28582999999999
11
148.1418960000000027
21
-84.5721379999999954
0
LINE
8
BLACK
6
CONTINUOUS
10
148.1418960000000027
20
-84.5721379999999954
11
148.1418929999999818
21
-84.572141000000002
0
LINE
8
BLACK
6
CONTINUOUS
10
148.1418929999999818
20
-84.572141000000002
11
148.1418909999999869
21
-84.5721459999999894
0
LINE
8
BLACK
6
CONTINUOUS
10
148.1418909999999869
20
-84.5721459999999894
11
147.9760139999999922
21
-84.8797859999999957
0
LINE
8
BLACK
6
CONTINUOUS
10
147.9760139999999922
20
-84.8797859999999957
11
147.9760090000000048
21
-84.8797959999999989
0
LINE
8
BLACK
6
CONTINUOUS
10
147.9760090000000048
20
-84.8797959999999989
11
147.8469729999999913
21
-85.2046019999999942
0
LINE
8
BLACK
6
CONTINUOUS
10
147.8469729999999913
20
-85.2046019999999942
11
147.8469690000000014
21
-85.2046129999999948
0
LINE
8
BLACK
6
CONTINUOUS
10
147.8469690000000014
20
-85.2046129999999948
11
147.7565089999999941
21
-85.5422149999999988
0
LINE
8
BLACK
6
CONTINUOUS
10
147.7565089999999941
20
-85.5422149999999988
11
147.705851999999993
21
-85.8880489999999952
0
LINE
8
BLACK
6
CONTINUOUS
10
147.705851999999993
20
-85.8880489999999952
11
147.6995000000000005
21
-86.0335329999999914
0
LINE
8
BLACK
6
CONTINUOUS
10
147.6995000000000005
20
-86.0335329999999914
11
147.6995000000000005
21
-87.8755000000000024
0
LINE
8
BLACK
6
CONTINUOUS
10
147.6995000000000005
20
-87.8755000000000024
11
147.6798149999999907
21
-87.9425389999999965
0
LINE
8
BLACK
6
CONTINUOUS
10
147.6798149999999907
20
-87.9425389999999965
11
147.6270109999999818
21
-87.9882939999999962
0
LINE
8
BLACK
6
CONTINUOUS
10
147.6270109999999818
20
-87.9882939999999962
11
147.5755000000000052
21
-87.9994999999999976
0
LINE
8
BLACK
6
CONTINUOUS
10
147.5755000000000052
20
-87.9994999999999976
11
146.6872290000000021
21
-87.9994999999999976
0
LINE
8
BLACK
6
CONTINUOUS
10
146.6872290000000021
20
-87.9994999999999976
11
146.6201899999999796
21
-87.9798150000000021
0
LINE
8
BLACK
6
CONTINUOUS
10
146.6201899999999796
20
-87.9798150000000021
11
146.6110659999999939
21
-87.973353000000003
0
LINE
8
BLACK
6
CONTINUOUS
10
146.6110659999999939
20
-87.973353000000003
11
146.5735109999999963
21
-87.944121999999993
0
LINE
8
BLACK
6
CONTINUOUS
10
146.5735109999999963
20
-87.944121999999993
11
146.3548109999999838
21
-87.825766999999999
0
LINE
8
BLACK
6
CONTINUOUS
10
146.3548109999999838
20
-87.825766999999999
11
146.3548020000000065
21
-87.8257639999999924
0
LINE
8
BLACK
6
CONTINUOUS
10
146.3548020000000065
20
-87.8257639999999924
11
146.1196159999999793
21
-87.7450240000000008
0
LINE
8
BLACK
6
CONTINUOUS
10
146.1196159999999793
20
-87.7450240000000008
11
145.8743350000000021
21
-87.7040949999999953
0
LINE
8
BLACK
6
CONTINUOUS
10
145.8743350000000021
20
-87.7040949999999953
11
145.6256649999999979
21
-87.7040949999999953
0
LINE
8
BLACK
6
CONTINUOUS
10
145.6256649999999979
20
-87.7040949999999953
11
145.3803829999999948
21
-87.7450240000000008
0
LINE
8
BLACK
6
CONTINUOUS
10
145.3803829999999948
20
-87.7450240000000008
11
145.145196999999996
21
-87.8257639999999924
0
LINE
8
BLACK
6
CONTINUOUS
10
145.145196999999996
20
-87.8257639999999924
11
145.1451879999999903
21
-87.825766999999999
0
LINE
8
BLACK
6
CONTINUOUS
10
145.1451879999999903
20
-87.825766999999999
11
144.9264929999999936
21
-87.9441190000000006
0
LINE
8
BLACK
6
CONTINUOUS
10
144.9264929999999936
20
-87.9441190000000006
11
144.7302569999999946
21
-88.0968560000000025
0
LINE
8
BLACK
6
CONTINUOUS
10
144.7302569999999946
20
-88.0968560000000025
11
144.5618330000000071
21
-88.2798119999999926
0
LINE
8
BLACK
6
CONTINUOUS
10
144.5618330000000071
20
-88.2798119999999926
11
144.4258260000000007
21
-88.4879880000000014
0
LINE
8
BLACK
6
CONTINUOUS
10
144.4258260000000007
20
-88.4879880000000014
11
144.3259359999999845
21
-88.7157129999999938
0
LINE
8
BLACK
6
CONTINUOUS
10
144.3259359999999845
20
-88.7157129999999938
11
144.2648920000000032
21
-88.9567699999999917
0
LINE
8
BLACK
6
CONTINUOUS
10
144.2648920000000032
20
-88.9567699999999917
11
144.2648899999999799
21
-88.9567819999999898
0
LINE
8
BLACK
6
CONTINUOUS
10
144.2648899999999799
20
-88.9567819999999898
11
144.2443569999999795
21
-89.2045889999999986
0
LINE
8
BLACK
6
CONTINUOUS
10
144.2443569999999795
20
-89.2045889999999986
11
144.2443569999999795
21
-89.2045999999999992
0
CIRCLE
8
BLACK
10
145.75
20
-89.2045949999999976
40
0.45
0
CIRCLE
8
BLACK
10
137.75
20
-96.5
40
0.45
0
CIRCLE
8
BLACK
10
147.25
20
-82.75
40
0.45
  0
ENDSEC
  0
EOF
