  0
SECTION
  2
HEADER
  9
$ANGBASE
  50
0.0
  9
$ANGDIR
  70
1
  9
$MEASUREMENT
  70
1
  0
ENDSEC
  0
SECTION
  2
TABLES
  0
TABLE
  2
LTYPE
  70
4
  0
LTYPE
  5
40F
  2
CONTINUOUS
  70
0
  3
Solid line
  72
65
  73
0
  40
0.0
  0
LTYPE
  5
410
  2
DASHDOT
 70
0
  3
Dash Dot ____ _ ____ _
 72
65
 73
4
 40
2.0
 49
1.25
 49
-0.25
 49
0.25
 49
-0.25
  0
LTYPE
  5
411
  2
DASHED
 70
0
  3
Dashed __ __ __ __ __
 72
65
 73
2
 40
0.75
 49
0.5
 49
-0.25
  0
LTYPE
  5
43B
  2
DOTTED
 70
0
  3
Dotted .  .  .  .
 72
65
 73
2
 40
0.2
 49
0.0
 49
-0.2
  0
ENDTAB
  0
TABLE
  2
STYLE
  70
4
  0
STYLE
  2
KICAD
  70
0
  40
0
  41
1
  42
1
  50
0
  71
0
  3
isocp.shx
  0
STYLE
  2
KICADB
  70
0
  40
0
  41
1
  42
1
  50
0
  71
0
  3
isocp.shx
  0
STYLE
  2
KICADI
  70
0
  40
0
  41
1
  42
1
  50
15
  71
0
  3
isocp.shx
  0
STYLE
  2
KICADBI
  70
0
  40
0
  41
1
  42
1
  50
15
  71
0
  3
isocp.shx
  0
ENDTAB
  0
TABLE
  2
LAYER
  70
1
  0
LAYER
  2
BLACK
  70
0
  62
7
  6
CONTINUOUS
  0
ENDTAB
  0
ENDSEC
  0
SECTION
  2
ENTITIES
0
LINE
8
BLACK
6
CONTINUOUS
10
137.9450899999999933
20
-95.5192150000000026
11
138.1326829999999859
21
-95.5761199999999889
0
LINE
8
BLACK
6
CONTINUOUS
10
138.1326829999999859
20
-95.5761199999999889
11
138.3055699999999888
21
-95.6685299999999899
0
LINE
8
BLACK
6
CONTINUOUS
10
138.3055699999999888
20
-95.6685299999999899
11
138.4571070000000077
21
-95.7928929999999923
0
LINE
8
BLACK
6
CONTINUOUS
10
138.4571070000000077
20
-95.7928929999999923
11
138.5814699999999959
21
-95.944429999999997
0
LINE
8
BLACK
6
CONTINUOUS
10
138.5814699999999959
20
-95.944429999999997
11
138.6738799999999969
21
-96.1173169999999999
0
LINE
8
BLACK
6
CONTINUOUS
10
138.6738799999999969
20
-96.1173169999999999
11
138.7307849999999974
21
-96.3049099999999925
0
LINE
8
BLACK
6
CONTINUOUS
10
138.7307849999999974
20
-96.3049099999999925
11
138.75
21
-96.5
0
LINE
8
BLACK
6
CONTINUOUS
10
138.75
20
-96.5
11
138.7307849999999974
21
-96.6950899999999933
0
LINE
8
BLACK
6
CONTINUOUS
10
138.7307849999999974
20
-96.6950899999999933
11
138.6738799999999969
21
-96.8826830000000001
0
LINE
8
BLACK
6
CONTINUOUS
10
138.6738799999999969
20
-96.8826830000000001
11
138.5814699999999959
21
-97.0555699999999888
0
LINE
8
BLACK
6
CONTINUOUS
10
138.5814699999999959
20
-97.0555699999999888
11
138.4571070000000077
21
-97.2071069999999935
0
LINE
8
BLACK
6
CONTINUOUS
10
138.4571070000000077
20
-97.2071069999999935
11
138.3055699999999888
21
-97.3314699999999959
0
LINE
8
BLACK
6
CONTINUOUS
10
138.3055699999999888
20
-97.3314699999999959
11
138.1326829999999859
21
-97.4238799999999969
0
LINE
8
BLACK
6
CONTINUOUS
10
138.1326829999999859
20
-97.4238799999999969
11
137.9450899999999933
21
-97.4807849999999974
0
LINE
8
BLACK
6
CONTINUOUS
10
137.9450899999999933
20
-97.4807849999999974
11
137.75
21
-97.5
0
LINE
8
BLACK
6
CONTINUOUS
10
137.75
20
-97.5
11
137.5549100000000067
21
-97.4807849999999974
0
LINE
8
BLACK
6
CONTINUOUS
10
137.5549100000000067
20
-97.4807849999999974
11
137.3673169999999857
21
-97.4238799999999969
0
LINE
8
BLACK
6
CONTINUOUS
10
137.3673169999999857
20
-97.4238799999999969
11
137.1944299999999828
21
-97.3314699999999959
0
LINE
8
BLACK
6
CONTINUOUS
10
137.1944299999999828
20
-97.3314699999999959
11
137.0428929999999923
21
-97.2071069999999935
0
LINE
8
BLACK
6
CONTINUOUS
10
137.0428929999999923
20
-97.2071069999999935
11
136.9185300000000041
21
-97.0555699999999888
0
LINE
8
BLACK
6
CONTINUOUS
10
136.9185300000000041
20
-97.0555699999999888
11
136.8261200000000031
21
-96.8826830000000001
0
LINE
8
BLACK
6
CONTINUOUS
10
136.8261200000000031
20
-96.8826830000000001
11
136.7692150000000026
21
-96.6950899999999933
0
LINE
8
BLACK
6
CONTINUOUS
10
136.7692150000000026
20
-96.6950899999999933
11
136.75
21
-96.5
0
LINE
8
BLACK
6
CONTINUOUS
10
136.75
20
-96.5
11
136.7692150000000026
21
-96.3049099999999925
0
LINE
8
BLACK
6
CONTINUOUS
10
136.7692150000000026
20
-96.3049099999999925
11
136.8261200000000031
21
-96.1173169999999999
0
LINE
8
BLACK
6
CONTINUOUS
10
136.8261200000000031
20
-96.1173169999999999
11
136.9185300000000041
21
-95.944429999999997
0
LINE
8
BLACK
6
CONTINUOUS
10
136.9185300000000041
20
-95.944429999999997
11
137.0428929999999923
21
-95.7928929999999923
0
LINE
8
BLACK
6
CONTINUOUS
10
137.0428929999999923
20
-95.7928929999999923
11
137.1944299999999828
21
-95.6685299999999899
0
LINE
8
BLACK
6
CONTINUOUS
10
137.1944299999999828
20
-95.6685299999999899
11
137.3673169999999857
21
-95.5761199999999889
0
LINE
8
BLACK
6
CONTINUOUS
10
137.3673169999999857
20
-95.5761199999999889
11
137.5549100000000067
21
-95.5192150000000026
0
LINE
8
BLACK
6
CONTINUOUS
10
137.5549100000000067
20
-95.5192150000000026
11
137.75
21
-95.5
0
LINE
8
BLACK
6
CONTINUOUS
10
137.75
20
-95.5
11
137.9450899999999933
21
-95.5192150000000026
0
LINE
8
BLACK
6
CONTINUOUS
10
155.9427989999999795
20
-83.5814499999999896
11
156.2628100000000018
21
-83.632134999999991
0
LINE
8
BLACK
6
CONTINUOUS
10
156.2628100000000018
20
-83.632134999999991
11
156.5739439999999831
21
-83.722527999999997
0
LINE
8
BLACK
6
CONTINUOUS
10
156.5739439999999831
20
-83.722527999999997
11
156.8712950000000035
21
-83.8512029999999982
0
LINE
8
BLACK
6
CONTINUOUS
10
156.8712950000000035
20
-83.8512029999999982
11
157.1501749999999902
21
-84.0161319999999989
0
LINE
8
BLACK
6
CONTINUOUS
10
157.1501749999999902
20
-84.0161319999999989
11
157.4061849999999936
21
-84.2147130000000033
0
LINE
8
BLACK
6
CONTINUOUS
10
157.4061849999999936
20
-84.2147130000000033
11
157.6352870000000053
21
-84.4438150000000007
0
LINE
8
BLACK
6
CONTINUOUS
10
157.6352870000000053
20
-84.4438150000000007
11
157.8338679999999954
21
-84.6998249999999899
0
LINE
8
BLACK
6
CONTINUOUS
10
157.8338679999999954
20
-84.6998249999999899
11
157.9987969999999962
21
-84.9787049999999908
0
LINE
8
BLACK
6
CONTINUOUS
10
157.9987969999999962
20
-84.9787049999999908
11
158.1274719999999832
21
-85.276055999999997
0
LINE
8
BLACK
6
CONTINUOUS
10
158.1274719999999832
20
-85.276055999999997
11
158.2178649999999891
21
-85.5871899999999926
0
LINE
8
BLACK
6
CONTINUOUS
10
158.2178649999999891
20
-85.5871899999999926
11
158.2685500000000047
21
-85.9072010000000006
0
LINE
8
BLACK
6
CONTINUOUS
10
158.2685500000000047
20
-85.9072010000000006
11
158.2800000000000011
21
-86.1499999999999915
0
LINE
8
BLACK
6
CONTINUOUS
10
158.2800000000000011
20
-86.1499999999999915
11
158.2800000000000011
21
-91.1499999999999915
0
LINE
8
BLACK
6
CONTINUOUS
10
158.2800000000000011
20
-91.1499999999999915
11
158.2685500000000047
21
-91.3927989999999966
0
LINE
8
BLACK
6
CONTINUOUS
10
158.2685500000000047
20
-91.3927989999999966
11
158.2178649999999891
21
-91.7128099999999904
0
LINE
8
BLACK
6
CONTINUOUS
10
158.2178649999999891
20
-91.7128099999999904
11
158.1274719999999832
21
-92.0239440000000002
0
LINE
8
BLACK
6
CONTINUOUS
10
158.1274719999999832
20
-92.0239440000000002
11
157.9987969999999962
21
-92.3212949999999921
0
LINE
8
BLACK
6
CONTINUOUS
10
157.9987969999999962
20
-92.3212949999999921
11
157.8338679999999954
21
-92.600174999999993
0
LINE
8
BLACK
6
CONTINUOUS
10
157.8338679999999954
20
-92.600174999999993
11
157.6352870000000053
21
-92.8561849999999964
0
LINE
8
BLACK
6
CONTINUOUS
10
157.6352870000000053
20
-92.8561849999999964
11
157.4061849999999936
21
-93.0852869999999939
0
LINE
8
BLACK
6
CONTINUOUS
10
157.4061849999999936
20
-93.0852869999999939
11
157.1501749999999902
21
-93.2838679999999982
0
LINE
8
BLACK
6
CONTINUOUS
10
157.1501749999999902
20
-93.2838679999999982
11
156.8712950000000035
21
-93.448796999999999
0
LINE
8
BLACK
6
CONTINUOUS
10
156.8712950000000035
20
-93.448796999999999
11
156.5739439999999831
21
-93.5774720000000002
0
LINE
8
BLACK
6
CONTINUOUS
10
156.5739439999999831
20
-93.5774720000000002
11
156.2628100000000018
21
-93.6678649999999919
0
LINE
8
BLACK
6
CONTINUOUS
10
156.2628100000000018
20
-93.6678649999999919
11
155.9427989999999795
21
-93.7185499999999934
0
LINE
8
BLACK
6
CONTINUOUS
10
155.9427989999999795
20
-93.7185499999999934
11
155.6999999999999886
21
-93.7299999999999898
0
LINE
8
BLACK
6
CONTINUOUS
10
155.6999999999999886
20
-93.7299999999999898
11
150.6999999999999886
21
-93.7299999999999898
0
LINE
8
BLACK
6
CONTINUOUS
10
150.6999999999999886
20
-93.7299999999999898
11
150.4572009999999977
21
-93.7185499999999934
0
LINE
8
BLACK
6
CONTINUOUS
10
150.4572009999999977
20
-93.7185499999999934
11
150.1371900000000039
21
-93.6678649999999919
0
LINE
8
BLACK
6
CONTINUOUS
10
150.1371900000000039
20
-93.6678649999999919
11
149.8260559999999941
21
-93.5774720000000002
0
LINE
8
BLACK
6
CONTINUOUS
10
149.8260559999999941
20
-93.5774720000000002
11
149.5287050000000022
21
-93.448796999999999
0
LINE
8
BLACK
6
CONTINUOUS
10
149.5287050000000022
20
-93.448796999999999
11
149.2498249999999871
21
-93.2838679999999982
0
LINE
8
BLACK
6
CONTINUOUS
10
149.2498249999999871
20
-93.2838679999999982
11
148.9938149999999837
21
-93.0852869999999939
0
LINE
8
BLACK
6
CONTINUOUS
10
148.9938149999999837
20
-93.0852869999999939
11
148.7647130000000004
21
-92.8561849999999964
0
LINE
8
BLACK
6
CONTINUOUS
10
148.7647130000000004
20
-92.8561849999999964
11
148.5661319999999819
21
-92.600174999999993
0
LINE
8
BLACK
6
CONTINUOUS
10
148.5661319999999819
20
-92.600174999999993
11
148.4012029999999811
21
-92.3212949999999921
0
LINE
8
BLACK
6
CONTINUOUS
10
148.4012029999999811
20
-92.3212949999999921
11
148.2725279999999941
21
-92.0239440000000002
0
LINE
8
BLACK
6
CONTINUOUS
10
148.2725279999999941
20
-92.0239440000000002
11
148.1821349999999882
21
-91.7128099999999904
0
LINE
8
BLACK
6
CONTINUOUS
10
148.1821349999999882
20
-91.7128099999999904
11
148.131450000000001
21
-91.3927989999999966
0
LINE
8
BLACK
6
CONTINUOUS
10
148.131450000000001
20
-91.3927989999999966
11
148.1200000000000045
21
-91.1499999999999915
0
LINE
8
BLACK
6
CONTINUOUS
10
148.1200000000000045
20
-91.1499999999999915
11
148.1200000000000045
21
-86.1499999999999915
0
LINE
8
BLACK
6
CONTINUOUS
10
148.1200000000000045
20
-86.1499999999999915
11
148.131450000000001
21
-85.9072010000000006
0
LINE
8
BLACK
6
CONTINUOUS
10
148.131450000000001
20
-85.9072010000000006
11
148.1821349999999882
21
-85.5871899999999926
0
LINE
8
BLACK
6
CONTINUOUS
10
148.1821349999999882
20
-85.5871899999999926
11
148.2725279999999941
21
-85.276055999999997
0
LINE
8
BLACK
6
CONTINUOUS
10
148.2725279999999941
20
-85.276055999999997
11
148.4012029999999811
21
-84.9787049999999908
0
LINE
8
BLACK
6
CONTINUOUS
10
148.4012029999999811
20
-84.9787049999999908
11
148.5661319999999819
21
-84.6998249999999899
0
LINE
8
BLACK
6
CONTINUOUS
10
148.5661319999999819
20
-84.6998249999999899
11
148.7647130000000004
21
-84.4438150000000007
0
LINE
8
BLACK
6
CONTINUOUS
10
148.7647130000000004
20
-84.4438150000000007
11
148.9938149999999837
21
-84.2147130000000033
0
LINE
8
BLACK
6
CONTINUOUS
10
148.9938149999999837
20
-84.2147130000000033
11
149.2498249999999871
21
-84.0161319999999989
0
LINE
8
BLACK
6
CONTINUOUS
10
149.2498249999999871
20
-84.0161319999999989
11
149.5287050000000022
21
-83.8512029999999982
0
LINE
8
BLACK
6
CONTINUOUS
10
149.5287050000000022
20
-83.8512029999999982
11
149.8260559999999941
21
-83.722527999999997
0
LINE
8
BLACK
6
CONTINUOUS
10
149.8260559999999941
20
-83.722527999999997
11
150.1371900000000039
21
-83.632134999999991
0
LINE
8
BLACK
6
CONTINUOUS
10
150.1371900000000039
20
-83.632134999999991
11
150.4572009999999977
21
-83.5814499999999896
0
LINE
8
BLACK
6
CONTINUOUS
10
150.4572009999999977
20
-83.5814499999999896
11
150.6999999999999886
21
-83.5699999999999932
0
LINE
8
BLACK
6
CONTINUOUS
10
150.6999999999999886
20
-83.5699999999999932
11
155.6999999999999886
21
-83.5699999999999932
0
LINE
8
BLACK
6
CONTINUOUS
10
155.6999999999999886
20
-83.5699999999999932
11
155.9427989999999795
21
-83.5814499999999896
0
LINE
8
BLACK
6
CONTINUOUS
10
145.9450899999999933
20
-88.2238100000000003
11
146.1326829999999859
21
-88.2807150000000007
0
LINE
8
BLACK
6
CONTINUOUS
10
146.1326829999999859
20
-88.2807150000000007
11
146.3055699999999888
21
-88.3731250000000017
0
LINE
8
BLACK
6
CONTINUOUS
10
146.3055699999999888
20
-88.3731250000000017
11
146.4571069999999793
21
-88.4974879999999899
0
LINE
8
BLACK
6
CONTINUOUS
10
146.4571069999999793
20
-88.4974879999999899
11
146.5814699999999959
21
-88.6490249999999946
0
LINE
8
BLACK
6
CONTINUOUS
10
146.5814699999999959
20
-88.6490249999999946
11
146.6738799999999969
21
-88.8219119999999975
0
LINE
8
BLACK
6
CONTINUOUS
10
146.6738799999999969
20
-88.8219119999999975
11
146.7307849999999974
21
-89.0095049999999901
0
LINE
8
BLACK
6
CONTINUOUS
10
146.7307849999999974
20
-89.0095049999999901
11
146.75
21
-89.2045949999999976
0
LINE
8
BLACK
6
CONTINUOUS
10
146.75
20
-89.2045949999999976
11
146.7307849999999974
21
-89.399684999999991
0
LINE
8
BLACK
6
CONTINUOUS
10
146.7307849999999974
20
-89.399684999999991
11
146.6738799999999969
21
-89.5872779999999977
0
LINE
8
BLACK
6
CONTINUOUS
10
146.6738799999999969
20
-89.5872779999999977
11
146.5814699999999959
21
-89.7601650000000006
0
LINE
8
BLACK
6
CONTINUOUS
10
146.5814699999999959
20
-89.7601650000000006
11
146.4571069999999793
21
-89.9117019999999911
0
LINE
8
BLACK
6
CONTINUOUS
10
146.4571069999999793
20
-89.9117019999999911
11
146.3055699999999888
21
-90.0360649999999936
0
LINE
8
BLACK
6
CONTINUOUS
10
146.3055699999999888
20
-90.0360649999999936
11
146.1326829999999859
21
-90.1284749999999946
0
LINE
8
BLACK
6
CONTINUOUS
10
146.1326829999999859
20
-90.1284749999999946
11
145.9450899999999933
21
-90.185379999999995
0
LINE
8
BLACK
6
CONTINUOUS
10
145.9450899999999933
20
-90.185379999999995
11
145.75
21
-90.2045949999999976
0
LINE
8
BLACK
6
CONTINUOUS
10
145.75
20
-90.2045949999999976
11
145.5549100000000067
21
-90.185379999999995
0
LINE
8
BLACK
6
CONTINUOUS
10
145.5549100000000067
20
-90.185379999999995
11
145.3673169999999857
21
-90.1284749999999946
0
LINE
8
BLACK
6
CONTINUOUS
10
145.3673169999999857
20
-90.1284749999999946
11
145.1944299999999828
21
-90.0360649999999936
0
LINE
8
BLACK
6
CONTINUOUS
10
145.1944299999999828
20
-90.0360649999999936
11
145.0428929999999923
21
-89.9117019999999911
0
LINE
8
BLACK
6
CONTINUOUS
10
145.0428929999999923
20
-89.9117019999999911
11
144.9185300000000041
21
-89.7601650000000006
0
LINE
8
BLACK
6
CONTINUOUS
10
144.9185300000000041
20
-89.7601650000000006
11
144.8261200000000031
21
-89.5872779999999977
0
LINE
8
BLACK
6
CONTINUOUS
10
144.8261200000000031
20
-89.5872779999999977
11
144.7692150000000026
21
-89.399684999999991
0
LINE
8
BLACK
6
CONTINUOUS
10
144.7692150000000026
20
-89.399684999999991
11
144.75
21
-89.2045949999999976
0
LINE
8
BLACK
6
CONTINUOUS
10
144.75
20
-89.2045949999999976
11
144.7692150000000026
21
-89.0095049999999901
0
LINE
8
BLACK
6
CONTINUOUS
10
144.7692150000000026
20
-89.0095049999999901
11
144.8261200000000031
21
-88.8219119999999975
0
LINE
8
BLACK
6
CONTINUOUS
10
144.8261200000000031
20
-88.8219119999999975
11
144.9185300000000041
21
-88.6490249999999946
0
LINE
8
BLACK
6
CONTINUOUS
10
144.9185300000000041
20
-88.6490249999999946
11
145.0428929999999923
21
-88.4974879999999899
0
LINE
8
BLACK
6
CONTINUOUS
10
145.0428929999999923
20
-88.4974879999999899
11
145.1944299999999828
21
-88.3731250000000017
0
LINE
8
BLACK
6
CONTINUOUS
10
145.1944299999999828
20
-88.3731250000000017
11
145.3673169999999857
21
-88.2807150000000007
0
LINE
8
BLACK
6
CONTINUOUS
10
145.3673169999999857
20
-88.2807150000000007
11
145.5549100000000067
21
-88.2238100000000003
0
LINE
8
BLACK
6
CONTINUOUS
10
145.5549100000000067
20
-88.2238100000000003
11
145.75
21
-88.2045949999999976
0
LINE
8
BLACK
6
CONTINUOUS
10
145.75
20
-88.2045949999999976
11
145.9450899999999933
21
-88.2238100000000003
0
LINE
8
BLACK
6
CONTINUOUS
10
147.4450899999999933
20
-81.7692150000000026
11
147.6326829999999859
21
-81.8261200000000031
0
LINE
8
BLACK
6
CONTINUOUS
10
147.6326829999999859
20
-81.8261200000000031
11
147.8055699999999888
21
-81.9185299999999899
0
LINE
8
BLACK
6
CONTINUOUS
10
147.8055699999999888
20
-81.9185299999999899
11
147.9571069999999793
21
-82.0428929999999923
0
LINE
8
BLACK
6
CONTINUOUS
10
147.9571069999999793
20
-82.0428929999999923
11
148.0814699999999959
21
-82.194429999999997
0
LINE
8
BLACK
6
CONTINUOUS
10
148.0814699999999959
20
-82.194429999999997
11
148.1738799999999969
21
-82.3673169999999999
0
LINE
8
BLACK
6
CONTINUOUS
10
148.1738799999999969
20
-82.3673169999999999
11
148.2307849999999974
21
-82.5549099999999925
0
LINE
8
BLACK
6
CONTINUOUS
10
148.2307849999999974
20
-82.5549099999999925
11
148.25
21
-82.75
0
LINE
8
BLACK
6
CONTINUOUS
10
148.25
20
-82.75
11
148.2307849999999974
21
-82.9450899999999933
0
LINE
8
BLACK
6
CONTINUOUS
10
148.2307849999999974
20
-82.9450899999999933
11
148.1738799999999969
21
-83.1326830000000001
0
LINE
8
BLACK
6
CONTINUOUS
10
148.1738799999999969
20
-83.1326830000000001
11
148.0814699999999959
21
-83.305570000000003
0
LINE
8
BLACK
6
CONTINUOUS
10
148.0814699999999959
20
-83.305570000000003
11
147.9571069999999793
21
-83.4571069999999935
0
LINE
8
BLACK
6
CONTINUOUS
10
147.9571069999999793
20
-83.4571069999999935
11
147.8055699999999888
21
-83.5814699999999959
0
LINE
8
BLACK
6
CONTINUOUS
10
147.8055699999999888
20
-83.5814699999999959
11
147.6326829999999859
21
-83.6738799999999969
0
LINE
8
BLACK
6
CONTINUOUS
10
147.6326829999999859
20
-83.6738799999999969
11
147.4450899999999933
21
-83.7307849999999974
0
LINE
8
BLACK
6
CONTINUOUS
10
147.4450899999999933
20
-83.7307849999999974
11
147.25
21
-83.75
0
LINE
8
BLACK
6
CONTINUOUS
10
147.25
20
-83.75
11
147.0549100000000067
21
-83.7307849999999974
0
LINE
8
BLACK
6
CONTINUOUS
10
147.0549100000000067
20
-83.7307849999999974
11
146.8673169999999857
21
-83.6738799999999969
0
LINE
8
BLACK
6
CONTINUOUS
10
146.8673169999999857
20
-83.6738799999999969
11
146.6944299999999828
21
-83.5814699999999959
0
LINE
8
BLACK
6
CONTINUOUS
10
146.6944299999999828
20
-83.5814699999999959
11
146.5428929999999923
21
-83.4571069999999935
0
LINE
8
BLACK
6
CONTINUOUS
10
146.5428929999999923
20
-83.4571069999999935
11
146.4185300000000041
21
-83.305570000000003
0
LINE
8
BLACK
6
CONTINUOUS
10
146.4185300000000041
20
-83.305570000000003
11
146.3261200000000031
21
-83.1326830000000001
0
LINE
8
BLACK
6
CONTINUOUS
10
146.3261200000000031
20
-83.1326830000000001
11
146.2692150000000026
21
-82.9450899999999933
0
LINE
8
BLACK
6
CONTINUOUS
10
146.2692150000000026
20
-82.9450899999999933
11
146.25
21
-82.75
0
LINE
8
BLACK
6
CONTINUOUS
10
146.25
20
-82.75
11
146.2692150000000026
21
-82.5549099999999925
0
LINE
8
BLACK
6
CONTINUOUS
10
146.2692150000000026
20
-82.5549099999999925
11
146.3261200000000031
21
-82.3673169999999999
0
LINE
8
BLACK
6
CONTINUOUS
10
146.3261200000000031
20
-82.3673169999999999
11
146.4185300000000041
21
-82.194429999999997
0
LINE
8
BLACK
6
CONTINUOUS
10
146.4185300000000041
20
-82.194429999999997
11
146.5428929999999923
21
-82.0428929999999923
0
LINE
8
BLACK
6
CONTINUOUS
10
146.5428929999999923
20
-82.0428929999999923
11
146.6944299999999828
21
-81.9185299999999899
0
LINE
8
BLACK
6
CONTINUOUS
10
146.6944299999999828
20
-81.9185299999999899
11
146.8673169999999857
21
-81.8261200000000031
0
LINE
8
BLACK
6
CONTINUOUS
10
146.8673169999999857
20
-81.8261200000000031
11
147.0549100000000067
21
-81.7692150000000026
0
LINE
8
BLACK
6
CONTINUOUS
10
147.0549100000000067
20
-81.7692150000000026
11
147.25
21
-81.75
0
LINE
8
BLACK
6
CONTINUOUS
10
147.25
20
-81.75
11
147.4450899999999933
21
-81.7692150000000026
0
CIRCLE
8
BLACK
10
145.75
20
-89.2045949999999976
40
0.45
0
CIRCLE
8
BLACK
10
137.75
20
-96.5
40
0.45
0
CIRCLE
8
BLACK
10
147.25
20
-82.75
40
0.45
  0
ENDSEC
  0
EOF
