**ABCDEFGHIJKLMNOPQRSTUVWXYZabcdefghijklmnopqrstuvwxyz**************************
**PARASOLID !"#$%&'()*+,-./:;<=>?@[\]^_`{|}~0123456789**************************
**PART1;
MC=AMD64;
MC_MODEL=Intel64 Family 6 Model 140 Stepping 1, GenuineIntel;
MC_ID=unknown;
OS=Windows_NT;
OS_RELEASE=unknown;
FRU=Parasolid Version 31.1, build 278,  7-15-2019;
APPL=SOLIDWORKS 2020-2019269;
SITE=;
USER=unknown;
FORMAT=text;
GUISE=transmit;
KEY=2025.03.11.BacktFace;
FILE=2025.03.11.BacktFace.x_t;
DATE=Thu Mar 13 22:15:33 2025;
**PART2;
SCH=SCH_3101278_31100;
USFLD_SIZE=0;
**PART3;
**END_OF_HEADER*****************************************************************
T51 : TRANSMIT FILE created by modeller version 310127823 SCH_3101278_31100_1300
6222 0 12 34 CCCCCCI4 mesh1006 0 I8 polyline1008 0 CCCCCCCDI5 owner1040 0 CCCCCC
I13 boundary_mesh1006 0 I17 boundary_polyline1008 0 CCCA16 index_map_offset0 0 1
 dA9 index_map82 0 A17 node_id_index_map82 0 A20 schema_embedding_map82 0 A5 chi
ld12 0 A14 lowest_node_id0 0 1 dA16 mesh_offset_data206 0 Z1 10846 2 3 4 0 0 0 0
 0 1e3 1e-8 0 5 0 1 0 1 1 6 7 8 9 0 0 10 11 12 0 0 0 0 0 0 0 81 255 2 2 10846 13
 1 14 0 0 0 0 15 70 11 CI9 list_type0 0 1 uI10 notransmit0 0 1 lCCCDCCDI12 finge
r_index0 0 1 dI12 finger_block1012 0 CZ3 0 4 T1 0 0 7 20 1 16 16 50 255 4 8421 0
 1 17 0 0 +.0867458358517206 -.0153642520612485 .003 0 0 1 1 0 0 13 255 6 4 0 1
 0 18 0 0 19 0 51 255 7 10143 0 20 21 0 0 +.001815835851720605 -.013577521679267
42 .005 0 0 -1 .0027 -1 0 0 31 255 8 10140 0 22 23 0 0 +.001815835851720605 -.01
51775216792674 .002 0 0 -1 -1 0 0 .0027 29 255 9 10130 0 24 25 0 .00451583585172
061 -.0151775216792674 .002 19 8 CCCCCCCA5 owner12 0 Z10 2 0 1 19 0 26 V0 16 255
 11 8934 0 ?27 0 28 29 0 0 1 18 255 12 9360 0 30 0 31 32 ?1 17 255 30 0 33 34 35
 12 36 37 0 38 -18 31 9320 0 39 12 40 41 ?1 29 32 9362 0 12 41 42 -.092254164148
2794 .03618574793875155 .01 29 41 9322 0 31 43 32 .0867458358517206 .03618574793
87515 -867361737988404e-33 29 42 10090 0 44 32 45 -.0100241641482794 -.015177521
6792674 .002 18 44 9114 0 46 47 48 42 ?1 29 45 10091 0 48 42 49 -.00732416414827
94 -.0178775216792674 .002 18 48 9116 0 50 44 51 45 ?1 29 49 10092 0 52 45 53 -.
0073241641482794 -.0178775216792674 .005 18 52 9113 0 54 55 56 49 ?1 29 53 10093
 0 55 49 57 -.0100241641482794 -.0151775216792674 .005 18 55 9111 0 58 59 52 53
 ?1 29 57 10094 0 59 53 60 -.0100241641482794 -.01357752167926742 .005 18 59 910
9 0 61 62 55 57 ?1 29 60 10095 0 62 57 63 -.0073241641482794 -.0108775216792674
 .005 18 62 9107 0 64 65 59 60 ?1 29 63 10096 0 66 60 67 -.0073241641482794 -.01
08775216792674 .002 18 66 9110 0 68 69 47 63 ?1 29 67 10097 0 47 63 70 -.0100241
641482794 -.01357752167926742 .002 18 47 9112 0 71 66 44 67 ?1 29 70 10123 0 40
 67 72 .00451583585172061 -.01357752167926742 .002 18 40 8988 0 73 31 74 70 ?1 2
9 72 10124 0 69 70 75 .00181583585172062 -.0108775216792674 .002 18 69 9108 0 76
 77 66 72 ?1 29 75 10125 0 65 72 78 .00181583585172062 -.0108775216792674 .005 1
8 65 9105 0 79 80 62 75 ?1 29 78 10126 0 77 75 81 .00451583585172061 -.013577521
67926742 .005 18 77 9119 0 82 83 69 78 ?1 29 81 10127 0 83 78 84 .00451583585172
061 -.0151775216792674 .005 18 83 9117 0 85 56 77 81 ?1 29 84 10128 0 56 81 25 .
00181583585172062 -.0178775216792674 .005 18 56 9115 0 86 52 83 84 ?1 29 25 1012
9 0 51 84 9 .00181583585172062 -.0178775216792674 .002 18 51 9118 0 87 48 24 25
 ?1 17 87 0 88 89 90 51 86 91 0 92 +18 24 9120 0 93 51 94 9 ?1 17 93 0 95 92 96
 24 85 97 0 98 +18 94 9536 0 99 24 100 101 ?1 17 99 0 102 103 104 94 105 106 0 1
07 -18 100 9538 0 108 94 109 110 ?1 29 101 9711 0 94 110 111 -.1118041641482794
 .01663574793875145 .01 29 110 9712 0 100 112 101 -.1118041641482794 -.015364252
0612485 .01 29 111 9232 0 80 101 113 -.0065741641482794 -.0161775216792674 .005
 18 80 9100 0 27 114 65 111 ?1 29 113 9231 0 114 111 115 .001065835851720612 -.0
161775216792674 .005 18 114 9099 0 116 117 80 113 ?1 29 115 9230 0 117 113 118 -
.00757416414827939 -.01357752167926742 .005 18 117 9123 0 119 120 114 115 ?1 29
 118 9229 0 120 115 121 -.0065741641482794 -.01257752167926742 .005 18 120 9122
 0 122 123 117 118 ?1 29 121 9228 0 123 118 124 .002065835851720605 -.0151775216
792674 .005 18 123 9098 0 125 126 120 121 ?1 29 124 9227 0 126 121 127 .00106583
5851720612 -.01257752167926742 .005 18 126 9121 0 128 129 123 124 ?1 29 127 9226
 0 129 124 130 .002065835851720605 -.01357752167926742 .005 18 129 9097 0 131 13
2 126 127 ?1 29 130 591 0 133 127 134 -.1072541641482794 -.01536425206124865 0 1
8 133 211 135 136 137 138 130 ?1 29 134 594 0 139 130 140 .0951125862710099 .016
63574793875145 .002 18 139 225 141 142 143 144 134 ?1 29 140 604 0 137 134 145 -
.1072541641482794 .01663574793875135 0 18 137 209 146 147 148 133 140 ?1 29 145
 614 0 149 140 150 .1017458358517206 -.0153642520612485 0 18 149 201 151 152 153
 154 145 ?1 29 150 616 0 144 145 155 .0951125862710099 -.0153642520612485 .002 1
8 144 227 156 157 139 158 150 ?1 29 155 619 0 143 150 159 .0867458358517206 .025
00249835804065 .002 18 143 223 160 161 162 139 155 ?1 29 159 620 0 138 155 163 -
.0922541641482792 -.0303642520612485 0 18 138 213 164 165 133 166 159 ?1 29 163
 625 0 154 159 167 .1017458358517206 .01663574793875145 0 18 154 203 168 169 149
 170 163 ?1 29 167 637 0 171 163 172 -.0922541641482793 -.0237310024805377 .002
 18 171 231 173 174 158 132 167 ?1 29 172 654 0 132 167 175 -.1006209145675686 -
.01536425206124865 .002 18 132 218 176 177 171 129 172 ?1 29 175 655 0 178 172 1
79 -.1006209145675686 .01663574793875135 .002 18 178 219 180 181 166 162 175 ?1
 29 179 658 0 162 175 182 -.0922541641482792 .0250024983580407 .002 18 162 221 1
83 184 178 143 179 ?1 29 182 665 0 170 179 185 .0867458358517206 .03163574793875
145 -867361737988404e-33 18 170 205 186 187 154 148 182 ?1 29 185 683 0 158 182
 188 .0867458358517208 -.02373100248053775 .002 18 158 229 189 190 144 171 185 ?
1 29 188 686 0 148 185 191 -.0922541641482792 .0316357479387515 0 18 148 207 192
 193 170 137 188 ?1 29 191 695 0 166 188 194 .0867458358517208 -.030364252061248
55 -867361737988404e-33 18 166 200 195 196 138 178 191 ?1 29 194 8563 0 153 191
 197 .001065835851720604 -.0161775216792674 .01 18 153 8561 0 198 199 149 194 ?1
 29 197 8566 0 199 194 200 -.00657416414827939 -.0161775216792674 .01 18 199 856
4 0 201 202 153 197 ?1 29 200 8585 0 202 197 203 .002065835851720605 -.013577521
67926742 .01 18 202 8583 0 204 205 199 200 ?1 29 203 8588 0 205 200 206 .0020658
35851720605 -.0151775216792674 .01 18 205 8586 0 207 208 202 203 ?1 29 206 8607
 0 208 203 209 -.00657416414827939 -.01257752167926742 .01 18 208 8605 0 210 211
 205 206 ?1 29 209 8610 0 211 206 212 .001065835851720604 -.01257752167926742 .0
1 18 211 8608 0 213 214 208 209 ?1 29 212 8629 0 214 209 215 -.00757416414827939
 -.0151775216792674 .01 18 214 8627 0 216 217 211 212 ?1 29 215 8632 0 217 212 4
3 -.00757416414827939 -.01357752167926742 .01 18 217 8630 0 218 74 214 215 ?1 29
 43 8933 0 74 215 41 -.00757416414827939 -.0151775216792674 .005 18 74 8931 0 21
9 40 217 43 ?1 17 219 0 220 27 119 74 221 222 0 223 -15 255 220 9132 0 128 224 0
 17 27 0 220 116 219 80 223 11 0 225 +17 119 0 220 219 122 117 226 227 0 221 +17
 221 0 228 218 229 117 219 222 0 230 +16 222 9027 0 ?221 227 231 232 0 0 1 17 22
3 0 233 234 235 74 27 11 0 229 -15 233 8935 0 223 236 0 17 234 0 233 237 223 214
 229 238 0 0 -17 235 0 233 223 237 80 201 239 0 0 -17 229 0 228 221 240 74 234 2
38 0 0 +15 228 8274 0 229 241 0 17 240 0 228 229 218 214 242 243 0 234 -16 238 8
633 0 ?229 244 245 246 0 0 1 16 244 8940 0 ?218 247 238 248 0 0 1 16 245 8950 0
 ?213 238 249 250 0 0 1 30 255 246 8635 0 238 250 248 0 +-.00757416414827939 -.0
151775216792674 .002 0 0 -1 30 250 8618 0 245 251 246 0 -.001065835851720604 -.0
1257752167926742 .01 0 0 -1 30 248 8640 0 244 246 252 0 --.00757416414827939 -.0
1357752167926742 .01 0 0 -1 31 252 8724 0 247 248 253 0 -.001065835851720604 -.0
151775216792674 .01 0 0 1 1 0 0 .001 16 247 8650 0 ?198 254 244 252 0 0 1 31 253
 8726 0 254 252 255 0 -.001065835851720604 -.01357752167926742 .01 0 0 1 1 0 0 .
001 16 254 8670 0 ?204 256 247 253 0 0 1 31 255 8728 0 256 253 257 0 --.00657416
414827939 -.01357752167926742 .01 0 0 1 1 0 0 .001 16 256 8690 0 ?210 28 254 255
 0 0 1 31 257 8730 0 28 255 29 0 --.00657416414827939 -.0151775216792674 .01 0 0
 1 1 0 0 .001 16 28 8710 0 ?216 11 256 257 0 0 1 31 29 8936 0 11 257 258 0 --.00
657416414827939 -.0151775216792674 .005 0 0 -1 -1 0 0 .001 30 258 10098 0 259 29
 260 0 +-.0100241641482794 -.01357752167926742 .005 0 0 -1 16 259 9072 0 ?71 261
 262 258 0 0 1 30 260 10099 0 262 258 263 0 +-.0100241641482794 -.01517752167926
74 .005 0 0 -1 16 262 9076 0 ?46 259 264 260 0 0 1 30 263 10100 0 265 260 266 0
 +-.0100241641482794 -.0151775216792674 .002 -2168404344971015e-30 1 0 16 265 90
44 0 ?267 268 269 263 0 0 1 31 266 10101 0 269 263 270 0 +-.00732416414827939 -.
0151775216792674 .002 0 0 -1 -1 0 0 .0027 16 269 9041 0 ?271 265 272 266 0 0 1 3
0 270 10102 0 264 266 273 0 +-.0073241641482794 -.0178775216792674 .005 0 0 -1 1
6 264 9080 0 ?50 262 91 270 0 0 1 31 273 10103 0 274 270 275 0 +-.00732416414827
939 -.0151775216792674 .005 0 0 -1 -1 0 0 .0027 16 274 9073 0 ?276 277 278 273 0
 0 1 30 275 10104 0 277 273 279 0 +-.0100241641482794 -.0151775216792674 .005 -2
168404344971015e-30 1 0 16 277 9069 0 ?280 281 274 275 0 0 1 31 279 10105 0 281
 275 282 0 +-.00732416414827939 -.01357752167926742 .005 0 0 -1 -1 0 0 .0027 16
 281 9065 0 ?283 284 277 279 0 0 1 30 282 10106 0 261 279 285 0 +-.0073241641482
794 -.0108775216792674 .005 0 0 -1 16 261 9068 0 ?68 286 259 282 0 0 1 31 285 10
107 0 268 282 287 0 +-.00732416414827939 -.01357752167926742 .002 0 0 -1 -1 0 0
 .0027 16 268 9047 0 ?288 289 265 285 0 0 1 30 287 10131 0 97 285 290 0 +.004515
83585172061 -.0151775216792674 .005 0 0 -1 16 97 9088 0 ?93 91 291 287 0 0 1 30
 290 10132 0 291 287 292 0 +.00451583585172061 -.01357752167926742 .005 0 0 -1 1
6 291 9060 0 ?293 97 284 290 0 0 1 30 292 10133 0 294 290 295 0 +.00451583585172
061 -.01357752167926742 .002 162630325872826e-29 -1 0 16 294 9032 0 ?98 22 296 2
92 0 0 1 31 295 10134 0 296 292 297 0 +.001815835851720605 -.01357752167926742 .
002 0 0 -1 -1 0 0 .0027 16 296 9029 0 ?73 294 298 295 0 0 1 30 297 10135 0 286 2
95 299 0 +.00181583585172062 -.0108775216792674 .005 0 0 -1 16 286 9064 0 ?76 23
1 261 297 0 0 1 31 299 10136 0 300 297 301 0 +.001815835851720605 -.013577521679
26742 .005 0 0 -1 -1 0 0 .0027 16 300 9057 0 ?302 303 289 299 0 0 1 30 301 10137
 0 303 299 304 0 +.00451583585172061 -.01357752167926742 .005 162630325872826e-2
9 -1 0 16 303 9085 0 ?305 306 300 301 0 0 1 31 304 10138 0 306 301 23 0 +.001815
835851720605 -.0151775216792674 .005 0 0 -1 -1 0 0 .0027 16 306 9081 0 ?307 278
 303 304 0 0 1 30 23 10139 0 91 304 8 0 +.00181583585172062 -.0178775216792674 .
005 0 0 -1 16 91 9084 0 ?87 264 97 23 0 0 1 17 307 0 308 309 305 56 96 306 0 0 +
16 278 9077 0 ?309 274 306 310 0 0 1 17 309 0 308 276 307 52 90 278 0 0 +30 310
 9222 0 278 311 312 0 +.00106583585172062 -.0178775216792674 .005 -1 45411609318
7645e-30 0 31 311 9659 0 298 313 310 0 +-.0922541641482793 .01663574793875145 .0
1 0 0 1 1 0 0 .01955 30 312 9218 0 284 310 314 0 +-.0065741641482794 -.010877521
6792674 .005 1 0 0 16 284 9061 0 ?315 291 281 312 0 0 1 30 314 9214 0 272 312 31
6 0 +.00106583585172062 -.0178775216792674 .002 -1 454116093187645e-30 0 16 272
 9038 0 ?89 269 22 314 0 0 1 30 316 9210 0 289 314 317 0 +-.0065741641482794 -.0
108775216792674 .002 1 0 0 16 289 9050 0 ?318 300 268 316 0 0 1 30 317 9193 0 23
1 316 232 0 +-.00732416414827939 -.0161775216792674 .005 -1 0 0 16 231 9026 0 ?2
25 222 286 317 0 0 1 30 232 9192 0 222 317 319 0 +-.00757416414827939 -.01617752
16792674 .005 0 1 0 31 319 9191 0 227 232 320 0 --.00657416414827939 -.013577521
67926742 .005 0 0 -1 -1 0 0 .001 16 227 9090 0 ?119 321 222 319 0 0 1 31 320 919
0 0 321 319 322 0 -.001065835851720604 -.0151775216792674 .005 0 0 -1 -1 0 0 .00
1 16 321 9092 0 ?125 323 227 320 0 0 1 30 322 9189 0 323 320 324 0 +-.0073241641
4827939 -.01257752167926742 .005 1 0 0 16 323 9028 0 ?325 326 321 322 0 0 1 30 3
24 9188 0 326 322 327 0 +.002065835851720605 -.0161775216792674 .005 0 -1 0 16 3
26 9025 0 ?328 329 323 324 0 0 1 31 327 9187 0 329 324 330 0 -.00106583585172060
4 -.01357752167926742 .005 0 0 -1 -1 0 0 .001 16 329 9089 0 ?128 331 326 327 0 0
 1 31 330 8497 0 332 327 333 0 +-.0117541641482794 -.01437752167926742 .01 0 0 1
 1 0 0 .0015 16 332 8453 0 ?334 335 336 330 0 0 1 31 333 8496 0 335 330 337 0 --
.0117541641482794 -.01437752167926742 .003 0 0 1 1 0 0 .0015 16 335 8456 0 ?338
 339 332 333 0 0 1 31 337 8495 0 331 333 340 0 +.00624583585172061 -.01437752167
926742 .01 0 0 1 1 0 0 .0015 16 331 8469 0 ?341 336 329 337 0 0 1 31 340 8494 0
 336 337 342 0 -.00624583585172061 -.01437752167926742 .003 0 0 1 1 0 0 .0015 16
 336 8472 0 ?343 332 331 340 0 0 1 30 342 8316 0 339 340 344 0 +0 -.016177521679
2674 .01 -1 0 0 16 339 8562 0 ?345 243 335 342 0 0 1 30 344 8314 0 346 342 347 0
 +0 -.01257752167926742 .01 1 0 0 16 346 8606 0 ?348 349 243 344 0 0 1 30 347 71
6 0 350 344 351 0 +-.1006209145675686 -.0153642520612485 .002 0 1 0 16 350 217 3
52 ?353 354 355 347 0 0 1 31 351 720 0 356 347 357 0 +.0951125862710099 -.015364
2520612485 -.01 289120579329468e-30 -1 0 1 289120579329468e-30 0 .012 16 356 255
 358 ?359 360 361 351 0 0 1 30 357 734 0 362 351 363 0 +.0951125862710099 -.0153
642520612485 .002 0 -1 0 16 362 226 364 ?365 366 367 357 0 0 1 30 363 746 0 368
 357 369 0 +-.0922541641482792 .0316357479387515 0 -1 775295408257792e-31 0 16 3
68 206 370 ?371 372 373 363 0 0 1 31 369 747 0 374 363 375 0 +.0951125862710099
 .01663574793875145 -.01 0 -1 0 0 0 -1 .012 16 374 258 376 ?377 361 378 369 0 0
 1 31 375 758 0 379 369 380 0 +.0867458358517206 -.0153642520612485 -86736173798
8404e-33 0 0 1 1 0 0 .015 16 379 199 381 ?382 239 383 375 0 0 1 31 380 764 0 384
 375 385 0 +-.0922541641482792 .0250024983580407 -.01 1 0 0 0 0 -1 .012 16 384 2
70 386 ?387 388 389 380 0 0 1 30 385 766 0 354 380 390 0 +-.0922541641482792 -.0
303642520612485 0 1 -1938238520644475e-32 0 16 354 214 391 ?196 392 350 385 0 0
 1 31 390 770 0 372 385 393 0 +.0867458358517206 .0166357479387514 -867361737988
404e-33 0 0 1 -1 0 0 .015 16 372 204 394 ?395 383 368 390 0 0 1 31 393 789 0 378
 390 396 0 +-.0922541641482792 -.0237310024805377 -.01 1 0 0 0 0 -1 .012 16 378
 261 397 ?398 374 399 393 0 0 1 31 396 794 0 367 393 400 0 +.0867458358517206 -.
0153642520612485 .002 0 0 -1 1 0 0 .00836675041928919 16 367 228 401 ?402 362 40
3 396 0 0 1 31 400 820 0 373 396 404 0 +-.0922541641482794 .01663574793875145 0
 0 0 1 -1 0 0 .015 16 373 208 405 ?406 368 407 400 0 0 1 31 404 821 0 360 400 40
8 0 +-.0922541641482793 -.01536425206124845 .002 0 0 -1 1 829341567056886e-30 0
 .00836675041928928 16 360 232 409 ?177 403 356 404 0 0 1 31 408 822 0 399 404 4
10 0 +.0867458358517206 .0250024983580407 -.01 1 2312964634635745e-30 1577721810
442025e-45 -2312964634635745e-30 1 0 .012 16 399 264 411 ?412 378 388 408 0 0 1
 31 410 848 0 389 408 413 0 +-.1006209145675686 .01663574793875135 -.01 0 -1 0 0
 0 -1 .012 16 389 273 414 ?415 384 349 410 0 0 1 30 413 852 0 383 410 416 0 +.10
17458358517206 -.0153642520612485 0 0 1 0 16 383 202 417 ?418 379 372 413 0 0 1
 30 416 853 0 419 413 420 0 +.0867458358517206 .0250024983580407 .002 1 -7752954
08257792e-31 0 16 419 222 421 ?422 355 366 416 0 0 1 31 420 854 0 361 416 423 0
 +.0867458358517207 -.0237310024805377 -.01 1 1272130549049658e-29 0 -1272130549
049658e-29 1 0 .012 16 361 254 424 ?425 356 374 420 0 0 1 30 423 859 0 407 420 4
26 0 +-.1072541641482794 -.01536425206124865 0 0 -1 0 16 407 210 427 ?428 373 39
2 423 0 0 1 31 426 861 0 355 423 429 0 +-.0922541641482794 .01663574793875145 .0
02 0 0 -1 1 1658683134113785e-30 0 .00836675041928922 16 355 220 430 ?431 350 41
9 426 0 0 1 31 429 865 0 388 426 432 0 +-.1006209145675686 -.01536425206124855 -
.01 1301042606982606e-29 -1 0 1 1301042606982606e-29 0 .012 16 388 267 433 ?434
 399 384 429 0 0 1 31 432 869 0 392 429 435 0 +-.0922541641482793 -.015364252061
24845 0 0 0 1 1 0 0 .015 16 392 212 436 ?437 407 354 432 0 0 1 31 435 871 0 366
 432 438 0 +.0867458358517206 .0166357479387514 .002 0 0 -1 1 -170015021246662e-
28 0 .00836675041928925 16 366 224 439 ?440 419 362 435 0 0 1 30 438 894 0 403 4
35 441 0 +.0867458358517206 -.02373100248053775 .002 -1 1938238520644475e-32 0 1
6 403 230 442 ?443 367 360 438 0 0 1 30 441 8522 0 349 438 444 0 +.0020658358517
20605 0 .01 0 -1 0 16 349 8584 0 ?445 389 346 441 0 0 1 30 444 8540 0 243 441 44
6 0 +-.00757416414827939 0 .01 0 1 0 16 243 8628 0 ?242 346 339 444 0 0 1 30 446
 8569 0 239 444 447 0 --.00657416414827939 -.0161775216792674 .01 0 0 -1 16 239
 8929 0 ?201 448 379 446 0 0 1 30 447 8574 0 448 446 449 0 +.001065835851720604
 -.0161775216792674 .002 0 0 -1 16 448 8572 0 ?450 451 239 447 0 0 1 30 449 8591
 0 451 447 452 0 +.002065835851720605 -.01357752167926742 .002 0 0 -1 16 451 858
9 0 ?453 454 448 449 0 0 1 30 452 8596 0 454 449 251 0 -.002065835851720605 -.01
51775216792674 .01 0 0 -1 16 454 8960 0 ?207 249 451 452 0 0 1 30 251 8613 0 249
 452 250 0 +-.00657416414827939 -.01257752167926742 .002 0 0 -1 16 249 8611 0 ?4
55 245 454 251 0 0 1 17 455 0 456 325 457 120 458 249 0 0 +15 456 8266 0 455 459
 0 17 325 0 456 213 455 126 122 323 0 460 +17 457 0 456 455 213 208 348 346 0 45
8 -17 458 0 461 462 226 208 455 249 0 0 -15 461 8946 0 226 463 0 17 462 0 461 23
0 458 217 210 256 0 0 -17 226 0 461 458 230 120 119 227 0 455 -17 230 0 461 226
 462 117 218 244 0 0 -17 218 0 228 240 221 217 230 244 0 242 +17 242 0 464 210 2
16 217 240 243 0 462 +15 464 8166 0 242 18 465 17 210 0 464 348 242 208 462 256
 0 457 +17 216 0 464 242 345 214 237 28 0 240 +17 345 0 464 216 198 199 466 339
 0 237 +17 237 0 233 235 234 199 216 28 0 0 -17 198 0 464 345 445 153 467 247 0
 466 +17 466 0 468 450 201 153 345 339 0 469 -15 468 8282 0 450 470 0 17 450 0 4
68 225 466 114 469 448 0 0 +17 201 0 468 466 225 199 235 239 0 345 +17 469 0 471
 467 472 153 450 448 0 0 -15 471 8966 0 472 473 0 17 467 0 471 474 469 205 198 2
47 0 0 -17 472 0 471 469 474 114 125 321 0 450 -17 474 0 471 472 467 123 207 454
 0 0 -17 125 0 220 131 116 123 472 321 0 328 +17 131 0 220 128 125 129 328 326 0
 475 -17 116 0 220 125 27 114 225 231 0 472 -17 328 0 476 207 453 123 131 326 0
 474 +15 476 8258 0 453 477 0 17 207 0 476 478 328 205 474 454 0 445 +17 453 0 4
76 328 478 129 479 451 0 0 +17 478 0 476 453 207 202 445 349 0 479 -17 479 0 480
 481 475 202 453 451 0 0 -15 480 8956 0 475 482 0 17 481 0 480 460 479 211 204 2
54 0 0 -17 475 0 480 479 460 129 128 329 0 453 -17 460 0 480 475 481 126 213 245
 0 0 -17 128 0 220 122 131 126 475 329 0 325 +17 122 0 220 119 128 120 325 323 0
 226 -17 213 0 456 457 325 211 460 245 0 348 +17 348 0 464 204 210 211 457 346 0
 481 +17 204 0 464 445 348 202 481 254 0 478 +17 445 0 464 198 204 205 478 349 0
 467 +14 255 482 8957 483 ?463 473 480 6 484 -0 0 463 473 26 81 1 483 10743 485
 482 0 0 486 487 488 14 463 8947 487 ?236 482 461 6 489 -0 0 236 482 26 14 473 8
967 486 ?482 470 471 6 490 -0 0 482 470 26 51 484 8827 0 482 490 489 0 +.0010658
35851720604 -.01357752167926742 .02455 0 0 1 .001 1 0 0 13 26 3 0 0 0 0 0 0 10 1
8 14 18 9383 491 ?492 0 493 6 494 +0 0 492 0 26 81 1 491 10736 485 18 0 0 0 495
 496 14 492 9354 495 ?477 18 497 6 498 -0 0 477 18 26 15 493 9944 0 499 18 500 5
0 494 561 0 18 501 502 0 +0 0 .01 0 0 1 1 0 0 54 255 501 559 0 503 504 494 0 +-.
0922541641482794 .01663574793875145 -.01 0 0 -1 .00836675041928922 .012 -1 0 0 5
4 502 578 0 505 494 506 0 +.0867458358517206 -.0153642520612485 -.01 0 0 -1 .008
3667504192892 .012 -1 0 0 14 505 252 507 ?508 509 510 6 502 -0 0 508 509 26 54 5
06 587 0 511 502 498 0 +-.0922541641482793 -.01536425206124845 -.01 0 0 -1 .0083
6675041928927 .012 -1 0 0 14 511 265 512 ?513 514 515 6 506 -0 0 513 514 26 50 4
98 590 0 492 506 516 0 +0 0 0 0 0 1 1 0 0 50 516 8525 0 477 498 517 0 +.00206583
5851720605 -.0161775216792674 .02455 -1 0 0 0 0 1 14 477 8983 518 ?459 492 476 6
 516 +0 0 459 492 26 50 517 8543 0 241 516 490 0 +-.00757416414827939 -.01617752
16792674 .02455 1 0 0 0 0 -1 14 241 8975 519 ?470 459 228 6 517 +0 0 470 459 26
 51 490 8806 0 473 517 484 0 +.001065835851720604 -.0151775216792674 .02455 0 0
 1 .001 1 0 0 81 1 519 10740 485 241 0 0 520 521 522 14 470 8971 521 ?473 241 46
8 6 523 +0 0 473 241 26 14 459 8979 520 ?241 477 456 6 524 +0 0 241 477 26 81 1
 520 10739 485 459 0 0 518 519 525 50 524 8308 0 459 523 526 0 +-.00732416414827
939 -.01257752167926742 .02455 0 -1 0 0 0 -1 50 523 8310 0 470 527 524 0 +-.0073
2416414827939 -.0161775216792674 .02455 0 1 0 0 0 1 50 526 506 0 509 524 528 0 +
.0867458358517206 -.0153642520612485 .002 0 0 1 1 0 0 14 509 8160 529 ?505 236 5
30 6 526 -0 0 505 236 26 51 528 512 0 531 526 532 0 +-.1006209145675686 -.015364
25206124865 -.01 0 -1 0 .012 0 0 -1 14 531 271 533 ?503 513 534 6 528 -0 0 503 5
13 26 51 532 517 0 508 528 535 0 +.0951125862710099 -.0153642520612485 -.01 0 1
 0 .012 0 0 1 14 508 256 536 ?537 505 538 6 532 -0 0 537 505 26 51 535 531 0 513
 532 539 0 +-.0922541641482792 .0250024983580407 -.01 -1 0 0 .012 0 -1 0 14 513
 268 540 ?531 511 541 6 535 -0 0 531 511 26 54 539 535 0 514 535 504 0 +.0867458
358517206 .0166357479387514 -.01 0 0 -1 .00836675041928925 .012 -1 0 0 14 514 26
2 542 ?511 537 543 6 539 -0 0 511 537 26 51 504 544 0 537 539 501 0 +-.092254164
1482792 -.0237310024805377 -.01 1 0 0 .012 0 1 0 14 537 259 544 ?514 508 545 6 5
04 -0 0 514 508 26 81 1 544 10749 485 537 546 0 536 542 547 15 545 260 0 425 537
 0 17 425 0 545 165 190 166 548 361 0 0 +17 165 0 545 549 425 138 196 354 0 437
 -17 190 0 545 425 549 158 443 403 0 402 -17 548 0 510 157 550 158 425 361 0 0 -
15 510 253 0 548 505 0 17 157 0 510 551 548 144 402 367 0 365 -17 550 0 510 548
 551 166 382 379 0 425 -17 551 0 510 550 157 149 359 356 0 0 -17 382 0 497 418 1
96 149 550 379 0 551 +15 497 198 0 382 492 552 17 418 0 497 395 382 154 152 383
 0 553 +17 196 0 497 382 437 166 165 354 0 550 +17 437 0 497 196 428 138 136 392
 0 398 +17 428 0 497 437 406 133 147 407 0 434 +17 136 0 515 554 398 133 437 392
 0 428 -17 398 0 515 136 174 138 549 378 0 0 +15 515 266 0 398 511 0 17 174 0 51
5 398 554 171 177 360 0 443 -17 549 0 545 190 165 171 398 378 0 0 -17 554 0 515
 174 136 132 434 388 0 0 -17 177 0 555 353 443 132 174 360 0 556 +17 443 0 555 1
77 402 171 190 403 0 549 +15 555 216 0 353 509 0 17 402 0 555 443 365 158 157 36
7 0 548 +17 365 0 555 402 440 144 142 362 0 359 +17 440 0 555 365 422 139 161 36
6 0 377 +17 142 0 538 553 359 139 365 362 0 440 -17 359 0 538 142 152 144 551 35
6 0 0 +15 538 257 0 359 508 0 17 152 0 538 359 553 149 418 383 0 382 -17 553 0 5
38 152 142 154 377 374 0 0 -17 377 0 543 161 169 139 553 374 0 0 +15 543 263 0 3
77 514 0 17 161 0 543 557 377 143 440 366 0 422 -17 169 0 543 377 557 154 395 37
2 0 418 -17 557 0 543 169 161 170 412 399 0 0 -17 395 0 497 371 418 170 169 372
 0 557 +17 371 0 497 406 395 148 187 368 0 558 +17 406 0 497 428 371 137 193 373
 0 415 +17 187 0 541 412 558 170 371 368 0 395 -17 558 0 541 187 184 148 387 384
 0 0 -15 541 269 0 412 513 0 17 184 0 541 558 412 162 422 419 0 431 -17 387 0 55
9 181 193 162 558 384 0 0 +15 559 275 0 387 503 0 17 181 0 559 415 387 178 431 3
55 0 353 -17 193 0 559 387 415 148 406 373 0 371 -17 415 0 559 193 181 137 560 3
89 0 0 +17 560 0 534 556 147 178 415 389 0 0 -15 534 272 0 434 531 0 17 556 0 53
4 434 560 132 353 350 0 554 -17 147 0 534 560 434 137 428 407 0 406 -17 434 0 53
4 147 556 133 554 388 0 0 +17 353 0 555 431 177 178 556 350 0 560 +17 431 0 555
 422 353 162 181 355 0 387 +17 422 0 555 440 431 143 184 419 0 412 +17 412 0 541
 184 187 143 557 399 0 0 +14 503 274 561 ?562 531 559 6 501 -0 0 562 531 26 81 1
 561 10754 485 503 563 0 533 564 565 14 562 8473 564 ?566 503 567 6 527 -0 0 566
 503 26 81 1 564 10755 485 562 0 0 561 568 569 14 566 8481 568 ?570 562 571 6 57
2 +0 0 570 562 26 15 567 8476 0 343 562 573 51 527 8488 0 562 572 523 0 +.006245
83585172061 -.01437752167926742 -.00224264068711928 0 0 1 .0015 1 0 0 50 572 849
0 0 566 574 527 0 +.0867458358517206 -.0153642520612485 .003 0 0 1 1 0 0 51 574
 8491 0 570 575 572 0 +-.0117541641482794 -.01437752167926742 -.0022426406871192
8 0 0 1 .0015 1 0 0 14 570 8457 576 ?577 566 578 6 574 -0 0 577 566 26 50 575 84
93 0 577 579 574 0 +.0867458358517206 -.0153642520612485 .003 0 0 1 1 0 0 14 577
 8465 580 ?224 570 581 6 575 +0 0 224 570 26 50 579 9180 0 582 583 575 0 +.00106
583585172062 -.0178775216792674 .005 -454116093187645e-30 -1 0 1 -45411609318764
5e-30 0 14 582 9157 584 ?585 586 88 6 579 -0 0 585 586 26 50 583 9184 0 587 588
 579 0 +-.0065741641482794 -.0108775216792674 .005 0 1 0 0 0 1 14 587 9141 589 ?
590 20 591 6 583 -0 0 590 20 26 50 588 9186 0 224 592 583 0 +.001065835851720604
 -.01357752167926742 .005 0 0 -1 -1 0 0 14 224 9129 593 ?20 577 308 6 588 +0 0 2
0 577 26 51 592 9651 0 594 595 588 0 +-.0922541641482793 .01663574793875145 .071
1 0 0 -1 .01955 -1 0 0 14 594 9611 596 ?597 598 599 6 592 +0 0 597 598 26 50 595
 9652 0 600 601 592 0 +-.0922541641482794 .03618574793875155 .0711 2713533928902
27e-30 1 0 -1 271353392890227e-30 0 14 600 9639 602 ?603 604 33 6 595 +0 0 603 6
04 26 51 601 9653 0 604 605 595 0 +.0867458358517206 .01663574793875145 .0711 0
 0 -1 .01955 -1 0 0 14 604 9635 606 ?600 607 608 6 601 +0 0 600 607 26 50 605 96
54 0 607 609 601 0 +.1062958358517206 .0166357479387515 .0711 1 8673617379884e-2
8 0 -8673617379884e-28 1 0 14 607 9631 610 ?604 611 612 6 605 +0 0 604 611 26 51
 609 9655 0 611 613 605 0 +.0867458358517206 -.01536425206124845 .0711 0 0 -1 .0
1955 -1 0 0 14 611 9627 614 ?607 615 616 6 609 +0 0 607 615 26 50 613 9656 0 615
 617 609 0 +.0867458358517206 -.03491425206124855 .0711 0 -1 0 0 0 -1 14 615 962
3 618 ?611 619 620 6 613 +0 0 611 619 26 51 617 9657 0 619 621 613 0 +-.09225416
41482794 -.0153642520612485 .0711 0 0 -1 .01955 -1 0 0 14 619 9619 622 ?615 597
 623 6 617 +0 0 615 597 26 50 621 9658 0 597 624 617 0 +-.1118041641482794 -.015
3642520612485 .0711 -1 867361737988405e-30 0 -867361737988405e-30 -1 0 14 597 96
15 625 ?619 594 102 6 621 +0 0 619 594 26 51 624 10037 0 603 626 621 0 +.0967458
358517206 -.0253642520612486 .007 0 0 1 .0037 1 0 0 14 603 10018 627 ?628 600 62
9 6 624 -0 0 628 600 26 50 626 10039 0 628 630 624 0 +.0967458358517206 -.025364
2520612486 .007 0 0 1 1 0 0 14 628 10023 631 ?632 603 633 6 626 +0 0 632 603 26
 51 630 10040 0 634 635 626 0 +.0967458358517206 .02663574793875145 .007 0 0 1 .
0037 1 0 0 14 634 9964 636 ?637 638 639 6 630 -0 0 637 638 26 50 635 10042 0 637
 640 630 0 +.0967458358517206 .02663574793875145 .007 0 0 1 1 0 0 14 637 9969 64
1 ?0 634 642 6 635 +0 0 0 634 26 51 640 10043 0 643 644 635 0 +-.102254164148279
4 .02663574793875145 .007 0 0 1 .0037 1 0 0 14 643 9982 645 ?638 646 647 6 640 -
0 0 638 646 26 50 644 10045 0 638 648 640 0 +-.1022541641482794 .026635747938751
45 .007 0 0 1 1 0 0 14 638 9987 649 ?634 643 650 6 644 +0 0 634 643 26 51 648 10
046 0 632 651 644 0 +-.1022541641482794 -.0253642520612486 .007 0 0 1 .0037 1 0
 0 14 632 10000 652 ?646 628 653 6 648 -0 0 646 628 26 50 651 10048 0 646 0 648
 0 +-.1022541641482794 -.0253642520612486 .007 0 0 1 1 0 0 14 646 10005 654 ?643
 632 655 6 651 +0 0 643 632 26 81 1 654 10779 485 646 0 0 652 645 656 15 655 100
07 0 657 646 0 17 657 0 655 657 657 0 658 659 0 0 +17 658 0 653 658 658 0 657 65
9 0 0 -16 659 9994 0 ?657 660 661 662 0 0 1 16 660 10015 0 ?663 664 659 665 0 0
 1 16 661 9997 0 ?666 659 667 668 0 0 1 31 662 10056 0 659 0 668 0 +-.1022541641
482794 -.0253642520612486 .007 0 0 1 1 0 0 .0037 31 668 10055 0 661 662 669 0 +-
.1022541641482794 -.0253642520612486 .01 0 0 1 1 0 0 .0037 31 669 10054 0 667 66
8 670 0 +-.1022541641482794 .02663574793875145 .007 0 0 1 1 0 0 .0037 16 667 997
6 0 ?671 661 672 669 0 0 1 31 670 10053 0 672 669 673 0 +-.1022541641482794 .026
63574793875145 .01 0 0 1 1 0 0 .0037 16 672 9979 0 ?674 667 675 670 0 0 1 31 673
 10052 0 675 670 676 0 +.0967458358517206 .02663574793875145 .007 0 0 1 1 0 0 .0
037 16 675 9958 0 ?677 672 678 673 0 0 1 31 676 10051 0 678 673 679 0 +.09674583
58517206 .02663574793875145 .01 0 0 1 1 0 0 .0037 16 678 9961 0 ?680 675 0 676 0
 0 1 31 679 10050 0 664 676 665 0 +.0967458358517206 -.0253642520612486 .007 0 0
 1 1 0 0 .0037 16 664 10012 0 ?681 682 660 679 0 0 1 31 665 10049 0 660 679 683
 0 +.0967458358517206 -.0253642520612486 .01 0 0 1 1 0 0 .0037 31 683 9702 0 682
 665 684 0 +-.0922541641482793 .01663574793875145 0 0 0 -1 -1 0 0 .01955 16 682
 9473 0 ?685 686 664 683 0 0 1 30 684 9701 0 686 683 687 0 +-.0922541641482794 .
03618574793875155 0 1 -271353392890227e-30 0 16 686 9508 0 ?688 689 682 684 0 0
 1 31 687 9700 0 689 684 690 0 +.0867458358517206 .01663574793875145 -8673617379
88404e-33 0 0 -1 -1 0 0 .01955 16 689 9503 0 ?691 692 686 687 0 0 1 30 690 9699
 0 692 687 693 0 +.1062958358517206 .0166357479387515 0 8673617379884e-28 -1 0 1
6 692 9498 0 ?694 695 689 690 0 0 1 31 693 9698 0 695 690 696 0 +.08674583585172
06 -.01536425206124845 -867361737988404e-33 0 0 -1 -1 0 0 .01955 16 695 9493 0 ?
697 698 692 693 0 0 1 30 696 9697 0 698 693 699 0 +.0867458358517206 -.034914252
06124855 -867361737988404e-33 -1 0 0 16 698 9488 0 ?700 701 695 696 0 0 1 31 699
 9696 0 701 696 702 0 +-.0922541641482794 -.0153642520612485 0 0 0 -1 -1 0 0 .01
955 16 701 9483 0 ?703 704 698 699 0 0 1 30 702 9695 0 704 699 705 0 +-.11180416
41482794 -.0153642520612485 0 867361737988405e-30 1 0 16 704 9478 0 ?706 37 701
 702 0 0 1 30 705 9694 0 707 702 708 0 +-.1118041641482794 .01663574793875145 .0
711 0 0 -1 16 707 9472 0 ?103 709 710 705 0 0 1 30 708 9693 0 710 705 711 0 +-.1
118041641482794 -.0153642520612485 .0711 0 0 -1 16 710 9477 0 ?712 707 713 708 0
 0 1 30 711 9692 0 713 708 714 0 +-.0922541641482792 -.0349142520612485 .0711 0
 0 -1 16 713 9482 0 ?715 710 716 711 0 0 1 30 714 9691 0 716 711 717 0 +.0867458
358517206 -.03491425206124855 .0711 0 0 -1 16 716 9487 0 ?718 713 719 714 0 0 1
 30 717 9690 0 719 714 720 0 +.1062958358517206 -.01536425206124865 .0711 0 0 -1
 16 719 9492 0 ?721 716 722 717 0 0 1 30 720 9689 0 722 717 723 0 +.106295835851
7206 .0166357479387515 .0711 0 0 -1 16 722 9497 0 ?724 719 725 720 0 0 1 30 723
 9688 0 725 720 726 0 +.0867458358517206 .03618574793875145 .0711 0 0 -1 16 725
 9502 0 ?727 722 37 723 0 0 1 30 726 9687 0 37 723 728 0 +-.0922541641482794 .03
618574793875155 .0711 0 0 -1 16 37 9507 0 ?36 725 704 726 0 0 1 30 728 9666 0 70
9 726 729 0 +1387778780781446e-32 .0361857479387515 .01 -1 271353392890227e-30 0
 16 709 9506 0 ?730 731 707 728 0 0 1 31 729 9665 0 731 728 732 0 +.086745835851
7206 .01663574793875145 .01 0 0 1 1 0 0 .01955 16 731 9501 0 ?733 734 709 729 0
 0 1 30 732 9664 0 734 729 735 0 +.1062958358517206 921571846612679e-31 .01 -867
3617379884e-28 1 0 16 734 9496 0 ?736 737 731 732 0 0 1 31 735 9663 0 737 732 73
8 0 +.0867458358517206 -.01536425206124845 .01 0 0 1 1 0 0 .01955 16 737 9491 0
 ?739 740 734 735 0 0 1 30 738 9662 0 740 735 741 0 +0 -.03491425206124855 .01 1
 0 0 16 740 9486 0 ?742 743 737 738 0 0 1 31 741 9661 0 743 738 313 0 +-.0922541
641482794 -.0153642520612485 .01 0 0 1 1 0 0 .01955 16 743 9481 0 ?744 106 740 7
41 0 0 1 30 313 9660 0 106 741 311 0 +-.1118041641482794 969276742202041e-31 .01
 -867361737988405e-30 -1 0 16 106 9476 0 ?105 298 743 313 0 0 1 17 105 0 745 744
 746 100 99 106 0 0 +16 298 9471 0 ?746 296 106 311 0 0 1 17 746 0 745 105 730 9
4 38 298 0 0 +15 745 9358 0 730 18 0 17 730 0 745 746 733 12 34 709 0 0 +17 38 0
 599 36 107 12 746 298 0 730 -15 599 9614 0 36 594 0 17 36 0 599 747 38 748 30 3
7 0 35 +17 107 0 599 38 747 94 103 707 0 746 -17 747 0 599 107 36 749 685 682 0
 706 -17 103 0 102 750 99 749 107 707 0 747 +15 102 9618 0 103 597 0 17 750 0 10
2 104 103 751 706 704 0 703 -18 749 9537 0 103 748 751 752 ?1 18 748 9550 0 36 7
53 749 754 ?1 18 751 9539 0 712 749 755 756 ?1 29 752 9737 0 749 756 754 -.11180
41641482794 .01663574793875145 0 29 756 9738 0 751 757 752 -.1118041641482794 -.
0153642520612485 0 29 754 9728 0 748 752 758 -.0922541641482794 .036185747938751
55 0 29 758 9718 0 753 754 759 .0867458358517206 .03618574793875145 .01 18 753 9
548 0 34 760 748 758 ?1 29 759 9716 0 760 758 761 .1062958358517206 .01663574793
87515 .01 18 760 9546 0 762 763 753 759 ?1 29 761 9715 0 763 759 764 .1062958358
517206 -.01536425206124865 .01 18 763 9544 0 765 766 760 761 ?1 29 764 9714 0 76
6 761 112 .0867458358517206 -.03491425206124855 .01 18 766 9542 0 767 109 763 76
4 ?1 29 112 9713 0 109 764 110 -.0922541641482792 -.0349142520612485 .01 18 109
 9540 0 768 100 766 112 ?1 17 768 0 620 715 769 109 742 740 0 770 -15 620 9626 0
 715 615 0 17 715 0 620 771 768 755 770 713 0 772 +17 769 0 620 768 771 766 718
 716 0 742 -17 742 0 745 739 744 766 768 740 0 0 +17 770 0 623 108 772 109 715 7
13 0 744 -15 623 9622 0 712 619 0 17 108 0 623 712 770 100 744 743 0 104 -17 772
 0 623 770 712 755 703 701 0 700 -17 744 0 745 742 105 109 108 743 0 0 +17 712 0
 623 772 108 751 104 710 0 750 +18 755 9541 0 715 751 773 757 ?1 17 703 0 552 70
6 700 751 772 701 0 0 +17 700 0 552 703 697 755 771 698 0 0 +15 552 9352 0 685 4
92 0 17 697 0 552 700 694 773 774 695 0 0 +17 771 0 620 769 715 773 700 698 0 69
7 -18 773 9543 0 718 755 775 776 ?1 17 718 0 616 774 767 773 769 716 0 771 +18 7
75 9545 0 721 773 777 778 ?1 29 776 9740 0 773 778 757 .0867458358517206 -.03491
425206124855 -867361737988404e-33 29 778 9741 0 775 779 776 .1062958358517206 -.
01536425206124865 0 29 757 9739 0 755 776 756 -.0922541641482792 -.0349142520612
485 0 29 779 9742 0 777 0 778 .1062958358517206 .0166357479387515 0 18 777 9547
 0 724 775 0 779 ?1 17 724 0 608 39 762 777 780 722 0 781 +15 608 9638 0 724 604
 0 17 39 0 608 782 724 31 691 689 0 727 -17 762 0 608 724 782 760 733 731 0 780
 -17 780 0 612 765 781 760 724 722 0 736 -17 781 0 612 780 721 777 694 692 0 691
 -15 612 9634 0 721 607 0 17 721 0 612 781 765 775 783 719 0 774 +17 694 0 552 6
97 691 775 781 692 0 0 +17 691 0 552 694 688 777 39 689 0 0 +17 688 0 552 691 68
5 31 35 686 0 0 +17 685 0 552 688 706 748 747 682 0 0 +17 35 0 33 30 727 748 688
 686 0 685 -15 33 9642 0 727 600 0 17 727 0 33 35 34 31 782 725 0 688 +17 34 0 3
3 727 30 753 730 709 0 782 -17 782 0 608 762 39 753 727 725 0 733 -17 733 0 745
 730 736 753 762 731 0 0 +17 736 0 745 733 739 760 765 734 0 0 +17 739 0 745 736
 742 763 767 737 0 0 +17 765 0 612 721 780 763 736 734 0 783 -17 783 0 616 767 7
74 763 721 719 0 739 -15 616 9630 0 718 611 0 17 767 0 616 718 783 766 739 737 0
 769 -17 774 0 616 783 718 775 697 695 0 694 -17 706 0 552 685 703 749 750 704 0
 0 +17 104 0 102 99 750 100 712 710 0 105 -17 681 0 633 681 681 0 784 664 0 0 +1
5 633 10025 0 681 628 0 17 784 0 629 784 784 0 681 664 0 0 -15 629 10021 0 784 6
03 785 15 785 10022 0 663 603 0 17 663 0 785 663 663 0 786 660 0 0 +17 786 0 787
 786 786 0 663 660 0 0 -15 787 9899 0 786 18 464 17 680 0 788 680 680 0 499 678
 0 0 +15 788 9968 0 680 634 0 17 499 0 493 499 499 0 680 678 0 0 -17 677 0 642 6
77 677 0 789 675 0 0 +15 642 9971 0 677 637 0 17 789 0 639 789 789 0 677 675 0 0
 -15 639 9967 0 789 634 788 17 674 0 790 674 674 0 791 672 0 0 +15 790 9986 0 67
4 643 0 17 791 0 500 791 791 0 674 672 0 0 -15 500 9929 0 791 18 792 15 792 9914
 0 793 18 787 17 793 0 792 793 793 0 666 661 0 0 -17 666 0 794 666 666 0 793 661
 0 0 +15 794 10004 0 666 632 0 17 671 0 650 671 671 0 795 667 0 0 +15 650 9989 0
 671 638 0 17 795 0 647 795 795 0 671 667 0 0 -15 647 9985 0 795 643 790 15 653
 10003 0 658 632 794 80 255 1 485 0 796 8001 0 0 0 0 3 5 0 0 0 FFFFTFTFFFFFFF2 8
1 1 652 10778 485 632 0 0 631 654 797 81 1 645 10780 485 643 0 0 654 649 798 83
 255 3 656 .792156862745098 .819607843137255 .933333333333333 81 1 649 10781 485
 638 0 0 645 636 799 83 3 798 .792156862745098 .819607843137255 .933333333333333
 81 1 636 10782 485 634 0 0 649 641 800 83 3 799 .792156862745098 .8196078431372
55 .933333333333333 81 1 641 10783 485 637 0 0 636 0 801 83 3 800 .7921568627450
98 .819607843137255 .933333333333333 83 3 801 .792156862745098 .819607843137255
 .933333333333333 81 1 631 10777 485 628 0 0 627 652 802 83 3 797 .7921568627450
98 .819607843137255 .933333333333333 81 1 627 10776 485 603 0 0 602 631 803 83 3
 802 .792156862745098 .819607843137255 .933333333333333 81 1 602 10775 485 600 0
 0 606 627 804 83 3 803 .792156862745098 .819607843137255 .933333333333333 81 1
 606 10774 485 604 0 0 610 602 805 83 3 804 .792156862745098 .819607843137255 .9
33333333333333 81 1 610 10773 485 607 0 0 614 606 806 83 3 805 .792156862745098
 .819607843137255 .933333333333333 81 1 614 10772 485 611 0 0 618 610 807 83 3 8
06 .792156862745098 .819607843137255 .933333333333333 81 1 618 10771 485 615 0 0
 622 614 808 83 3 807 .792156862745098 .819607843137255 .933333333333333 81 1 62
2 10770 485 619 0 0 625 618 809 83 3 808 .792156862745098 .819607843137255 .9333
33333333333 81 1 625 10769 485 597 0 0 596 622 810 83 3 809 .792156862745098 .81
9607843137255 .933333333333333 81 1 596 10768 485 594 0 0 811 625 812 83 3 810 .
792156862745098 .819607843137255 .933333333333333 81 1 811 10767 485 598 0 0 813
 596 814 83 3 812 .792156862745098 .819607843137255 .933333333333333 14 598 9165
 811 ?594 585 815 6 816 -0 0 594 585 26 81 1 813 10766 485 585 0 0 584 811 817 8
3 3 814 .792156862745098 .819607843137255 .933333333333333 14 585 9161 813 ?598
 582 95 6 21 -0 0 598 582 26 81 1 584 10765 485 582 0 0 818 813 819 83 3 817 .79
2156862745098 .819607843137255 .933333333333333 81 1 818 10764 485 586 0 0 820 5
84 821 83 3 819 .792156862745098 .819607843137255 .933333333333333 14 586 9153 8
18 ?582 822 823 6 824 -0 0 582 822 26 81 1 820 10763 485 822 0 0 825 818 826 83
 3 821 .792156862745098 .819607843137255 .933333333333333 14 822 9149 820 ?586 5
90 827 6 828 -0 0 586 590 26 81 1 825 10762 485 590 0 0 589 820 829 83 3 826 .79
2156862745098 .819607843137255 .933333333333333 14 590 9145 825 ?822 587 830 6 8
31 -0 0 822 587 26 81 1 589 10761 485 587 0 0 832 825 833 83 3 829 .792156862745
098 .819607843137255 .933333333333333 81 1 832 10760 485 20 0 0 593 589 834 83 3
 833 .792156862745098 .819607843137255 .933333333333333 14 20 9137 832 ?587 224
 835 6 7 -0 0 587 224 26 81 1 593 10759 485 224 0 0 580 832 836 83 3 834 .792156
862745098 .819607843137255 .933333333333333 81 1 580 10758 485 577 0 0 576 593 8
37 83 3 836 .792156862745098 .819607843137255 .933333333333333 81 1 576 10757 48
5 570 0 0 568 580 838 83 3 837 .792156862745098 .819607843137255 .93333333333333
3 81 1 568 10756 485 566 0 0 564 576 839 83 3 838 .792156862745098 .819607843137
255 .933333333333333 83 3 839 .792156862745098 .819607843137255 .933333333333333
 15 835 9140 0 73 20 0 17 73 0 835 82 76 40 840 296 0 293 +17 82 0 835 841 73 77
 293 291 0 842 -17 76 0 835 73 841 69 79 286 0 318 +17 840 0 530 843 844 69 73 2
96 0 0 -17 293 0 815 98 842 40 82 291 0 844 +15 815 9168 0 98 598 0 17 98 0 815
 85 293 24 844 294 0 845 +17 842 0 815 293 85 77 305 303 0 302 -17 844 0 530 840
 845 40 98 294 0 0 -15 530 8986 0 844 509 555 17 845 0 530 844 846 24 92 22 0 0
 -17 846 0 530 845 847 51 89 272 0 0 -17 92 0 95 86 93 51 845 22 0 846 +16 22 90
35 0 ?92 272 294 8 0 0 1 15 95 9164 0 92 585 0 17 86 0 95 96 92 56 87 91 0 90 -1
7 96 0 95 93 86 83 307 306 0 305 -17 90 0 88 87 54 56 309 278 0 307 -15 88 9160
 0 89 582 0 17 54 0 88 90 89 52 50 264 0 848 -17 89 0 88 54 87 48 846 272 0 847
 +17 50 0 823 271 848 48 54 264 0 89 +17 848 0 823 50 58 52 276 274 0 309 -15 82
3 9156 0 271 586 0 17 58 0 823 848 271 55 46 262 0 849 -17 276 0 308 280 309 55
 848 274 0 0 +15 308 9131 0 302 224 220 17 280 0 308 283 276 59 849 277 0 0 +17
 283 0 308 315 280 62 850 281 0 851 +17 849 0 827 46 61 55 280 277 0 276 -15 827
 9152 0 267 822 0 17 46 0 827 267 849 44 58 262 0 271 +17 61 0 827 849 267 59 71
 259 0 850 -17 267 0 827 61 46 47 852 265 0 853 +17 71 0 830 288 850 47 61 259 0
 267 +17 850 0 830 71 64 59 283 281 0 280 -15 830 9148 0 288 590 0 17 64 0 830 8
50 288 62 68 261 0 283 -17 288 0 830 64 71 66 853 268 0 843 +17 68 0 591 318 851
 66 64 261 0 288 +15 591 9144 0 318 587 0 17 318 0 591 79 68 69 843 289 0 840 +1
7 851 0 591 68 79 62 315 284 0 0 -17 79 0 591 851 318 65 76 286 0 841 -17 315 0
 308 302 283 65 851 284 0 0 +17 302 0 308 305 315 77 841 300 0 0 +17 305 0 308 3
07 302 83 842 303 0 0 +17 841 0 835 76 82 65 302 300 0 315 -17 843 0 530 853 840
 66 318 289 0 0 -17 853 0 530 852 843 47 288 268 0 0 -17 852 0 530 847 853 44 26
7 265 0 0 -17 847 0 530 846 852 48 271 269 0 0 -17 271 0 823 58 50 44 847 269 0
 852 +17 85 0 815 842 98 83 93 97 0 96 -51 831 10110 0 590 824 816 0 +-.00732416
414827939 -.01357752167926742 .005 0 0 -1 .0027 -1 0 0 51 824 10109 0 586 828 83
1 0 +-.00732416414827939 -.0151775216792674 .005 0 0 -1 .0027 -1 0 0 50 816 1014
1 0 598 831 21 0 +.00451583585172061 -.01357752167926742 .005 1 162630325872826e
-29 0 -162630325872826e-29 1 0 51 21 10142 0 585 816 7 0 +.001815835851720605 -.
0151775216792674 .005 0 0 -1 .0027 -1 0 0 50 828 10108 0 822 854 824 0 +-.010024
1641482794 -.0151775216792674 .005 -1 -2168404344971015e-30 0 2168404344971015e-
30 -1 0 51 854 8869 0 236 489 828 0 +-.00657416414827939 -.0151775216792674 .024
55 0 0 1 .001 1 0 0 14 236 8937 855 ?509 463 233 6 854 -0 0 509 463 26 51 489 88
48 0 463 484 854 0 +-.00657416414827939 -.01357752167926742 .02455 0 0 1 .001 1
 0 0 81 1 855 10745 485 236 0 0 487 529 856 81 1 487 10744 485 463 0 0 483 855 8
57 81 1 529 10746 485 509 0 0 855 507 858 83 3 856 .792156862745098 .81960784313
7255 .933333333333333 81 1 507 10747 485 505 859 0 529 536 860 83 3 858 .7921568
62745098 .819607843137255 .933333333333333 81 1 859 1518 861 505 0 507 563 862 8
63 81 1 536 10748 485 508 864 0 507 544 865 83 3 860 .792156862745098 .819607843
137255 .933333333333333 81 1 864 1335 861 508 0 536 866 867 868 83 3 865 .792156
862745098 .819607843137255 .933333333333333 80 1 861 869 870 8017 0 0 0 0 0 0 0
 0 0 TTTTTTTTTTTTTF3 81 1 866 1320 861 531 0 533 442 864 871 81 1 867 1377 861 5
13 0 540 864 872 873 84 255 4 868 NONE81 1 540 10752 485 513 867 0 512 533 874 8
1 1 872 1389 861 514 0 542 867 546 875 84 4 873 NONE81 1 542 10750 485 514 872 0
 544 512 876 81 1 546 1416 861 537 0 544 872 563 877 84 4 875 NONE81 1 563 1461
 861 503 0 561 546 859 878 84 4 877 NONE84 4 878 NONE81 1 512 10751 485 511 862
 0 542 540 879 83 3 876 .792156862745098 .819607843137255 .933333333333333 81 1
 862 1545 861 511 0 512 859 135 880 83 3 879 .792156862745098 .819607843137255 .
933333333333333 81 1 135 1556 861 133 0 0 862 141 881 84 4 880 NONE81 1 141 1562
 861 139 0 0 135 146 882 84 4 881 NONE81 1 146 1582 861 137 0 0 141 151 883 84 4
 882 NONE81 1 151 1602 861 149 0 0 146 156 884 84 4 883 NONE81 1 156 1606 861 14
4 0 0 151 160 885 84 4 884 NONE81 1 160 1612 861 143 0 0 156 164 886 84 4 885 NO
NE81 1 164 1614 861 138 0 0 160 168 887 84 4 886 NONE81 1 168 1624 861 154 0 0 1
64 173 888 84 4 887 NONE81 1 173 1648 861 171 0 0 168 176 889 84 4 888 NONE81 1
 176 1682 861 132 0 0 173 180 890 84 4 889 NONE81 1 180 1684 861 178 0 0 176 183
 891 84 4 890 NONE81 1 183 1690 861 162 0 0 180 186 892 84 4 891 NONE81 1 186 17
04 861 170 0 0 183 189 893 84 4 892 NONE81 1 189 1740 861 158 0 0 186 192 894 84
 4 893 NONE81 1 192 1746 861 148 0 0 189 195 895 84 4 894 NONE81 1 195 1764 861
 166 0 0 192 0 896 84 4 895 NONE84 4 896 NONE81 1 533 10753 485 531 866 0 540 56
1 897 83 3 874 .792156862745098 .819607843137255 .933333333333333 83 3 897 .7921
56862745098 .819607843137255 .933333333333333 81 1 442 1271 861 403 0 0 439 866
 898 84 4 871 NONE81 1 439 1225 861 366 0 0 436 442 899 84 4 898 NONE81 1 436 12
21 861 392 0 0 433 439 900 84 4 899 NONE81 1 433 1213 861 388 0 0 430 436 901 84
 4 900 NONE81 1 430 1205 861 355 0 0 427 433 902 84 4 901 NONE81 1 427 1201 861
 407 0 0 424 430 903 84 4 902 NONE81 1 424 1191 861 361 0 0 421 427 904 84 4 903
 NONE81 1 421 1189 861 419 0 0 417 424 905 84 4 904 NONE81 1 417 1187 861 383 0
 0 414 421 906 84 4 905 NONE81 1 414 1179 861 389 0 0 411 417 907 84 4 906 NONE8
1 1 411 1127 861 399 0 0 409 414 908 84 4 907 NONE81 1 409 1125 861 360 0 0 405
 411 909 84 4 908 NONE81 1 405 1123 861 373 0 0 401 409 910 84 4 909 NONE81 1 40
1 1071 861 367 0 0 397 405 911 84 4 910 NONE81 1 397 1061 861 378 0 0 394 401 91
2 84 4 911 NONE81 1 394 1023 861 372 0 0 391 397 913 84 4 912 NONE81 1 391 1015
 861 354 0 0 386 394 914 84 4 913 NONE81 1 386 1011 861 384 0 0 381 391 915 84 4
 914 NONE81 1 381 999 861 379 0 0 376 386 916 84 4 915 NONE81 1 376 977 861 374
 0 0 370 381 917 84 4 916 NONE81 1 370 975 861 368 0 0 364 376 918 84 4 917 NONE
81 1 364 951 861 362 0 0 358 370 919 84 4 918 NONE81 1 358 923 861 356 0 0 352 3
64 920 84 4 919 NONE81 1 352 915 861 350 0 0 0 358 921 84 4 920 NONE84 4 921 NON
E79 255 13 870 SDL/TYSA_NAME84 4 863 NONE83 3 857 .792156862745098 .819607843137
255 .933333333333333 79 15 796 SDL/TYSA_COLOUR15 581 8467 0 922 577 0 17 922 0 5
81 922 922 0 338 335 0 0 -17 338 0 578 338 338 0 922 335 0 0 +15 578 8460 0 338
 570 923 15 923 8461 0 334 570 0 17 334 0 923 334 334 0 924 332 0 0 +17 924 0 92
5 924 924 0 334 332 0 0 -15 925 8439 0 924 18 745 17 343 0 567 343 343 0 926 336
 0 0 +15 573 8477 0 341 562 0 17 341 0 573 341 341 0 927 331 0 0 +17 927 0 465 9
27 927 0 341 331 0 0 -15 465 8424 0 927 18 925 17 926 0 571 926 926 0 343 336 0
 0 -15 571 8483 0 926 566 0 83 3 569 .792156862745098 .819607843137255 .93333333
3333333 83 3 565 .792156862745098 .819607843137255 .933333333333333 83 3 547 .79
2156862745098 .819607843137255 .933333333333333 81 1 518 10738 485 477 0 0 495 5
20 928 83 3 525 .792156862745098 .819607843137255 .933333333333333 81 1 495 1073
7 485 492 0 0 491 518 929 83 3 928 .792156862745098 .819607843137255 .9333333333
33333 83 3 929 .792156862745098 .819607843137255 .933333333333333 81 1 521 10741
 485 470 0 0 519 486 930 81 1 486 10742 485 473 0 0 521 483 931 83 3 930 .792156
862745098 .819607843137255 .933333333333333 83 3 931 .792156862745098 .819607843
137255 .933333333333333 83 3 522 .792156862745098 .819607843137255 .933333333333
333 83 3 496 .792156862745098 .819607843137255 .933333333333333 83 3 488 .792156
862745098 .819607843137255 .933333333333333 17 225 0 468 201 450 80 116 231 0 23
5 +19 19 1 0 1 0 10 6 S0 50 17 8419 0 1 932 4 0 +.0867458358517206 -.01536425206
12485 .003 0 0 1 1 0 0 50 932 8418 0 1 933 17 0 +.0867458358517206 -.01536425206
12485 .003 0 0 1 1 0 0 50 933 8417 0 1 934 932 0 +.0867458358517206 -.0153642520
612485 .003 0 0 1 1 0 0 50 934 8416 0 1 0 933 0 +.0867458358517206 -.01536425206
12485 .003 0 0 1 1 0 0 74 4 CI16 index_map_offset0 0 1 dCCZ20 16 7 0 0 195 935 9
36 937 14 641 2 0 0 0 0 0 0 0 0 0 0 0 0 0 81 2 935 8125 938 1 0 936 0 0 0 939 81
 2 936 8129 940 1 935 937 0 0 0 941 81 2 937 10195 942 1 936 14 0 0 0 943 81 2 1
4 10246 944 1 937 2 0 0 0 0 80 2 944 945 946 9000 0 0 0 0 3 5 0 0 0 FFTFFFFFFFFF
FF9 1 79 16 946 BODY_RECIPE_200180 2 942 947 948 9000 0 0 0 0 3 5 0 0 0 FFTFFFFF
FFFFFF9 1 82 255 1 943 1 79 24 948 BODY_IN_LIGHTWEIGHT_PERM80 2 940 949 950 9000
 0 0 0 0 3 5 0 0 0 FFTFFFFFFFFFFF9 1 82 1 941 169 79 30 950 LAST_BODY_MODIFYING_
FEATURE_ID80 2 938 951 952 9000 0 0 0 0 3 5 0 0 0 FFTFFFFFFFFFFT9 1 82 1 939 391
 79 19 952 ENT_TIME_STAMP_200180 2 13 953 954 9000 0 0 0 0 3 5 0 0 0 FFTFFFFFFFF
FFF9 1 82 1 15 118 79 12 954 ATOM_ID_20011 0 
