<?xml version="1.0" standalone="no"?>
 <!DOCTYPE svg PUBLIC "-//W3C//DTD SVG 1.1//EN" 
 "http://www.w3.org/Graphics/SVG/1.1/DTD/svg11.dtd"> 
<svg
  xmlns:svg="http://www.w3.org/2000/svg"
  xmlns="http://www.w3.org/2000/svg"
  xmlns:xlink="http://www.w3.org/1999/xlink"
  version="1.1"
  width="182.5498mm" height="62.0268mm" viewBox="0.0000 0.0000 182.5498 62.0268">
<title>SVG Image created as gps_clock-Edge_Cuts.svg date 2025/02/16 19:07:44 </title>
  <desc>Image generated by PCBNEW </desc>
<g style="fill:#000000; fill-opacity:1.0000;stroke:#000000; stroke-opacity:1.0000;
stroke-linecap:round; stroke-linejoin:round;"
 transform="translate(0 0) scale(1 1)">
</g>
<g style="fill:none; 
stroke:#000000; stroke-width:0.0500; stroke-opacity:1; 
stroke-linecap:round; stroke-linejoin:round;">
<circle cx="8.7750" cy="5.0250" r="1.5000" /> 
<circle cx="8.7750" cy="57.0250" r="1.5000" /> 
<circle cx="173.7750" cy="57.0250" r="1.5000" /> 
<circle cx="173.7750" cy="5.0250" r="1.5000" /> 
<path d="M173.7750 62.0250
L8.7750 62.0250
" />
<path d="M178.7750 12.0250 A2.7500 2.7500 0.0 0 0 181.5250 14.7750" />
<path d="M3.7750 49.7750 A2.7500 2.7500 0.0 0 0 1.0250 47.0250" />
<path d="M178.7750 5.0250
L178.7750 12.0250
" />
<path d="M178.7750 57.0250
L178.7750 49.7750
" />
<path d="M0.0250 46.0250 A1.0000 1.0000 0.0 0 0 1.0250 47.0250" />
<path d="M0.0250 15.7750
L0.0250 46.0250
" />
<path d="M178.7750 5.0250 A5.0000 5.0000 0.0 0 0 173.7750 0.0250" />
<path d="M1.0250 14.7750 A1.0000 1.0000 0.0 0 0 0.0250 15.7750" />
<path d="M8.7750 0.0250 A5.0000 5.0000 0.0 0 0 3.7750 5.0250" />
<path d="M181.5250 47.0250 A2.7500 2.7500 0.0 0 0 178.7750 49.7750" />
<path d="M182.5250 15.7750
L182.5250 46.0250
" />
<path d="M181.5250 47.0250 A1.0000 1.0000 0.0 0 0 182.5250 46.0250" />
<path d="M182.5250 15.7750 A1.0000 1.0000 0.0 0 0 181.5250 14.7750" />
<path d="M3.7750 5.0250
L3.7750 12.0250
" />
<path d="M8.7750 0.0250
L173.7750 0.0250
" />
<path d="M173.7750 62.0250 A5.0000 5.0000 0.0 0 0 178.7750 57.0250" />
<path d="M3.7750 57.0250
L3.7750 49.7750
" />
<path d="M3.7750 57.0250 A5.0000 5.0000 0.0 0 0 8.7750 62.0250" />
<path d="M1.0250 14.7750 A2.7500 2.7500 0.0 0 0 3.7750 12.0250" />
<circle cx="109.5250" cy="23.1320" r="0.8750" /> 
<circle cx="111.2000" cy="26.4570" r="0.8750" /> 
<circle cx="111.3250" cy="30.9570" r="0.8750" /> 
<circle cx="111.2000" cy="35.4570" r="0.8750" /> 
<circle cx="109.5250" cy="38.7570" r="0.8750" /> 
<circle cx="105.5250" cy="39.7820" r="0.8750" /> 
<circle cx="101.5000" cy="38.7820" r="0.8750" /> 
<circle cx="100.1500" cy="35.4570" r="0.8750" /> 
<circle cx="100.0250" cy="30.9570" r="0.8750" /> 
<circle cx="100.1500" cy="26.4570" r="0.8750" /> 
<circle cx="101.5250" cy="23.1320" r="0.8750" /> 
<circle cx="105.5250" cy="22.1320" r="0.8750" /> 
<path style="fill:#000000; fill-opacity:1.0000; stroke:none;fill-rule:evenodd;"
d="M 152.8832,16.4421
152.9807,16.4918
153.0582,16.5693
153.1079,16.6668
153.1250,16.7750
153.1079,16.8832
153.0582,16.9807
152.9807,17.0582
152.8832,17.1079
152.7750,17.1250
152.6668,17.1079
152.5693,17.0582
152.4918,16.9807
152.4421,16.8832
152.4250,16.7750
152.4421,16.6668
152.4918,16.5693
152.5693,16.4918
152.6668,16.4421
152.7750,16.4250
Z" /> 
<path style="fill:#000000; fill-opacity:1.0000; stroke:none;fill-rule:evenodd;"
d="M 160.3832,16.4421
160.4807,16.4918
160.5582,16.5693
160.6079,16.6668
160.6250,16.7750
160.6079,16.8832
160.5582,16.9807
160.4807,17.0582
160.3832,17.1079
160.2750,17.1250
160.1668,17.1079
160.0693,17.0582
159.9918,16.9807
159.9421,16.8832
159.9250,16.7750
159.9421,16.6668
159.9918,16.5693
160.0693,16.4918
160.1668,16.4421
160.2750,16.4250
Z" /> 
</g>
<g style="fill:none; 
stroke:#000000; stroke-width:0.0500; stroke-opacity:1; 
stroke-linecap:round; stroke-linejoin:round;">
<circle cx="8.7750" cy="5.0250" r="1.5000" /> 
<circle cx="8.7750" cy="57.0250" r="1.5000" /> 
<circle cx="173.7750" cy="57.0250" r="1.5000" /> 
<circle cx="173.7750" cy="5.0250" r="1.5000" /> 
<path d="M173.7750 62.0250
L8.7750 62.0250
" />
<path d="M178.7750 12.0250 A2.7500 2.7500 0.0 0 0 181.5250 14.7750" />
<path d="M3.7750 49.7750 A2.7500 2.7500 0.0 0 0 1.0250 47.0250" />
<path d="M178.7750 5.0250
L178.7750 12.0250
" />
<path d="M178.7750 57.0250
L178.7750 49.7750
" />
<path d="M0.0250 46.0250 A1.0000 1.0000 0.0 0 0 1.0250 47.0250" />
<path d="M0.0250 15.7750
L0.0250 46.0250
" />
<path d="M178.7750 5.0250 A5.0000 5.0000 0.0 0 0 173.7750 0.0250" />
<path d="M1.0250 14.7750 A1.0000 1.0000 0.0 0 0 0.0250 15.7750" />
<path d="M8.7750 0.0250 A5.0000 5.0000 0.0 0 0 3.7750 5.0250" />
<path d="M181.5250 47.0250 A2.7500 2.7500 0.0 0 0 178.7750 49.7750" />
<path d="M182.5250 15.7750
L182.5250 46.0250
" />
<path d="M181.5250 47.0250 A1.0000 1.0000 0.0 0 0 182.5250 46.0250" />
<path d="M182.5250 15.7750 A1.0000 1.0000 0.0 0 0 181.5250 14.7750" />
<path d="M3.7750 5.0250
L3.7750 12.0250
" />
<path d="M8.7750 0.0250
L173.7750 0.0250
" />
<path d="M173.7750 62.0250 A5.0000 5.0000 0.0 0 0 178.7750 57.0250" />
<path d="M3.7750 57.0250
L3.7750 49.7750
" />
<path d="M3.7750 57.0250 A5.0000 5.0000 0.0 0 0 8.7750 62.0250" />
<path d="M1.0250 14.7750 A2.7500 2.7500 0.0 0 0 3.7750 12.0250" />
<circle cx="109.5250" cy="23.1320" r="0.8750" /> 
<circle cx="111.2000" cy="26.4570" r="0.8750" /> 
<circle cx="111.3250" cy="30.9570" r="0.8750" /> 
<circle cx="111.2000" cy="35.4570" r="0.8750" /> 
<circle cx="109.5250" cy="38.7570" r="0.8750" /> 
<circle cx="105.5250" cy="39.7820" r="0.8750" /> 
<circle cx="101.5000" cy="38.7820" r="0.8750" /> 
<circle cx="100.1500" cy="35.4570" r="0.8750" /> 
<circle cx="100.0250" cy="30.9570" r="0.8750" /> 
<circle cx="100.1500" cy="26.4570" r="0.8750" /> 
<circle cx="101.5250" cy="23.1320" r="0.8750" /> 
<circle cx="105.5250" cy="22.1320" r="0.8750" /> 
<path style="fill:#000000; fill-opacity:1.0000; stroke:none;fill-rule:evenodd;"
d="M 152.8832,16.4421
152.9807,16.4918
153.0582,16.5693
153.1079,16.6668
153.1250,16.7750
153.1079,16.8832
153.0582,16.9807
152.9807,17.0582
152.8832,17.1079
152.7750,17.1250
152.6668,17.1079
152.5693,17.0582
152.4918,16.9807
152.4421,16.8832
152.4250,16.7750
152.4421,16.6668
152.4918,16.5693
152.5693,16.4918
152.6668,16.4421
152.7750,16.4250
Z" /> 
<path style="fill:#000000; fill-opacity:1.0000; stroke:none;fill-rule:evenodd;"
d="M 160.3832,16.4421
160.4807,16.4918
160.5582,16.5693
160.6079,16.6668
160.6250,16.7750
160.6079,16.8832
160.5582,16.9807
160.4807,17.0582
160.3832,17.1079
160.2750,17.1250
160.1668,17.1079
160.0693,17.0582
159.9918,16.9807
159.9421,16.8832
159.9250,16.7750
159.9421,16.6668
159.9918,16.5693
160.0693,16.4918
160.1668,16.4421
160.2750,16.4250
Z" /> 
</g> 
</svg>
