<?xml version="1.0" standalone="no"?>
 <!DOCTYPE svg PUBLIC "-//W3C//DTD SVG 1.1//EN" 
 "http://www.w3.org/Graphics/SVG/1.1/DTD/svg11.dtd"> 
<svg
  xmlns:svg="http://www.w3.org/2000/svg"
  xmlns="http://www.w3.org/2000/svg"
  xmlns:xlink="http://www.w3.org/1999/xlink"
  version="1.1"
  width="25.8826mm" height="17.0434mm" viewBox="0.0000 0.0000 25.8826 17.0434">
<title>SVG Image created as TouchSensor-B_Mask.svg date 2025/02/10 22:38:42 </title>
  <desc>Image generated by PCBNEW </desc>
<g style="fill:#000000; fill-opacity:1.0000;stroke:#000000; stroke-opacity:1.0000;
stroke-linecap:round; stroke-linejoin:round;"
 transform="translate(0 0) scale(1 1)">
<path style="fill:#000000; fill-opacity:1.0000; stroke:none;fill-rule:evenodd;"
d="M 20.6650,3.3450
20.9040,3.3563
21.2191,3.4062
21.5254,3.4952
21.8181,3.6218
22.0927,3.7842
22.3447,3.9797
22.5703,4.2053
22.7658,4.4573
22.9282,4.7319
23.0548,5.0246
23.1438,5.3309
23.1937,5.6460
23.2050,5.8850
23.2050,10.9650
23.1937,11.2040
23.1438,11.5191
23.0548,11.8254
22.9282,12.1181
22.7658,12.3927
22.5703,12.6447
22.3447,12.8703
22.0927,13.0658
21.8181,13.2282
21.5254,13.3548
21.2191,13.4438
20.9040,13.4937
20.6650,13.5050
15.5850,13.5050
15.3460,13.4937
15.0309,13.4438
14.7246,13.3548
14.4319,13.2282
14.1573,13.0658
13.9053,12.8703
13.6797,12.6447
13.4842,12.3927
13.3218,12.1181
13.1952,11.8254
13.1062,11.5191
13.0563,11.2040
13.0450,10.9650
13.0450,5.8850
13.0563,5.6460
13.1062,5.3309
13.1952,5.0246
13.3218,4.7319
13.4842,4.4573
13.6797,4.2053
13.9053,3.9797
14.1573,3.7842
14.4319,3.6218
14.7246,3.4952
15.0309,3.4062
15.3460,3.3563
15.5850,3.3450
Z" /> 
<path style="fill:none; 
stroke:#000000; stroke-width:0.0500; stroke-opacity:1; 
stroke-linecap:round; stroke-linejoin:round;fill:none"
d="M 0.6250,0.0250
25.8750,0.0250
25.8750,17.0250
0.6250,17.0250
Z" /> 
</g> 
</svg>
