<?xml version="1.0" standalone="no"?>
 <!DOCTYPE svg PUBLIC "-//W3C//DTD SVG 1.1//EN" 
 "http://www.w3.org/Graphics/SVG/1.1/DTD/svg11.dtd"> 
<svg
  xmlns:svg="http://www.w3.org/2000/svg"
  xmlns="http://www.w3.org/2000/svg"
  xmlns:xlink="http://www.w3.org/1999/xlink"
  version="1.1"
  width="25.8826mm" height="17.0434mm" viewBox="0.0000 0.0000 25.8826 17.0434">
<title>SVG Image created as TouchSensor-B_Cu.svg date 2025/02/10 22:38:42 </title>
  <desc>Image generated by PCBNEW </desc>
<g style="fill:#000000; fill-opacity:1.0000;stroke:#000000; stroke-opacity:1.0000;
stroke-linecap:round; stroke-linejoin:round;"
 transform="translate(0 0) scale(1 1)">
<path style="fill:none; 
stroke:#000000; stroke-width:0.0500; stroke-opacity:1; 
stroke-linecap:round; stroke-linejoin:round;fill:none"
d="M 0.6250,0.0250
25.8750,0.0250
25.8750,17.0250
0.6250,17.0250
Z" /> 
<path style="fill:#000000; fill-opacity:1.0000; stroke:none;fill-rule:evenodd;"
d="M 20.6250,3.4250
20.8251,3.4330
21.1422,3.4791
21.4507,3.5653
21.7457,3.6903
22.0222,3.8519
22.2759,4.0476
22.5024,4.2741
22.6981,4.5278
22.8597,4.8043
22.9847,5.0993
23.0709,5.4078
23.1170,5.7249
23.1250,5.9250
23.1250,10.9250
23.1170,11.1251
23.0709,11.4422
22.9847,11.7507
22.8597,12.0457
22.6981,12.3222
22.5024,12.5759
22.2759,12.8024
22.0222,12.9981
21.7457,13.1597
21.4507,13.2847
21.1422,13.3709
20.8251,13.4170
20.6250,13.4250
15.6250,13.4250
15.4249,13.4170
15.1078,13.3709
14.7993,13.2847
14.5043,13.1597
14.2278,12.9981
13.9741,12.8024
13.7476,12.5759
13.5519,12.3222
13.3903,12.0457
13.2653,11.7507
13.1791,11.4422
13.1330,11.1251
13.1250,10.9250
13.1250,5.9250
13.1330,5.7249
13.1791,5.4078
13.2653,5.0993
13.3903,4.8043
13.5519,4.5278
13.7476,4.2741
13.9741,4.0476
14.2278,3.8519
14.5043,3.6903
14.7993,3.5653
15.1078,3.4791
15.4249,3.4330
15.6250,3.4250
Z" /> 
</g>
<g style="fill:#000000; fill-opacity:1.0000; stroke:none;">
<circle cx="4.3750" cy="15.5250" r="0.3500" /> 
</g>
<g style="fill:#000000; fill-opacity:1.0000; stroke:none;">
<circle cx="12.1250" cy="9.5250" r="0.3500" /> 
</g>
<g style="fill:#000000; fill-opacity:1.0000; stroke:none;">
<circle cx="12.1250" cy="12.5250" r="0.3500" /> 
</g>
<g style="fill:#000000; fill-opacity:1.0000; stroke:none;">
<circle cx="7.3750" cy="8.7750" r="0.3500" /> 
</g>
<g style="fill:#000000; fill-opacity:1.0000; stroke:none;">
<circle cx="24.6250" cy="1.5250" r="0.3500" /> 
</g>
<g style="fill:#000000; fill-opacity:1.0000; stroke:none;">
<circle cx="3.1250" cy="1.5250" r="0.3500" /> 
</g>
<g style="fill:#000000; fill-opacity:1.0000; stroke:none;">
<circle cx="24.6250" cy="15.7750" r="0.3500" /> 
</g>
<g style="fill:#000000; fill-opacity:1.0000; stroke:none;">
<circle cx="7.8750" cy="7.5250" r="0.3500" /> 
</g>
<g style="fill:none; 
stroke:#000000; stroke-width:0.3000; stroke-opacity:1; 
stroke-linecap:round; stroke-linejoin:round;">
<path d="M7.8750 7.5250
L8.7750 8.4250
" />
<path d="M8.7750 8.4250
L18.1250 8.4250
" />
<path style="fill:#000000; fill-opacity:1.0000; stroke:none;fill-rule:evenodd;"
d="M 25.8180,0.0447
25.8638,0.0975
25.8750,0.1490
25.8750,16.9010
25.8553,16.9680
25.8025,17.0138
25.7510,17.0250
0.7490,17.0250
0.6820,17.0053
0.6362,16.9525
0.6250,16.9010
0.6250,7.5250
7.0198,7.5250
7.0385,7.7028
7.0385,7.7028
7.0937,7.8728
7.0938,7.8728
7.1831,8.0277
7.2248,8.0739
7.3028,8.1605
7.3028,8.1605
7.3028,8.1605
7.4474,8.2656
7.6107,8.3383
7.7750,8.3732
7.8365,8.4064
7.8367,8.4067
8.2697,8.8397
8.3603,8.9303
8.3603,8.9303
8.4669,9.0015
8.4669,9.0015
8.4669,9.0015
8.5853,9.0505
8.5853,9.0505
8.5853,9.0505
8.7109,9.0755
8.7109,9.0755
12.5005,9.0755
12.5675,9.0952
12.6133,9.1480
12.6245,9.1995
12.6245,11.0415
12.6309,11.1870
12.6815,11.5328
12.7720,11.8704
12.7720,11.8704
12.9010,12.1952
12.9010,12.1952
12.9010,12.1952
13.0669,12.5029
13.2674,12.7892
13.2674,12.7892
13.4997,13.0503
13.4997,13.0503
13.7608,13.2826
13.7608,13.2826
13.7608,13.2826
14.0471,13.4831
14.3548,13.6490
14.3548,13.6490
14.3548,13.6490
14.5958,13.7447
14.6796,13.7780
15.0172,13.8685
15.3630,13.9191
15.5085,13.9255
20.7415,13.9255
20.8870,13.9191
21.2328,13.8685
21.5704,13.7780
21.8062,13.6844
21.8952,13.6490
21.8952,13.6490
21.8952,13.6490
22.2029,13.4831
22.4892,13.2826
22.7503,13.0503
22.9826,12.7892
23.1831,12.5029
23.3490,12.1952
23.4780,11.8704
23.5685,11.5328
23.6191,11.1870
23.6255,11.0415
23.6255,5.8085
23.6191,5.6630
23.5685,5.3172
23.4780,4.9796
23.4447,4.8958
23.3490,4.6548
23.3490,4.6548
23.3490,4.6548
23.1831,4.3471
22.9826,4.0608
22.9826,4.0608
22.9826,4.0608
22.7503,3.7997
22.7503,3.7997
22.4892,3.5674
22.4892,3.5674
22.4892,3.5674
22.2029,3.3669
21.8952,3.2010
21.8952,3.2010
21.8952,3.2010
21.8952,3.2010
21.5704,3.0720
21.5704,3.0720
21.2328,2.9815
21.1175,2.9646
20.8870,2.9309
20.7415,2.9245
20.7415,2.9245
15.5085,2.9245
15.3747,2.9303
15.3630,2.9309
15.2247,2.9511
15.0172,2.9815
14.6796,3.0720
14.6796,3.0720
14.3548,3.2010
14.3548,3.2010
14.0471,3.3669
14.0471,3.3669
14.0471,3.3669
13.8565,3.5004
13.7608,3.5674
13.4997,3.7997
13.4997,3.7997
13.2674,4.0608
13.2674,4.0608
13.0669,4.3471
13.0669,4.3471
13.0669,4.3471
12.9010,4.6548
12.9010,4.6548
12.7720,4.9796
12.7720,4.9796
12.6815,5.3172
12.6309,5.6630
12.6245,5.8085
12.6245,7.6505
12.6048,7.7175
12.5520,7.7633
12.5005,7.7745
9.0958,7.7745
9.0288,7.7548
9.0081,7.7382
8.7536,7.4837
8.7201,7.4224
8.7180,7.4090
8.7115,7.3472
8.6563,7.1772
8.6562,7.1772
8.5669,7.0223
8.5200,6.9703
8.4472,6.8895
8.4472,6.8895
8.4472,6.8895
8.4472,6.8895
8.3026,6.7844
8.1393,6.7117
8.1393,6.7117
8.0116,6.6845
7.9644,6.6745
7.7856,6.6745
7.7550,6.6810
7.6107,6.7117
7.6107,6.7117
7.4474,6.7844
7.3028,6.8895
7.1831,7.0223
7.0938,7.1772
7.0937,7.1772
7.0385,7.3472
7.0385,7.3472
7.0198,7.5250
0.6250,7.5250
0.6250,0.1490
0.6447,0.0820
0.6975,0.0362
0.7490,0.0250
25.7510,0.0250
Z" /> 
</g>
<g style="fill:#FFFFFF; fill-opacity:1.0000; stroke:none;">
<circle cx="4.3750" cy="15.5250" r="0.1500" /> 
</g>
<g style="fill:#FFFFFF; fill-opacity:1.0000; stroke:none;">
<circle cx="12.1250" cy="9.5250" r="0.1500" /> 
</g>
<g style="fill:#FFFFFF; fill-opacity:1.0000; stroke:none;">
<circle cx="12.1250" cy="12.5250" r="0.1500" /> 
</g>
<g style="fill:#FFFFFF; fill-opacity:1.0000; stroke:none;">
<circle cx="7.3750" cy="8.7750" r="0.1500" /> 
</g>
<g style="fill:#FFFFFF; fill-opacity:1.0000; stroke:none;">
<circle cx="24.6250" cy="1.5250" r="0.1500" /> 
</g>
<g style="fill:#FFFFFF; fill-opacity:1.0000; stroke:none;">
<circle cx="3.1250" cy="1.5250" r="0.1500" /> 
</g>
<g style="fill:#FFFFFF; fill-opacity:1.0000; stroke:none;">
<circle cx="24.6250" cy="15.7750" r="0.1500" /> 
</g>
<g style="fill:#FFFFFF; fill-opacity:1.0000; stroke:none;">
<circle cx="7.8750" cy="7.5250" r="0.1500" /> 
</g> 
</svg>
