<?xml version="1.0" standalone="no"?>
 <!DOCTYPE svg PUBLIC "-//W3C//DTD SVG 1.1//EN" 
 "http://www.w3.org/Graphics/SVG/1.1/DTD/svg11.dtd"> 
<svg
  xmlns:svg="http://www.w3.org/2000/svg"
  xmlns="http://www.w3.org/2000/svg"
  xmlns:xlink="http://www.w3.org/1999/xlink"
  version="1.1"
  width="25.8826mm" height="17.0434mm" viewBox="0.0000 0.0000 25.8826 17.0434">
<title>SVG Image created as TouchSensor-F_Cu.svg date 2025/02/08 23:19:10 </title>
  <desc>Image generated by PCBNEW </desc>
<g style="fill:#000000; fill-opacity:1.0000;stroke:#000000; stroke-opacity:1.0000;
stroke-linecap:round; stroke-linejoin:round;"
 transform="translate(0 0) scale(1 1)">
<path style="fill:none; 
stroke:#000000; stroke-width:0.0500; stroke-opacity:1; 
stroke-linecap:round; stroke-linejoin:round;fill:none"
d="M 0.6250,0.0250
25.8750,0.0250
25.8750,17.0250
0.6250,17.0250
Z" /> 
<path style="fill:#000000; fill-opacity:1.0000; stroke:none;fill-rule:evenodd;"
d="M 7.9000,9.6250
7.9114,9.5676
7.9439,9.5189
7.9926,9.4864
8.0500,9.4750
9.2250,9.4750
9.2824,9.4864
9.3311,9.5189
9.3636,9.5676
9.3750,9.6250
9.3750,9.9250
9.3636,9.9824
9.3311,10.0311
9.2824,10.0636
9.2250,10.0750
8.0500,10.0750
7.9926,10.0636
7.9439,10.0311
7.9114,9.9824
7.9000,9.9250
Z" /> 
<path style="fill:#000000; fill-opacity:1.0000; stroke:none;fill-rule:evenodd;"
d="M 7.9000,11.5250
7.9114,11.4676
7.9439,11.4189
7.9926,11.3864
8.0500,11.3750
9.2250,11.3750
9.2824,11.3864
9.3311,11.4189
9.3636,11.4676
9.3750,11.5250
9.3750,11.8250
9.3636,11.8824
9.3311,11.9311
9.2824,11.9636
9.2250,11.9750
8.0500,11.9750
7.9926,11.9636
7.9439,11.9311
7.9114,11.8824
7.9000,11.8250
Z" /> 
<path style="fill:#000000; fill-opacity:1.0000; stroke:none;fill-rule:evenodd;"
d="M 9.7750,10.5750
9.7864,10.5176
9.8189,10.4689
9.8676,10.4364
9.9250,10.4250
11.1000,10.4250
11.1574,10.4364
11.2061,10.4689
11.2386,10.5176
11.2500,10.5750
11.2500,10.8750
11.2386,10.9324
11.2061,10.9811
11.1574,11.0136
11.1000,11.0250
9.9250,11.0250
9.8676,11.0136
9.8189,10.9811
9.7864,10.9324
9.7750,10.8750
Z" /> 
<path style="fill:#000000; fill-opacity:1.0000; stroke:none;fill-rule:evenodd;"
d="M 7.8375,13.4250
7.8489,13.3676
7.8814,13.3189
7.9301,13.2864
7.9875,13.2750
9.1625,13.2750
9.2199,13.2864
9.2686,13.3189
9.3011,13.3676
9.3125,13.4250
9.3125,13.7250
9.3011,13.7824
9.2686,13.8311
9.2199,13.8636
9.1625,13.8750
7.9875,13.8750
7.9301,13.8636
7.8814,13.8311
7.8489,13.7824
7.8375,13.7250
Z" /> 
<path style="fill:#000000; fill-opacity:1.0000; stroke:none;fill-rule:evenodd;"
d="M 7.8375,15.3250
7.8489,15.2676
7.8814,15.2189
7.9301,15.1864
7.9875,15.1750
9.1625,15.1750
9.2199,15.1864
9.2686,15.2189
9.3011,15.2676
9.3125,15.3250
9.3125,15.6250
9.3011,15.6824
9.2686,15.7311
9.2199,15.7636
9.1625,15.7750
7.9875,15.7750
7.9301,15.7636
7.8814,15.7311
7.8489,15.6824
7.8375,15.6250
Z" /> 
<path style="fill:#000000; fill-opacity:1.0000; stroke:none;fill-rule:evenodd;"
d="M 9.7125,14.3750
9.7239,14.3176
9.7564,14.2689
9.8051,14.2364
9.8625,14.2250
11.0375,14.2250
11.0949,14.2364
11.1436,14.2689
11.1761,14.3176
11.1875,14.3750
11.1875,14.6750
11.1761,14.7324
11.1436,14.7811
11.0949,14.8136
11.0375,14.8250
9.8625,14.8250
9.8051,14.8136
9.7564,14.7811
9.7239,14.7324
9.7125,14.6750
Z" /> 
<path style="fill:#000000; fill-opacity:1.0000; stroke:none;fill-rule:evenodd;"
d="M 17.0250,9.8750
16.9293,9.8560
16.8482,9.8018
16.7940,9.7207
16.7750,9.6250
16.7750,8.9250
16.7940,8.8293
16.8482,8.7482
16.9293,8.6940
17.0250,8.6750
17.5250,8.6750
17.6207,8.6940
17.7018,8.7482
17.7560,8.8293
17.7750,8.9250
17.7750,9.6250
17.7560,9.7207
17.7018,9.8018
17.6207,9.8560
17.5250,9.8750
Z" /> 
<path style="fill:#000000; fill-opacity:1.0000; stroke:none;fill-rule:evenodd;"
d="M 17.0250,8.1750
16.9293,8.1560
16.8482,8.1018
16.7940,8.0207
16.7750,7.9250
16.7750,7.2250
16.7940,7.1293
16.8482,7.0482
16.9293,6.9940
17.0250,6.9750
17.5250,6.9750
17.6207,6.9940
17.7018,7.0482
17.7560,7.1293
17.7750,7.2250
17.7750,7.9250
17.7560,8.0207
17.7018,8.1018
17.6207,8.1560
17.5250,8.1750
Z" /> 
<path style="fill:#000000; fill-opacity:1.0000; stroke:none;fill-rule:evenodd;"
d="M 18.7250,9.8750
18.6293,9.8560
18.5482,9.8018
18.4940,9.7207
18.4750,9.6250
18.4750,8.9250
18.4940,8.8293
18.5482,8.7482
18.6293,8.6940
18.7250,8.6750
19.2250,8.6750
19.3207,8.6940
19.4018,8.7482
19.4560,8.8293
19.4750,8.9250
19.4750,9.6250
19.4560,9.7207
19.4018,9.8018
19.3207,9.8560
19.2250,9.8750
Z" /> 
<path style="fill:#000000; fill-opacity:1.0000; stroke:none;fill-rule:evenodd;"
d="M 18.7250,8.1750
18.6293,8.1560
18.5482,8.1018
18.4940,8.0207
18.4750,7.9250
18.4750,7.2250
18.4940,7.1293
18.5482,7.0482
18.6293,6.9940
18.7250,6.9750
19.2250,6.9750
19.3207,6.9940
19.4018,7.0482
19.4560,7.1293
19.4750,7.2250
19.4750,7.9250
19.4560,8.0207
19.4018,8.1018
19.3207,8.1560
19.2250,8.1750
Z" /> 
<path style="fill:#000000; fill-opacity:1.0000; stroke:none;fill-rule:evenodd;"
d="M 13.8250,12.4250
13.7563,12.4170
13.6555,12.3725
13.5775,12.2945
13.5330,12.1937
13.5250,12.1250
13.5250,11.5250
13.5330,11.4563
13.5775,11.3555
13.6555,11.2775
13.7563,11.2330
13.8250,11.2250
15.7250,11.2250
15.7937,11.2330
15.8945,11.2775
15.9725,11.3555
16.0170,11.4563
16.0250,11.5250
16.0250,12.1250
16.0170,12.1937
15.9725,12.2945
15.8945,12.3725
15.7937,12.4170
15.7250,12.4250
Z" /> 
<path style="fill:#000000; fill-opacity:1.0000; stroke:none;fill-rule:evenodd;"
d="M 13.8250,9.8750
13.7563,9.8670
13.6555,9.8225
13.5775,9.7445
13.5330,9.6437
13.5250,9.5750
13.5250,8.9750
13.5330,8.9063
13.5775,8.8055
13.6555,8.7275
13.7563,8.6830
13.8250,8.6750
15.7250,8.6750
15.7937,8.6830
15.8945,8.7275
15.9725,8.8055
16.0170,8.9063
16.0250,8.9750
16.0250,9.5750
16.0170,9.6437
15.9725,9.7445
15.8945,9.8225
15.7937,9.8670
15.7250,9.8750
Z" /> 
<path style="fill:#000000; fill-opacity:1.0000; stroke:none;fill-rule:evenodd;"
d="M 13.8250,8.1750
13.7563,8.1670
13.6555,8.1225
13.5775,8.0445
13.5330,7.9437
13.5250,7.8750
13.5250,7.2750
13.5330,7.2063
13.5775,7.1055
13.6555,7.0275
13.7563,6.9830
13.8250,6.9750
15.7250,6.9750
15.7937,6.9830
15.8945,7.0275
15.9725,7.1055
16.0170,7.2063
16.0250,7.2750
16.0250,7.8750
16.0170,7.9437
15.9725,8.0445
15.8945,8.1225
15.7937,8.1670
15.7250,8.1750
Z" /> 
<path style="fill:#000000; fill-opacity:1.0000; stroke:none;fill-rule:evenodd;"
d="M 13.8250,5.4250
13.7563,5.4170
13.6555,5.3725
13.5775,5.2945
13.5330,5.1937
13.5250,5.1250
13.5250,4.5250
13.5330,4.4563
13.5775,4.3555
13.6555,4.2775
13.7563,4.2330
13.8250,4.2250
15.7250,4.2250
15.7937,4.2330
15.8945,4.2775
15.9725,4.3555
16.0170,4.4563
16.0250,4.5250
16.0250,5.1250
16.0170,5.1937
15.9725,5.2945
15.8945,5.3725
15.7937,5.4170
15.7250,5.4250
Z" /> 
<path style="fill:#000000; fill-opacity:1.0000; stroke:none;fill-rule:evenodd;"
d="M 20.5250,12.4250
20.4563,12.4170
20.3555,12.3725
20.2775,12.2945
20.2330,12.1937
20.2250,12.1250
20.2250,11.5250
20.2330,11.4563
20.2775,11.3555
20.3555,11.2775
20.4563,11.2330
20.5250,11.2250
22.4250,11.2250
22.4937,11.2330
22.5945,11.2775
22.6725,11.3555
22.7170,11.4563
22.7250,11.5250
22.7250,12.1250
22.7170,12.1937
22.6725,12.2945
22.5945,12.3725
22.4937,12.4170
22.4250,12.4250
Z" /> 
<path style="fill:#000000; fill-opacity:1.0000; stroke:none;fill-rule:evenodd;"
d="M 20.5250,9.8750
20.4563,9.8670
20.3555,9.8225
20.2775,9.7445
20.2330,9.6437
20.2250,9.5750
20.2250,8.9750
20.2330,8.9063
20.2775,8.8055
20.3555,8.7275
20.4563,8.6830
20.5250,8.6750
22.4250,8.6750
22.4937,8.6830
22.5945,8.7275
22.6725,8.8055
22.7170,8.9063
22.7250,8.9750
22.7250,9.5750
22.7170,9.6437
22.6725,9.7445
22.5945,9.8225
22.4937,9.8670
22.4250,9.8750
Z" /> 
<path style="fill:#000000; fill-opacity:1.0000; stroke:none;fill-rule:evenodd;"
d="M 20.5250,8.1750
20.4563,8.1670
20.3555,8.1225
20.2775,8.0445
20.2330,7.9437
20.2250,7.8750
20.2250,7.2750
20.2330,7.2063
20.2775,7.1055
20.3555,7.0275
20.4563,6.9830
20.5250,6.9750
22.4250,6.9750
22.4937,6.9830
22.5945,7.0275
22.6725,7.1055
22.7170,7.2063
22.7250,7.2750
22.7250,7.8750
22.7170,7.9437
22.6725,8.0445
22.5945,8.1225
22.4937,8.1670
22.4250,8.1750
Z" /> 
<path style="fill:#000000; fill-opacity:1.0000; stroke:none;fill-rule:evenodd;"
d="M 20.5250,5.4250
20.4563,5.4170
20.3555,5.3725
20.2775,5.2945
20.2330,5.1937
20.2250,5.1250
20.2250,4.5250
20.2330,4.4563
20.2775,4.3555
20.3555,4.2775
20.4563,4.2330
20.5250,4.2250
22.4250,4.2250
22.4937,4.2330
22.5945,4.2775
22.6725,4.3555
22.7170,4.4563
22.7250,4.5250
22.7250,5.1250
22.7170,5.1937
22.6725,5.2945
22.5945,5.3725
22.4937,5.4170
22.4250,5.4250
Z" /> 
<path style="fill:#000000; fill-opacity:1.0000; stroke:none;fill-rule:evenodd;"
d="M 13.5500,15.3250
13.4430,15.3094
13.3321,15.2552
13.2448,15.1679
13.1906,15.0570
13.1750,14.9500
13.1750,14.2000
13.1906,14.0930
13.2448,13.9821
13.3321,13.8948
13.4430,13.8406
13.5500,13.8250
15.8000,13.8250
15.9070,13.8406
16.0179,13.8948
16.1052,13.9821
16.1594,14.0930
16.1750,14.2000
16.1750,14.9500
16.1594,15.0570
16.1052,15.1679
16.0179,15.2552
15.9070,15.3094
15.8000,15.3250
Z" /> 
<path style="fill:#000000; fill-opacity:1.0000; stroke:none;fill-rule:evenodd;"
d="M 13.5500,3.0250
13.4430,3.0094
13.3321,2.9552
13.2448,2.8679
13.1906,2.7570
13.1750,2.6500
13.1750,1.9000
13.1906,1.7930
13.2448,1.6821
13.3321,1.5948
13.4430,1.5406
13.5500,1.5250
15.8000,1.5250
15.9070,1.5406
16.0179,1.5948
16.1052,1.6821
16.1594,1.7930
16.1750,1.9000
16.1750,2.6500
16.1594,2.7570
16.1052,2.8679
16.0179,2.9552
15.9070,3.0094
15.8000,3.0250
Z" /> 
<path style="fill:#000000; fill-opacity:1.0000; stroke:none;fill-rule:evenodd;"
d="M 20.4500,15.3250
20.3430,15.3094
20.2321,15.2552
20.1448,15.1679
20.0906,15.0570
20.0750,14.9500
20.0750,14.2000
20.0906,14.0930
20.1448,13.9821
20.2321,13.8948
20.3430,13.8406
20.4500,13.8250
22.7000,13.8250
22.8070,13.8406
22.9179,13.8948
23.0052,13.9821
23.0594,14.0930
23.0750,14.2000
23.0750,14.9500
23.0594,15.0570
23.0052,15.1679
22.9179,15.2552
22.8070,15.3094
22.7000,15.3250
Z" /> 
<path style="fill:#000000; fill-opacity:1.0000; stroke:none;fill-rule:evenodd;"
d="M 20.4500,3.0250
20.3430,3.0094
20.2321,2.9552
20.1448,2.8679
20.0906,2.7570
20.0750,2.6500
20.0750,1.9000
20.0906,1.7930
20.1448,1.6821
20.2321,1.5948
20.3430,1.5406
20.4500,1.5250
22.7000,1.5250
22.8070,1.5406
22.9179,1.5948
23.0052,1.6821
23.0594,1.7930
23.0750,1.9000
23.0750,2.6500
23.0594,2.7570
23.0052,2.8679
22.9179,2.9552
22.8070,3.0094
22.7000,3.0250
Z" /> 
<path style="fill:#000000; fill-opacity:1.0000; stroke:none;fill-rule:evenodd;"
d="M 7.8250,3.9250
7.8364,3.8676
7.8689,3.8189
7.9176,3.7864
7.9750,3.7750
9.0000,3.7750
9.0574,3.7864
9.1061,3.8189
9.1386,3.8676
9.1500,3.9250
9.1500,4.2250
9.1386,4.2824
9.1061,4.3311
9.0574,4.3636
9.0000,4.3750
7.9750,4.3750
7.9176,4.3636
7.8689,4.3311
7.8364,4.2824
7.8250,4.2250
Z" /> 
<path style="fill:#000000; fill-opacity:1.0000; stroke:none;fill-rule:evenodd;"
d="M 7.8250,4.8750
7.8364,4.8176
7.8689,4.7689
7.9176,4.7364
7.9750,4.7250
9.0000,4.7250
9.0574,4.7364
9.1061,4.7689
9.1386,4.8176
9.1500,4.8750
9.1500,5.1750
9.1386,5.2324
9.1061,5.2811
9.0574,5.3136
9.0000,5.3250
7.9750,5.3250
7.9176,5.3136
7.8689,5.2811
7.8364,5.2324
7.8250,5.1750
Z" /> 
<path style="fill:#000000; fill-opacity:1.0000; stroke:none;fill-rule:evenodd;"
d="M 7.8250,5.8250
7.8364,5.7676
7.8689,5.7189
7.9176,5.6864
7.9750,5.6750
9.0000,5.6750
9.0574,5.6864
9.1061,5.7189
9.1386,5.7676
9.1500,5.8250
9.1500,6.1250
9.1386,6.1824
9.1061,6.2311
9.0574,6.2636
9.0000,6.2750
7.9750,6.2750
7.9176,6.2636
7.8689,6.2311
7.8364,6.1824
7.8250,6.1250
Z" /> 
<path style="fill:#000000; fill-opacity:1.0000; stroke:none;fill-rule:evenodd;"
d="M 10.1000,5.8250
10.1114,5.7676
10.1439,5.7189
10.1926,5.6864
10.2500,5.6750
11.2750,5.6750
11.3324,5.6864
11.3811,5.7189
11.4136,5.7676
11.4250,5.8250
11.4250,6.1250
11.4136,6.1824
11.3811,6.2311
11.3324,6.2636
11.2750,6.2750
10.2500,6.2750
10.1926,6.2636
10.1439,6.2311
10.1114,6.1824
10.1000,6.1250
Z" /> 
<path style="fill:#000000; fill-opacity:1.0000; stroke:none;fill-rule:evenodd;"
d="M 10.1000,4.8750
10.1114,4.8176
10.1439,4.7689
10.1926,4.7364
10.2500,4.7250
11.2750,4.7250
11.3324,4.7364
11.3811,4.7689
11.4136,4.8176
11.4250,4.8750
11.4250,5.1750
11.4136,5.2324
11.3811,5.2811
11.3324,5.3136
11.2750,5.3250
10.2500,5.3250
10.1926,5.3136
10.1439,5.2811
10.1114,5.2324
10.1000,5.1750
Z" /> 
<path style="fill:#000000; fill-opacity:1.0000; stroke:none;fill-rule:evenodd;"
d="M 10.1000,3.9250
10.1114,3.8676
10.1439,3.8189
10.1926,3.7864
10.2500,3.7750
11.2750,3.7750
11.3324,3.7864
11.3811,3.8189
11.4136,3.8676
11.4250,3.9250
11.4250,4.2250
11.4136,4.2824
11.3811,4.3311
11.3324,4.3636
11.2750,4.3750
10.2500,4.3750
10.1926,4.3636
10.1439,4.3311
10.1114,4.2824
10.1000,4.2250
Z" /> 
<path style="fill:#000000; fill-opacity:1.0000; stroke:none;fill-rule:evenodd;"
d="M 6.1250,6.3750
6.2015,6.3902
6.2664,6.4336
6.3098,6.4985
6.3250,6.5750
6.3250,6.9750
6.3098,7.0515
6.2664,7.1164
6.2015,7.1598
6.1250,7.1750
4.9250,7.1750
4.8485,7.1598
4.7836,7.1164
4.7402,7.0515
4.7250,6.9750
4.7250,6.5750
4.7402,6.4985
4.7836,6.4336
4.8485,6.3902
4.9250,6.3750
Z" /> 
<path style="fill:#000000; fill-opacity:1.0000; stroke:none;fill-rule:evenodd;"
d="M 6.1250,7.6250
6.2015,7.6402
6.2664,7.6836
6.3098,7.7485
6.3250,7.8250
6.3250,8.2250
6.3098,8.3015
6.2664,8.3664
6.2015,8.4098
6.1250,8.4250
4.9250,8.4250
4.8485,8.4098
4.7836,8.3664
4.7402,8.3015
4.7250,8.2250
4.7250,7.8250
4.7402,7.7485
4.7836,7.6836
4.8485,7.6402
4.9250,7.6250
Z" /> 
<path style="fill:#000000; fill-opacity:1.0000; stroke:none;fill-rule:evenodd;"
d="M 6.1250,8.8750
6.2015,8.8902
6.2664,8.9336
6.3098,8.9985
6.3250,9.0750
6.3250,9.4750
6.3098,9.5515
6.2664,9.6164
6.2015,9.6598
6.1250,9.6750
4.9250,9.6750
4.8485,9.6598
4.7836,9.6164
4.7402,9.5515
4.7250,9.4750
4.7250,9.0750
4.7402,8.9985
4.7836,8.9336
4.8485,8.8902
4.9250,8.8750
Z" /> 
<path style="fill:#000000; fill-opacity:1.0000; stroke:none;fill-rule:evenodd;"
d="M 3.8750,3.1750
3.9707,3.1940
4.0518,3.2482
4.1060,3.3293
4.1250,3.4250
4.1250,5.0250
4.1060,5.1207
4.0518,5.2018
3.9707,5.2560
3.8750,5.2750
1.3750,5.2750
1.2793,5.2560
1.1982,5.2018
1.1440,5.1207
1.1250,5.0250
1.1250,3.4250
1.1440,3.3293
1.1982,3.2482
1.2793,3.1940
1.3750,3.1750
Z" /> 
<path style="fill:#000000; fill-opacity:1.0000; stroke:none;fill-rule:evenodd;"
d="M 3.8750,10.7750
3.9707,10.7940
4.0518,10.8482
4.1060,10.9293
4.1250,11.0250
4.1250,12.6250
4.1060,12.7207
4.0518,12.8018
3.9707,12.8560
3.8750,12.8750
1.3750,12.8750
1.2793,12.8560
1.1982,12.8018
1.1440,12.7207
1.1250,12.6250
1.1250,11.0250
1.1440,10.9293
1.1982,10.8482
1.2793,10.7940
1.3750,10.7750
Z" /> 
<path style="fill:#000000; fill-opacity:1.0000; stroke:none;fill-rule:evenodd;"
d="M 11.3500,8.0500
11.3348,8.1265
11.2914,8.1914
11.2265,8.2348
11.1500,8.2500
10.7500,8.2500
10.6735,8.2348
10.6086,8.1914
10.5652,8.1265
10.5500,8.0500
10.5500,7.5000
10.5652,7.4235
10.6086,7.3586
10.6735,7.3152
10.7500,7.3000
11.1500,7.3000
11.2265,7.3152
11.2914,7.3586
11.3348,7.4235
11.3500,7.5000
Z" /> 
<path style="fill:#000000; fill-opacity:1.0000; stroke:none;fill-rule:evenodd;"
d="M 9.7000,8.0500
9.6848,8.1265
9.6414,8.1914
9.5765,8.2348
9.5000,8.2500
9.1000,8.2500
9.0235,8.2348
8.9586,8.1914
8.9152,8.1265
8.9000,8.0500
8.9000,7.5000
8.9152,7.4235
8.9586,7.3586
9.0235,7.3152
9.1000,7.3000
9.5000,7.3000
9.5765,7.3152
9.6414,7.3586
9.6848,7.4235
9.7000,7.5000
Z" /> 
<path style="fill:#000000; fill-opacity:1.0000; stroke:none;fill-rule:evenodd;"
d="M 8.2875,1.6000
8.3065,1.5043
8.3607,1.4232
8.4418,1.3690
8.5375,1.3500
9.0375,1.3500
9.1332,1.3690
9.2143,1.4232
9.2685,1.5043
9.2875,1.6000
9.2875,2.5500
9.2685,2.6457
9.2143,2.7268
9.1332,2.7810
9.0375,2.8000
8.5375,2.8000
8.4418,2.7810
8.3607,2.7268
8.3065,2.6457
8.2875,2.5500
Z" /> 
<path style="fill:#000000; fill-opacity:1.0000; stroke:none;fill-rule:evenodd;"
d="M 10.1875,1.6000
10.2065,1.5043
10.2607,1.4232
10.3418,1.3690
10.4375,1.3500
10.9375,1.3500
11.0332,1.3690
11.1143,1.4232
11.1685,1.5043
11.1875,1.6000
11.1875,2.5500
11.1685,2.6457
11.1143,2.7268
11.0332,2.7810
10.9375,2.8000
10.4375,2.8000
10.3418,2.7810
10.2607,2.7268
10.2065,2.6457
10.1875,2.5500
Z" /> 
</g>
<g style="fill:#000000; fill-opacity:1.0000; stroke:none;">
<circle cx="4.3750" cy="15.5250" r="0.3500" /> 
</g>
<g style="fill:#000000; fill-opacity:1.0000; stroke:none;">
<circle cx="12.1250" cy="9.5250" r="0.3500" /> 
</g>
<g style="fill:#000000; fill-opacity:1.0000; stroke:none;">
<circle cx="12.1250" cy="12.5250" r="0.3500" /> 
</g>
<g style="fill:#000000; fill-opacity:1.0000; stroke:none;">
<circle cx="7.3750" cy="8.7750" r="0.3500" /> 
</g>
<g style="fill:#000000; fill-opacity:1.0000; stroke:none;">
<circle cx="24.6250" cy="1.5250" r="0.3500" /> 
</g>
<g style="fill:#000000; fill-opacity:1.0000; stroke:none;">
<circle cx="3.1250" cy="1.5250" r="0.3500" /> 
</g>
<g style="fill:#000000; fill-opacity:1.0000; stroke:none;">
<circle cx="24.6250" cy="15.7750" r="0.3500" /> 
</g>
<g style="fill:#000000; fill-opacity:1.0000; stroke:none;">
<circle cx="7.8750" cy="7.5250" r="0.3500" /> 
</g>
<g style="fill:none; 
stroke:#000000; stroke-width:0.3000; stroke-opacity:1; 
stroke-linecap:round; stroke-linejoin:round;">
<path d="M10.7625 5.9750
L15.6750 5.9750
" />
<path d="M7.0750 2.0750
L8.7875 2.0750
" />
<path d="M10.7625 5.9750
L10.7625 5.0250
" />
<path d="M5.5250 3.6250
L7.0750 2.0750
" />
<path d="M15.6750 5.9750
L17.2750 7.5750
" />
<path d="M10.9500 7.7750
L10.9500 6.1625
" />
<path d="M10.3387 5.0250
L10.7625 5.0250
" />
<path d="M9.6250 4.3113
L10.3387 5.0250
" />
<path d="M5.5250 6.7750
L5.5250 3.6250
" />
<path d="M10.3387 6.0250
L10.7625 6.0250
" />
<path d="M10.9500 6.1625
L10.7625 5.9750
" />
<path d="M8.7875 2.0750
L9.6250 2.9125
" />
<path d="M17.2750 7.5750
L17.2750 9.2750
" />
<path d="M9.6250 2.9125
L9.6250 4.3113
" />
<path d="M5.5250 9.2750
L6.3250 9.2750
" />
<path d="M8.6375 11.6750
L11.2750 11.6750
" />
<path d="M12.1250 9.5250
L14.5250 9.5250
" />
<path d="M7.1750 5.7750
L7.9250 5.0250
" />
<path d="M7.9250 5.0250
L8.4875 5.0250
" />
<path d="M14.7750 7.5750
L14.7750 9.2750
" />
<path d="M11.2750 11.6750
L12.1250 12.5250
" />
<path d="M7.1750 8.4250
L7.1750 5.7750
" />
<path d="M14.5250 9.5250
L14.7750 9.2750
" />
<path d="M6.3250 9.2750
L7.1750 8.4250
" />
<path d="M8.4875 4.0750
L7.3250 4.0750
" />
<path d="M6.6750 7.6750
L6.3250 8.0250
" />
<path d="M4.3750 10.1125
L7.8375 13.5750
" />
<path d="M4.3750 8.3750
L4.3750 10.1125
" />
<path d="M6.6750 4.7250
L6.6750 7.6750
" />
<path d="M5.5250 8.0250
L4.7250 8.0250
" />
<path d="M7.8375 13.5750
L8.5750 13.5750
" />
<path d="M7.3250 4.0750
L6.6750 4.7250
" />
<path d="M6.3250 8.0250
L5.5250 8.0250
" />
<path d="M4.7250 8.0250
L4.3750 8.3750
" />
<path d="M8.4875 5.9750
L7.8750 6.5875
" />
<path d="M7.8750 6.5875
L7.8750 7.5250
" />
<path d="M7.3750 11.8613
L8.4387 12.9250
" />
<path d="M9.5250 12.9250
L10.4500 13.8500
" />
<path d="M8.4387 12.9250
L9.5250 12.9250
" />
<path d="M8.6375 9.7750
L7.3750 11.0375
" />
<path d="M7.3750 11.0375
L7.3750 11.8613
" />
<path d="M10.4500 13.8500
L10.4500 14.5250
" />
<path d="M8.6375 8.4375
L9.3000 7.7750
" />
<path d="M8.6375 9.7750
L8.6375 8.4375
" />
<path d="M18.9750 7.5750
L18.9750 9.2750
" />
<path d="M10.5125 10.7250
L17.5250 10.7250
" />
<path d="M17.5250 10.7250
L18.9750 9.2750
" />
<path style="fill:#000000; fill-opacity:1.0000; stroke:none;fill-rule:evenodd;"
d="M 25.8180,0.0447
25.8638,0.0975
25.8750,0.1490
25.8750,16.9010
25.8553,16.9680
25.8025,17.0138
25.7510,17.0250
0.7490,17.0250
0.6820,17.0053
0.6362,16.9525
0.6250,16.9010
0.6250,15.7250
7.3402,15.7250
7.3404,15.7275
7.3862,15.8852
7.4698,16.0266
7.4698,16.0266
7.5859,16.1427
7.5859,16.1427
7.7273,16.2263
7.7273,16.2263
7.8850,16.2721
7.8850,16.2721
7.9219,16.2750
7.9219,16.2750
8.3250,16.2750
8.8250,16.2750
9.2281,16.2750
9.2281,16.2750
9.2650,16.2721
9.2650,16.2721
9.4227,16.2263
9.4227,16.2263
9.5641,16.1427
9.5641,16.1427
9.6802,16.0266
9.6802,16.0266
9.7638,15.8852
9.7813,15.8250
13.7786,15.8250
13.7786,15.8250
15.5714,15.8250
15.5714,15.8250
20.6786,15.8250
20.6786,15.8250
22.4714,15.8250
22.4714,15.8250
21.5750,14.9286
21.5750,14.9286
20.6786,15.8250
15.5714,15.8250
14.6750,14.9286
14.6750,14.9286
13.7786,15.8250
9.7813,15.8250
9.8096,15.7275
9.8098,15.7250
9.8098,15.7250
8.8250,15.7250
8.8250,16.2750
8.3250,16.2750
8.3250,15.7250
7.3402,15.7250
7.3402,15.7250
0.6250,15.7250
0.6250,15.2250
7.3402,15.2250
7.3402,15.2250
8.3250,15.2250
8.3250,14.6750
7.9219,14.6750
7.8850,14.6779
7.8850,14.6779
7.7273,14.7237
7.7273,14.7237
7.5859,14.8073
7.5859,14.8073
7.4698,14.9234
7.4698,14.9234
7.3862,15.0648
7.3404,15.2225
7.3402,15.2250
0.6250,15.2250
0.6250,13.2357
0.6447,13.1687
0.6975,13.1229
0.7666,13.1130
0.8302,13.1420
0.8367,13.1480
0.9063,13.2177
0.9063,13.2177
1.0557,13.3098
1.0557,13.3098
1.0557,13.3098
1.2222,13.3650
1.3250,13.3755
1.3250,13.3755
3.9250,13.3755
3.9250,13.3755
4.0278,13.3650
4.1943,13.3098
4.3437,13.2177
4.4677,13.0937
4.5598,12.9443
4.6150,12.7778
4.6255,12.6750
4.6255,11.5823
4.6452,11.5153
4.6980,11.4695
4.7671,11.4596
4.8307,11.4886
4.8372,11.4946
7.4228,14.0803
7.4308,14.0856
7.4643,14.1210
7.4646,14.1207
7.4674,14.1242
7.4687,14.1256
7.4694,14.1269
7.4694,14.1269
7.5856,14.2431
7.5856,14.2431
7.5856,14.2431
7.7271,14.3267
7.7687,14.3388
7.8849,14.3726
7.8849,14.3726
7.8849,14.3726
7.9218,14.3755
9.0880,14.3755
9.1550,14.3952
9.2008,14.4480
9.2120,14.4995
9.2120,14.5510
9.1923,14.6180
9.1395,14.6638
9.0880,14.6750
8.8250,14.6750
8.8250,15.2250
9.4807,15.2250
9.5438,15.2423
9.6021,15.2767
9.6437,15.2888
9.7599,15.3226
9.7599,15.3226
9.7599,15.3226
9.7968,15.3255
9.7968,15.3255
11.1032,15.3255
11.1032,15.3255
11.1401,15.3226
11.1401,15.3226
11.1401,15.3226
11.1817,15.3105
11.2979,15.2767
11.4394,15.1931
11.5556,15.0769
11.6392,14.9354
11.6851,14.7776
11.6880,14.7407
11.6880,14.3093
11.6851,14.2724
11.6766,14.2431
11.6419,14.1239
12.6750,14.1239
12.6750,15.0261
12.6779,15.0688
12.7238,15.2535
12.8084,15.4240
12.8084,15.4240
12.9276,15.5724
12.9276,15.5724
13.0760,15.6916
13.1621,15.7343
14.3214,14.5750
14.3214,14.5750
15.0286,14.5750
15.0286,14.5750
16.1879,15.7343
16.2740,15.6916
16.4224,15.5724
16.5416,15.4240
16.5416,15.4240
16.6262,15.2535
16.6721,15.0688
16.6750,15.0261
16.6750,14.1239
19.5750,14.1239
19.5750,15.0261
19.5779,15.0688
19.6238,15.2535
19.7084,15.4240
19.7084,15.4240
19.8276,15.5724
19.8276,15.5724
19.9760,15.6916
20.0621,15.7343
21.2214,14.5750
21.2214,14.5750
21.9286,14.5750
21.9286,14.5750
23.0879,15.7343
23.1740,15.6916
23.3224,15.5724
23.4416,15.4240
23.4416,15.4240
23.5262,15.2535
23.5721,15.0688
23.5750,15.0261
23.5750,14.1239
23.5721,14.0812
23.5262,13.8965
23.4416,13.7260
23.4416,13.7260
23.3224,13.5776
23.3224,13.5776
23.1740,13.4584
23.0879,13.4157
21.9286,14.5750
21.2214,14.5750
20.0621,13.4157
19.9760,13.4584
19.8276,13.5776
19.8276,13.5776
19.7084,13.7260
19.7084,13.7260
19.6238,13.8965
19.5779,14.0812
19.5750,14.1239
16.6750,14.1239
16.6721,14.0812
16.6262,13.8965
16.5416,13.7260
16.5416,13.7260
16.4224,13.5776
16.4224,13.5776
16.2740,13.4584
16.1879,13.4157
15.0286,14.5750
14.3214,14.5750
13.1621,13.4157
13.0760,13.4584
12.9276,13.5776
12.9276,13.5776
12.8084,13.7260
12.8084,13.7260
12.7238,13.8965
12.6779,14.0812
12.6750,14.1239
11.6419,14.1239
11.6392,14.1146
11.6392,14.1146
11.6392,14.1146
11.5556,13.9731
11.5556,13.9731
11.5556,13.9731
11.4394,13.8569
11.4394,13.8569
11.2979,13.7733
11.2979,13.7733
11.1555,13.7319
11.0966,13.6943
11.0755,13.6603
11.0503,13.5994
11.0300,13.5505
11.0300,13.5505
11.0265,13.5419
10.9553,13.4353
10.8449,13.3250
13.7786,13.3250
14.6750,14.2214
15.5714,13.3250
20.6786,13.3250
21.5750,14.2214
22.4714,13.3250
20.6786,13.3250
15.5714,13.3250
13.7786,13.3250
10.8449,13.3250
10.4449,12.9250
14.0286,12.9250
14.0286,12.9250
15.5214,12.9250
15.5214,12.9250
20.7286,12.9250
20.7286,12.9250
22.2214,12.9250
22.2214,12.9250
21.4750,12.1786
21.4750,12.1786
20.7286,12.9250
15.5214,12.9250
14.7750,12.1786
14.7750,12.1786
14.0286,12.9250
10.4449,12.9250
9.9397,12.4197
9.8331,12.3485
9.8278,12.3457
9.8285,12.3443
9.7801,12.3053
9.7581,12.2390
9.7753,12.1714
9.8263,12.0852
9.8721,11.9275
9.8723,11.9250
9.8723,11.9250
8.5115,11.9250
8.4445,11.9053
8.3987,11.8525
8.3875,11.8010
8.3875,11.5490
8.4072,11.4820
8.4600,11.4362
8.5115,11.4250
9.5432,11.4250
9.6063,11.4423
9.6646,11.4767
9.6760,11.4801
9.8224,11.5226
9.8224,11.5226
9.8224,11.5226
9.8593,11.5255
9.8593,11.5255
11.1657,11.5255
11.1657,11.5255
11.2026,11.5226
11.2026,11.5226
11.2026,11.5226
11.2988,11.4946
11.3604,11.4767
11.4639,11.4155
11.5024,11.3928
11.5655,11.3755
12.9010,11.3755
12.9680,11.3952
13.0138,11.4480
13.0250,11.4995
13.0250,12.1699
13.0401,12.3041
13.0997,12.4743
13.1956,12.6269
13.3231,12.7544
13.4268,12.8196
14.6873,11.5591
14.7486,11.5256
14.8183,11.5306
14.8627,11.5591
16.1232,12.8196
16.2269,12.7544
16.2269,12.7544
16.3544,12.6269
16.4503,12.4743
16.5099,12.3041
16.5250,12.1699
16.5250,12.1699
16.5250,11.4995
16.5307,11.4801
19.7250,11.4801
19.7250,12.1699
19.7401,12.3041
19.7997,12.4743
19.8956,12.6269
20.0231,12.7544
20.1268,12.8196
21.1214,11.8250
21.1214,11.8250
21.8286,11.8250
21.8286,11.8250
22.8232,12.8196
22.9269,12.7544
22.9269,12.7544
23.0544,12.6269
23.1503,12.4743
23.2099,12.3041
23.2250,12.1699
23.2250,12.1699
23.2250,11.4801
23.2250,11.4801
23.2099,11.3459
23.1503,11.1757
23.0544,11.0231
22.9269,10.8956
22.8232,10.8304
21.8286,11.8250
21.1214,11.8250
20.1268,10.8304
20.0231,10.8956
19.8956,11.0231
19.7997,11.1757
19.7401,11.3459
19.7250,11.4801
16.5307,11.4801
16.5447,11.4325
16.5975,11.3867
16.6490,11.3755
17.5891,11.3755
17.6897,11.3555
17.7147,11.3505
17.8331,11.3015
17.9397,11.2303
18.4449,10.7250
20.7286,10.7250
21.4750,11.4714
22.2214,10.7250
20.7286,10.7250
18.4449,10.7250
18.7581,10.4118
18.8194,10.3783
18.8458,10.3755
19.2750,10.3755
19.2750,10.3755
19.2799,10.3750
20.7286,10.3750
20.7286,10.3750
22.2214,10.3750
22.2214,10.3750
21.4750,9.6286
21.4750,9.6286
20.7286,10.3750
19.2799,10.3750
19.3778,10.3650
19.5443,10.3098
19.6937,10.2177
19.7773,10.1340
19.8386,10.1006
19.9083,10.1055
19.9527,10.1341
20.0231,10.2044
20.1268,10.2696
21.3873,9.0091
21.4486,8.9756
21.5183,8.9806
21.5627,9.0091
22.8232,10.2696
22.9269,10.2044
22.9269,10.2044
23.0544,10.0769
23.1503,9.9243
23.2099,9.7541
23.2250,9.6199
23.2250,9.6199
23.2250,8.9301
23.2250,8.9301
23.2099,8.7959
23.1503,8.6257
23.0657,8.4910
23.0467,8.4237
23.0657,8.3590
23.1503,8.2243
23.2099,8.0541
23.2250,7.9199
23.2250,7.9199
23.2250,7.2301
23.2250,7.2301
23.2099,7.0959
23.1503,6.9257
23.0544,6.7731
22.9269,6.6456
22.8232,6.5804
21.5627,7.8409
21.5014,7.8744
21.4317,7.8694
21.3873,7.8409
20.1268,6.5804
20.0231,6.6456
19.9527,6.7159
19.8914,6.7494
19.8217,6.7444
19.7773,6.7159
19.6937,6.6323
19.6937,6.6323
19.5443,6.5402
19.3778,6.4850
19.3778,6.4850
19.2799,6.4750
20.7286,6.4750
21.4750,7.2214
22.2214,6.4750
20.7286,6.4750
19.2799,6.4750
19.2750,6.4745
18.6750,6.4745
18.6750,6.4745
18.5722,6.4850
18.5722,6.4850
18.4057,6.5402
18.4057,6.5402
18.2563,6.6323
18.2127,6.6760
18.1514,6.7094
18.0817,6.7044
18.0373,6.6760
17.9937,6.6323
17.9937,6.6323
17.8443,6.5402
17.6778,6.4850
17.6778,6.4850
17.5750,6.4745
17.5750,6.4745
17.1458,6.4745
17.0788,6.4548
17.0581,6.4382
16.5449,5.9250
20.7286,5.9250
20.7286,5.9250
22.2214,5.9250
22.2214,5.9250
21.4750,5.1786
21.4750,5.1786
20.7286,5.9250
16.5449,5.9250
16.3829,5.7629
16.3494,5.7016
16.3544,5.6319
16.3655,5.6093
16.4503,5.4743
16.5099,5.3041
16.5250,5.1699
16.5250,5.1699
16.5250,4.4801
16.5250,4.4801
19.7250,4.4801
19.7250,5.1699
19.7401,5.3041
19.7997,5.4743
19.8956,5.6269
20.0231,5.7544
20.1268,5.8196
21.1214,4.8250
21.1214,4.8250
21.8286,4.8250
21.8286,4.8250
22.8232,5.8196
22.9269,5.7544
22.9269,5.7544
23.0544,5.6269
23.1503,5.4743
23.2099,5.3041
23.2250,5.1699
23.2250,5.1699
23.2250,4.4801
23.2250,4.4801
23.2099,4.3459
23.1503,4.1757
23.0544,4.0231
22.9269,3.8956
22.8232,3.8304
21.8286,4.8250
21.1214,4.8250
20.1268,3.8304
20.0231,3.8956
19.8956,4.0231
19.7997,4.1757
19.7401,4.3459
19.7250,4.4801
16.5250,4.4801
16.5099,4.3459
16.4503,4.1757
16.3544,4.0231
16.2269,3.8956
16.1232,3.8304
14.8627,5.0909
14.8014,5.1244
14.7317,5.1194
14.6873,5.0909
13.4268,3.8304
13.3231,3.8956
13.1956,4.0231
13.0997,4.1757
13.0401,4.3459
13.0250,4.4801
13.0250,5.1699
13.0269,5.1866
13.0148,5.2554
12.9675,5.3068
12.9037,5.3245
12.0495,5.3245
11.9825,5.3048
11.9367,5.2520
11.9255,5.2005
11.9255,4.8093
11.9255,4.8093
11.9226,4.7724
11.9226,4.7724
11.8767,4.6146
11.8767,4.6146
11.8767,4.6146
11.8767,4.6146
11.8756,4.6126
11.8751,4.6109
11.8736,4.6074
11.8742,4.6072
11.8584,4.5449
11.8738,4.4926
11.8732,4.4924
11.8752,4.4877
11.8756,4.4864
11.8763,4.4852
11.9221,4.3275
11.9223,4.3250
11.9223,4.3250
11.6568,4.3250
11.5937,4.3077
11.5354,4.2733
11.5354,4.2733
11.3776,4.2274
11.3776,4.2274
11.3407,4.2245
11.3407,4.2245
10.6365,4.2245
10.5695,4.2048
10.5237,4.1520
10.5125,4.1005
10.5125,3.3430
10.4762,3.3067
10.4783,3.3046
10.4487,3.2705
10.4403,3.2320
10.9375,3.2320
10.9738,3.2683
10.9717,3.2704
11.0013,3.3045
11.0125,3.3560
11.0125,3.8250
11.9223,3.8250
11.9223,3.8250
11.9221,3.8225
11.8763,3.6648
11.7936,3.5250
13.7786,3.5250
13.7786,3.5250
13.9258,3.5250
13.9929,3.5447
14.0386,3.5975
14.0486,3.6666
14.0404,3.6965
14.0286,3.7250
14.7750,4.4714
15.5214,3.7250
15.5096,3.6965
15.5022,3.6270
15.5334,3.5645
15.5621,3.5475
15.5714,3.5250
20.6786,3.5250
20.6859,3.5426
20.6929,3.5447
20.7386,3.5975
20.7486,3.6666
20.7404,3.6965
20.7286,3.7250
21.4750,4.4714
22.2214,3.7250
22.2096,3.6965
22.2022,3.6270
22.2334,3.5645
22.2935,3.5289
22.3242,3.5250
22.4714,3.5250
22.4714,3.5250
21.5750,2.6286
21.5750,2.6286
20.6786,3.5250
15.5714,3.5250
14.6750,2.6286
14.6750,2.6286
13.7786,3.5250
11.7936,3.5250
11.7927,3.5234
11.7927,3.5234
11.6766,3.4073
11.6766,3.4073
11.5352,3.3237
11.4957,3.3123
11.4369,3.2746
11.4077,3.2112
11.4174,3.1420
11.4427,3.1055
11.5298,3.0183
11.6219,2.8691
11.6219,2.8691
11.6770,2.7027
11.6770,2.7027
11.6875,2.6000
11.6875,2.6000
11.6875,2.3250
10.9375,2.3250
10.9375,3.2320
10.4403,3.2320
10.4375,3.2190
10.4375,1.8250
10.9375,1.8250
11.6875,1.8250
11.6875,1.8239
12.6750,1.8239
12.6750,2.7261
12.6779,2.7688
12.7238,2.9535
12.8084,3.1240
12.8084,3.1240
12.9276,3.2724
12.9276,3.2724
13.0760,3.3916
13.1621,3.4343
14.3214,2.2750
14.3214,2.2750
15.0286,2.2750
15.0286,2.2750
16.1879,3.4343
16.2740,3.3916
16.4224,3.2724
16.5416,3.1240
16.5416,3.1240
16.6262,2.9535
16.6721,2.7688
16.6750,2.7261
16.6750,1.8239
19.5750,1.8239
19.5750,2.7261
19.5779,2.7688
19.6238,2.9535
19.7084,3.1240
19.7084,3.1240
19.8276,3.2724
19.8276,3.2724
19.9760,3.3916
20.0621,3.4343
21.2214,2.2750
21.2214,2.2750
21.9286,2.2750
21.9286,2.2750
23.0879,3.4343
23.1740,3.3916
23.3224,3.2724
23.4416,3.1240
23.4416,3.1240
23.5262,2.9535
23.5721,2.7688
23.5750,2.7261
23.5750,1.8239
23.5721,1.7812
23.5262,1.5965
23.4416,1.4260
23.4416,1.4260
23.3224,1.2776
23.3224,1.2776
23.1740,1.1584
23.0879,1.1157
21.9286,2.2750
21.2214,2.2750
20.0621,1.1157
19.9760,1.1584
19.8276,1.2776
19.8276,1.2776
19.7084,1.4260
19.7084,1.4260
19.6238,1.5965
19.5779,1.7812
19.5750,1.8239
16.6750,1.8239
16.6721,1.7812
16.6262,1.5965
16.5416,1.4260
16.5416,1.4260
16.4224,1.2776
16.4224,1.2776
16.2740,1.1584
16.1879,1.1157
15.0286,2.2750
14.3214,2.2750
13.1621,1.1157
13.0760,1.1584
12.9276,1.2776
12.9276,1.2776
12.8084,1.4260
12.8084,1.4260
12.7238,1.5965
12.6779,1.7812
12.6750,1.8239
11.6875,1.8239
11.6875,1.5500
11.6875,1.5500
11.6770,1.4473
11.6219,1.2809
11.6219,1.2809
11.5298,1.1317
11.4232,1.0250
13.7786,1.0250
14.6750,1.9214
15.5714,1.0250
20.6786,1.0250
21.5750,1.9214
22.4714,1.0250
20.6786,1.0250
15.5714,1.0250
13.7786,1.0250
11.4232,1.0250
11.4058,1.0077
11.2566,0.9156
11.2566,0.9156
11.0902,0.8605
11.0902,0.8605
10.9875,0.8500
10.9375,0.8500
10.9375,1.8250
10.4375,1.8250
10.4375,0.8500
10.4375,0.8500
10.3875,0.8500
10.3875,0.8500
10.2848,0.8605
10.1184,0.9156
10.1184,0.9156
9.9692,1.0077
9.8452,1.1317
9.8452,1.1317
9.8433,1.1347
9.8415,1.1363
9.8407,1.1373
9.8405,1.1372
9.7914,1.1814
9.7224,1.1926
9.6583,1.1648
9.6323,1.1347
9.6322,1.1346
9.6302,1.1313
9.5062,1.0073
9.3568,0.9152
9.1903,0.8600
9.1903,0.8600
9.0875,0.8495
8.4875,0.8495
8.4875,0.8495
8.3847,0.8600
8.3847,0.8600
8.2182,0.9152
8.2182,0.9152
8.0688,1.0073
7.9448,1.1313
7.8527,1.2807
7.8527,1.2807
7.8332,1.3395
7.7934,1.3969
7.7289,1.4238
7.7155,1.4245
7.0109,1.4245
6.8853,1.4495
6.8853,1.4495
6.7669,1.4985
6.6603,1.5697
5.0197,3.2103
5.0197,3.2103
4.9595,3.3005
4.9595,3.3005
4.9485,3.3169
4.8995,3.4353
4.8995,3.4353
4.8745,3.5609
4.8745,5.7658
4.8548,5.8328
4.8020,5.8786
4.7874,5.8842
4.6354,5.9315
4.4898,6.0195
4.3695,6.1398
4.2815,6.2854
4.2309,6.4478
4.2258,6.5043
4.2245,6.5184
4.2245,7.0316
4.2264,7.0528
4.2309,7.1022
4.2815,7.2646
4.3246,7.3358
4.3424,7.4034
4.3246,7.4641
4.2815,7.5354
4.2801,7.5386
4.2547,7.5754
3.8697,7.9603
3.8697,7.9603
3.8247,8.0277
3.8247,8.0277
3.7985,8.0669
3.7985,8.0669
3.7495,8.1853
3.7495,8.1853
3.7245,8.3109
3.7245,10.1505
3.7048,10.2175
3.6520,10.2633
3.6005,10.2745
1.3250,10.2745
1.2222,10.2850
1.2222,10.2850
1.0557,10.3402
1.0557,10.3402
0.9063,10.4323
0.9063,10.4323
0.8367,10.5020
0.7754,10.5354
0.7057,10.5305
0.6497,10.4886
0.6253,10.4231
0.6250,10.4143
0.6250,5.6357
0.6447,5.5687
0.6975,5.5229
0.7666,5.5130
0.8302,5.5420
0.8367,5.5480
0.9063,5.6177
0.9063,5.6177
1.0557,5.7098
1.0557,5.7098
1.0557,5.7098
1.2222,5.7650
1.3250,5.7755
1.3250,5.7755
3.9250,5.7755
3.9250,5.7755
4.0278,5.7650
4.1943,5.7098
4.3437,5.6177
4.4677,5.4937
4.5598,5.3443
4.6150,5.1778
4.6255,5.0750
4.6255,3.3750
4.6150,3.2722
4.5598,3.1057
4.5597,3.1055
4.4677,2.9563
4.4677,2.9563
4.3437,2.8323
4.3437,2.8323
4.1943,2.7402
4.1943,2.7402
4.0812,2.7027
4.0278,2.6850
4.0278,2.6850
3.9250,2.6745
3.9250,2.6745
1.3250,2.6745
1.3250,2.6745
1.2222,2.6850
1.2222,2.6850
1.0557,2.7402
1.0557,2.7402
0.9063,2.8323
0.9063,2.8323
0.8367,2.9020
0.7754,2.9354
0.7057,2.9305
0.6497,2.8886
0.6253,2.8231
0.6250,2.8143
0.6250,0.1490
0.6447,0.0820
0.6975,0.0362
0.7490,0.0250
25.7510,0.0250
Z" /> 
<path style="fill:#000000; fill-opacity:1.0000; stroke:none;fill-rule:evenodd;"
d="M 7.2498,8.1227
7.2986,8.1559
7.3028,8.1605
7.3028,8.1605
7.4474,8.2656
7.6107,8.3383
7.7856,8.3755
7.7856,8.3755
7.8630,8.3755
7.9300,8.3952
7.9758,8.4480
7.9870,8.4995
7.9870,8.8728
7.9673,8.9398
7.9145,8.9856
7.8976,8.9919
7.7896,9.0233
7.7896,9.0233
7.6481,9.1069
7.6481,9.1069
7.5319,9.2231
7.5319,9.2231
7.4483,9.3646
7.4483,9.3646
7.4024,9.5224
7.4024,9.5224
7.3995,9.5593
7.3995,9.9907
7.4025,10.0286
7.3881,10.0970
7.3665,10.1260
6.8697,10.6228
6.8697,10.6228
6.8443,10.6609
6.8443,10.6609
6.7985,10.7294
6.7495,10.8478
6.7495,10.8478
6.7245,10.9734
6.7245,11.2427
6.7048,11.3097
6.6520,11.3555
6.5829,11.3654
6.5193,11.3364
6.5128,11.3304
5.5691,10.3867
5.5356,10.3254
5.5406,10.2557
5.5825,10.1997
5.6480,10.1753
5.6568,10.1750
6.1816,10.1750
6.2521,10.1686
6.2521,10.1686
6.4144,10.1180
6.5599,10.0301
6.6801,9.9099
6.7680,9.7644
6.8186,9.6021
6.8250,9.5316
6.8250,9.5250
5.3990,9.5250
5.3320,9.5053
5.2862,9.4525
5.2750,9.4010
5.2750,9.1490
5.2947,9.0820
5.3475,9.0362
5.3990,9.0250
6.8250,9.0250
6.8250,9.0184
6.8186,8.9479
6.8186,8.9479
6.7680,8.7856
6.7251,8.7146
6.7073,8.6471
6.7251,8.5863
6.7685,8.5146
6.7685,8.5146
6.7699,8.5114
6.7953,8.4746
7.1188,8.1512
7.1801,8.1177
Z" /> 
<path style="fill:#000000; fill-opacity:1.0000; stroke:none;fill-rule:evenodd;"
d="M 13.1310,6.6452
13.1767,6.6980
13.1867,6.7671
13.1689,6.8155
13.0997,6.9257
13.0401,7.0959
13.0250,7.2301
13.0250,7.9199
13.0401,8.0541
13.0997,8.2243
13.1843,8.3590
13.2033,8.4263
13.1843,8.4910
13.0997,8.6257
13.0401,8.7959
13.0250,8.9301
13.0250,9.6199
13.0401,9.7541
13.0945,9.9095
13.0981,9.9793
13.0633,10.0400
13.0013,10.0722
12.9775,10.0745
11.5655,10.0745
11.5024,10.0572
11.3604,9.9733
11.3604,9.9733
11.2026,9.9274
11.2026,9.9274
11.1657,9.9245
11.1657,9.9245
9.9995,9.9245
9.9325,9.9048
9.8867,9.8520
9.8755,9.8005
9.8755,9.5593
9.8755,9.5593
9.8726,9.5224
9.8726,9.5224
9.8267,9.3646
9.8267,9.3646
9.8267,9.3646
9.7431,9.2231
9.7431,9.2231
9.7431,9.2231
9.6269,9.1069
9.6269,9.1069
9.4854,9.0233
9.4854,9.0233
9.3832,8.9936
9.3244,8.9560
9.2951,8.8925
9.3049,8.8233
9.3505,8.7704
9.4175,8.7505
9.4178,8.7505
9.5566,8.7505
9.5566,8.7505
9.6272,8.7441
9.7896,8.6935
9.9352,8.6055
9.9543,8.5863
10.0373,8.5033
10.0986,8.4699
10.1683,8.4748
10.2127,8.5033
10.3148,8.6055
10.3148,8.6055
10.3148,8.6055
10.4604,8.6935
10.6228,8.7441
10.6934,8.7505
10.6934,8.7505
11.2066,8.7505
11.2066,8.7505
11.2772,8.7441
11.4396,8.6935
11.5852,8.6055
11.7055,8.4852
11.7935,8.3396
11.8441,8.1772
11.8505,8.1066
11.8505,7.4434
11.8441,7.3728
11.7935,7.2104
11.7055,7.0648
11.7055,7.0648
11.7055,7.0648
11.6368,6.9962
11.6033,6.9348
11.6005,6.9085
11.6005,6.7590
11.6202,6.6919
11.6614,6.6522
11.6769,6.6431
11.6769,6.6431
11.6774,6.6428
11.7405,6.6255
13.0639,6.6255
Z" /> 
</g>
<g style="fill:#FFFFFF; fill-opacity:1.0000; stroke:none;">
<circle cx="4.3750" cy="15.5250" r="0.1500" /> 
</g>
<g style="fill:#FFFFFF; fill-opacity:1.0000; stroke:none;">
<circle cx="12.1250" cy="9.5250" r="0.1500" /> 
</g>
<g style="fill:#FFFFFF; fill-opacity:1.0000; stroke:none;">
<circle cx="12.1250" cy="12.5250" r="0.1500" /> 
</g>
<g style="fill:#FFFFFF; fill-opacity:1.0000; stroke:none;">
<circle cx="7.3750" cy="8.7750" r="0.1500" /> 
</g>
<g style="fill:#FFFFFF; fill-opacity:1.0000; stroke:none;">
<circle cx="24.6250" cy="1.5250" r="0.1500" /> 
</g>
<g style="fill:#FFFFFF; fill-opacity:1.0000; stroke:none;">
<circle cx="3.1250" cy="1.5250" r="0.1500" /> 
</g>
<g style="fill:#FFFFFF; fill-opacity:1.0000; stroke:none;">
<circle cx="24.6250" cy="15.7750" r="0.1500" /> 
</g>
<g style="fill:#FFFFFF; fill-opacity:1.0000; stroke:none;">
<circle cx="7.8750" cy="7.5250" r="0.1500" /> 
</g> 
</svg>
